<svg id="cheongsong" xmlns="http://www.w3.org/2000/svg" width="160" height="66.767" viewBox="0 0 160 66.767">
  <g id="그룹_24" data-name="그룹 24" transform="translate(0 24.161)">
    <path id="패스_1" data-name="패스 1" d="M131.073,345.469l.815-3.18a26.881,26.881,0,0,0,5.668.726c1.631,0,3.762-.257,3.948-2.294.2-2.259-3.2-2.614-5.66-3.395-2.664-.845-4.749-2.486-4.877-5.156a5.209,5.209,0,0,1,2.077-4.637c1.546-1.2,4.18-1.539,6.175-1.458a20.171,20.171,0,0,1,5.859,1l-.987,3a24.457,24.457,0,0,0-5.174-.755c-2.117-.06-3.778.567-3.973,1.986s.852,2.259,3.228,2.856c3.82.96,7.279,2.335,7.279,6.211,0,4.37-3.092,6.082-8.056,6.082A25.632,25.632,0,0,1,131.073,345.469Z" transform="translate(-112.057 -309.067)" fill="#2f51a2"/>
    <path id="패스_2" data-name="패스 2" d="M89.722,294.2l-.429-2.176a9.186,9.186,0,0,1-4.837.113c-1.717-.518-1.981-2.456-1.981-4.7,0-1.955.317-3.341,1.53-4.048,1.176-.686,3.483-.65,5.337.052l.479-2.212c-1.935-.621-5.172-.935-7.248.132-1.767.908-2.757,2.962-2.757,6.131,0,2.885.482,5.392,2.752,6.557C84.79,295.183,87.871,294.717,89.722,294.2Z" transform="translate(-79.816 -280.439)" fill="#2f51a2"/>
    <g id="그룹_21" data-name="그룹 21" transform="translate(22.265 3.815)">
      <path id="패스_3" data-name="패스 3" d="M142.656,296.394h6.382a8.743,8.743,0,0,0-.5-4.061c-.73-1.536-2.235-1.939-3.734-1.939h-.293a4.033,4.033,0,0,0-3.636,1.857,6.056,6.056,0,0,0-.818,3.45v.164a4.622,4.622,0,0,0,2.6,4.541,8.849,8.849,0,0,0,6.091-.231l-.413-1.816a6.246,6.246,0,0,1-4.515.276,2.079,2.079,0,0,1-1.169-2.1Zm2.11-4.115c1.067,0,1.882.771,1.882,2.212h-3.96A2,2,0,0,1,144.766,292.279Z" transform="translate(-140.06 -290.394)" fill="#2f51a2"/>
    </g>
    <path id="패스_4" data-name="패스 4" d="M207.059,294.352V300.7h-2.294v-6.136a2.035,2.035,0,0,0-.864-2c-1.01-.536-3.291.17-3.291.17v7.951H198.2V291.2c4.467-1.276,6.863-.875,7.9.061A3.865,3.865,0,0,1,207.059,294.352Z" transform="translate(-154.447 -286.58)" fill="#2f51a2"/>
    <path id="패스_5" data-name="패스 5" d="M111.334,294.177h2.411v-7.8s2.036-.909,3.291-.369c.8.343.864,1.244.864,2v6.186h2.295v-6.4a4.058,4.058,0,0,0-.959-3.088c-.89-.887-2.472-1.2-5.491-.355v-4.279h-2.414Z" transform="translate(-99.684 -280.072)" fill="#2f51a2"/>
    <g id="그룹_22" data-name="그룹 22" transform="translate(54.194 3.808)">
      <path id="패스_6" data-name="패스 6" d="M226.692,303.849a14.03,14.03,0,0,0,3.744.537c2.027,0,4.81-.537,4.81-3.72V291.2a8.354,8.354,0,0,0-6.4-.334c-1.907.842-2.388,2.486-2.388,4.487,0,2.9.812,4.127,1.794,4.763a4.583,4.583,0,0,0,4.557-.078v.57c0,.928-.9,2.565-5.7,1.325Zm2.182-8.5a3.342,3.342,0,0,1,.519-2.359,2.36,2.36,0,0,1,1.626-.622,3.964,3.964,0,0,1,1.8.266v5.336a2.576,2.576,0,0,1-3.228.193A4.017,4.017,0,0,1,228.874,295.351Z" transform="translate(-226.455 -290.375)" fill="#2f51a2"/>
    </g>
    <path id="패스_7" data-name="패스 7" d="M178.034,295.5c0-2.258-.515-3.426-1.2-4.057a4.524,4.524,0,0,0-3.4-1.073h-.1a4.529,4.529,0,0,0-3.4,1.073c-.68.631-1.2,1.8-1.2,4.057v.185c0,2.258.516,3.426,1.2,4.058a4.529,4.529,0,0,0,3.4,1.073h.1a4.524,4.524,0,0,0,3.4-1.073c.682-.632,1.2-1.8,1.2-4.058Zm-2.4.114c0,1.769-.32,2.371-.606,2.688a2.623,2.623,0,0,1-3.282,0c-.287-.317-.606-.919-.606-2.688v-.043c0-1.768.319-2.37.606-2.688a2.624,2.624,0,0,1,3.282,0c.286.317.606.92.606,2.688Z" transform="translate(-135.878 -286.563)" fill="#2f51a2"/>
    <path id="패스_8" data-name="패스 8" d="M231.242,345.877v9.254H227.9v-8.947c0-1.1-.144-2.321-1.261-2.913-1.472-.781-4.8.248-4.8.248v11.593h-3.515V341.286c6.511-1.859,10.006-1.275,11.52.089C230.993,342.41,231.242,343.928,231.242,345.877Z" transform="translate(-167.135 -317.92)" fill="#2f51a2"/>
    <g id="그룹_23" data-name="그룹 23" transform="translate(66.414 22.178)">
      <path id="패스_9" data-name="패스 9" d="M259.865,359.725a20.448,20.448,0,0,0,5.458.782c2.954,0,7.013-.782,7.013-5.423v-13.8a12.175,12.175,0,0,0-9.334-.488c-2.78,1.227-3.483,3.624-3.483,6.542,0,4.223,1.183,6.017,2.616,6.944a6.684,6.684,0,0,0,6.644-.114v.831c0,1.354-1.317,3.739-8.3,1.932Zm3.181-12.39c0-1.533.058-2.74.757-3.439a3.443,3.443,0,0,1,2.371-.907,5.769,5.769,0,0,1,2.617.388v7.779a3.756,3.756,0,0,1-4.705.282C263.339,350.764,263.046,349.229,263.046,347.335Z" transform="translate(-259.519 -340.08)" fill="#2f51a2"/>
    </g>
    <path id="패스_10" data-name="패스 10" d="M188.922,347.552c0-3.293-.75-5-1.744-5.916s-2.316-1.564-4.956-1.564h-.143c-2.64,0-3.964.643-4.957,1.564s-1.744,2.623-1.744,5.916v.27c0,3.292.751,5,1.744,5.916s2.317,1.564,4.957,1.564h.143c2.64,0,3.964-.643,4.956-1.564s1.744-2.624,1.744-5.916Zm-3.5.166c0,2.579-.465,3.457-.884,3.92a3.826,3.826,0,0,1-4.785,0c-.418-.463-.884-1.341-.884-3.92v-.063c0-2.578.466-3.457.884-3.919a3.826,3.826,0,0,1,4.785,0c.419.463.884,1.341.884,3.919Z" transform="translate(-140.061 -317.897)" fill="#2f51a2"/>
  </g>
  <rect id="사각형_33" data-name="사각형 33" width="89.838" height="9.164" transform="translate(70.16 29.098)" fill="#2f51a2"/>
  <rect id="사각형_34" data-name="사각형 34" width="89.838" height="8.809" transform="translate(70.16 19.533)" fill="#709e1a"/>
  <rect id="사각형_35" data-name="사각형 35" width="89.838" height="8.786" transform="translate(70.16 9.99)" fill="#cf8c00"/>
  <rect id="사각형_36" data-name="사각형 36" width="89.838" height="9.229" transform="translate(70.16 0)" fill="#e06a00"/>
  <rect id="사각형_37" data-name="사각형 37" width="89.84" height="0.756" transform="translate(70.16 28.344)" fill="#fff"/>
  <rect id="사각형_38" data-name="사각형 38" width="89.84" height="0.757" transform="translate(70.16 18.775)" fill="#fff"/>
  <rect id="사각형_39" data-name="사각형 39" width="89.84" height="0.756" transform="translate(70.16 9.233)" fill="#fff"/>
  <path id="패스_11" data-name="패스 11" d="M292.088,236.807a2.239,2.239,0,1,1-2.238-2.239A2.239,2.239,0,0,1,292.088,236.807Z" transform="translate(-210.815 -227.224)" fill="#fff"/>
  <path id="패스_12" data-name="패스 12" d="M333.482,284.617a4.54,4.54,0,1,1-4.54-4.54A4.538,4.538,0,0,1,333.482,284.617Z" transform="translate(-234.009 -255.914)" fill="#fff"/>
  <path id="패스_13" data-name="패스 13" d="M365.817,261.482a2.887,2.887,0,1,1-2.888-2.888A2.888,2.888,0,0,1,365.817,261.482Z" transform="translate(-256.478 -242.37)" fill="#fff"/>
  <path id="패스_14" data-name="패스 14" d="M440.233,234.451a3.557,3.557,0,1,1-3.557-3.558A3.558,3.558,0,0,1,440.233,234.451Z" transform="translate(-302.547 -224.907)" fill="#fff"/>
  <path id="패스_15" data-name="패스 15" d="M472.629,286.956a3.41,3.41,0,0,0-3.16-3.652,3.479,3.479,0,0,0-.628,6.93c.108.01.217.014.325.014-.25,1.322-.933,1.948-2.263,2.916C466.9,293.163,472.647,292.265,472.629,286.956Z" transform="translate(-323.072 -257.939)" fill="#fff"/>
  <g id="그룹_25" data-name="그룹 25" transform="translate(83.014 45.823)">
    <path id="패스_16" data-name="패스 16" d="M311.075,338.822v3.305h1.1v.952h-1.1v4.433h-.943v-8.69Zm-3.344,3.378a4.271,4.271,0,0,0,.36,1.045,3.9,3.9,0,0,0,.651.958,4.421,4.421,0,0,0,.933.763q-.184.165-.369.364l-.33.355a4.3,4.3,0,0,1-.506-.408,5.749,5.749,0,0,1-.506-.535,6.317,6.317,0,0,1-.5-.69,3.746,3.746,0,0,1-.35-.709,3.6,3.6,0,0,1-.306.719,6.345,6.345,0,0,1-.442.69,6.167,6.167,0,0,1-.564.651,5.836,5.836,0,0,1-.554.5q-.155-.155-.359-.335c-.136-.119-.288-.241-.457-.364a5.124,5.124,0,0,0,.938-.778,4.381,4.381,0,0,0,.694-.972,4.459,4.459,0,0,0,.408-1.133,6.233,6.233,0,0,0,.136-1.346v-.71H305.02v-.894h4.238v.894h-1.643v.758A5.762,5.762,0,0,0,307.731,342.2Z" transform="translate(-304.436 -338.771)" fill="#2f51a2"/>
    <path id="패스_17" data-name="패스 17" d="M332.312,345.235v-2.567h-1.683a2.109,2.109,0,0,1-.719.681,2,2,0,0,1-2.508-.433,2.567,2.567,0,0,1,0-3.281,2.009,2.009,0,0,1,2.444-.462,2.142,2.142,0,0,1,.705.608h1.76v-.913h.933v6.367Zm0-4.539H330.97a2.187,2.187,0,0,1,.044.287q.015.161.015.3a2.071,2.071,0,0,1-.015.243c-.01.084-.021.162-.034.233h1.332Zm-4.234,1.585a1.055,1.055,0,0,0,1.7,0,1.692,1.692,0,0,0,.3-1,1.667,1.667,0,0,0-.3-1,1.061,1.061,0,0,0-1.7,0,1.653,1.653,0,0,0-.306,1A1.676,1.676,0,0,0,328.078,342.28Zm-.141,5.1v-2.926h.963v2.012h4.54v.913Z" transform="translate(-318.541 -338.8)" fill="#2f51a2"/>
    <path id="패스_18" data-name="패스 18" d="M348.84,341.271a1.209,1.209,0,0,1-.762-1.089,1.241,1.241,0,0,1,.762-1.07,5.429,5.429,0,0,1,4.224,0,1.24,1.24,0,0,1,.758,1.07,1.2,1.2,0,0,1-.758,1.093,5.83,5.83,0,0,1-4.224,0Zm.783-.545a3.68,3.68,0,0,0,1.332.194,3.742,3.742,0,0,0,1.317-.19q.491-.19.491-.52,0-.359-.5-.564a4.337,4.337,0,0,0-2.629,0q-.5.2-.5.544T349.623,340.727Zm-2.313,2.314v-.846h7.3v.846Zm.914,4.326V345.11h4.394v-.632h-4.394v-.826h5.463v2.226H349.3v.671h4.549v.816Z" transform="translate(-331.465 -338.685)" fill="#2f51a2"/>
    <path id="패스_19" data-name="패스 19" d="M368.495,347.07v-.914h3.189V343.97h-2.3v-4.326h.943v3.412h4.763v.913h-2.45v2.187h3.179v.914Z" transform="translate(-344.82 -339.29)" fill="#2f51a2"/>
    <path id="패스_20" data-name="패스 20" d="M396.555,347.549v-4.7h-.807v4.287h-.913v-8.127h.913v2.79h.807v-2.935h.885v8.681Zm-2.012-2.255c-.169.025-.43.063-.783.112a10.012,10.012,0,0,1-1.22.082l-1.352.01v-3.519h1.944v-1.72h-1.944v-.914h2.868v3.529h-1.944v1.711l.8-.009c.278-.006.578-.027.9-.059a6.223,6.223,0,0,0,.734-.107Z" transform="translate(-359.127 -338.8)" fill="#2f51a2"/>
    <path id="패스_21" data-name="패스 21" d="M417.686,338.868v3.489h1.088v.981h-1.088v4.21h-.924v-8.681Zm-5.181,1.02v-.875h2.43v.875Zm-1.089,1.488v-.914H416v.914Zm.812,1.1a1.941,1.941,0,0,1,1.512-.628,1.907,1.907,0,0,1,1.478.632,2.11,2.11,0,0,1,.573,1.459,2.177,2.177,0,0,1-.573,1.458,1.878,1.878,0,0,1-1.487.662,1.922,1.922,0,0,1-1.492-.637,2.136,2.136,0,0,1-.578-1.482A2.1,2.1,0,0,1,412.227,342.48Zm.7,2.318a1.122,1.122,0,0,0,1.608,0,1.241,1.241,0,0,0,.3-.846,1.276,1.276,0,0,0-.291-.846,1.1,1.1,0,0,0-1.614,0,1.274,1.274,0,0,0-.292.846A1.252,1.252,0,0,0,412.922,344.8Z" transform="translate(-371.878 -338.8)" fill="#2f51a2"/>
    <path id="패스_22" data-name="패스 22" d="M439.363,342.834v4.715h-.953v-8.681h.953v3h1.069v.962Zm-1.322,2.323c-.109.019-.465.076-1.064.17a11.826,11.826,0,0,1-1.832.141H433.56v-6.056h3.607v.9h-2.674v4.229h1.03a10.51,10.51,0,0,0,1.541-.131q.87-.131.976-.161Z" transform="translate(-385.839 -338.8)" fill="#2f51a2"/>
    <path id="패스_23" data-name="패스 23" d="M454.165,360.194a.816.816,0,0,0,.471-.33.95.95,0,0,0,.142-.554h-.671v-1.264h1.244v1.108a1.9,1.9,0,0,1-.287,1.074,1.221,1.221,0,0,1-.9.52Z" transform="translate(-398.792 -350.891)" fill="#2f51a2"/>
    <path id="패스_24" data-name="패스 24" d="M466.061,344.184v-2.05h-1.215v-.866h1.215v-2.508H467v5.423Zm-4.52-4.636v-.816h2.382v.816Zm.66,5.128a4.835,4.835,0,0,1,4.165,0,1.4,1.4,0,0,1,0,2.44,4.838,4.838,0,0,1-4.165,0,1.385,1.385,0,0,1,0-2.44Zm.788,1.876a3.27,3.27,0,0,0,1.3.219,3.174,3.174,0,0,0,1.278-.219.7.7,0,0,0,.491-.646.707.707,0,0,0-.487-.652,3.109,3.109,0,0,0-1.283-.224,3.212,3.212,0,0,0-1.3.224.709.709,0,0,0-.5.652A.7.7,0,0,0,462.989,346.551Zm.948-4.3a3.347,3.347,0,0,0,1.229.7c-.091.123-.185.249-.282.378s-.188.253-.272.37a3.477,3.477,0,0,1-1.036-.612,4.173,4.173,0,0,1-.83-.924,3.333,3.333,0,0,1-.827,1.089,4.584,4.584,0,0,1-1.118.758q-.126-.165-.311-.379a5.163,5.163,0,0,0-.359-.379,3.883,3.883,0,0,0,1.341-.832,2.2,2.2,0,0,0,.729-1.434h-1.526v-.856h4.073v.856H463.2A2.041,2.041,0,0,0,463.938,342.25Z" transform="translate(-402.59 -338.714)" fill="#2f51a2"/>
    <path id="패스_25" data-name="패스 25" d="M485.851,339.974a2.567,2.567,0,0,0,.671.637,4.382,4.382,0,0,0,.933.481,5.427,5.427,0,0,0,.933.267q-.137.185-.316.409c-.12.149-.212.269-.278.36q-.291-.078-.675-.214a5.465,5.465,0,0,1-.764-.341,5.122,5.122,0,0,1-.749-.51,2.205,2.205,0,0,1-.544-.636,2.374,2.374,0,0,1-.506.612,4.061,4.061,0,0,1-.67.477,5.907,5.907,0,0,1-.783.369,5.663,5.663,0,0,1-.792.243q-.107-.156-.267-.364c-.107-.139-.212-.274-.316-.4a7.79,7.79,0,0,0,1.05-.306,3.952,3.952,0,0,0,.914-.471,2.155,2.155,0,0,0,.617-.617,1.447,1.447,0,0,0,.229-.8v-.34h1.049v.34A1.356,1.356,0,0,0,485.851,339.974Zm-4.443,3.9v-.914h3.16v-1.157h.981v1.157h3.16v.914Zm1.449,3.325a1.347,1.347,0,0,1-.73-1.167,1.33,1.33,0,0,1,.73-1.152,5.5,5.5,0,0,1,4.369,0,1.328,1.328,0,0,1,.744,1.152,1.345,1.345,0,0,1-.744,1.167,5.452,5.452,0,0,1-4.369,0Zm.851-.568a4.41,4.41,0,0,0,2.682,0c.335-.139.5-.336.5-.588s-.166-.466-.5-.6a3.608,3.608,0,0,0-1.336-.2,3.675,3.675,0,0,0-1.346.2q-.492.2-.491.6T483.708,346.633Z" transform="translate(-416.003 -338.771)" fill="#2f51a2"/>
  </g>
</svg>
