<svg id="chilgok" xmlns="http://www.w3.org/2000/svg" xmlns:xlink="http://www.w3.org/1999/xlink" width="160" height="58.965" viewBox="0 0 160 58.965">
  <defs>
    <radialGradient id="radial-gradient" cx="185.117" cy="269.336" r="31.791" gradientTransform="translate(0.359 -3.547) scale(0.985 0.934)" gradientUnits="userSpaceOnUse">
      <stop offset="0.2" stop-color="#33a437"/>
      <stop offset="1" stop-color="#bfce18"/>
    </radialGradient>
    <radialGradient id="radial-gradient-2" cx="53.346" cy="58.348" r="41.863" gradientTransform="translate(-34.323 -78.956) scale(0.725 0.725)" gradientUnits="userSpaceOnUse">
      <stop offset="0.25" stop-color="#00509c"/>
      <stop offset="1" stop-color="#0097e0"/>
    </radialGradient>
    <radialGradient id="radial-gradient-3" cx="985" cy="1315.841" r="15.16" gradientTransform="translate(-704.805 -952.607) scale(1.971 1.97)" gradientUnits="userSpaceOnUse">
      <stop offset="0.4" stop-color="#33a437"/>
      <stop offset="1" stop-color="#bfce18"/>
    </radialGradient>
    <radialGradient id="radial-gradient-4" cx="-56.91" cy="-112.719" r="59.914" gradientTransform="translate(-112.111 -198.326) scale(0.504 0.504)" gradientUnits="userSpaceOnUse">
      <stop offset="0.4" stop-color="#0079c7"/>
      <stop offset="1" stop-color="#00aef0"/>
    </radialGradient>
    <radialGradient id="radial-gradient-5" cx="295.718" cy="374.359" r="13.245" gradientTransform="translate(-3.866 -5.641) scale(1.072 1.071)" gradientUnits="userSpaceOnUse">
      <stop offset="0.4" stop-color="#f16112"/>
      <stop offset="1" stop-color="#ff9d00"/>
    </radialGradient>
  </defs>
  <g id="그룹_1" data-name="그룹 1" transform="translate(0 0)">
    <path id="패스_1" data-name="패스 1" d="M170.986,329a134.658,134.658,0,0,1,18.608-1.368.767.767,0,0,1,.724.392.827.827,0,0,1-.115.854,198.359,198.359,0,0,1-18.794,24.166c-7.928-6.187-12.1-18.2-10.5-28.481,2.679-.561,5.894-.9,5.894-.9C166.6,324.785,165.284,329.887,170.986,329Z" transform="translate(-160.571 -305.028)" fill="url(#radial-gradient)"/>
    <path id="패스_2" data-name="패스 2" d="M209.945,345.765a.893.893,0,0,0-.731-.465.815.815,0,0,0-.643.365,151.493,151.493,0,0,1-16.354,18.551c-3.575,3.406-6.7,2.332-9.244.849-.938,1.11-2.009,2.348-3.063,3.536,4.568,3.358,12.5,6,20.032,6.052,7.46.046,15.858-2.94,20.444-7.906A125.483,125.483,0,0,0,209.945,345.765Z" transform="translate(-170.098 -315.687)" fill="url(#radial-gradient-2)"/>
    <path id="패스_3" data-name="패스 3" d="M256.539,359.666c.467,1.16.936,2.334,1.383,3.486a29.871,29.871,0,0,0,7.121-24.781,59.34,59.34,0,0,0-13.6-4.362.654.654,0,0,0-.747.309.784.784,0,0,0,.086.789,61.908,61.908,0,0,1,7.648,17.919C259.145,356.048,257.669,358.219,256.539,359.666Z" transform="translate(-204.937 -310.116)" fill="url(#radial-gradient-3)"/>
    <path id="패스_4" data-name="패스 4" d="M203.276,301.978l-.1-.075c-2.6-1.46-2.712-5.548-2.677-6.826.168-5.819,5.025-4.59,5.858-4.533-.137-1.751-.342-2.949-.342-2.949-14.62-3.037-27.849,4.763-31.708,15.491a93.232,93.232,0,0,1,29-.89Z" transform="translate(-167.336 -286.934)" fill="url(#radial-gradient-4)"/>
    <path id="패스_5" data-name="패스 5" d="M262.709,318.342a27.9,27.9,0,0,0-20.693-23.194,1.622,1.622,0,0,1,.89,1.187c.16.772,1.972,9.826-1.839,10.5l.009.253a59.577,59.577,0,0,1,14.972,5.189c2.885,1.547,3.106,2.393,3.753,4.844Z" transform="translate(-200.227 -290.98)" fill="url(#radial-gradient-5)"/>
    <path id="패스_6" data-name="패스 6" d="M226.461,318.552a59.342,59.342,0,0,0-13.6-4.362.654.654,0,0,0-.747.309.784.784,0,0,0,.086.789,61.906,61.906,0,0,1,7.648,17.919c.711,3.022-.765,5.193-1.9,6.64-.641.817-1.314,1.509-1.314,1.509a125.481,125.481,0,0,0-10.44-20.981.893.893,0,0,0-.731-.465.815.815,0,0,0-.643.365,151.493,151.493,0,0,1-16.354,18.55c-3.575,3.406-6.7,2.332-9.244.849a18.957,18.957,0,0,1-2.036-1.36,198.359,198.359,0,0,0,18.794-24.166.827.827,0,0,0,.115-.854.767.767,0,0,0-.725-.392,134.655,134.655,0,0,0-18.608,1.368c-5.7.887-4.387-4.215-4.183-5.338a18.068,18.068,0,0,1,.735-2.481,93.232,93.232,0,0,1,29-.89l-.031-.218-.1-.075c-2.6-1.46-2.712-5.548-2.677-6.825.168-5.819,5.025-4.59,5.858-4.533.909.1,2.772.557,2.772.557a1.622,1.622,0,0,1,.89,1.187c.16.772,1.972,9.826-1.839,10.5l.009.253a59.578,59.578,0,0,1,14.972,5.189c2.885,1.547,3.106,2.393,3.753,4.844C226.281,317.737,226.461,318.552,226.461,318.552Z" transform="translate(-166.356 -290.298)" fill="#fff"/>
  </g>
  <g id="그룹_3" data-name="그룹 3" transform="translate(73.816 15.075)">
    <g id="그룹_2" data-name="그룹 2">
      <path id="패스_7" data-name="패스 7" d="M439.171,339.053h-4.319v-5.976h-12.19v-2.484h19.319v-7.248a1.607,1.607,0,0,0-1.628-1.583H425.97V319.27h16.552a3.79,3.79,0,0,1,3.83,3.744v7.579h3.336v2.484H439.171v5.976Z" transform="translate(-363.505 -317.939)" fill="#00509c"/>
      <path id="패스_8" data-name="패스 8" d="M335.781,362.472H318.895a3.652,3.652,0,0,1-3.692-3.6v-3.335h16.333v-1.976H315.2V351.17h20.578v6.719h-16.37v.66a1.554,1.554,0,0,0,1.571,1.533h14.8v2.391Z" transform="translate(-310.566 -333.654)" fill="#00509c"/>
      <path id="패스_9" data-name="패스 9" d="M387.7,330.593V323.01a3.79,3.79,0,0,0-3.834-3.74H367.31v2.493h14.384a1.6,1.6,0,0,1,1.629,1.583v7.248h-5.844v-5h-4.806a7.165,7.165,0,0,1,.821,2.715v2.29h-9.456v2.487h27.279v-2.487Zm-4.04,4.87H367.238v2.5h14.246a1.606,1.606,0,0,1,1.633,1.588v7.211h4.371v-7.545A3.8,3.8,0,0,0,383.656,335.463Z" transform="translate(-334.625 -317.939)" fill="#00509c"/>
      <path id="패스_10" data-name="패스 10" d="M350.718,332.467h-4.263l0-11.255a8.167,8.167,0,0,0-.966-3.186h5.231Z" transform="translate(-325.485 -317.326)" fill="#00509c"/>
      <path id="패스_11" data-name="패스 11" d="M317.138,321.944H323.4V319.6h-6.322v-2.953H312.1a3.656,3.656,0,0,1,.719,1.891V319.6H306.6v2.345h6.039a8.824,8.824,0,0,1-6.576,7.2v2.507a12.134,12.134,0,0,0,8.846-5.387,12.575,12.575,0,0,0,8.805,4.879v-2.522C320.269,327.788,317.452,325.085,317.138,321.944Z" transform="translate(-306.063 -316.646)" fill="#00509c"/>
    </g>
    <path id="패스_12" data-name="패스 12" d="M435.479,360.1a1.613,1.613,0,0,1-1.632-1.589v-7.1H429.7v0h-.966a8.148,8.148,0,0,1,.966,3.185v4.252a3.8,3.8,0,0,0,3.835,3.745h16.886V360.1Z" transform="translate(-366.495 -333.77)" fill="#00509c"/>
  </g>
</svg>
