<svg xmlns="http://www.w3.org/2000/svg" width="90" height="87.859" viewBox="0 0 90 87.859">
  <g id="cng" transform="translate(-1307.912 -11.109)" opacity="0.9">
    <g id="그룹_2" data-name="그룹 2" transform="translate(1307.912 11.109)">
      <path id="패스_14" data-name="패스 14" d="M1371.185,135.07v-.3c-.448-.067-.873-.136-1.3-.205a2,2,0,0,0-.674-.067c-.1-.092-.023-.275-.023-.275-.176-.182-.674.137-.775.046-.073-.091,0-.3,0-.3-.1,0-.174,0-.349-.183.424-.024.848-.045,1.346-.067.874.043,1.8.09,2.745.227a3.284,3.284,0,0,1,.946.024c.351,0,.775-.048,1.2-.069.1.2.248.183.523.273,0,0,.148-.114.25-.023l-.325.411c-1.022.069-2.043.114-3.068.183,0,0,.124.662-.223.3-.1-.091.05-.3-.026-.3-.173.023-.15.205-.249.318Z" transform="translate(-1337.894 -72.222)" fill="#dc000c" fill-rule="evenodd"/>
      <path id="패스_15" data-name="패스 15" d="M1388.346,88.982a1.551,1.551,0,0,1,.674-.25,9.424,9.424,0,0,1,1-.548c.1,0,.175-.091.273,0,.077,0,0,.273.249.273,0-.09.05-.775.225-.592a.324.324,0,0,0,.024.3c.177.159.324-.322.4-.435a5.41,5.41,0,0,1,.749-.706,2.308,2.308,0,0,1,.846-.159h.25c0-.115,0-.206.073-.206.152-.3.351-.022.351.273-.074,0-.074.092-.074.208-.251.2-.5.407-.724.613-.773.046.076-.114-.35.3-.147.114-.174-.366-.324.023-.1.023,0,.2,0,.3-.149.113-.524-.16-.224.41a4.152,4.152,0,0,1,.673-.342l.5-.022c0-.092,0-.206.073-.206.25-.387.35.068.525.365a1.675,1.675,0,0,0-.372.683l.022.593a.5.5,0,0,1,.323.07c.273.363-.5.317-.572.523-.152.114-.052.3-.225.3-.524.046.073-.3-.348.024a1.72,1.72,0,0,0-.576.524c-.424.023-.272-.185-.374-.457a2.341,2.341,0,0,1,.849-.548,8.71,8.71,0,0,0-1.472-.113c-.151.205-.323.411-.474.615-.673.045.075-.092-.248.317l-.5.024c-.1,0,0,.184,0,.3-.323.295-.249-.185-.351-.185-.17-.089-.247.207-.223.3a1.765,1.765,0,0,0-.5.434c-.249,0-.35.114-.5.114a1.6,1.6,0,0,0-.5.41c-.1.021-.176.021-.25.113a1.493,1.493,0,0,0-.573.525,1.048,1.048,0,0,0-.824.821c.6-.046,1.272-.069,1.971-.114a3.258,3.258,0,0,0-.574.615,7.773,7.773,0,0,1-.772.32,9.145,9.145,0,0,1-.725.639c-.348.023-.523-.161-.6.228a2.823,2.823,0,0,0-.924.16c-.5.2-.923.431-1.347.637a.235.235,0,0,0-.148.206c-.426.023-.847.069-1.2.069a2.825,2.825,0,0,0-.9.546,2.32,2.32,0,0,0-.848.136,7.654,7.654,0,0,1,.623-1.185l.748-.343a2.864,2.864,0,0,1,.249-.3,1.742,1.742,0,0,1,.747-.135c.077-.389.249-.207.6-.228.325-.229.648-.434,1-.639a2.2,2.2,0,0,1,.748-.159c.323-.3.749-.412.524.273-.324.114-.673.228-1,.342a2.122,2.122,0,0,0-.674.524c-.175,0-.323.022-.5.022-.746.343-1.52.685-2.268,1a3.875,3.875,0,0,0-1.021-.113c-.252.089-.4.409-.575.319-.251.115-.523.227-.773.318-.076.116-.15.2-.224.319-.352.024-.6.024-.848.048,0,.386-.251.295-.5.319-.251.114-.523.227-.773.341-.423-.274-.423-.183-.575.32-.074,0,.076-.205.076-.205l-.324.227c-.524.114-.449-.272-.6.321-.424.021-.85.044-1.174.068a3.915,3.915,0,0,0-1.193.273c-.3.592-.678-.068-1,.251-.524.022-.95.046-1.372.068-.248.115-.5.228-.747.34a3.387,3.387,0,0,0-.871-.136,4.362,4.362,0,0,0-1.173.25c-1.374.184-2.644.344-3.916.527-.4.021-.823.043-1.248.067-.774-.046-1.546-.091-2.295-.137-.2-.3-.273-.273-.374-.479-.7-.136-1.3-.2-1.895-.273-.6-.045-1.2-.114-1.8-.182a16.551,16.551,0,0,0-1.969-.25,5.535,5.535,0,0,0-1.2-.046c-.1-.092-.174-.184-.272-.273a8.656,8.656,0,0,0-1.547,0,8.121,8.121,0,0,0-.873-.344c-.275-.455,0,0-.326-.159-.349-.181.051-.3.051-.3,0-.091-.176-.182-.176-.091-.149.023-.149.207-.149.409-.251-.09-.524-.18-.7-.249-.149,0-.324.024-.425-.092l-.174-.365c-.274-.181-.449-.16-.523.136a6.3,6.3,0,0,0-.948-.34l-.2-.367c-.075,0-.075.093-.051.183l-.523.046c-.1-.091-.026-.3-.026-.3-.174-.183-.323-.067-.423-.067-.249-.092-.524-.159-.774-.25-.1-.091-.175-.184-.275-.275-.248-.068-.524-.16-.772-.249-.274-.274-.524-.434-.723-.617-.25-.09-.5-.158-.775-.251-.024-.57-.1-.273-.348-.273-.349.023-.1-.184-.273-.273-.075-.091-.25.024-.25.024-.1-.092-.026-.3-.026-.3-.173-.272-.324.024-.424-.068-.349-.365.424-.319-.275-.275-.249-.272-.448-.545-.622-.728.349-.022.423-.022.4-.41a7.482,7.482,0,0,1-.722-.844c-.624-.821-1.274-1.663-1.8-2.392l-.523.022c-.175-.068-.35-.364-.449-.364-.2-.934-.424-1.895-.649-2.851-.025-.684-.05-1.346-.075-1.937.225-.388.126-.958.275-1.459-.025-.3.15-.387.224-.593a6.693,6.693,0,0,1,.6-1.869,11.546,11.546,0,0,1,1.67-2.415c0-.092,0-.184.075-.208a10.871,10.871,0,0,1,.973-1.026l.748-.615c.424-.023,0-.206.4-.41a1.711,1.711,0,0,1,.572-.524c.524-.024-.074-.274.5-.32a2.826,2.826,0,0,1,.575-.8c.249-.206.5-.411.823-.639.249.092.524.274.872.433a4.284,4.284,0,0,1,.9-.822c.1.185.922-.637.922-.637.4-.317.848.047,1.347-.182a10.976,10.976,0,0,1,1.845-.867c.35.16.076-.2.326-.319.248-.205.173.092.424.068.348-.023,0-.183.249-.3,0-.09.172-.022.249-.022.25-.114.5-.227.748-.319.523-.046-.1-.3.5-.319.75-.342,1.5-.684,2.269-1.027.324,0,.425.183.4-.205a4.19,4.19,0,0,1,1.1-.456c.674-.046,1.372-.069,2.119-.114a7.086,7.086,0,0,1,1.6-.478,16.177,16.177,0,0,1,2.293-.342c2.02-.114,4.165-.252,6.284-.366a1.249,1.249,0,0,1,.275.366l2.293-.138a13.144,13.144,0,0,1,1.721.274c.1.206.273.386.249,0,.274.068.524.16.774.228.273,0,.7-.137.722.363a3.289,3.289,0,0,1,.923.024c.2.387.424-.114.774.252.2.182-.074.205.274.273.1,0,.249-.2.424-.114l.2.364c.174,0,.225-.388.5.068.274.183.549.456.9.731l1.047.5.724.934c.549.548.349.068.8.821a15.994,15.994,0,0,1,.851,1.687c-.076,0-.076.092-.076.2a7.049,7.049,0,0,1,.324,1.414,1.445,1.445,0,0,0-.123.684,1.952,1.952,0,0,0-.05.8c-.151.39-.5.685-.549,1.094-.075.3-.151.571-.225.868-.074.021-.249-.07-.249.021-.1,0,0,.184,0,.3-.073,0-.25-.091-.25,0-.175.023-.425.23-.249.32a.718.718,0,0,1,.275-.114,7,7,0,0,0-.725,1c-.522.023-.173.3-.5.615-.075,0-.25-.09-.25,0-.324.41.45.273-.248.319-.151.2-.324.411-.474.594-.6.044,0,.295-.5.318-.173.206-.324.411-.5.617-.252.113-.5.228-.749.343a3.738,3.738,0,0,0-.9.728,2.464,2.464,0,0,0-.822.525,1.764,1.764,0,0,0-.676.227,2.337,2.337,0,0,1-.025-.364,3.135,3.135,0,0,0-.648.8,15.273,15.273,0,0,0-1.77.593l-.747.343c-.325,0-.524-.184-.574.227-.6.024-1.2.07-1.722.091-1.52.091-3.043.185-4.588.276-.473.022-.9.044-1.32.088a2.091,2.091,0,0,0-.8-.159c0-.479-.249-.273-.523-.251-.174-.184-.349-.365-.524-.546a.585.585,0,0,0-.423.113,3.87,3.87,0,0,0-.026,1.072c-.771.045-1.471.091-2.142.114-.1-.183-.176-.271-.176-.364a6.38,6.38,0,0,0-.772.046A2.646,2.646,0,0,1,1355.3,86c-.2-.182-.374-.365-.374-.455-.275-.571-.226-1.14-.424-1.62-.077-.181-.276-.364-.276-.569a3.652,3.652,0,0,1,.326-2.142c-.076.022-.249-.068-.249.022-.25.114-.151.5-.351.114a5.374,5.374,0,0,1,.7-1.777,1.975,1.975,0,0,1,1.4-1.05.36.36,0,0,1,.6-.226.34.34,0,0,1,.074.181c-.3.411-.273-.456-.224.318-.249.389-.474.8-.723,1.187a2.083,2.083,0,0,0,.347-.024,1.72,1.72,0,0,1,.574-.5c.25-.115.5-.229.749-.342.748-.524,1.471-1.526,2.493-1.6.25-.114.6.069.923.044.026.388.2.456-.125.479-.274.115-.524.228-.773.343-.25.206-.475.409-.723.617-.424.044-.524-.162-.5.317l-.748.343c-.175.206-.323.411-.5.615-.074,0-.248-.091-.248,0-.25.114-.076.3.1.3l.326-.206c1-.455,2.02-.911,3.016-1.345.325-.113.675-.229,1-.342.773-.046,1.6-.113,2.443-.16.025.481.1.389.548.366l.749-.343a3.1,3.1,0,0,1,1.023.047c-.05-.776.1.182.324-.23a1.908,1.908,0,0,1,.848-.227c0-.115.074-.205.15-.205-.251-.275-.525-.456-.7-.64l-1.022.068.273.276s-.075.181,0,.273c.175.182.749-.433.873.135a4.268,4.268,0,0,0,.024.5c.326-.023.675-.045,1.1-.068a8.262,8.262,0,0,0-1.049,1.321,1.889,1.889,0,0,0-.748.229c-.249.5-.45.023-.7.046l-.323.2c-.075,0-.274-.069-.249.022-.1,0,0,.183,0,.275a18.33,18.33,0,0,0-2.22-.047,5.118,5.118,0,0,0-1.1-.409.354.354,0,0,0-.324.2c-.349.023-.6.023-.873.046l-.149.388c-.175.022-.351-.161-.425-.067-.423.022-.048.5-.4.318a3.5,3.5,0,0,0-.922.73c-.25.114-.5.229-.748.342.026.569-.248-.092-.224.593a6.046,6.046,0,0,1,.947.319,3.769,3.769,0,0,1,1.023.046,31.662,31.662,0,0,1,3.317,0,12.005,12.005,0,0,1,1.771-.5c.423-.114.824-.251,1.347-.366a2.282,2.282,0,0,1,.848-.159,1.614,1.614,0,0,1,.673-.228c-.025-.479.075-.3.5-.319a2.832,2.832,0,0,1,.922-.433c.575-.228,1.172-.455,1.746-.684a2.282,2.282,0,0,1,.848-.25c.424.16.15-.206.324-.3,0-.113.076-.022.175.071h.249a1.472,1.472,0,0,1,.574-.434c.1,0,.273.183.45.067-.027-.089-.1-.273-.027-.273l.525-.045c.324-.389-.45-.251.222-.3a2.594,2.594,0,0,1,.849-.525c.472-.523,1.322-.865,1.521-1.731a2.471,2.471,0,0,1,.049-.775c-.622-.548-1.145-1.095-1.694-1.551-.775-.34-1.472-.683-2.169-.934l-2.294.137a11.18,11.18,0,0,0-1.372-.41c-.35.022-.7.045-.948.068a6.454,6.454,0,0,1,1.3.593c-.573.045-1.171.069-1.7.091-.7-.137-1.3-.3-1.895-.457-1.1.07-2.122.116-3.117.185a15.358,15.358,0,0,0-2.046.317c-.6.138-1.1.252-1.6.39a5.093,5.093,0,0,0-1.421.57c-.6.023-1.123.066-1.622.091-.35.113-.673.226-1.023.342a23.823,23.823,0,0,0-2.344.91,1.317,1.317,0,0,0-.572.434c-.425.2-.825.432-1.248.636-.424.23-.823.457-1.247.663-.1,0-.075.205-.075.205-.1,0-.1-.184-.1-.184-.451-.272-.326.206-.326.5-.251.091-.5.205-.748.32-.1-.092-.175-.182-.175-.068-.323.112.1.182-.151.3-.172,0-.349-.092-.423.113-.1,0-.075.2-.075.3-.1,0-.175-.184-.175-.092-.249.023-.5.526-.647.616-.1,0-.1-.181-.1-.181-.25-.092-.25.295-.25.409a1.24,1.24,0,0,0-.572.411c-.249.2-.5.411-.723.615-1.148,1.049.149-.3-.748.912-.724.82-1.722,1.549-1.821,2.734-.524.023-.075.091-.424.41a2.829,2.829,0,0,0-.175,1.459c.15,1.62,1.747,2.783,2.893,3.695.2.365.349-.116.374.454a8.488,8.488,0,0,0,.874.249c.249.161.523.344.872.617.1.274.349-.022.523.252,0,0-.075.2,0,.3a2.744,2.744,0,0,1,.274-.024,5.786,5.786,0,0,1,.872.343c.076.181.251.181.525.251,0,0,.149-.091.25,0,0,0-.077.182,0,.273l.523-.023c.525.159,1.023.32,1.645.571a1.763,1.763,0,0,0,.275.57c.348.182.749-.434.8.341,2.969-.182,6.035-.364,9.1-.547a4.533,4.533,0,0,1,.024-1.162c.6-.023,1.173-.071,1.847-.114,3.066-.182,6.209-.365,9.375-.548a5.237,5.237,0,0,1,1.247-.455,3.943,3.943,0,0,1,1.024-.159c.149-.5.6-.047.846-.252.324-.41-.448-.25.224-.3.276-.114.526-.23.774-.343l2.02-.41c.349-.023.675-.046,1.1-.067.151-.479.6-.023.85-.229,0-.112-.1-.294,0-.294.072-.205.6.068.747-.046,0-.092-.1-.274,0-.3.073-.184.6.069.772-.046-.026-.091-.1-.273-.026-.273l.525-.046c.5-.2,1-.434,1.5-.661l1.022-.07a7.9,7.9,0,0,1,.822-.614c.15-.5.351-.024.574-.228,0-.114-.077-.3,0-.3l.5-.023c.322-.41-.426-.274.248-.322a2.774,2.774,0,0,1,.922-.432,2.851,2.851,0,0,0-.574.8c-.049.295-.124.59-.2.887a1.532,1.532,0,0,0-.572.524c.024.572-.274-.091-.223.593a4.476,4.476,0,0,1,1.17-.159Z" transform="translate(-1321.713 -39.218)" fill="#dc000c" fill-rule="evenodd"/>
      <path id="패스_16" data-name="패스 16" d="M1423.8,125.911c-.747.135-.623,1-1,.613l.173-.387a1.919,1.919,0,0,1,.823-.226Z" transform="translate(-1365.176 -68.326)" fill="#dc000c" fill-rule="evenodd"/>
      <path id="패스_17" data-name="패스 17" d="M1442.94,116.05c.252-.205.076-.3.5-.32a3.534,3.534,0,0,1,.921-.547c-.347.136-.671.251-1.02.364a1.1,1.1,0,0,0-.4.5Z" transform="translate(-1375.209 -62.98)" fill="#dc000c" fill-rule="evenodd"/>
      <path id="패스_18" data-name="패스 18" d="M1387.52,109.708c.6-.021,1.173-.068,1.771-.091a3.959,3.959,0,0,1,1-.455,2.407,2.407,0,0,1,.847-.251,1.44,1.44,0,0,0-.024-.364,2.356,2.356,0,0,0-.922.137c-.225.411,0-.273-.325.113q-1.684.1-3.217.2c.025.572.075.093-.249.3a.118.118,0,0,0-.075.206c.1.09.6-.228.773-.047,0,0-.075.183,0,.274.1.091.274,0,.424-.024Z" transform="translate(-1346.97 -59.672)" fill="#dc000c" fill-rule="evenodd"/>
      <path id="패스_19" data-name="패스 19" d="M1452.862,93.918c0-.09-.025-.181.074-.2a2.542,2.542,0,0,1,.824-.432,1.7,1.7,0,0,1,.573-.522c.25-.094.5-.208.749-.321a7.5,7.5,0,0,1,1.145-1.14l.751-.614c.248-.207.5-.41.749-.64a6.037,6.037,0,0,1,.623-.888,4.818,4.818,0,0,1,.671-.138c.349-.318-.024-.592.5-.614a9.749,9.749,0,0,1,1.271-2.007,2.853,2.853,0,0,0,.749-1.984c-.873,1.027-1.7,2.145-2.492,3.237-.424.138-.825.252-1.25.365a15.346,15.346,0,0,0-1.544,1.733c-.324.321-.648.616-1,.936-.15.2-.3.41-.474.614-.249.114-.5.205-.748.32-.325.319-.648.615-.971.933-.7.046.071-.091-.248.3-.1.024-.276-.068-.253.024-.1,0,0,.205,0,.3-.172.09-.349-.091-.424.113l-.149.387.524-.022c.076,0,.174.091.349.272Z" transform="translate(-1379.719 -47.643)" fill="#dc000c" fill-rule="evenodd"/>
      <path id="패스_20" data-name="패스 20" d="M1446.448,86.18c.05-.387.223-.591.672-.341a6.511,6.511,0,0,1,.8-.912c1.645-1.641,3.267-3.284,4.887-4.925.725-1.025,1.446-1.937,2.17-2.849.35.181,0,0,.177-.206,0-.091.073-.091.173-.091-.025-.092-.1-.3-.025-.3,0-.09.173,0,.25-.023a4.224,4.224,0,0,1,.3-1.071,7.414,7.414,0,0,1,.548-1.1,1.853,1.853,0,0,1,.049-.773c-.024-.3.152-.389.224-.594.2-1.184-.024-.477-.049-1.343-.023-.388.049-.594.025-.891-.425-.25-.1-.363-.1-.569-.1-.365-.474-.73-.722-.525-.275,1.278-.55,2.53-.749,3.81a11.3,11.3,0,0,0-.5,1.959c-1.047,1.5-2.095,3.032-3.043,4.627-.325.319-.649.615-.974.934a5.941,5.941,0,0,0-.724,1c-.572.523-1.146,1.14-1.721,1.755-.249.294-.474.591-.724.913-.6.021.026.272-.5.318-.249.3-.474.594-.722.911.1.09.175.182.274.273Z" transform="translate(-1376.821 -40.269)" fill="#dc000c" fill-rule="evenodd"/>
      <path id="패스_21" data-name="패스 21" d="M1338.936,86.5a27.763,27.763,0,0,1,1.747-2.53v-.274c.248-.205.5-.435.723-.638h.174c0-.092.076-.3.076-.206-.076,0-.225.5-.4.5-.175.023-.249-.159-.249-.067-.1,0,0,.182,0,.3a3.1,3.1,0,0,0-.9.524c-.425.5-.823,1.026-1.22,1.527.022.3.022.571.047.867Z" transform="translate(-1323.351 -46.852)" fill="#dc000c" fill-rule="evenodd"/>
      <path id="패스_22" data-name="패스 22" d="M1465.809,65.083a5.189,5.189,0,0,1-.473-1.14,4.583,4.583,0,0,1-.226-.752,2.552,2.552,0,0,1,1.024,1.779.378.378,0,0,0-.325.114Z" transform="translate(-1386.259 -37.066)" fill="#dc000c" fill-rule="evenodd"/>
      <path id="패스_23" data-name="패스 23" d="M1307.912,44.438c0-.389.074-.5.051-.8a11.464,11.464,0,0,0,1.746-1.253c.248-.114.5-.229.747-.342.15-.48.5-.114.474-.594.273-.113.523-.227.771-.341.152-.206.327-.411.474-.617.25-.112.5-.2.749-.318a5.4,5.4,0,0,1,.9-1.025,1.66,1.66,0,0,1,.674-.434c.249-.114.5-.206.747-.32.15-.2.324-.41.476-.614a2.693,2.693,0,0,1,.821-.525,7.553,7.553,0,0,1,1.147-1.14c.25-.2.5-.411.749-.615.25-.228.5-.433.748-.638.223-.206.473-.41.722-.616l.749-.615c.25-.228.5-.434.723-.639l.747-.615a1.514,1.514,0,0,1,.574-.435c.25-.114.5-.2.772-.319a2.48,2.48,0,0,1,.548-.82,17.223,17.223,0,0,1,2.146-1.482,1.439,1.439,0,0,1,.573-.411c.25-.113.524-.228.773-.342.323-.3.648-.614.973-.912q.373-.169.748-.343c.323-.318.649-.615.972-.933a3.081,3.081,0,0,1,.923-.435,4.486,4.486,0,0,1,.749-.729c.323-.3.647-.614.972-.934a20.219,20.219,0,0,1,1.8-1.732,1.487,1.487,0,0,1,.575-.434c.524-.022-.1-.272.5-.319a5.511,5.511,0,0,1,.8-1.095,4.981,4.981,0,0,1,.849-.638,1.131,1.131,0,0,1,.574-.41l.747-.343c.15-.2.324-.409.474-.615a3.057,3.057,0,0,1,.923-.433,1.727,1.727,0,0,1,.573-.525l.748-.341c-.025-.752.175,0,.5-.32,0-.092-.1-.273,0-.273l.5-.046c0-.092-.1-.274,0-.274l.5-.045c0-.092-.1-.275,0-.275l.5-.043c.325-.389-.448-.251.25-.3q.373-.173.748-.344c.15-.477.249-.113.5-.318.224-.388-.176-.275-.2-.365-.074-.092,0-.207,0-.3a6.069,6.069,0,0,1,.873-1.3c.249-.2.5-.41.823-.639.324-.3.647-.616.972-.911a2.518,2.518,0,0,1,.85-.161c.273-.022.7.069.847-.249l2.268-.137a9.986,9.986,0,0,1,1.122.319c.1.3.276.092.624.159.251,0,.1.3.424.365l.524-.021v.3a4.044,4.044,0,0,1,.974.318c.1.274.174.274.522.251.251.091.524.159.773.25.1.092.176.184.274.273.25.092.526.161.774.252.1.273.1.364.449.364.249.069.525.16.774.228.2.388.247,0,.523.273,0,0-.075.183.026.274,0,.092.348.092.423.068.172.183.349.364.522.547.277.091.524.182.8.251.673-.046-.1.113.223-.3,0-.093.175-.024.275-.024-.025-.09-.1-.273-.025-.3l.522-.024c.1.3.176.57.276.844.824,1.026,1.646,2.143,2.545,3.236.024.3.2.48-.125.776-.276-.069-.526-.161-.774-.228-1.2.067-2.4.136-3.49.2l.024.569.5-.022c.248-.022.1.273.449.364.248-.022.424-.227.6.161-.522-.161-1.02-.228-1.446-.32-.871.068-1.621.114-2.393.16-.248.388-.5.113-.748.32-.25.115-.074.2,0,.388.1.3.2.3.523.274.275.069.525.159.8.228.671-.024-.1-.091.249.272,0,0,.174-.09.275,0,.248-.021.073-.112.423-.227.25-.114.5-.228.749-.342,1.344-.069,2.792-.159,4.238-.251a12.066,12.066,0,0,1,1.846-.866c.524-.046-.1-.3.5-.319a2.8,2.8,0,0,1,.923-.456c.324-.113.672-.228,1-.342.349-.114.674-.227,1.023-.343a2.242,2.242,0,0,1,.749-.159,8.76,8.76,0,0,1,1.518-.273c2.048-.114,4.093-.252,6.211-.365a6.088,6.088,0,0,1,1.3.3,5.719,5.719,0,0,1,.972.341c.25.069.6.159.947.228a9.429,9.429,0,0,0,.8.523c.076,0,.6.16.7.365,0,0-.1.183,0,.274,0,0,.174-.091.25,0,0,0-.076.182.025.273,0,0,.147-.091.249,0,0,0-.074.183.025.273.348.367.224-.478.25.275.374.365.824.73,1.271,1.186.673-.046-.1-.093.249.273.276.274.748-.525.8.25a19.224,19.224,0,0,1,2.293.046,13.9,13.9,0,0,0,1,1.391c.249-.115.5-.206.774-.32.423-.024.649-.252.946.32a3.448,3.448,0,0,0-.921.728.647.647,0,0,0,.2.387c.349.366.224-.5.273.275a15.746,15.746,0,0,1,2.2-.344c.423-.022.849-.137,1.12.434a2.664,2.664,0,0,0-.9.433.385.385,0,0,0,.1.3,4.436,4.436,0,0,1,.95.319c.247-.023.5.068.5-.319.326-.024.673-.045,1.023-.068l.523.546a4.439,4.439,0,0,1,1.2.046c.272.07.1.274.521.251a5.893,5.893,0,0,0-.55.89,1.646,1.646,0,0,0-.595-.136c-.425.2-.4.5-.474.887-.525-.068-1.021-.135-1.546-.2a3.794,3.794,0,0,0-.85-.046c-.2-.364-.348-.159-.622-.159a3.667,3.667,0,0,0-.6-.433c-.273-.092-.523-.159-.8-.251-.4.227-.247-.092-.424-.16l-.52.022c-.353-.181.072-.387-.426-.363-.276-.069-.524-.161-.8-.228-.325,0-.5.114-.6-.16a1.683,1.683,0,0,1,.4-.706c-.1-.3-.2-.57-.3-.843-.249.2-.5.409-.75.614a7.752,7.752,0,0,0-1.444-.022c.026.386-.148.206-.251.022-.773-.045-1.545-.092-2.316-.159-.352-.069-.674-.138-1.025-.228a5.448,5.448,0,0,0-.97-.321,5.685,5.685,0,0,0-.949-.342,4.6,4.6,0,0,0-1.1-.023,9.953,9.953,0,0,0-1.57-.387,6.109,6.109,0,0,0-1.273-.114,9.622,9.622,0,0,0-.923.342l-.173-.182c-.349.3-.672.614-1,.934a1.566,1.566,0,0,0-.65.524c-.348,0-.674.022-.948.046-.324.114-.675.227-.924.342s-.5.228-.747.341c-.423.024-.6-.159-.575.321a4.553,4.553,0,0,0-.9,1.026,3.54,3.54,0,0,0-.549,1.093c0-.2-.1-.57-.2-.387-.075.021.025.206.025.294-.076,0-.177,0-.177.117-.073,0,.025.181.025.273a.99.99,0,0,1-.249.023c-.2-.275-.371-.572-.548-.845-.174-.09-.349.023-.449-.067-.348-.365.426-.32-.249-.275-.272.115-.522.229-.772.343-.148.206-.326.411-.473.593l-.749.342c-.4.5-.822,1.027-1.221,1.527a10.68,10.68,0,0,0,.5,1.322,4.037,4.037,0,0,0-1.022.161.909.909,0,0,0-.25.024c-.173,0-.275-.3-.275-.3l-1.022.067c-.1-.181-.175-.273-.175-.365-.525.025-.947.046-1.371.07l-.252.319c-.323.113-.421-.183-.4.41.1.183.274.365.448.638a.32.32,0,0,0-.25.114,1.3,1.3,0,0,0-1.8.114.244.244,0,0,0-.173-.091c-.326-.093-.675-.16-1.023-.228a1.788,1.788,0,0,0-.775-.045,7.893,7.893,0,0,0-1.12-.434c-.774.045.573-.616-.3-.546-.251-.275-.525-.457-.7-.64-.276-.091-.523-.159-.771-.252-.425.024-.278-.182-.526-.249-.347.024-.6.024-.871.046.1,0,.172,0,.348-.206.224-.411-.374-.478-.374-.478a.573.573,0,0,1-.1-.184c-.174-.092-.424.024-.424-.069-.076-.091,0-.3,0-.3l-.523.046c-.25-.091-.524-.16-.773-.251-.1-.183-.275-.364-.45-.364-.249.023-.149.2-.424.135-.348-.182.075-.41-.448-.365-.1-.3-.175-.569-.274-.866a9.939,9.939,0,0,1-.175-1.619,19.948,19.948,0,0,1,1.347-2.21c.074-.388.15-.775.2-1.187a.815.815,0,0,0-.05-1.14,1.434,1.434,0,0,0-.7-.341.741.741,0,0,1-.7-.638c-.424.022-.747.045-1.1.068-.248.2-.5.41-.722.614-.348.116-.672.229-1.022.343a4.849,4.849,0,0,1,.8.639,3.457,3.457,0,0,1,.872.135c-.174.3-.323.593-.474.913-.5.2-1,.434-1.521.66a1.583,1.583,0,0,1-.674-.045c-.1-.091-.348-.273-.1-.387.076-.114.672.159.5-.32-.1-.181-.624-.16-.7-.07-.175.025-.049.411-.049.5a3.7,3.7,0,0,0-1.173.455c0,.388.349.365.375.752l-.151.386c-.1,0,0,.184,0,.3-.075,0-.248-.091-.248,0-.174.024-.075.3-.249.32-.176-.091-.1-.388-.275-.273-.074,0-.074.09-.074.182a1.369,1.369,0,0,1-.674.135c-.249.206-.5.434-.724.64-.174.2-.325.41-.5.593a8.727,8.727,0,0,0-1.671.5,2.888,2.888,0,0,0-.125.956c-.174.024-.424.32-.5.344-.1,0-.2-.206-.175-.091-.275,0-.073.479-.324.5-.523.022.074-.3-.348.022a1.642,1.642,0,0,0-.574.5,3.161,3.161,0,0,0-.275-.274c-.15.206-.3.41-.473.616l-.748.341c-.672.023.075-.114-.25.3-.15.113-.349-.068-.423-.068-.251.024-.326.3-.4.411a7.987,7.987,0,0,0-1.6.569l-.174.024-.748.615c-.425.228-.825.433-1.249.661-.423.205-.823.432-1.247.638a5.329,5.329,0,0,0-1.171.457,4.388,4.388,0,0,0-1.1.57c-.4.206-.822.432-1.246.638-1,.365-1.92.8-2.843,1.231-.424.229-.823.434-1.247.66a15.312,15.312,0,0,0-2.095.89,21.18,21.18,0,0,0-2.344.912,4.957,4.957,0,0,0-1.171.751c-.223.5-.424-.159-.673.046-.075,0-.075.092-.075.182-.25.23-.6.047-.675.434a1.9,1.9,0,0,0-.672.227,5.147,5.147,0,0,0-1.073.548c-.274-.16-.35-.071-.5.137a1.516,1.516,0,0,0-.572.525,1.922,1.922,0,0,0-.848.226c-.175.024-.349-.067-.424.137-.075,0,0,.182.025.273-.175.114-.351-.067-.448-.067-.326.023-.075.113-.227.3-.174.022-.7-.138-.771.046-.325.409.448.272-.25.318-.675.229-1.347.457-2.021.708Z" transform="translate(-1307.912 -11.109)" fill="#008a32" fill-rule="evenodd"/>
      <path id="패스_24" data-name="패스 24" d="M1377.49,40.646v-.272c-.1-.092-.872.046-.448-.364.075-.206.772-.045.847.137a1.418,1.418,0,0,0-.4.5Z" transform="translate(-1342.303 -25.465)" fill="#228142" fill-rule="evenodd"/>
      <path id="패스_25" data-name="패스 25" d="M1404.066,24.048c0-.206.075-.387-.026-.387-.348-.274-.747.319-.773-.25a5.592,5.592,0,0,1,1-.73c.049-.387.226-.411.572-.227a6.675,6.675,0,0,0,.25,1.23c-.347.138-.674.251-1.022.365Z" transform="translate(-1355.436 -16.707)" fill="#228142" fill-rule="evenodd"/>
      <path id="패스_26" data-name="패스 26" d="M1410.691,23.77c-.174-.274-.026-.388-.026-.661l.75-.342c.348-.021.325-.113.448.366a.337.337,0,0,1,.077.182c-.077.114-.4.227-.4.41-.348.022-.6.045-.848.045Z" transform="translate(-1359.094 -16.909)" fill="#228142" fill-rule="evenodd"/>
    </g>
    <g id="그룹_3" data-name="그룹 3" transform="translate(1363.113 82.625)">
      <path id="패스_28" data-name="패스 28" d="M1429.469,155.671h-9.752s-.576-.027-.576-.471v-1.046s-.078-.471.59-.471h12.509s.968.289.968.759V159.7a.361.361,0,0,0,.367.285h.862s.366.106.366.367v1.177s0,.47-.418.47h-5.228a.351.351,0,0,0-.262.367v3.084s-.027.655-.288.655h-2.3a.507.507,0,0,1-.494-.5c0-.022,0-.049,0-.074V162.26s.081-.262-.5-.262h-6.771a.535.535,0,0,1-.525-.523v-.941s-.313-.524.525-.524h11.03a.366.366,0,0,0,.34-.366V156.01S1429.967,155.671,1429.469,155.671Z" transform="translate(-1417.961 -153.684)" fill="#001976" fill-rule="evenodd"/>
      <path id="패스_29" data-name="패스 29" d="M1420.846,178.041v-4.185a1.1,1.1,0,0,0-.575-.471s-.655-.314.13-.472h2.614a1.263,1.263,0,0,1,1.02,1.258v2.039s0,.6.367.6h10.141s.446.052.446.442v1s.053.472-.314.472H1421.76S1420.846,178.563,1420.846,178.041Z" transform="translate(-1418.985 -163.267)" fill="#001976" fill-rule="evenodd"/>
    </g>
    <g id="그룹_4" data-name="그룹 4" transform="translate(1323.641 81.734)">
      <path id="패스_30" data-name="패스 30" d="M1339.837,153.09h3.451s.314-.026.053-.365l-.341-.316s-.285-.208-.078-.443a.755.755,0,0,1,.574,0h1.858a1.586,1.586,0,0,1,.993.6v.288a.67.67,0,0,0,.47.21h3.347a.665.665,0,0,1,.418.6v1.2s-.025.314-.548.314h-1.255a.42.42,0,0,0-.394.523s.288,3.136,2.118,4.47c0,0,.34.5-.183.5h-2.851s-1.567-.732-2.09-5.23c0,0-.21-.445-.471,0,0,0-.262,3.974-2.614,5.23h-3.007s-.105-.184.182-.5a8.036,8.036,0,0,0,2.484-4.68s.052-.288-.5-.313h-1.518s-.339-.08-.339-.289V153.43S1339.576,153.09,1339.837,153.09Z" transform="translate(-1339.27 -151.907)" fill="#001976" fill-rule="evenodd"/>
      <path id="패스_31" data-name="패스 31" d="M1363.7,161.329v-7.609a.662.662,0,0,0-.653-.626s-.418-.211.235-.446h2.694a.755.755,0,0,1,.782.812v1.75s.028.288.288.288h1.936s.522.078.522.445v1.229s0,.367-.576.367h-1.907s-.288.023-.288.233v3.48s0,.521-.315.521h-2.247S1363.7,161.72,1363.7,161.329Z" transform="translate(-1351.054 -152.276)" fill="#001976" fill-rule="evenodd"/>
      <path id="패스_32" data-name="패스 32" d="M1350.832,170.318c-3.8,0-6.889,1.791-6.889,4s3.085,4,6.889,4,6.889-1.791,6.889-4S1354.639,170.318,1350.832,170.318Zm-.013,6.117c-1.906,0-3.451-.949-3.451-2.118s1.544-2.117,3.451-2.117,3.451.949,3.451,2.117S1352.726,176.435,1350.82,176.435Z" transform="translate(-1341.599 -161.083)" fill="#001976"/>
    </g>
    <g id="그룹_5" data-name="그룹 5" transform="translate(1344.256 81.841)">
      <path id="패스_33" data-name="패스 33" d="M1381.25,159.885v-6.143s-.236-.524-.444-.524c0,0-.969-.417-.027-.523h2.8s.758.34.758.811v4.966s-.053.183.1.183h8.42a.209.209,0,0,0,.234-.234v-.6a.33.33,0,0,0-.289-.21h-3.189s-.235.026-.235-.185V156.2s.053-.234.235-.234h3.294s.289-.21,0-.34h-3.241a.23.23,0,0,1-.235-.234v-1.256s.026-.288.235-.288h3.163s.21.106.21-.393v-.313s-.077-.339-.289-.339c0,0-.444,0-.444-.314a.358.358,0,0,1,.366-.366h2.171s1.411.182,1.411.994v8.1a.459.459,0,0,1-.47.392h-2.221s-.523-.077-.523-.416v-.5a.319.319,0,0,0-.289-.182h-10.613S1381.25,160.514,1381.25,159.885Z" transform="translate(-1380.367 -152.121)" fill="#001976" fill-rule="evenodd"/>
      <path id="패스_34" data-name="패스 34" d="M1391.465,170.1c-3.805,0-6.889,1.791-6.889,4s3.084,4,6.889,4,6.888-1.791,6.888-4S1395.27,170.1,1391.465,170.1Zm-.012,6.117c-1.908,0-3.453-.949-3.453-2.118s1.545-2.117,3.453-2.117,3.449.95,3.449,2.117S1393.36,176.22,1391.453,176.22Z" transform="translate(-1382.465 -161.083)" fill="#001976"/>
    </g>
  </g>
</svg>
