<svg xmlns="http://www.w3.org/2000/svg" width="160" height="65.038" viewBox="0 0 160 65.038">
  <g id="gimhae" transform="translate(-136.638 -354.672)">
    <g id="그룹_1" data-name="그룹 1" transform="translate(136.638 374.885)">
      <path id="패스_1" data-name="패스 1" d="M208.978,420.711l.077.057a7.586,7.586,0,0,0,1.623-.121l.062-.015.561.061a3.126,3.126,0,0,0,.692-.052v0c.463-.064,2.746-.084,4.841-.086.05-.866.069-1.735.045-2.607a38.379,38.379,0,0,1-5.492-.414,3.182,3.182,0,0,0-1.612.005l-.087.011h-.24a.743.743,0,0,0-.1.06l-.1.071H208.9c-.055.051-.131.126-.213.208a3.674,3.674,0,0,0,.016.448l.011.05-.024.425.032.137c.068.287.106.452.044.588-.092.352-.123.511-.133.58v.3A2.732,2.732,0,0,0,208.978,420.711Z" transform="translate(-173.654 -407.156)" fill="#ba0015"/>
      <path id="패스_2" data-name="패스 2" d="M189.2,418.878l.031.018h.153l.106.106a1.708,1.708,0,0,0,.177.15l.018.015h.05a2.574,2.574,0,0,1,.3.022l.116.035a3.243,3.243,0,0,0,.635.208,2.053,2.053,0,0,0,.428-.083,1.226,1.226,0,0,0,.276-.829,2.83,2.83,0,0,0-.142-.362l-.033-.067-.029-.556-.044-.144c-.042-.136-.082-.266-.116-.4l-.21-.094-.054-.137a1.419,1.419,0,0,0-.292-.163,1.506,1.506,0,0,0-.3.045,2.15,2.15,0,0,1-.308.217l-.086.051h-.321l-.339.321c-.016.037-.031.071-.045.1-.02.048-.038.088-.051.123l-.042.119-.187.117-.078.361-.1.07a2.176,2.176,0,0,0-.014.239,2.4,2.4,0,0,0,.257.362C189.053,418.792,189.137,418.84,189.2,418.878Z" transform="translate(-163.409 -406.727)" fill="#ba0015"/>
      <path id="패스_3" data-name="패스 3" d="M171.286,472.858a1.916,1.916,0,0,0-.109-.529l-.187-.163-.032-.062a1.053,1.053,0,0,0-.091-.152c-.035-.007-.079-.015-.134-.022l-.127-.017-.074-.078-.391.031-.127-.129-.022,0a4,4,0,0,1-.343.324l-.06.052-.131.036-.1.154-.115.509a2.669,2.669,0,0,0-.137.347c0,.014-.008.178.325.713l.036.057.047.244a3.166,3.166,0,0,0,.075.358,1.1,1.1,0,0,1,.617-.167h.214l.1.188a.726.726,0,0,0,.135.187c.143-.123.263-.242.357-.335l.019-.019c.007-.044.014-.095.021-.152l.017-.131.294-.27.019-.116a.6.6,0,0,0,.034-.2,1.957,1.957,0,0,0-.113-.543Z" transform="translate(-153.331 -435.075)" fill="#ba0015"/>
      <path id="패스_4" data-name="패스 4" d="M154.993,451.052h.057a3.584,3.584,0,0,0,.424-.107,1.51,1.51,0,0,1,.289-.208l.085-.051h.184l.1-.1.236-.052.2-.184c.1-.065.2-.179.2-.524a.784.784,0,0,0-.06-.053,1.44,1.44,0,0,1-.827-.5l-.2-.01c-.027.033-.069.084-.12.156l-.073.1-.129.036a2.253,2.253,0,0,1-.407.528l-.081.134q-.069.116-.124.206c.034.063.064.122.092.177s.056.11.082.155l.05.084v.1A.336.336,0,0,0,154.993,451.052Z" transform="translate(-145.948 -423.521)" fill="#ba0015"/>
      <path id="패스_5" data-name="패스 5" d="M177.734,433.387l-.586.057-.07-.023-.133-.047c-.068-.025-.156-.057-.274-.1-.062.009-.187.034-.309.06l-.275.049H173.8l-1.112.051a5,5,0,0,1-.959,0l-.148-.027-.083-.018a1.655,1.655,0,0,1-.924.058,2.024,2.024,0,0,0-.282.093,1.028,1.028,0,0,1-.577-.019c-.03.009-.1.027-.2.051l-.139.02-.627-.023-.106.013a.8.8,0,0,1-.414-.015c-.291.023-.692.072-1.226.152a.326.326,0,0,1-.091.012,1.342,1.342,0,0,1-.469-.136l-.056-.023c-.057-.008-.27-.03-1.015-.057l-.12.017-.081.086-.214-.065a2.58,2.58,0,0,0-.953-.172l-.036.008a1.768,1.768,0,0,1-.7,0l-.008,0-.579.052-.053-.011a2.246,2.246,0,0,0-1.017.024l-.115.029-.109-.044a1.427,1.427,0,0,0-.465-.052l-.055.022a2.824,2.824,0,0,1-.281.1l-.127.032-.118-.057-.038-.009-.348.038a4.282,4.282,0,0,1-.737.16l-.25.039-.122-.221c-.169-.307-.319-.628-.146-.9l.046-.071.072-.043a1.839,1.839,0,0,0,.234-.187l.042-.036a2.026,2.026,0,0,1,.728-1.048l.093-.064h.054l.313-.359.077-.033a3.094,3.094,0,0,1,.46-.165.833.833,0,0,1,.42-.006l.119.016.473,0,.145.086.546.045c.089-.016.17.051.255.105.021.013.044.03.066.041,0-.008.069-.019.2-.084.093-.038.151-.064.208-.089s.119-.052.185-.079l.094-.024a1.6,1.6,0,0,1,.788.069,2.535,2.535,0,0,1,.459.191,3.164,3.164,0,0,0,.663-.183l.412-.422a2.953,2.953,0,0,0,.353-.235l.163-.13.194.076a2.618,2.618,0,0,0,.512.106l.091-.125c.056-.077.1-.141.14-.2l.045-.074.137-.085.07-.559.2-.261a3.877,3.877,0,0,1,.309-.374l.072-.056.076-.265.113-.393v-.521h.163a3.006,3.006,0,0,0,.155-.473.222.222,0,0,0-.015-.091h-1.016a2.776,2.776,0,0,1-.671-.116l-.075-.009a2.27,2.27,0,0,0-.278-.033l-.05,0a.651.651,0,0,0-.359.028l-.068.029h-.469a1.077,1.077,0,0,1-.148.06.981.981,0,0,1-.82-.238.782.782,0,0,1-.331-.326,1.079,1.079,0,0,1-.107-.73l.06-.842a2.16,2.16,0,0,0,.078-.432,1.094,1.094,0,0,1-.121-.233l-.018-.113v-.341a1.544,1.544,0,0,0-.1-.34,1.614,1.614,0,0,1-.35-.84,2.357,2.357,0,0,1,.24-.787,2.838,2.838,0,0,0-.139-.483l-.074-.207.178-.2c.035-.046.087-.114.167-.21a1.62,1.62,0,0,1,1.052-.811l.064-.007.062.016a1.337,1.337,0,0,1,.4.179l.094.088a2.111,2.111,0,0,0,.327.3,1.839,1.839,0,0,0,.411-.337l.049-.049.064-.027c.119-.052.214-.1.294-.146l.183-.094h.086a2.016,2.016,0,0,1,.8.159.856.856,0,0,1,.158.077l.786.019a4.365,4.365,0,0,1,.576.232l.057.034.618-.019c.047-.022.083-.042.111-.059l.159-.068a2.774,2.774,0,0,1,.955.08,1.389,1.389,0,0,0,.593-.118l.122-.021a1.913,1.913,0,0,0,.373-.02,4.056,4.056,0,0,1,.861-.007c.528.088.769.226.843.464l.016.106-.023.478c.009.03.05.139.086.236l.006.017c.029.047.059.1.092.16l.106.2a1.735,1.735,0,0,1-.01.762l-.043.242-.241.048a2.117,2.117,0,0,1-.946-.136.537.537,0,0,0-.284.04l-.126.023a1.889,1.889,0,0,1-.556-.1h-.494a11.221,11.221,0,0,0-1.7.127,2.373,2.373,0,0,1-1.078-.075l-.905-.012a2.109,2.109,0,0,0-.9-.063,2.564,2.564,0,0,0-.363.463.741.741,0,0,1-.234.529,1.29,1.29,0,0,0,0,.5c.036.024.08.051.132.082l.6.086.273.273.068.031a4.025,4.025,0,0,0,.449.179l.383.034.093.094c.154.156.224.156.267.156a5.619,5.619,0,0,0,.591-.128,2.67,2.67,0,0,1,.538-.108.839.839,0,0,1,.335.049,1.28,1.28,0,0,0,.789.026l.053-.036c.025-.017.059-.039.1-.071l.113-.084.51.053.028-.021.058-.062.064-.015a.93.93,0,0,1,.749.12l.027.014.856.018.24.079c.134.042.245.078.334.115l.067.028.052.051a.965.965,0,0,1,.2.253l.037.075v.378a3.072,3.072,0,0,1,.291.6l.086.221-.559.554-.709-.335h-.021c-.037.005-.215.056-.321.086a1.841,1.841,0,0,1-.439.1.978.978,0,0,1-.5-.138c-.094-.035-.166-.066-.219-.087l-.042-.017a3.41,3.41,0,0,0-.864.2l-.073.023-.076-.008c-.237-.026-.453-.042-.656-.049l0,.006,0,.005.019.1.039.193a1.126,1.126,0,0,1,.039.686,1.529,1.529,0,0,0,.052.836l.016.057a2.588,2.588,0,0,1-.092,1.162c.016.115.026.259.035.437.031.024.067.05.109.078.093-.011.251-.037.346-.052.632-.1.785.044,1.087.52l.089.139a1.274,1.274,0,0,0,.247.3l.1.021.045.064h0a.615.615,0,0,0,.461-.208l.086-.086.12-.017a1.325,1.325,0,0,1,.551.1,2.171,2.171,0,0,0,.379.095c-.011,0,.056-.029.274-.183l.067-.037c.55-.236.7-.218,1.32.109a3.427,3.427,0,0,0,.547.251.989.989,0,0,0,.138-.059,4.54,4.54,0,0,1,.347-.507l.041-.052.057-.034a1.772,1.772,0,0,1,.635-.206c.014,0,.351-.012.825-.016-.343-1.865-.454-3.922-.548-4.451-.319-1.791-.706-2.942-.14-5.1a65.323,65.323,0,0,0,1.745-8.472c-2.19.035-4.443.044-4.486.044l-.092-.012a2.643,2.643,0,0,1-.337-.123l-.091-.039c-.062-.027-.108-.05-.147-.061l-.12.117-.553-.056c-.06.031-.119.058-.174.084l-.171.084-.3.021-.088.09h-.151a1.489,1.489,0,0,1-.377-.038,1.088,1.088,0,0,0-.838.152l-.028.065c.01.033.024.072.04.122l.021.064a.958.958,0,0,1,.053.647l-.027.08-.081.082c0,.051,0,.149.02.32a3.514,3.514,0,0,0,.183.658l.064.1-.01.106-.033.91-.162.119a2.871,2.871,0,0,0-.015.549l.009.3-.373.088a.893.893,0,0,1-.234.04h-.185l-.108-.151c-.054-.075-.266-.07-.388-.061l-.957.1-.122-.131a1.289,1.289,0,0,1-.208-.421l-.069-.211.116-.116c-.009-.025-.02-.063-.033-.1a1.271,1.271,0,0,1-.1-.635l.04-.1.121-.2c.05-.082.09-.145.116-.191v-.663l.073-.144-.138-1.774.1-.1a3.872,3.872,0,0,1-.111-.735l0-.049.009-.048a1.275,1.275,0,0,1,.22-.509l-.019-.337.022-.066c.026-.08.072-.217.139-.377v-.061l-.088-.023-.038-.231a3.166,3.166,0,0,1,.138-1.121,2.137,2.137,0,0,0-.082-.535l-.009-.082v-.378a.491.491,0,0,1,.053-.559l.045-.038a.429.429,0,0,0,.075-.062.814.814,0,0,1-.1-.23,1.362,1.362,0,0,1-.142-.665l.016-.079.048-.065c.02-.027.037-.053.052-.077-.055-.144-.13-.377-.24-.764l-.014-.1a.6.6,0,0,1,.033-.173,2.448,2.448,0,0,0,.139-.751c-.071-.213-.148-.415-.2-.541l-.026-.065v-.6a1.3,1.3,0,0,1-.079-.569.606.606,0,0,1-.165-.13.642.642,0,0,1-.147-.522l.024-.373h.361a1.951,1.951,0,0,0,.479-.042.705.705,0,0,1,.192-.152l.166-.088.138.071a1.014,1.014,0,0,0,.133,0l.073-.024.044-.015a3.2,3.2,0,0,1,.171-.312l.1-.175h.2a.706.706,0,0,1,.269.043.67.67,0,0,1,.5.451.732.732,0,0,1,0,.453,1.3,1.3,0,0,0-.062.173l.027.51a.671.671,0,0,1-.071.28c-.017.044-.038.094-.053.137l.022.182a1.382,1.382,0,0,1,.263.342l.181.315-.315.179a.21.21,0,0,0-.106.211.973.973,0,0,0,.041.222l.024.09-.029.116c.012.017.022.033.033.051l.139.022v.818a.763.763,0,0,0,.463.012,1.58,1.58,0,0,1,1.1-.063l.064.035a1.108,1.108,0,0,0,.165.087l.7-.07a2.068,2.068,0,0,1,.287.016c.11.01.26.023.457.037l.136.013c.48.022,2.379.042,3.8.056l.721.007c-.1-1.41.109-1.877-.949-3.069a17.953,17.953,0,0,0-5.4-3.933,10.315,10.315,0,0,0-7.125-1.3c-.873.1-3.216-.5-3.383.376-.755-1.085-4.775-.426-5.823,0-.173.069-.646.287-1.2.577-.008.541-.016,1.39-.023,2.125-.014,1.364-.021,2.111-.06,2.52l.093.195a2.724,2.724,0,0,1,.059.542,4.243,4.243,0,0,1-.132.933l-.015,1.139c-.033.11-.062.211-.087.3s-.056.2-.082.28v.592h-.078v.783l-.078.1v.311l-.024.016.024.055v.255l.178.193a.466.466,0,0,1,.433-.016l0,0,.363-.12.091.017c.433.079.749.143.937.181l.284.056.125.175.584.08.09.135a.5.5,0,0,0,.065.074h.187l.133.185h.16l.093.136.367.123v.567l-.107.106c-.061.061-.122.114-.179.163-.039.034-.077.066-.109.1l-.106.1h-.156l-.159.157h-.2l-.026.078h-.448l-.131.079h-.217c-.127.106-.28.115-.98.078l-.173-.01-.1-.141a.359.359,0,0,0-.194-.156,1.22,1.22,0,0,1-.213,0,1.323,1.323,0,0,0-.445.03c0,.006,0,.021.006.045l.026.179-.1.1v.008l.071.382a1.75,1.75,0,0,1,0,.6l-.032.1-.041.082v1.064l-.1.166a1.477,1.477,0,0,0,.085.579,1.949,1.949,0,0,1-.139.974l.1.981-.208.115c-.069.038-.126.071-.173.1a.774.774,0,0,1-.37.136.333.333,0,0,1-.192-.06l-.129-.065-.1.013h-1.176l-.085-.051a1.675,1.675,0,0,1-.475-.493l-.068-.094v-.116a.488.488,0,0,0-.035-.187l-.09-.079a5.5,5.5,0,0,1-.592-.928l-.043-.079v-.366a2.967,2.967,0,0,1-.079-.484v-.115l.067-.094c.088-.124.176-.236.249-.33l.059-.077.1-.333.194-.115a.567.567,0,0,0,.044-.151c.012-.05.035-.167-.141-.565l-.086-.057-.042-.1a1.015,1.015,0,0,1,.121-.828,3.7,3.7,0,0,1,.014-.625l.011-.111.07-.085a2.555,2.555,0,0,0,.177-.242,2.132,2.132,0,0,0-.164-.351c-.269-.542-.253-.759-.21-.89l.027-.083.062-.061a2.583,2.583,0,0,0,.367-.6c-.009-.045-.027-.124-.066-.253l-.015-.1.014-.886c.015-.053.028-.1.038-.142-.016-.017-.032-.035-.048-.051l-.059-.058-.028-.078a1.032,1.032,0,0,1,.093-.951c-.038-.076-.087-.172-.149-.285a2.337,2.337,0,0,1-.275-.72l-.02-.124.061-.11c.062-.111.118-.215.168-.309.058-.109.108-.2.151-.275l.056-.072.078-.078.006-.165c.015-.245.048-1.567.074-2.639.01-.423.019-.781.027-1.086a5.445,5.445,0,0,0-1.216-1.39c-.885-.488-2.671.229-3.55.287-1.033.069-6.082,1.033-6.636-.27-.3.6-1.014.247-1.576.586-.686.414-.554,1.008-.856,1.436a15.276,15.276,0,0,0-1.149,1.634c-.732,1.638,0,2.927.6,4.939a10.135,10.135,0,0,1,.418,5.012c-.085.884.082,2.863-.7,3.416,1.607.677.157,4.563-.344,6.153-.379,1.2-.289,4.731-.987,5.567.225.789,1.061,1.955-.039,2.551.481.032.693.1.768.206l4.882-.057c.054-.021.092-.034.12-.049l.089-.045.352.026.064-.031a1.341,1.341,0,0,1,.173-.075l.1-.034.1.025a.893.893,0,0,0,.1.016c.04.006.084.012.129.022l.605-.066.107.11.624-.051.09.088a1.633,1.633,0,0,0,.224.057l.058-.054a1.159,1.159,0,0,0-.057-.537l-.022-.126-.019-.507c-.047-.076-.081-.132-.1-.172a1.118,1.118,0,0,1,.048-.89l0-.015a4.183,4.183,0,0,1-.509-.326l-.15-.112-.235-.078-.063-.067c-.012-.014-.029-.034-.05-.06s-.042-.053-.075-.09a.744.744,0,0,1-.513-.446l-.219-.163-.036-.108a2.953,2.953,0,0,1-.073-.306l-.009-.012a1.037,1.037,0,0,0-.091-.117l-.049-.049-.028-.063a1.285,1.285,0,0,1,.071-.863v-.005l-.1-.1.068-.2c.024-.073.07-.212.139-.379v-.292l.031-.07c.075-.168.15-.31.216-.437l.067-.129.1-.344.44-.33a1.121,1.121,0,0,0,.079-.143l.083-.245h.111a1.564,1.564,0,0,1,.2-.348l.075-.1.292-.079.253-.3c.143-.093.34-.24.6-.45l.1-.08h.127a.575.575,0,0,1,.134.019c.04.009.1.023.2.037l.165.023.321.5a.494.494,0,0,1,.451-.062,1.252,1.252,0,0,1,.468.339l.237.02.284.31.436.1.072.071a.813.813,0,0,1,.06.069c.018.022.042.053.078.092a1.379,1.379,0,0,1,.666.435l.056.064.021.083c.018.063.084.2.143.327.037.081.074.159.1.223l.03.068v.075a.561.561,0,0,1-.041.206c.01.077.019.126.025.156a2.6,2.6,0,0,1,.331.425l.03.064a1.188,1.188,0,0,1-.057.691v.393l-.131.138v.085l-.056.128c-.019.053-.043.123-.079.211l-.028.45-.05.079a5.724,5.724,0,0,0-.395.742l-.059.134-.53.212a.557.557,0,0,0-.188.111l-.03.081a.575.575,0,0,0-.055.355l.017.213a1.093,1.093,0,0,1-.028.588c-.046.079-.074.135-.1.186.011.035.021.07.032.107l.034.123-.011.075a.862.862,0,0,0,.025.321c.076.008.187.018.35.03l.095,0-.1-.1h.877a.459.459,0,0,1,.331.11l.235-.061a1.645,1.645,0,0,1,.377-.075,1.254,1.254,0,0,1,.453.108l.1-.066.173-.115.273.121c.044-.013.1-.032.178-.056l.078-.025.7.092.07.217a2.819,2.819,0,0,1,.042.869l-.012.184-.279.175c-.1.065-.174.108-.205.131a.391.391,0,0,0-.037.048,1.1,1.1,0,0,1,.114.679l-.012.126-.088.091a.914.914,0,0,1-.4.21c-.176.11-.321.064-.788-.091a.8.8,0,0,0-.4-.094l-.059.012-.059-.009a3.553,3.553,0,0,0-.676,0,1.14,1.14,0,0,1-.683.062,1.457,1.457,0,0,0-.43-.084c-.024.019-.042.037-.054.049l-.1.092-.143.016-.436.022-.058.021c-.053.018-.124.043-.219.085l-.069.03h-.23a1.8,1.8,0,0,0-.427.26l-.137.139-.192-.039a3.6,3.6,0,0,0-.544-.082l-.108.069a.618.618,0,0,1-.354.15h-.144l-.08-.076-.088-.05-.019,0a9.839,9.839,0,0,1-1.346.072l-.094-.013a2.349,2.349,0,0,0-.344-.073c-.068.04-.147.08-.225.119a.663.663,0,0,1-.615-.05c-.048-.02-.12-.051-.169-.066a1,1,0,0,1-.231.119l-.107.016h-3.21c1.125,2.074.584,4.305.845,6.5,1.99-.837,3.116,1.586,4.929,1.821a58.925,58.925,0,0,0,8.946.115c3.594-.114,7.336-.721,10.758.023.841.182,1.525.945,2.568,1.019,1.091.078.913-.6,1.749-.751,1.454-.257,3,.085,4.184-.8,1.274-.949,2.135-2.482,3.421-3.453,1.2-.9,2.478-1.765,3.475-2.678Zm-28.672-24.912.02.158-.027.659a3.855,3.855,0,0,0-.025.563c0,.238,0,.483.024.755a1.82,1.82,0,0,1,.025.6l-.01.1a2.922,2.922,0,0,0-.023.377l.1.606-.053.105a1.378,1.378,0,0,0-.046.213l-.019.114-.083.082a6.126,6.126,0,0,1-.724.613l-.095.069h-.853a.781.781,0,0,1-.259-.063c-.06-.02-.127-.043-.172-.054l-.095-.025-.278-.278h-.084l-.085-.051a1.013,1.013,0,0,1-.384-.939V411.9l.151-.108c.023-.016.091-.09.108-.381a2.305,2.305,0,0,1-.258-1.412l.028-.127a2.271,2.271,0,0,1,.218-.388c.024-.036.047-.07.068-.1l.043-.057a1.185,1.185,0,0,0,.287-.445.752.752,0,0,1-.173-.492.866.866,0,0,1,.044-.3l.027-.084.048-.047c-.01-.064-.031-.151-.043-.2a.924.924,0,0,1-.039-.426l.033-.137.14-.094a2.618,2.618,0,0,0,.224-.621,1.319,1.319,0,0,1-.281-.618v0l-.125-.08v-.583l-.334-.259-.115-.056-.246.247h-.15a1.7,1.7,0,0,0-.295.052,5.206,5.206,0,0,1-.541.3l-.076.038h-.085c-.024,0-.1.018-.176.035s-.186.037-.276.052a.871.871,0,0,0-.077.068l-.106.108h-.064l-.053.079h-.59c-.1.028-.245.063-.428.107l-.781.194-.145-.146a4.985,4.985,0,0,1-.538-.652l-.054-.078-.009-.095a3.3,3.3,0,0,1-.006-.7,5.994,5.994,0,0,1-.154-1.012v-.151l.107-.105a2.872,2.872,0,0,1,.574-.423l.072-.041.683-.045.042-.069.106-.046a3.855,3.855,0,0,1,.425-.162.921.921,0,0,1,.456-.014l.163.018a.271.271,0,0,0,.074,0l.159-.159.216.068a3.85,3.85,0,0,1,.436.175c-.017-.01.086.007.468-.08l.055-.013.552.047.3-.123.771-.123.7.328h.824l0,.039.172.075a.864.864,0,0,1,.506.83v.149l-.077.078a2.011,2.011,0,0,1-.025.847l.055.62-.022.07a.37.37,0,0,0-.012.05.591.591,0,0,1-.066.194,1.671,1.671,0,0,1,.153.312l.022.064-.028.941c.083.373.132.644.161.8l0,.025c.058.147.006.337-.087.676l-.008.03C149.05,408.39,149.056,408.429,149.062,408.475Zm10.542-.938a.842.842,0,0,1,.234-.34l.106-.108.083,0,0-.005V406.8l.2-.1c.117-.057.246-.121.372-.2a1.979,1.979,0,0,1,.69-.684l.233-.126c.087-.047.149-.079.184-.1.071-.07.135-.126.19-.175.037-.033.07-.061.1-.09l.093-.092.13-.012a7.325,7.325,0,0,0,.922-.175l.082-.009a4.025,4.025,0,0,1,1.959.736l.3.092.056.056a2.44,2.44,0,0,0,.223.127l.068.037h.214l.106.106a1.185,1.185,0,0,0,.123.105h.318l.1.1c-.016-.016,0-.009.022,0l.153.051.064.148c.049.112.079.2.1.26.009.026.016.046.022.061l.1.226-.167.191a.964.964,0,0,0-.105.138h0a.451.451,0,0,1-.124.292l-.034.043v.209l-.076.075a1.006,1.006,0,0,1,.046.7l-.027.063-.049.049c-.051.051-.095.1-.136.149l-.05.057a3.944,3.944,0,0,1-.239.658l-.052.116-.114.058c-.025.02-.087.084-.165.162-.038.068-.068.134-.1.2l-.088.185-.546.421a2.067,2.067,0,0,1-.348.615.619.619,0,0,1-.485.174l-.186.016c-.045,0-.09.006-.137.006a2.19,2.19,0,0,1-.924-.24l-.422-.018a1.361,1.361,0,0,1-.669-.434l-.06-.11a.618.618,0,0,0-.058-.117,7.033,7.033,0,0,1-.907-.539l-.078-.053-.115-.237a1.669,1.669,0,0,0-.09-.179l-.058-.089v-.473a1.549,1.549,0,0,0-.176-.379.323.323,0,0,0-.1-.12,1.573,1.573,0,0,1-.745-1.037l-.008-.078ZM158.4,427.2a2.569,2.569,0,0,1-1.189-.017l-.714.079-.066-.018a2.812,2.812,0,0,0-.324-.072l-.187.024a.746.746,0,0,1-.346-.006l-.048-.008-.037-.006-.107.051c-.02.041-.044.086-.071.134.01.045.028.115.06.211l.013.051a2.778,2.778,0,0,1-.008.654l-.061.737a3.064,3.064,0,0,1,.047,1.367c0,.033-.007.077-.014.133-.01.082-.024.2-.038.352l-.011.121-.082.09a4.7,4.7,0,0,1-.55.526l.279.314h.329a2.835,2.835,0,0,1,.393-.2c.155-.081.326-.044.811.094l.625-.064.121.121a2.945,2.945,0,0,1,.293.371l.135.187.06.335a1.308,1.308,0,0,0,.1.148l.1.137-.042.165a1.46,1.46,0,0,0,.007.376,2.9,2.9,0,0,1,.083.665,1.764,1.764,0,0,1-.189.834,1.129,1.129,0,0,1-.405.481l-.118.086-.145-.02c-.007-.005-.14.1-.14.718v.143l-.1.1h0s-.008.024-.019.048l-.1.2H156.5l-.161.207-.04.152-.41.1a1.524,1.524,0,0,1-.615.594,3.177,3.177,0,0,0-.565.341l-.128.124-1-.145-.063-.063-.738-.024-.063-.027a1.665,1.665,0,0,1-.533-.338l-.061-.061-.021-.066a5.448,5.448,0,0,1-.505-.225l-.131-.066-.048-.138c-.022-.062-.059-.157-.113-.287-.092-.077-.206-.191-.376-.36l-.086-.087-.081-.588-.256-.224a1.3,1.3,0,0,1-.253-.509l-.019-.081.044-.2c-.043-.1-.084-.206-.122-.322l-.018-.113v-.368c0-.768.206-1.227.612-1.365l.065-.015.29-.041a4.7,4.7,0,0,1,.125-.467l.077-.257h.268a.538.538,0,0,0,.082-.006,1.822,1.822,0,0,1,.314-.589l.072-.094.241-.069c.066-.046.148-.109.244-.187l.06-.048.074-.02a1.332,1.332,0,0,0,.309-.113v-.056l.049-.048a3,3,0,0,0-.112-.457l-.015-.1v-.447c-.018-.207-.05-.4-.075-.562l-.031-.225v-.251a1.169,1.169,0,0,1-.171-.786l.017-.067.041-.055a.61.61,0,0,0,.037-.056l-.059-.177.029-.654-.012-.061a.613.613,0,0,1,.005-.356,1.641,1.641,0,0,0,.068-.449c-.063-.28-.114-.5-.15-.651a1.6,1.6,0,0,1-.068-.346v-.114l.065-.093a.563.563,0,0,0,.086-.148.925.925,0,0,1-.1-.521v-2.26l.085-.015.037-.5c.041-.134.075-.243.107-.333a1.785,1.785,0,0,1-.172-.313l-.074-.175.1-.16a.937.937,0,0,0,.021-.277,1.691,1.691,0,0,1,.105-.535v-.383a3.256,3.256,0,0,1,.1-1.129l.11-.28.3.058a1.439,1.439,0,0,1,.482.2l.124.074.083.3.183.1.043.023a3.782,3.782,0,0,0,.289-.39l.087-.091.19-.139c.012-.049.024-.1.038-.169l.067-.319.742.08.092.157a1.343,1.343,0,0,0,.1.144.973.973,0,0,1,.09.131l.069.131-.241.811a2.287,2.287,0,0,0,.1.411.593.593,0,0,1,.036.182v.1l-.052.086c-.056.093-.112.187-.157.269v.357a1.491,1.491,0,0,1-.067.338l-.012.048v1.128l-.073.1a.433.433,0,0,0-.061.137l0,.014a2.641,2.641,0,0,0,.074.322l.018.144c.009.115.028.356.047.721a1.424,1.424,0,0,1-.133.552c0,.02,0,.245,0,.462v.348l.032.034c.04.041.085.087.13.136a7.314,7.314,0,0,0,.771-.182l.058-.016.831.049.32-.214.127.012c.126.012.242.017.347.023.069,0,.134.007.195.012a2.01,2.01,0,0,1,.211-.142l.2-.117.383.254.324-.058.236-.236h.15a.727.727,0,0,1,.24.056c.067.022.16.053.284.091l.01,0a3.663,3.663,0,0,0,.436-.017l.265-.02.13.328a1.6,1.6,0,0,1,.151.891v.274l-.263.074c-.143.04-.336.116-.58.21l-.039.015-.093.2c-.053.113-.106.227-.159.347a1.447,1.447,0,0,1-.566.69.609.609,0,0,1-.342.073,1.75,1.75,0,0,1-.189-.029A3,3,0,0,0,158.4,427.2Z" transform="translate(-136.638 -396.277)" fill="#ba0015"/>
    </g>
    <path id="패스_6" data-name="패스 6" d="M266.217,402.079c.439,1.1-.3,2.882.042,4.422q.1.99.21,1.98c.323.954.858,2.113,1.263,3.117a8.809,8.809,0,0,1,.464,2.655h.17a6.026,6.026,0,0,1-.253,2.612h-.127c-.092-.141.081-.708.084-1.138l-.084-.042-.254.042c.128.388,0,.51-.126.885l.253.042v.043c-.144.079-.157.06-.378.042-.015.014-.029.028-.042.042v.042l.21.252c.2.074.154.042.337-.084.028.084.056.168.084.253-.281.214-.846.13-1.137.126v.379l.3-.084c.028.029.055.057.084.084.027.043.055.085.084.126l-.337.042a.476.476,0,0,1-.042.379,1.082,1.082,0,0,1-.547.21v.043c.14.146.03.087.211.041l.21.168c-.046.229-.1.235-.21.379l-.043.169c.11-.013.085-.013.211-.084v.126c.034.2-.042.16-.168.294v.211l.421-.211c.2.255-.029.429-.168.59l.3.211c-.071.056-.142.111-.212.169v.21c.4-.132.471-.813.632-1.18-.121-.126-.236-.137-.5-.126-.1-.223-.049-.241.085-.422-.063-.138-.084-.114-.17-.21l.38-.254c.028.057.055.113.084.169.22-.063.173-.122.421-.169a18.55,18.55,0,0,0-.548,2.486c-.041.029-.084.057-.126.084h-.042c-.048-.152-.034-.123-.127-.21a.637.637,0,0,0-.21.379l.042.085.253-.127h.043v.127c-.071.056-.142.112-.212.169l-.547-.085c.08-.164.078-.146.294-.169.053-.291-.043-.441.127-.716a.631.631,0,0,0-.379-.211h-.042c.028.154.056.309.084.463l-.21.21a.548.548,0,0,1-.295-.126c-.057.1-.112.2-.169.295l.463-.085h.042l-.126.422c-.192.084-.247,0-.338.21h.464c-.043.252-.082.2-.21.337.013.028.028.056.042.085l.126-.043a.758.758,0,0,0,.253-.547l.421.211-.126.379c-.16.072-.053.045-.21,0-.029.027-.056.056-.085.084.1.1.116.08.168.253v.042c-.2.138-.162.135-.5.127-.015-.1-.028-.2-.042-.3h-.042c-.076.182-.134.176-.254.3-.106.061-.016.056,0,.252l.338-.126.168.126c-.014.056-.028.113-.042.169-.089.135-.043.1-.253.126a.655.655,0,0,1-.337.632c.2.45-.009.84.169,1.391.142.439.576.7.8,1.052.5-.089,1.681.329,2.022-.126l.759.253c.125-.127.252-.253.378-.379q.232.189.464.379c.285-.181.354-.445.589-.632a9.634,9.634,0,0,0,2.149-1.685,7.791,7.791,0,0,0,.591-1.474,19.622,19.622,0,0,0,1.179-10.743c-.161-.893-.857-1.814-1.1-2.653-.428-1.5.057-4.108.295-5.645-.3-.3-.355-.226-.337-.842a9.958,9.958,0,0,0-1.853-1.306c-.548-.2-1.684.051-1.938-.127-.433-.3-.352-.609-.632-1.1-.148-.257-.569-.411-.758-.674-.561.089-.638.616-1.053.8l-1.053.295c-.718.528-.987,3.745-.969,5.055a28.077,28.077,0,0,0,.675-3.707Zm1.306,16.345-.084.042h-.295c.061-.187.1-.174.211-.3h.168Zm.506.042c-.015.028-.028.057-.043.085-.068-.084-.057-.058-.084-.211h.127Zm.041-.59-.589.084c-.042-.084-.085-.168-.126-.253a1.573,1.573,0,0,1,.715-.084Zm-2.064-13.985.085.169c.02-.17.061-.142-.042-.254-.015.028-.028.056-.043.085m0,.631h.085c-.054-.126,0-.05-.085-.126Zm-.126.8v.042l.084.042a.485.485,0,0,0,0-.421c-.027.112-.057.224-.084.337M248.356,428.7a.664.664,0,0,0,.421-.042c-.014-.109-.014-.085-.085-.21,1.131-.718,3.434-1.337,4.213-2.317.858-1.081,1.341-2.8,2.612-3.454.79-.409,1.866-.251,2.7-.59.409-.168.559-.631.885-.843.483-.316.849-.777,1.305-1.053l.758-.209c.739-.554,1.178-1.526,1.854-2.149.511-.471,1.323-.7,1.6-1.39a7.294,7.294,0,0,0,.379-2.948c-.126-.618-.6-1.057-.5-1.729-.448-.284-1.258-.943-1.138-1.6-.164-.122-.1-.114-.294-.042-.128-.179-.107-.472-.211-.674.008-.181.067-.127-.169-.168-.193-.346.007-.745-.5-.717.075-.084,0-.031.126-.084-.065-.176.008-.1-.169-.169l-.084.169c-.029-.027-.057-.055-.084-.085l.168-.295-.084-.042-.885-.127c.014-.055.029-.112.042-.168-.158-.223-1.474-.42-1.853-.631-.156-.12-.082-.032-.085-.254l-.842-.127-.042-.042.126-.252-.841-.127c-.028-.1-.056-.2-.085-.295L256.528,406l-.042-.042c.092-.073.113-.075.294-.085l.084-.126c-.917-.343-1.834.486-2.781.126H254c.042-.084.084-.169.127-.253l-.378-.126c-.03.014-.057.028-.085.043.042.125.085.252.125.379v.042a15.206,15.206,0,0,1-2.4-.338l-.717-.294c-1.077.229-3.369.026-4.634.168-.737.083-1.535.514-2.107.337-.039.239-.06.225-.252.294-.241.154-.3-.152-.506-.084-.376.124-.762.372-1.137.5l-.927.127a11.539,11.539,0,0,0-2.191,1.18c-.13.187-.015.386-.126.632a5.023,5.023,0,0,0-.211,4.3c.339.62,1.519.766,2.443.59a43.414,43.414,0,0,0,5.645-1.1c.485-.165.72.157,1.1-.21.247.023.327.008.379.253l.338-.169v.169a.437.437,0,0,0,.21-.253,1.86,1.86,0,0,1,.927-.126.387.387,0,0,1-.379.126c-.014.042-.027.084-.042.126l.8-.042c-.014.07-.028.14-.041.211l.084.042c.337-.032.326-.133.506-.295v.253c.295-.067.264-.091.252-.38a2.392,2.392,0,0,1,.758-.084l.085.084-.127.211v.042h1.1c.811.179,1.563.794,2.275.969a1.007,1.007,0,0,1,0,.464,3.47,3.47,0,0,1,.885.337c.829,2.3-.868,2.4-1.937,3.455l-1.391,1.642a38.623,38.623,0,0,1-3.369,2.233q-.149.211-.3.422a7.856,7.856,0,0,1-3.117,1.938c-.873.225-1,.971-2.359.8-.061.18-.049.075.042.254l-.21.126h-.168c.013-.056.028-.112.042-.168l-.3-.043v.043l.127.085c-.1.148.012.1-.211.084s-.308-.153-.421-.211-2.24.1-2.7,0c-.529-.113-.739-.6-1.138-.757q.043.125.084.253l-.336.379c-.514-.087-.625-.282-1.222-.295.069-.186.023-.147.253-.169l-.633-.336-.126.252a.751.751,0,0,1-.548-.252l-.169.169c.1.041.2.084.295.126v.042a2.366,2.366,0,0,1-1.1-.042h-.084v-.042c.106-.112.111-.116.336-.126.042-.057.085-.113.127-.169v-.042c-.518-.079-.677.253-1.012.463v.17h.3l.169-.212-.253.506c.288,1.387.557,3.143,2.064,3.707l1.222.083c.486.128.643.474,1.349.464a2.356,2.356,0,0,0,1.558,1.306l.464-.042c.258.1.441.592,1.011.8.308-.178.882.026,1.433-.085a7.19,7.19,0,0,0,1.474-.421,25.886,25.886,0,0,1,3.412-1.812l-.085.127m12.722-20.853c-.126-.054-.051,0-.126-.084.126.055.05,0,.126.084m-20.094,3.917c-.057.015-.113.03-.169.042-.015-.028-.028-.055-.042-.084l.085-.042h.084l.043.042Zm9.309.127c-.12.126-.235.138-.505.126l-.042-.084.084-.085h.463Zm.3.084.126-.169h.085c-.074.153-.046.113-.21.169m7.161-5.265.084.126v.042c-.477.029-.635-.048-.716-.379a1,1,0,0,0,.632.211m-3.37-.463-.043-.084c.281-.206.826-.018,1.1-.169.216.074.265.115.295.38.274.047.437-.1.632-.085a2.851,2.851,0,0,0,.548.127v.168c-.89.2-1.537-.327-2.527-.337m-19.252,18.24h-.084c-.029-.027-.057-.056-.084-.084l.126-.168h.042c.015.07.029.14.042.21-.013.015-.028.028-.042.042m20.347-19-.421-.084-.085.042c-.029.042-.056.085-.084.126h.548c.014-.027.028-.056.042-.084m10.447.21h.084c-.015-.07-.027-.14-.042-.21-.014.07-.027.14-.042.21m-.295.042c-.218.453-.033.831-.168,1.391v.294a3.5,3.5,0,0,0,.168-1.685m.253.674c.09-.119.118-.179,0-.3Zm0,.379.126-.127-.169-.042c.015.056.028.112.043.169m0,.758c.027-.028.057-.055.084-.085h-.084Zm-4.423.042h-.169l.084.084c.029-.027.057-.055.085-.084m4.086.3c.057.21.114.421.169.632h.084c0-.319-.054-.516-.253-.632m.379.842q.126.359.254.716h.084c.013-.056.028-.112.042-.168l-.38-.548m.632.632v.169c.029-.055.056-.112.084-.169Zm-.169.59.126-.127V409.7h-.168c.014.084.028.169.042.253m.379-.21c-.014.027-.028.056-.042.083.015.043.029.085.042.127.028-.042.057-.084.085-.127l-.085-.083m-.21.716c.015.028.029.056.042.084h.042c0-.231.014-.245-.126-.337a.24.24,0,0,0,.042.253m.337-.169v.295h.042c.11-.136.113-.2-.042-.295m0,1.18.084.042.042-.042q-.063-.315-.126-.633l-.169-.042a1.25,1.25,0,0,0,.169.674m.126-.59c.07.183.14.365.212.548l.042.084h.042q-.085-.316-.169-.632Zm.506,1.011-.127-.042v.211l.127.084.042-.042c-.014-.07-.028-.14-.042-.21m-.379.169.085-.085-.212-.084.127.169m-15.924,0h-.127l-.085.042c.029.056.056.112.085.168l.127-.084Zm16.05.632.126.042c.1-.112.038-.107.21-.169.03.056.057.113.085.169h.041c-.013-.085-.027-.169-.041-.253-.095-.139-.268-.141-.463-.168.013.126.028.252.042.378m-20.685-.295c-.013.028-.028.057-.042.084.015.014.029.028.042.043h.042c-.014-.043-.028-.085-.042-.127m20.81.632c-.014.028-.028.056-.041.085l.084.042h.042c-.055-.126,0-.051-.085-.126m.043.464c.028.027.055.056.084.083l.042-.042c.014-.056.029-.113.042-.169h-.084l-.084.127m.378,1.726c.106.121.153.107.212.3h.041a1.656,1.656,0,0,0,.211-1.011c-.12.075-.095.1-.168.209v-.632l-.169.042c.036.424.114.618.126,1.054h-.211l-.042.041m-.21-.758h.085c-.021-.209.009-.164-.126-.252.014.085.029.169.042.252m.126.169-.126-.042c-.027.168,0,.126-.084.211v.211l.126-.043c.029-.113.056-.224.084-.337m-.084.463h-.126c-.014.085-.029.169-.042.253h.168Zm-.21.463c-.015.127-.028.254-.043.38h.043c.131-.15.133-.289,0-.38m-.084.548c-.016.028-.029.057-.043.085l.084.084h.043c-.041-.153,0-.086-.084-.169m-.085.3c-.014.027-.029.056-.042.084.028.028.055.056.084.084l.126-.126-.169-.042m-.085.379c-.015.056-.029.113-.042.168v.043l.211.042c-.016-.07-.029-.14-.043-.21l-.127-.042m-.211.464.126-.043v-.042h-.126Zm-.169.8.085-.042-.169-.084c-.013.028-.028.056-.041.084l.126.042m-.421,1.1.085.085c.087-.119.115-.138,0-.253l-.085.168m1.011.085h.043l.126-.169-.169-.084Zm-2.4.042.085-.084h-.085Zm1.517.421.085-.084h-.085Zm-.042.464v.041l.211.169.253-.337-.3-.084-.126.084-.042.127m-.253.21c-.014-.042-.029-.085-.042-.127l-.043.085.043.042Zm.085.3-.126-.085-.043.169c.056-.028.112-.056.169-.084m-.549,1.011h.127c-.04-.154,0-.086-.085-.169-.014.056-.028.112-.042.169m.169.59.084-.085h-.084Zm-.253.673.127-.042-.084-.084c-.014.041-.028.084-.043.126m.253.422v-.043l-.21-.084c-.043.07-.085.141-.127.21.083.068.058.058.211.085l.126-.168m-29.277.294v-.126l-.421-.043v.127l.126.042Zm-.631-.085-.422-.042-.126.042v.042h.464l.084-.042m29.614.169c-.069.183,0,.124-.21.169v.084a.669.669,0,0,0,.336-.084c-.058-.16,0-.087-.126-.169m-21.147.378v.085l.127-.042v-.043Zm-3.16.253v.126h.211c-.028-.056-.056-.112-.084-.169l-.127.043m34.123,12.006-.254.294h-.042c.071-.451.613-.8.422-1.389l-.548-.674a5.971,5.971,0,0,0-.674-1.474l-.337-.085c-.2-.212-.319-1.3-.547-1.685l-.506-.294c-.712-1.085-1.835-1.556-2.78-2.4l-.211-.379c-.5-.456-2.406-1.493-2.949-1.305-.259.158-.189.527-.21.884l-.21.042-.126-.084-.043-.085a1.141,1.141,0,0,0,.337-1.011c-.341.078-.343.33-.294.674a2.909,2.909,0,0,0-.885.084v-.041l.337-.254c.015-.041.029-.084.042-.126h-.926c-.015.126-.028.253-.043.379.172.069.132.05.338,0,.028.055.055.112.085.168l-.337.084v.042a.537.537,0,0,0,.379.126v.042l-.337.169h-.17a1.12,1.12,0,0,0,.042-.422c-.247-.055-.186-.019-.421-.21-.092.1-.052.066-.084.252h-.043c-.027-.028-.055-.055-.083-.084.041-.113.083-.225.126-.337-.224.1-.122.148-.421.126-.116.167-.124.129-.127.337-.182-.1-.121-.166-.085-.379l-.085-.042a.384.384,0,0,0-.126.506c-.151.171-.427.177-.716.253.07-.1.14-.2.21-.295l-.084-.043c-.2.046-.136.007-.211.169-.077.119-.051.115-.042.337h.211c-.062.249-.149.292-.379.253h-.21c.083-.067.057-.057.21-.084.161-.3-.021-.48,0-.8h-.169l-.294.632c-.089.114-.051.074.042.211-.015.027-.029.056-.042.085H262c-.046-.245-.082-.29-.126-.59h.252l.085-.126v-.042h-.927c-.028.111-.055.224-.085.336l-.421.084-.085-.041c.056-.113.112-.225.17-.338-.015-.028-.029-.056-.043-.085-.412.1-.341.384-.927.463.066-.212.118-.207.337-.253.014-.028.028-.057.041-.084l-.084-.042c-.379-.014-.383.034-.548.211-.069-.057-.14-.112-.21-.169-.028.028-.055.057-.084.084.075.174.074.209-.042.379-.09.134-.043.1-.254.126v-.211l.21-.042c-.041-.113-.085-.225-.126-.337-.418-.149-.434-.056-1.01-.042.042.112.084.224.125.338-.147.087-.112.142-.294.209v-.589c-.2-.007-.2.022-.336.168-.213-.044-.188-.164-.338-.211h-.126s-2.631.015-2.7.043l-.506.379V427.9a19.4,19.4,0,0,1-1.98.085c-.482.358-.609.145-1.221.378-1.342.512-2.231.8-2.655,2.149.128.076,0,.022.169.042-.082.161-.051.228-.253.295.145.612-.077,1.067.084,1.937l-.211-.083a.65.65,0,0,1-.084.758c0,.207-.065.157-.295.21l.126.338c-.268.022-.109.073-.336.169-.065.187.009.174.126.379a.5.5,0,0,1-.338.211c-.027.042-.055.084-.084.127l.253.041v.042l-.338.422c.057.14.113.281.168.421-.447.3.138,1.335,0,1.9-.225.925,1.188,4.433,1.981,4.887,1.044.6,2.273-.324,3.243-.422.084-.184.059-.212,0-.421.056-.028.112-.057.169-.084.042.1.085.2.127.294.966-.092,1.086-1.11,1.769-1.474l1.053-.3.337-.337c.9-.526,2.142-.724,2.864-1.137.015.07.028.14.043.21l.462-.294v.21c.941.44,2.713-.444,4.045-.041l1.053.673a23.272,23.272,0,0,1,2.738.927c.594.3,1.044.033,1.6.211a4.518,4.518,0,0,0,2.823.336l.169-.168c-.046-.433,2.018-.955,2.443-1.264.69-.5.825-2.059,1.475-2.4V437c-.214.075-.268.209-.422.337-.027-.126-.055-.253-.084-.379.015-.042.029-.084.042-.126.221-.078.441-.039.633-.337-.087-.092-.057-.082-.21-.126m-8.426-8.594.212-.211c.176.065.1-.009.168.168l-.379.085Zm-.926-.127c.144.058.043.035.042.169l-.127.084h-.126l.211-.253m-2.106.422h.253c-.065.258-.37.379-.717.379-.014-.028-.028-.056-.041-.085.154-.121.364-.168.506-.294m-2.57.294c.121-.1.079-.272.126-.505l.168.042c.015.112.028.225.043.337l-.295.253-.336.043-.043-.085c.117-.086.216-.044.337-.085m-.927.043.253-.043h.127c-.059.143-.025.088-.127.17h-.253Zm-3.328-.548h.042c.028.042.057.084.084.127l-.084.042c-.082-.11-.042-.04-.042-.169m-.168.127h.041v.294l-.084.126h-.042c.028-.14.055-.281.085-.421m-.38.21.126.085c-.028.028-.057.055-.084.083h-.042Zm-.547-.295.209.042v.085l-.252-.042c.014-.029.028-.057.043-.085m-.844.21c.071.07.141.14.211.211v.041h-.295c.028-.083.055-.168.084-.253m-.336.253c-.126-.055-.051,0-.126-.083.124.055.049,0,.126.083m2.107,7.162h-.338v-.042l.169-.21c.18-.055.077-.108.21.042l.169-.211c.028.043.057.085.084.127-.092.173-.145.186-.293.294m3.5,2.865-.378.084h-.042l-.043-.084.169-.127.295.084Zm7.119-2.991v.042c-.2.129-.434.1-.632.254.056.055.112.112.169.168a2.042,2.042,0,0,1-1.391.253q-.021-.19-.042-.38c-.043-.041-.085-.084-.127-.126h-.042v.421c-.252-.055-.5-.112-.757-.168l-.085-.042.338-.042.042-.043v-.126a4.3,4.3,0,0,0-1.854-.169v-.253l.59-.042c.015-.1.029-.2.042-.3a3.468,3.468,0,0,1-.926.126c-.014.029-.028.057-.042.085a.594.594,0,0,1,.127.421l-.8-.084a.8.8,0,0,0,0-.59v-.042l.21-.211v-.042c-.328.068-.638.711-.674,1.053h-.043l-.168-.127a2.49,2.49,0,0,1-.338-.885l-.083-.042q.042.463.083.926c-.013.015-.028.028-.042.042l-.674-.084v-.253l-.084-.043c-.115.2-.119.253-.337.253l-1.012-.084-1.643.168c-.069-.226.026-.208.127-.464v-.042c-.342-.121-1.013.352-1.306.59l-.168-.168c-.361.208-.751.218-1.222.421-.091-.123-.059-.1-.042-.3l-.085-.042a.518.518,0,0,0-.127.294c-1.095-.28-2.328-2.49-1.306-3.875.374-.506,1.661-.494,1.854-1.137.662.416.918-.064,1.137,0a4.457,4.457,0,0,0,1.391.169c.027.1.057.2.084.294.636.174,1.459.061,2.064.211a30.2,30.2,0,0,0,3.706.8c1.663.214,2.007-.971,3.539-.042l.673.421c.431.626-.292,2.225-.126,2.823m1.517,5.349c.014-.027.028-.056.042-.084l.127.042.042.085-.211-.043m-2.906-13.48V427.1h-.126c.027.056.056.112.085.169Zm-2.991-.085-.421.127v.168l.379-.084c.127-.086.111-.039.168-.211Zm-2.4.338h-.084l-.043.126c.149-.077.052.024.127-.126m2.485.042v.211h.169c-.051-.188,0-.139-.169-.211m-9.226.422.127-.127-.169-.042c-.013.042-.027.084-.042.126.029.014.056.028.084.043m7.078-.169h-.168v.169c.176-.066.1.008.168-.169m-12.848,1.011v-.085h-.169c.082.087.015.046.169.085m-9.9.716h.126c-.041-.029-.084-.056-.126-.084Zm-.717,1.39h.043c.042-.119.069-.019,0-.127-.015.043-.027.085-.043.127m4.845.127.085-.085H242.5l.042.085m.464.042h.168c.015-.028.028-.056.043-.084l-.211-.043Zm17.819,2.612c.125-.055.051,0,.126-.085h-.084c-.015.028-.029.056-.043.085m4.086-.085h-.085c.076.038.012.041.085,0m-3.243,1.011.126-.169h-.169c-.056.057-.112.113-.169.169l.043.085c.153-.041.086,0,.168-.085m.969.379c.015.028.028.056.042.084l.127-.042c.014-.154.028-.309.042-.464l-.085-.042-.126.464m-1.18-.085c.028.085.057.169.085.253l.084.042v-.211h.169c.014-.085.028-.169.042-.253h-.127l-.252.168m-1.137-.126a.51.51,0,0,1-.337.085l-.042.083v.17a1.173,1.173,0,0,1,.505-.127c-.046-.18-.012-.119-.126-.21m.378.168v.043l.085.042h.042c-.019-.17-.014-.165-.084-.253-.015.056-.028.112-.043.168m-4.3-.042c.029-.027.057-.056.085-.085H256.4Zm-.588-.041c.013.056.027.112.042.168h.042c-.041-.153,0-.086-.084-.168m2.653.041-.168.127c.014.042.028.085.042.126.185-.059.118-.071.295,0,.145-.094.193-.1.253-.294h-.168c-.111.081-.105.072-.254.041m-.421,0-.211.211v.126l.337-.126c-.046-.181-.012-.12-.126-.211m1.643.042v.127h.085c-.054-.125,0-.05-.085-.127m6.066.085.084.042c.028-.042.057-.084.085-.127H265.8c-.014.029-.028.057-.042.085m-10.194-.042c.051.109-.042.067.126.127-.076-.149.024-.051-.126-.127m8.805.253.547-.126v-.085l-.716-.042c.022.133.045.128.169.253m-1.938-.042.169.085v-.169h-.127l-.042.084m3.075,0h.126l-.085-.084c-.013.028-.028.056-.042.084m1.137.252-.084-.084-.169.169c-.014.042-.028.084-.042.127.144,0,.2-.048.294-.212m.126.127c-.028.071-.055.14-.084.211-.134.013-.084.009-.211-.042l-.085.084.337.127c.048-.152.033-.124.127-.211-.041-.153,0-.086-.085-.169" transform="translate(-50.186 -23.119)" fill="#1a1311" fill-rule="evenodd"/>
    <path id="패스_7" data-name="패스 7" d="M437.6,378.388c-.189-.375-1.559-4.435-1.559-4.435l-1.243-3.665-.242-.431-.282-.242-.629-.119-2.373.76-.3-.048-1.945.329-.9.727-1.369.438-.359-.172-3.273,1.125-.6.4-4.428,1.419-.734-.054-.342.137-.333.368-.775.248-.31.6.193,1.123.18,1.363.435,1.548,1.1,2.71.432,1.3.995,3.455,1.145,4.533.172.416.2.345.48.4.1.14.087.16.205.308.049.043.483-.026,1.668.347.227-.052,1.524-.894.062-.078,1.034-.465,1.351-.479.949-.188.588-.09.286.031,1.256-.28.3-.2,1.387-.923,3.248-.963.814-.181,1.229-.023.265-.1,2.022-1.594-.059-.635-1.474-4.843a.3.3,0,0,0,.042-.073c.013-.031-.069-.207-.084-.417a5.92,5.92,0,0,0-.177-.749C438,379.756,437.7,378.6,437.6,378.388Z" transform="translate(-143.434 -7.622)" fill="#f68d00"/>
    <path id="패스_8" data-name="패스 8" d="M440.419,389.322s-.258-.028-.706-.068a2.272,2.272,0,0,1-.325-.7c-.264-1.254.06-2.018.227-1.927.189.1.029.463.029.463.212,0,.341-.233.367-.574.03-.391-.146-.8-.437-.669-.357.166-.581.892-.581.892a1.679,1.679,0,0,1,.058-.963c.2-.257.281.145.281.145a.8.8,0,0,0,.044-.622c-.182-.421-.5,0-.5,0a3.111,3.111,0,0,1,.283-.972c.112-.22.307-.316.417-.121a.87.87,0,0,1-.056.689c.479.12.851-1,.435-1.7a.553.553,0,0,0-.875-.155,1.7,1.7,0,0,0,.031-1.865,2.854,2.854,0,0,1-.5-1.144,2.855,2.855,0,0,1-.492,1.148,1.7,1.7,0,0,0,.044,1.865.553.553,0,0,0-.874.162c-.411.7-.032,1.816.446,1.692a.868.868,0,0,1-.06-.688c.109-.2.3-.1.418.118a3.115,3.115,0,0,1,.29.97s-.325-.421-.5,0a.8.8,0,0,0,.049.622s.081-.4.28-.147a1.676,1.676,0,0,1,.065.962s-.229-.724-.587-.888c-.291-.133-.464.281-.432.672.029.342.159.572.371.572,0,0-.162-.36.026-.464.167-.092.577.732.24,1.925a2.142,2.142,0,0,1-.3.531c-.973-.066-2.12-.129-3.31-.162a1.728,1.728,0,0,1-.325-.512c-.539-1.529.128-2.462.473-2.352.387.124.058.565.058.565a.736.736,0,0,0,.756-.7.7.7,0,0,0-.894-.815,2.37,2.37,0,0,0-1.2,1.09c-.086-.4-.157-.96.122-1.175.406-.314.576.176.576.176a.639.639,0,0,0,.093-.759c-.373-.514-1.036,0-1.036,0a2.841,2.841,0,0,1,.585-1.187c.231-.269.632-.386.858-.149.317.333-.117.84-.117.84a1.206,1.206,0,0,0,.9-2.071,1.644,1.644,0,0,0-1.8-.187,1.425,1.425,0,0,0,.069-2.276,2.908,2.908,0,0,1-1.023-1.394,2.912,2.912,0,0,1-1.013,1.4,1.425,1.425,0,0,0,.085,2.275,1.644,1.644,0,0,0-1.8.2,1.205,1.205,0,0,0,.912,2.064s-.437-.5-.122-.84c.224-.239.625-.124.858.143a2.833,2.833,0,0,1,.593,1.182s-.667-.512-1.036,0a.64.64,0,0,0,.1.758s.167-.492.575-.181c.28.214.213.772.13,1.175a2.366,2.366,0,0,0-1.2-1.081.7.7,0,0,0-.889.821.734.734,0,0,0,.761.7s-.332-.438.054-.565c.344-.113,1.184.891.488,2.348a2.1,2.1,0,0,1-.459.52c-.789.029-1.552.071-2.259.118v0c-.313.021-.616.042-.9.064a2.128,2.128,0,0,1-.3-.529c-.344-1.191.06-2.018.227-1.927.189.1.029.463.029.463.212,0,.341-.233.367-.574.03-.391-.146-.8-.436-.668-.358.166-.582.892-.582.892a1.679,1.679,0,0,1,.058-.963c.2-.257.28.145.28.145a.8.8,0,0,0,.045-.622c-.182-.421-.5,0-.5,0a3.12,3.12,0,0,1,.283-.973c.112-.22.307-.316.417-.121a.869.869,0,0,1-.056.689c.479.12.851-1,.436-1.7a.553.553,0,0,0-.875-.155,1.7,1.7,0,0,0,.031-1.865,2.86,2.86,0,0,1-.5-1.144,2.85,2.85,0,0,1-.492,1.148,1.7,1.7,0,0,0,.044,1.865.553.553,0,0,0-.874.162c-.411.7-.032,1.816.446,1.693a.87.87,0,0,1-.06-.689c.109-.2.3-.1.418.119a3.129,3.129,0,0,1,.29.97s-.325-.421-.5,0a.8.8,0,0,0,.048.622s.081-.4.28-.147a1.676,1.676,0,0,1,.065.962s-.229-.724-.587-.888c-.291-.133-.464.281-.432.672.029.342.159.572.371.572,0,0-.162-.36.026-.464.167-.092.5.669.24,1.925a2.284,2.284,0,0,1-.321.707c-.447.044-.705.074-.705.074v0h0l.008,2.583a60.939,60.939,0,0,0,16-.059Zm-13.794-1.316a2.408,2.408,0,0,0,.1.671h-.241Zm-.781,0,.141.671h-.241A2.411,2.411,0,0,0,425.844,388.009Zm.489,3.106a1.067,1.067,0,0,1-1.147.7c-.191-.039-.631-.219-.479-.46.119-.189.478.2.744-.043.533-.5-.634-1.182.014-1.646.354-.254.722.037.871.41l.023.054a.772.772,0,0,1,.027.076,1.5,1.5,0,0,1,.035.152A1.526,1.526,0,0,1,426.333,391.115Zm6.816-3.417a1.857,1.857,0,0,0,.212.819l-.5,0Zm-1.6.006.289.819-.5,0A1.855,1.855,0,0,0,431.544,387.7Zm1.491,4.407a1.068,1.068,0,0,1-1.152-.7,1.446,1.446,0,0,1-.075-.847,1.026,1.026,0,0,1,.037-.12c.009-.02.02-.047.031-.073.148-.371.513-.661.866-.411.65.459-.512,1.146.024,1.646.268.24.624-.151.745.037C433.664,391.888,433.226,392.07,433.035,392.111Zm5.078-3.473a2.408,2.408,0,0,0,.1-.672l.141.671Zm.88-.675a2.418,2.418,0,0,0,.1.671h-.241Zm.754,3.8a1.025,1.025,0,0,1-1.128-.678,1.462,1.462,0,0,1-.08-.943l0,.067c.085-.446.509-.881.919-.592.65.46-.512,1.146.024,1.646.268.24.624-.151.745.038C440.377,391.541,439.938,391.723,439.747,391.764Z" transform="translate(-147.971 -12.005)" fill="#fff"/>
    <path id="패스_9" data-name="패스 9" d="M353.144,402.9c.128.357.457.74.59,1.054.2.478-.032.73.337,1.011-.042.126-.085.253-.126.379.014.028.028.056.041.085.283-.011.373-.053.464-.253.154.085.109.033.126.253h.168a.538.538,0,0,0,.127-.295l-.127-.043c-.136-.1-.134-.063-.294,0l-.126-.084c-.063-.175-.023-.116.042-.337.675.2.93.684,1.768.633.015.055.028.112.042.168l-.505.168c-.014.044-.028.085-.042.127.212.034.247-.111.463-.042l.21-.294c1.106.484,1.759-.523,2.106-1.391.192-.477-.119-.9.169-1.264l.379-.169a2.679,2.679,0,0,0,1.18-1.938c.092-.812-1.253-2.079-1.1-2.57-.524-.443-1.112-.788-1.137-1.728a2,2,0,0,0-1.221-.294c-.014.056-.029.113-.042.169a.689.689,0,0,1-.717-.084c-.041.056-.084.111-.125.169-.814-.367-1.591.43-2.022,1.053-.216.311-.679.65-.843,1.01-.582,1.283-.044,2.859.211,3.875Z" transform="translate(-111.079 -21.291)" fill="#1a1311" fill-rule="evenodd"/>
    <path id="패스_10" data-name="패스 10" d="M394.82,411.779c-.126-.306-.456-.586-.59-.968a18.367,18.367,0,0,1-2.822-.675c-.365-.194-.787-.674-1.18-.842-1-.429-2.9.272-3.117.842a6.079,6.079,0,0,0,.126,2.4,5.73,5.73,0,0,1-.337,2.317c-.111.525.2,1.123-.211,1.306.31.886-.553,1.846-.379,2.906a7.327,7.327,0,0,1-.127,1.138,17.032,17.032,0,0,1,.168,4,2.47,2.47,0,0,1-1.053.379,3.268,3.268,0,0,1-.8-2.865q.1-.421.211-.842a5.693,5.693,0,0,0-.716-1.474c-.164-.375.077-.775.125-1.011a4,4,0,0,0-.21-1.349c-.341-1.283.589-3.031.294-3.665-.572-1.231-3.11-1.347-4.423-.842-1.125.432-1.288,3.224-2.063,3.412.1.541-.044,1.007.041,1.643l.548,1.812c.206,1.481.3,2.954.463,4.507.116,1.078.808,3.136.421,4.592q-.315.842-.632,1.685a9.319,9.319,0,0,1-.337,1.432,32.933,32.933,0,0,0-1.938,3.118v.589q-.231.506-.463,1.012c-.24.857-.265,1.288-.421,1.938a17.518,17.518,0,0,0,0,2.064c-.026.155-.239.346-.21.548.056.126.112.253.169.379l-.211.5c.168.337.338.674.506,1.011a2.241,2.241,0,0,1,.8.042c.185.086.467.48.674.548.344.112.531-.154.843.084a1,1,0,0,1,.632-.21,1.15,1.15,0,0,0,.126-.632c1.6-.278,1.171-.6,2.107-1.558l.336-.211q.232-.61.464-1.221c.387-.581,1.336-.887,1.9-1.305s.379-1.255.589-1.854l.3-.336c.2-.615-.313-.8-.463-1.053a10.309,10.309,0,0,1-.085-2.865,3.583,3.583,0,0,1,.632-.717,1.867,1.867,0,0,1,1.222.085c.437.249.274,1.343.463,1.854-.265.365-.086.312,0,.757h-.21a1.89,1.89,0,0,0,.124.464h0v.006a1.483,1.483,0,0,1,.083,1.3v.253l-.083.042c-.029-.042-.057-.085-.085-.125a.634.634,0,0,0,.085-.338l-.169-.042c-.115.6-.341,1.686,0,2.149l-.253.21c.049.215.076.19.211.295v.042c-.134.013-.084.009-.211-.042-.057.28-.112.562-.169.842h.169v-.421l.211-.043.084.127-.126.422-.253.041c-.207.445-.093.874-.3,1.39-.243.621-.658,1.375-.926,1.9-.4.782-1.589,1.239-1.812,2.19-.281,1.2,1.647,2.306,2.4,1.686a16.371,16.371,0,0,0,2.7-.084c.015.069.028.14.042.21a3.638,3.638,0,0,0,1.475-.506c.314,0,.313.035.462.169l.633-.253v.21c1.433.087,3.867-3.494,2.991-5.012l-.3-.211c-.155-.457.146-1.355.085-2.064-.092-1.034.016-2.315-.127-3.328l.085-1.137c-.32-1.794.3-3.731-.043-5.6-.121-.67-.27-1.712-.337-2.443-.055-.6.412-.917.3-1.432a8.058,8.058,0,0,1-.3-3.454c.067-.209.339-.464.422-.676.231-.588-.184-1.094-.042-1.684.111-.2.224-.394.337-.59.2-.6-.156-1.148-.084-1.643.112-.267.223-.533.337-.8l.084-.042c.053.164.052.239.168.336q.106-.61.211-1.221c.387-1.045,1.293-2.206.758-3.5" transform="translate(-122.634 -28.017)" fill="#1a1311" fill-rule="evenodd"/>
    <path id="패스_11" data-name="패스 11" d="M352.95,412.035c.028.1.056.2.084.3.182-.1.085-.206-.084-.3" transform="translate(-111.221 -29.494)" fill="#1a1311" fill-rule="evenodd"/>
    <path id="패스_12" data-name="패스 12" d="M354.249,412.469c-.029.1-.056.2-.084.3l.168-.043c.021-.195.066-.144-.085-.253" transform="translate(-111.846 -29.717)" fill="#1a1311" fill-rule="evenodd"/>
    <path id="패스_13" data-name="패스 13" d="M354.462,413.466l-.127-.043c-.029.056-.057.112-.085.168l.168.127.085-.042c-.014-.07-.029-.141-.041-.21" transform="translate(-111.89 -30.208)" fill="#1a1311" fill-rule="evenodd"/>
    <path id="패스_14" data-name="패스 14" d="M337.8,422.155c1.172-.205,3.6.248,3.749.969.155-.084.072.02.126-.168,1.618,1.276,5.137,1.649,7.414,1.221h1.348l.632-.463h.507c.21-.112.42-.225.631-.336.019-.158.046-.07-.085-.169.624-1.046,1.878-.367,2.233-2.065a.573.573,0,0,1,.464-.169c-.012-.459-.165-.468-.253-.8l-.421-.042v-.254l-.042-.042a2.225,2.225,0,0,1-.8.042c.014-.042.028-.084.042-.125a2.668,2.668,0,0,1,.969-.043.957.957,0,0,0,.3-1.01c-.115-.158-.1-.1-.338-.085-.027-.042-.054-.084-.083-.126.437-.333.3-.6.505-1.18a2.413,2.413,0,0,0-1.39-1.011c.014-.042.028-.084.042-.127l.758.043.085-.127c.041-.042.083-.085.126-.127v-.042a6.427,6.427,0,0,1-1.853.084c-.015-.028-.027-.055-.042-.084v-.042a1.532,1.532,0,0,1,.505-.338l.043-.083c-.205-.041-.34,0-.506-.126a2.728,2.728,0,0,0-.338.463c-.028.028-.055.057-.084.085l.211.126v.085a9.443,9.443,0,0,0-4.128.674.82.82,0,0,0-.589-.253l-.422.21c.005.107-.005.05.042.169l-.3.042c.029-.1.056-.2.085-.3H346.9c-1.068.978-3.111.388-4.338.59-.043.07-.085.14-.126.211.027.071.055.14.083.211l-1.01-.042v-.127l.294.042.169-.295-1.306-.084.21-.379-.084-.127H340.5c-.079.195-.032.192,0,.464-.283.119-.315.076-.674.042v-.169a.314.314,0,0,1,.379.084,4.091,4.091,0,0,1,.337-.631,3.4,3.4,0,0,1-1.221.041c-.032-.143,0-.064.042-.21a5.047,5.047,0,0,0-1.517-.169v-.211h-.168c-.028.1-.056.2-.085.294l-.673.043c-.015.027-.028.055-.042.084.124.112.178.067.253.253-.15.06-.134.036-.211.169-.7.072-2,.117-2.781.21-.067-.083-.056-.057-.084-.21-2.3.179-3.734,1.236-2.992,4a5.7,5.7,0,0,0,.211,2.823l.59.885c2.874,1.353,3.819-1.9,5.94-2.276" transform="translate(-99.867 -31.19)" fill="#1a1311" fill-rule="evenodd"/>
    <path id="패스_15" data-name="패스 15" d="M376.349,417.107v.042l-.084.042c-.144.1-.258.071-.336-.127l.42.043" transform="translate(-123.036 -32.08)" fill="#1a1311" fill-rule="evenodd"/>
    <path id="패스_16" data-name="패스 16" d="M376.705,421.093h-.084v-.127c.085.076.031,0,.084.127" transform="translate(-123.392 -34.086)" fill="#1a1311" fill-rule="evenodd"/>
    <path id="패스_17" data-name="패스 17" d="M374.02,420.7l.168-.085.168.043v.042c-.013.042-.027.084-.042.126l-.252.043h-.042Z" transform="translate(-122.055 -33.908)" fill="#1a1311" fill-rule="evenodd"/>
    <path id="패스_18" data-name="패스 18" d="M374.773,420.966l.211.042-.759.38v.042c.029.042.056.084.085.126a9.47,9.47,0,0,1,1.348-.21l.042.042c-.028.113-.056.225-.084.337l-1.727.084-.043-.084a9.2,9.2,0,0,1,.927-.758" transform="translate(-121.965 -34.086)" fill="#1a1311" fill-rule="evenodd"/>
    <path id="패스_19" data-name="패스 19" d="M372.632,420.092l.253-.253h.084c-.058.216-.109.251-.337.3Z" transform="translate(-121.341 -33.507)" fill="#1a1311" fill-rule="evenodd"/>
    <path id="패스_20" data-name="패스 20" d="M371.588,420.1h.126l.085.043c-.056.1-.113.2-.169.294v.169l.421-.169h.042l.126.169c-.115.142-.294.17-.421.295l-.337-.042c.094-.238,0-.227-.042-.548l.169-.21" transform="translate(-120.718 -33.641)" fill="#1a1311" fill-rule="evenodd"/>
    <path id="패스_21" data-name="패스 21" d="M369.462,421l.126-.085c.012.135,0,.1-.042.253l.168-.043.126-.421h.169c.12.241.055.374.169.548a2.281,2.281,0,0,1-.926.042c.087-.149.143-.114.21-.295" transform="translate(-119.603 -33.953)" fill="#1a1311" fill-rule="evenodd"/>
    <path id="패스_22" data-name="패스 22" d="M357.2,422.134l-.084-.126.21.042-.127.085" transform="translate(-113.361 -34.622)" fill="#1a1311" fill-rule="evenodd"/>
    <path id="패스_23" data-name="패스 23" d="M358.7,420.88l.842.042v.042c-.3.24-.823.053-1.18.127l-.084-.042c-.015-.028-.028-.056-.042-.085l.463-.084" transform="translate(-113.941 -34.042)" fill="#1a1311" fill-rule="evenodd"/>
    <path id="패스_24" data-name="패스 24" d="M356.98,420.533l.463.085.084.126-.295.127c-.1-.085-.2-.169-.295-.253l.042-.085" transform="translate(-113.272 -33.864)" fill="#1a1311" fill-rule="evenodd"/>
    <path id="패스_25" data-name="패스 25" d="M355.985,421.876l.085-.042a.937.937,0,0,1,.336.085v.042h-.421Z" transform="translate(-112.782 -34.533)" fill="#1a1311" fill-rule="evenodd"/>
    <path id="패스_26" data-name="패스 26" d="M355.677,419.58c-.029.122-.07.113-.126,0Z" transform="translate(-112.559 -33.374)" fill="#1a1311" fill-rule="evenodd"/>
    <path id="패스_27" data-name="패스 27" d="M349.085,420.444v.042c-.181-.046-.119-.013-.211-.126.152.03.127.016.211.084" transform="translate(-109.126 -33.775)" fill="#1a1311" fill-rule="evenodd"/>
    <path id="패스_28" data-name="패스 28" d="M346.684,421.175a2.839,2.839,0,0,1-.716-.042c-.015-.015-.028-.029-.043-.042v-.042a.759.759,0,0,1,.505.042l.085-.085v-.126h.211c.014.029.027.056.042.084-.1.144-.06.045-.084.212" transform="translate(-107.61 -34.042)" fill="#1a1311" fill-rule="evenodd"/>
    <path id="패스_29" data-name="패스 29" d="M345.667,420.009v-.043l.21-.127h.295c.014.042.028.085.042.127v.043c-.21.1-.288.049-.547,0" transform="translate(-107.477 -33.507)" fill="#1a1311" fill-rule="evenodd"/>
    <path id="패스_30" data-name="패스 30" d="M345.275,417.408c.285-.01.977.074,1.222-.169.086.084.06.042.084.21a6.2,6.2,0,0,1-1.348.085c.015-.042.028-.085.043-.126" transform="translate(-107.253 -32.17)" fill="#1a1311" fill-rule="evenodd"/>
    <path id="패스_31" data-name="패스 31" d="M344.02,417.667l.168-.169c.176.066.1-.008.168.169l-.336.042Z" transform="translate(-106.63 -32.303)" fill="#1a1311" fill-rule="evenodd"/>
    <path id="패스_32" data-name="패스 32" d="M342.369,420.013h.127v.042l-.127.083Z" transform="translate(-105.781 -33.596)" fill="#1a1311" fill-rule="evenodd"/>
    <path id="패스_33" data-name="패스 33" d="M336.823,418.451h.126l-.084.169h-.042Z" transform="translate(-102.929 -32.793)" fill="#1a1311" fill-rule="evenodd"/>
    <path id="패스_34" data-name="패스 34" d="M374.228,415.67l.126-.168c-.086-.071-.15-.063-.337-.085-.029.07-.057.14-.084.211v.041l.126.085.169-.085" transform="translate(-122.011 -31.233)" fill="#1a1311" fill-rule="evenodd"/>
    <path id="패스_35" data-name="패스 35" d="M357.42,415.546a1.178,1.178,0,0,1-.505-.043l-.127.085c-.058.154-.1.083,0,.21v.126a.738.738,0,0,0,.59-.252c.014-.044.029-.085.042-.127" transform="translate(-113.164 -31.277)" fill="#1a1311" fill-rule="evenodd"/>
    <path id="패스_36" data-name="패스 36" d="M377.992,415.928l.084-.169-.505-.168c-.037.331.148.279.422.337" transform="translate(-123.878 -31.323)" fill="#1a1311" fill-rule="evenodd"/>
    <path id="패스_37" data-name="패스 37" d="M370.2,415.888c.1-.1.127-.076.084-.21-.1.028-.2.055-.295.085-.126.081-.07.006-.126.168.252-.047.157-.09.337-.042" transform="translate(-119.915 -31.367)" fill="#1a1311" fill-rule="evenodd"/>
    <path id="패스_38" data-name="패스 38" d="M371.719,415.93l.126-.085c-.059-.159,0-.086-.126-.168l-.127.085.042.126.085.042" transform="translate(-120.807 -31.367)" fill="#1a1311" fill-rule="evenodd"/>
    <path id="패스_39" data-name="패스 39" d="M372.969,415.763c-.083-.068-.058-.057-.21-.085-.042.041-.085.085-.127.126v.126l.337-.126Z" transform="translate(-121.341 -31.367)" fill="#1a1311" fill-rule="evenodd"/>
    <path id="패스_40" data-name="패스 40" d="M355.762,415.978c.013-.028.028-.056.042-.085l-.253-.041c.084.154-.019.071.169.126Z" transform="translate(-112.559 -31.457)" fill="#1a1311" fill-rule="evenodd"/>
    <path id="패스_41" data-name="패스 41" d="M358.318,415.893l-.211-.041-.042.126h.211l.042-.085" transform="translate(-113.851 -31.457)" fill="#1a1311" fill-rule="evenodd"/>
    <path id="패스_42" data-name="패스 42" d="M367.949,415.978l.084-.043-.084-.083Z" transform="translate(-118.933 -31.457)" fill="#1a1311" fill-rule="evenodd"/>
    <path id="패스_43" data-name="패스 43" d="M342.671,416.321c.014-.07.028-.14.042-.21h-.085l-.085.126v.042l.085.042Z" transform="translate(-105.871 -31.59)" fill="#1a1311" fill-rule="evenodd"/>
    <path id="패스_44" data-name="패스 44" d="M370.291,416.2l.084-.084h-.084Z" transform="translate(-120.138 -31.59)" fill="#1a1311" fill-rule="evenodd"/>
    <path id="패스_45" data-name="패스 45" d="M342.191,416.2h-.083c-.028.056-.056.113-.085.169h.042c.043-.055.084-.113.126-.169" transform="translate(-105.603 -31.634)" fill="#1a1311" fill-rule="evenodd"/>
    <path id="패스_46" data-name="패스 46" d="M338.064,416.832v.042l-.253.127c.11.256.471.083.8.042l.5-.758h-.084c-.439.443-.694.449-1.433.506v.042c.126.094.247.036.463,0" transform="translate(-103.329 -31.679)" fill="#1a1311" fill-rule="evenodd"/>
    <path id="패스_47" data-name="패스 47" d="M341.321,416.579l.084-.085.126-.084v-.126h-.168c-.052.116-.063.1-.042.21Z" transform="translate(-105.237 -31.679)" fill="#1a1311" fill-rule="evenodd"/>
    <path id="패스_48" data-name="패스 48" d="M343.008,416.369l-.17-.085c-.056.271-.137.234-.295.379.083.068.057.057.211.085.084-.127.169-.254.254-.379" transform="translate(-105.871 -31.679)" fill="#1a1311" fill-rule="evenodd"/>
    <path id="패스_49" data-name="패스 49" d="M344.009,416.41v-.126h-.126c-.141.1-.139.026-.21.21h.126l.21-.084" transform="translate(-106.451 -31.679)" fill="#1a1311" fill-rule="evenodd"/>
    <path id="패스_50" data-name="패스 50" d="M367.818,416.371c-.014.056-.028.113-.042.168h.042Z" transform="translate(-118.844 -31.724)" fill="#1a1311" fill-rule="evenodd"/>
    <path id="패스_51" data-name="패스 51" d="M338.643,416.458v.084l.084-.084Z" transform="translate(-103.865 -31.768)" fill="#1a1311" fill-rule="evenodd"/>
    <path id="패스_52" data-name="패스 52" d="M337.775,416.671c.06-.085.033-.064.043-.127-.014.042-.029.084-.043.127" transform="translate(-103.419 -31.813)" fill="#1a1311" fill-rule="evenodd"/>
    <path id="패스_53" data-name="패스 53" d="M362.79,416.713l-.041.042v.169c.225.016.251-.085.42.127.155-.075.251-.1.338-.254.1-.14.1-.174-.085-.253a.734.734,0,0,1-.632.169" transform="translate(-116.26 -31.813)" fill="#1a1311" fill-rule="evenodd"/>
    <path id="패스_54" data-name="패스 54" d="M336.8,416.717h-.127c-.089.1-.381.28-.463.548l.59-.294c.105-.062.015-.057,0-.254" transform="translate(-102.617 -31.902)" fill="#1a1311" fill-rule="evenodd"/>
    <path id="패스_55" data-name="패스 55" d="M367.294,416.76l-.126-.043-.084.169c.152-.047.123-.033.21-.126" transform="translate(-118.489 -31.902)" fill="#1a1311" fill-rule="evenodd"/>
    <path id="패스_56" data-name="패스 56" d="M357.2,416.976l.085.043c.028-.043.056-.085.084-.127h-.127l-.041.084" transform="translate(-113.406 -31.992)" fill="#1a1311" fill-rule="evenodd"/>
    <path id="패스_57" data-name="패스 57" d="M360.35,416.934l-.3-.042-.169.21c.015.028.028.056.042.084l.3-.084c.126-.081.07-.008.126-.169" transform="translate(-114.788 -31.992)" fill="#1a1311" fill-rule="evenodd"/>
    <path id="패스_58" data-name="패스 58" d="M361.793,416.976v.043c.16-.059.087,0,.169-.127h-.126c-.015.027-.028.055-.043.084" transform="translate(-115.768 -31.992)" fill="#1a1311" fill-rule="evenodd"/>
    <path id="패스_59" data-name="패스 59" d="M365,417.061c.041-.057.084-.113.126-.169h-.168l-.127.169Z" transform="translate(-117.329 -31.992)" fill="#1a1311" fill-rule="evenodd"/>
    <path id="패스_60" data-name="패스 60" d="M353.547,417.02l-.127-.042-.126.085-.085.168h.042l.3-.211" transform="translate(-111.355 -32.036)" fill="#1a1311" fill-rule="evenodd"/>
    <path id="패스_61" data-name="패스 61" d="M361.056,416.978l-.042.127.085.084c.038-.127.029-.111-.043-.21" transform="translate(-115.368 -32.036)" fill="#1a1311" fill-rule="evenodd"/>
    <path id="패스_62" data-name="패스 62" d="M335.645,417.321v-.168h-.127l-.084.252.084.085c.043-.055.084-.112.127-.169" transform="translate(-102.215 -32.126)" fill="#1a1311" fill-rule="evenodd"/>
    <path id="패스_63" data-name="패스 63" d="M340.463,417.321c.206.154.338.026.548-.042.013-.028.028-.056.042-.084l-.422-.042-.085.042-.084.126" transform="translate(-104.801 -32.126)" fill="#1a1311" fill-rule="evenodd"/>
    <path id="패스_64" data-name="패스 64" d="M351.119,417.237c-.055-.029-.112-.056-.169-.084l-.168.21.294-.043c.015-.028.028-.056.042-.084" transform="translate(-110.107 -32.126)" fill="#1a1311" fill-rule="evenodd"/>
    <path id="패스_65" data-name="패스 65" d="M352.34,417.153h-.085c.074.037.011.04.085,0" transform="translate(-110.865 -32.126)" fill="#1a1311" fill-rule="evenodd"/>
    <path id="패스_66" data-name="패스 66" d="M354.857,417.153v.336l.169-.042c-.037-.181-.044-.208-.169-.294" transform="translate(-112.202 -32.126)" fill="#1a1311" fill-rule="evenodd"/>
    <path id="패스_67" data-name="패스 67" d="M355.464,417.237l.084.084h.127c-.066-.176.009-.1-.169-.168l-.042.084" transform="translate(-112.514 -32.126)" fill="#1a1311" fill-rule="evenodd"/>
    <path id="패스_68" data-name="패스 68" d="M358.061,417.153h-.17v.125l.17-.084Z" transform="translate(-113.762 -32.126)" fill="#1a1311" fill-rule="evenodd"/>
    <path id="패스_69" data-name="패스 69" d="M356.592,417.323l.084.085c.029-.056.056-.113.085-.169h-.085c-.028.027-.055.056-.084.083" transform="translate(-113.094 -32.17)" fill="#1a1311" fill-rule="evenodd"/>
    <path id="패스_70" data-name="패스 70" d="M332.776,417.746l.379-.126c.186.078.176.166.295.295l.085-.169c-.042-.028-.085-.055-.127-.085.133-.09.316-.2.169-.336-.425.309-.918.121-1.138.547l-.126.127c.171.078.455.128.463-.253" transform="translate(-100.61 -32.214)" fill="#1a1311" fill-rule="evenodd"/>
    <path id="패스_71" data-name="패스 71" d="M351.823,417.411v.169l.126-.169Z" transform="translate(-110.642 -32.259)" fill="#1a1311" fill-rule="evenodd"/>
    <path id="패스_72" data-name="패스 72" d="M352.643,418.017c-.043.057-.084.113-.127.169l.084.085c.078-.1.085-.119.043-.254" transform="translate(-110.998 -32.57)" fill="#1a1311" fill-rule="evenodd"/>
    <path id="패스_73" data-name="패스 73" d="M359.713,418.228l.084.043a.342.342,0,0,0,.169-.254h-.211c-.014.07-.027.142-.042.211" transform="translate(-114.699 -32.57)" fill="#1a1311" fill-rule="evenodd"/>
    <path id="패스_74" data-name="패스 74" d="M360.927,418.316l.168-.043.085-.042v-.042c-.083-.067-.057-.057-.211-.085-.015.07-.028.141-.042.211" transform="translate(-115.323 -32.615)" fill="#1a1311" fill-rule="evenodd"/>
    <path id="패스_75" data-name="패스 75" d="M354.414,418.276c-.095-.076-.146-.082-.337-.084.034.146.049.137.337.126Z" transform="translate(-111.801 -32.66)" fill="#1a1311" fill-rule="evenodd"/>
    <path id="패스_76" data-name="패스 76" d="M355.24,418.234v-.042h-.169c-.014.057-.028.112-.043.169l.085.042.126-.168" transform="translate(-112.29 -32.66)" fill="#1a1311" fill-rule="evenodd"/>
    <path id="패스_77" data-name="패스 77" d="M357.63,418.318l.084-.084v-.042h-.168c.034.1-.041.04.085.126" transform="translate(-113.584 -32.66)" fill="#1a1311" fill-rule="evenodd"/>
    <path id="패스_78" data-name="패스 78" d="M360.408,418.361h.042c.027-.056.056-.112.084-.169h-.084c-.015.057-.028.112-.042.169" transform="translate(-115.056 -32.66)" fill="#1a1311" fill-rule="evenodd"/>
    <path id="패스_79" data-name="패스 79" d="M362.222,418.4v-.042c-.075-.126-.02-.1-.169-.169.045.208-.016.142.169.21" transform="translate(-115.902 -32.66)" fill="#1a1311" fill-rule="evenodd"/>
    <path id="패스_80" data-name="패스 80" d="M359.277,418.363l-.084-.084c.014.042.029.084.042.126.014-.014.028-.028.041-.043" transform="translate(-114.431 -32.705)" fill="#1a1311" fill-rule="evenodd"/>
    <path id="패스_81" data-name="패스 81" d="M354.251,419.532h.042l.085-.084v-.042h-.085c-.015.042-.029.085-.042.126" transform="translate(-111.89 -33.284)" fill="#1a1311" fill-rule="evenodd"/>
    <path id="패스_82" data-name="패스 82" d="M354.419,433.752v-.127h-.126c-.015.029-.029.056-.042.085l.168.042" transform="translate(-111.89 -40.595)" fill="#1a1311" fill-rule="evenodd"/>
    <path id="패스_83" data-name="패스 83" d="M355.94,434.233l.126.084v.042l-.169-.084.042-.042" transform="translate(-112.737 -40.908)" fill="#1a1311" fill-rule="evenodd"/>
    <path id="패스_84" data-name="패스 84" d="M339.243,440.776h-.168l-.085-.084c.014-.015.027-.029.042-.043.153.029.126.017.211.084Z" transform="translate(-104.044 -44.207)" fill="#1a1311" fill-rule="evenodd"/>
    <path id="패스_85" data-name="패스 85" d="M359.841,437.615h.085v.126l-.127.042c.015-.056.028-.112.042-.168" transform="translate(-114.743 -42.647)" fill="#1a1311" fill-rule="evenodd"/>
    <path id="패스_86" data-name="패스 86" d="M353.9,434.925c.042-.029.084-.056.127-.084l.168.084v.169h-.253l-.042-.043Z" transform="translate(-111.712 -41.221)" fill="#1a1311" fill-rule="evenodd"/>
    <path id="패스_87" data-name="패스 87" d="M354.411,472.207l-.421.043.169-.21.211.041c.014.029.028.057.042.085Z" transform="translate(-111.756 -60.347)" fill="#1a1311" fill-rule="evenodd"/>
    <path id="패스_88" data-name="패스 88" d="M355.9,459.46v-.169c.209.046.142-.015.211.169Z" transform="translate(-112.737 -53.792)" fill="#1a1311" fill-rule="evenodd"/>
    <path id="패스_89" data-name="패스 89" d="M354.693,439.144a15.854,15.854,0,0,0-1.1-1.18,9.577,9.577,0,0,0-2.232-1.475c-.2-.068-.485-.013-.717-.254-.028-.112-.055-.225-.084-.336a4.2,4.2,0,0,0-1.769-1.432.546.546,0,0,0-.127.379.893.893,0,0,0,.549.211.347.347,0,0,1-.17.253c-.164-.083-.205-.094-.295-.253l-.295.126a1.772,1.772,0,0,0-1.263-.294c-.224.406-.4.254-.8.126v-.294l-1.644-.043-.042-.084c.014-.027.029-.055.042-.084a4.983,4.983,0,0,1,1.812-.126l.041-.042v-.126l-1.348-.127c-.013-.029-.028-.056-.041-.085.233-.245.505-.031.842-.042v-.253a12.016,12.016,0,0,0-1.644-.085c-.078.172-.06.3-.252.379-.081-.206-.124-.025-.126-.253a7.394,7.394,0,0,1-2.444.926l-.127.169c.533-.056.6.029,1.1,0,.015.056.029.112.043.168-.842.791-1.2-.119-2.4.169a15.6,15.6,0,0,0-2.527,1.1l-.085.127.421-.127v.042c-.273.3-.739.376-.926.759-.239-.119-.091-.039-.042-.3-1.149.055-1.611,2.026-2.022,2.949-1.443,3.241-.257,8.011,1.769,10.363a16.838,16.838,0,0,0,3.707,2.064c.378.132.633-.032.885.168-.042.043-.084.085-.126.126.608.741,1.819.044,2.57.043v.084c-.141.056-.281.112-.421.169l-.084.126v.042a4.445,4.445,0,0,0,.927-.168l.757.126c-.019.192-.044.171.042.3.115-.121.071-.068.084-.212a3.58,3.58,0,0,1,1.683-.456s0,0,0-.007.017,0,.024,0a2.989,2.989,0,0,0,.651-.173c.348-.144.559-.472,1.011-.548-.014.071-.028.14-.042.211,1.51.141,3.708-1.357,4.508-2.359a7.713,7.713,0,0,0,.674-1.643c-.029-.112-.056-.224-.084-.336.14-.512.741-2.272.548-2.612a3.959,3.959,0,0,0,.926-1.516A16.259,16.259,0,0,0,354.693,439.144Zm-6.235,2.612c.111.124.184.111.253.294-.283.031-.339.146-.337.338v.084c.152.014.116,0,.253-.084.013.042.028.084.041.126v.042a.868.868,0,0,1-.589.211l-.085.042v.042c.186.121.284.1.338.378l-.084.043-.379-.169c-.04.159-.04.3-.084.548.2-.044.182-.044.253-.21l.085.084a3.143,3.143,0,0,1-2.4,1.98c.085.146.213.12.337.21-.36.351-1.2.235-1.6.211l-.043.042c.071.056.141.112.211.169-.013.042-.028.084-.043.126a2.162,2.162,0,0,1-1.389.253c.006.107,0,.049.043.169-.471.206-.822-.069-1.222-.253l-1.264-.505a4.675,4.675,0,0,1-1.264-4.382,5.009,5.009,0,0,1,3.538-2.948l1.558-.126c1.574.271,3.485.51,4,1.812v.463C348.868,441.248,348.873,441.326,348.458,441.757Z" transform="translate(-101.674 -40.595)" fill="#1a1311" fill-rule="evenodd"/>
    <path id="패스_90" data-name="패스 90" d="M363.825,470.951H363.7l-.084-.085.043-.042.168.084Z" transform="translate(-116.704 -59.722)" fill="#1a1311" fill-rule="evenodd"/>
    <path id="패스_91" data-name="패스 91" d="M365.172,439.692h-.043c-.041-.057-.084-.113-.126-.169h.169Z" transform="translate(-117.419 -43.628)" fill="#1a1311" fill-rule="evenodd"/>
    <path id="패스_92" data-name="패스 92" d="M367.386,439.822c-.015-.042-.029-.085-.043-.127h.126c.029.042.057.085.085.127Z" transform="translate(-118.622 -43.716)" fill="#1a1311" fill-rule="evenodd"/>
    <path id="패스_93" data-name="패스 93" d="M371.847,442.292H371.8l-.126-.169h.168Z" transform="translate(-120.851 -44.965)" fill="#1a1311" fill-rule="evenodd"/>
    <path id="패스_94" data-name="패스 94" d="M373.486,444.155l-.085.042c-.015-.027-.029-.055-.043-.084-.083-.109-.041-.039-.042-.168l.17.168Z" transform="translate(-121.688 -45.902)" fill="#1a1311" fill-rule="evenodd"/>
    <path id="패스_95" data-name="패스 95" d="M373.75,444.812c.027.056.055.112.084.169h-.043c-.083-.109-.041-.04-.041-.169" transform="translate(-121.911 -46.347)" fill="#1a1311" fill-rule="evenodd"/>
    <path id="패스_96" data-name="패스 96" d="M373.934,445.332a1.238,1.238,0,0,1,.252.927l-.084.042h-.043q-.063-.485-.126-.969" transform="translate(-122.011 -46.615)" fill="#1a1311" fill-rule="evenodd"/>
    <path id="패스_97" data-name="패스 97" d="M374.407,447.711l-.085.042c-.013-.085-.028-.168-.041-.253.1.073.072.042.126.168Z" transform="translate(-122.189 -47.729)" fill="#1a1311" fill-rule="evenodd"/>
    <path id="패스_98" data-name="패스 98" d="M358.671,434.055c.084.068.058.058.212.084.013-.056.028-.112.042-.168l-.085-.085h-.126c-.015.057-.028.112-.043.169" transform="translate(-114.163 -40.729)" fill="#1a1311" fill-rule="evenodd"/>
    <path id="패스_99" data-name="패스 99" d="M359.622,434.1v-.126h-.168v.126l.084.042.084-.042" transform="translate(-114.565 -40.774)" fill="#1a1311" fill-rule="evenodd"/>
    <path id="패스_100" data-name="패스 100" d="M359.972,434.4c.284.2,1.627.629,1.769.379l.127-.126c-.414-.359-1.072-.282-1.559-.422l-.253.042-.085.126" transform="translate(-114.832 -40.908)" fill="#1a1311" fill-rule="evenodd"/>
    <path id="패스_101" data-name="패스 101" d="M359.365,436.226l.085.042h.043c-.055-.126,0-.05-.084-.126-.016.028-.028.056-.043.085" transform="translate(-114.52 -41.889)" fill="#1a1311" fill-rule="evenodd"/>
    <path id="패스_102" data-name="패스 102" d="M340.808,439.437h-.085v.084c.028-.029.056-.056.085-.084" transform="translate(-104.935 -43.584)" fill="#1a1311" fill-rule="evenodd"/>
    <path id="패스_103" data-name="패스 103" d="M361.041,454.436c-.206.15-.366.021-.547.126l.253.043c-.015.084-.028.168-.042.252l.421-.21c.008-.15.026-.1-.085-.211" transform="translate(-115.1 -51.296)" fill="#1a1311" fill-rule="evenodd"/>
    <path id="패스_104" data-name="패스 104" d="M360.015,455.825c-.014.027-.028.056-.043.084l.169.085c-.058-.159,0-.087-.126-.168" transform="translate(-114.832 -52.01)" fill="#1a1311" fill-rule="evenodd"/>
    <path id="패스_105" data-name="패스 105" d="M357.415,456.949l.084-.084h-.126l.042.084" transform="translate(-113.496 -52.545)" fill="#1a1311" fill-rule="evenodd"/>
    <path id="패스_106" data-name="패스 106" d="M355.9,457.9l.127.21a.7.7,0,0,0,.59-.21l-.632-.169c-.029.057-.057.112-.085.169" transform="translate(-112.737 -52.99)" fill="#1a1311" fill-rule="evenodd"/>
    <path id="패스_107" data-name="패스 107" d="M397.432,461.634v.295h.042c.027-.029.055-.056.085-.085v-.2l0-.006Z" transform="translate(-134.093 -54.997)" fill="#1a1311" fill-rule="evenodd"/>
    <path id="패스_108" data-name="패스 108" d="M397.47,462.882v-.294h-.127c-.028.07-.056.139-.084.21v.043l.084.042Z" transform="translate(-134.004 -55.487)" fill="#1a1311" fill-rule="evenodd"/>
    <path id="패스_109" data-name="패스 109" d="M359.946,472.678c.069,0,1.007-.284.717-.38a1.1,1.1,0,0,1-.693.088l-.026,0c-.072.157.055.071,0,.288" transform="translate(-114.806 -60.48)" fill="#1a1311" fill-rule="evenodd"/>
    <path id="패스_110" data-name="패스 110" d="M395.612,473.077l.084-.084h-.084Z" transform="translate(-133.157 -60.837)" fill="#1a1311" fill-rule="evenodd"/>
    <path id="패스_111" data-name="패스 111" d="M359.454,473.25l.126.084h.042v-.168H359.5l-.041.084" transform="translate(-114.565 -60.926)" fill="#1a1311" fill-rule="evenodd"/>
    <path id="패스_112" data-name="패스 112" d="M413.386,473.25l.084-.084h-.084Z" transform="translate(-142.296 -60.926)" fill="#1a1311" fill-rule="evenodd"/>
    <path id="패스_113" data-name="패스 113" d="M353.725,473.425l-.085.042c-.028.071-.056.14-.085.21l.464.043.042-.126c-.109-.131-.1-.146-.337-.169" transform="translate(-111.533 -61.059)" fill="#1a1311" fill-rule="evenodd"/>
    <path id="패스_114" data-name="패스 114" d="M358.411,473.507c-.033.387.352.468.547.127-.125-.131-.27-.14-.547-.127" transform="translate(-114.028 -61.099)" fill="#1a1311" fill-rule="evenodd"/>
    <path id="패스_115" data-name="패스 115" d="M353.817,474.551l.253.085h.043l.084-.127-.253-.041-.126.084" transform="translate(-111.667 -61.595)" fill="#1a1311" fill-rule="evenodd"/>
    <path id="패스_116" data-name="패스 116" d="M395.124,371.6c.057-.468,1.339-5.1,1.339-5.1l1.151-4.183.042-.552-.12-.405-.536-.515-2.806-.826-.265-.239-2.111-.948-1.345.093-1.618-.477-.239-.389-3.92-1.068-.849-.017-5.237-1.542-.682-.522-.422-.094-.563.125-.916-.27-.687.349-.536,1.161-.7,1.374-.573,1.709-.673,3.21-.414,1.476-1.258,3.828-1.806,4.92-.1.5-.025.449.21.678.007.194-.018.2v.416l.02.07.488.287,1.4,1.394.256.1,2.064.155.111-.032,1.31.236,1.627.428,1.048.437.632.3.26.212,1.406.55.424.011,1.949.041,3.791,1.2.912.357,1.214.769.325.076,3-.17.352-.624,1.686-5.418a.337.337,0,0,0,.088-.04c.032-.02.066-.236.188-.439a6.339,6.339,0,0,0,.309-.805C394.633,373.117,395.092,371.856,395.124,371.6Z" transform="translate(-119.603)" fill="#004593"/>
    <path id="패스_117" data-name="패스 117" d="M395.917,371.215a.264.264,0,0,0,.2.113.277.277,0,0,0,.226-.141.675.675,0,0,0,.043-.6,1.011,1.011,0,0,0-.067-.114c-.051-.074-.173-.246-.242-.331a.328.328,0,0,0-.08-.067.232.232,0,0,0-.26.062.383.383,0,0,0-.05.062l-1.046,1.576v-1.309l1.273-1.92a.266.266,0,0,0,.2.113.277.277,0,0,0,.226-.141.666.666,0,0,0,0-.681s-.185-.266-.271-.372a.3.3,0,0,0-.065-.056.232.232,0,0,0-.271.058.385.385,0,0,0-.05.062l-1.046,1.576v-1.456a1.176,1.176,0,0,0,.232-.731,1.4,1.4,0,0,0-.064-.415l-.006-.013a1.1,1.1,0,0,0-.048-.12c-.025-.053-.251-.482-.251-.482l-.262-.529-.188.378s-.307.591-.332.648c-.013.029-.024.058-.035.089,0,0-.009.017-.007.018a1.347,1.347,0,0,0-.069.425,1.176,1.176,0,0,0,.232.731V369.1l-1.046-1.576a.385.385,0,0,0-.05-.062.246.246,0,0,0-.185-.079.227.227,0,0,0-.108.061c-.1.114-.314.389-.314.389a.666.666,0,0,0,0,.681.277.277,0,0,0,.226.141.266.266,0,0,0,.2-.113l1.273,1.92v1.309L392.8,370.2a.383.383,0,0,0-.05-.062.261.261,0,0,0-.142-.077h-.018a.107.107,0,0,0-.03.008.268.268,0,0,0-.064.042l-.022.023c-.116.127-.331.375-.331.375a.666.666,0,0,0,0,.681.277.277,0,0,0,.226.141.265.265,0,0,0,.2-.113l1.273,1.92v1.309l-1.046-1.576a.383.383,0,0,0-.05-.062.238.238,0,0,0-.218-.075.274.274,0,0,0-.094.073c-.1.12-.295.372-.295.372a.666.666,0,0,0,0,.681.277.277,0,0,0,.226.141.264.264,0,0,0,.2-.113l1.273,1.92v.723c-1.489-.134-3.657-.292-5.839-.325v-.745l2.341-2.479a.557.557,0,0,0,.788-.036.648.648,0,0,0,0-.879s-.377-.38-.522-.5a.4.4,0,0,0-.069-.043.56.56,0,0,0-.523.065.614.614,0,0,0-.092.08l-1.922,2.036v-1.69l2.341-2.479a.558.558,0,0,0,.788-.037.649.649,0,0,0,.088-.759c-.024-.043-.176-.213-.176-.213s-.3-.3-.431-.406a.481.481,0,0,0-.09-.052.561.561,0,0,0-.506.072.585.585,0,0,0-.092.08l-1.922,2.035v-1.69l2.341-2.479a.558.558,0,0,0,.788-.037.648.648,0,0,0,0-.879s-.377-.379-.522-.5a.4.4,0,0,0-.078-.047.558.558,0,0,0-.514.069.612.612,0,0,0-.092.08l-1.922,2.036v-1.881a1.246,1.246,0,0,0,.413-.758,1.34,1.34,0,0,0-.218-.914c-.076-.108-.48-.666-.6-.838l-.286-.394a.438.438,0,0,1-.038-.052l-.546.754a2.189,2.189,0,0,0-.614,1.258,1.249,1.249,0,0,0,.426.944v1.88l-1.922-2.036a.614.614,0,0,0-.092-.08.56.56,0,0,0-.544-.057,7.663,7.663,0,0,0-.571.535.648.648,0,0,0,0,.879.557.557,0,0,0,.788.037l2.341,2.479v1.691l-1.922-2.036a.587.587,0,0,0-.092-.08.558.558,0,0,0-.544-.057,7.656,7.656,0,0,0-.571.535.648.648,0,0,0,0,.879.557.557,0,0,0,.788.037l2.341,2.479V373.7l-1.922-2.036a.616.616,0,0,0-.092-.08.561.561,0,0,0-.464-.084.608.608,0,0,0-.154.084c-.16.139-.5.479-.5.479a.648.648,0,0,0,0,.879.557.557,0,0,0,.788.036l2.341,2.48v.743c-2.165.028-4.329.183-5.839.317v-.713l1.273-1.92a.265.265,0,0,0,.2.113.277.277,0,0,0,.225-.141.674.674,0,0,0,.038-.613c-.011-.024-.067-.113-.067-.113s-.162-.226-.241-.325a.325.325,0,0,0-.065-.059.232.232,0,0,0-.271.058.382.382,0,0,0-.05.062l-1.046,1.576v-1.309l1.273-1.92a.265.265,0,0,0,.2.113.277.277,0,0,0,.225-.141.673.673,0,0,0,.052-.579.988.988,0,0,0-.084-.148c-.036-.052-.188-.239-.271-.334a.382.382,0,0,0-.049-.046.137.137,0,0,0-.043-.021.24.24,0,0,0-.211.076.382.382,0,0,0-.05.062l-1.046,1.576v-1.309l1.273-1.92a.267.267,0,0,0,.2.113.277.277,0,0,0,.225-.141.675.675,0,0,0,.041-.605.852.852,0,0,0-.061-.1l-.244-.33-.009-.011a.256.256,0,0,0-.027-.031l-.029-.023a.253.253,0,0,0-.04-.018.235.235,0,0,0-.239.07.383.383,0,0,0-.05.062L380.7,369.1v-1.456a1.176,1.176,0,0,0,.232-.731,2.322,2.322,0,0,0-.365-1.023l-.212-.428-.053-.108-.432.87a2.118,2.118,0,0,0-.123.246,1.269,1.269,0,0,0,.156,1.175V369.1l-1.046-1.576a.361.361,0,0,0-.05-.062.231.231,0,0,0-.3-.044.345.345,0,0,0-.105.105l-.205.309a.666.666,0,0,0,0,.681.278.278,0,0,0,.226.141.265.265,0,0,0,.2-.113l1.274,1.92v1.309l-1.046-1.576a.36.36,0,0,0-.05-.062.231.231,0,0,0-.3-.044.345.345,0,0,0-.105.105l-.205.309a.666.666,0,0,0,0,.681.278.278,0,0,0,.226.141.264.264,0,0,0,.2-.113l1.274,1.92v1.309l-1.046-1.576a.36.36,0,0,0-.05-.062.231.231,0,0,0-.3-.044l-.021.015a.337.337,0,0,0-.049.053c-.063.089-.24.347-.24.347a.666.666,0,0,0,0,.681.278.278,0,0,0,.226.141.264.264,0,0,0,.2-.113l1.274,1.92v.787c-.771.075-1.237.131-1.237.131v3.005a59.929,59.929,0,0,0,17.107,0v-3.005s-.422-.051-1.128-.12v-.8l1.273-1.92a.264.264,0,0,0,.2.113.277.277,0,0,0,.226-.141.674.674,0,0,0,.036-.616,1.259,1.259,0,0,0-.078-.124c-.06-.086-.172-.242-.232-.316a.336.336,0,0,0-.09-.064.236.236,0,0,0-.243.069.383.383,0,0,0-.05.062l-1.046,1.576v-1.309Zm-8.645-7.687a.406.406,0,1,1-.383.406A.394.394,0,0,1,387.272,363.528Zm0,4a.406.406,0,1,1-.383.406A.395.395,0,0,1,387.272,367.531Zm0,3.333a.406.406,0,1,1-.383.406A.395.395,0,0,1,387.272,370.864Zm0,3.356a.406.406,0,1,1-.383.406A.395.395,0,0,1,387.272,374.22Zm-7.081,4.253a.98.98,0,0,1-.392.48.812.812,0,0,1-.465.125.655.655,0,0,1-.115-.016c-.165-.035-.544-.19-.412-.4.1-.163.412.173.643-.034.462-.433-.544-1.023.017-1.422.306-.217.622.034.75.355a1.037,1.037,0,0,1,.072.533A1.558,1.558,0,0,1,380.191,378.472Zm3.265.8a.681.681,0,1,1,.642-.68A.661.661,0,0,1,383.456,379.275Zm4.03.246a.928.928,0,1,1,.874-.926A.9.9,0,0,1,387.486,379.521Zm3.627-.246a.681.681,0,1,1,.642-.68A.662.662,0,0,1,391.113,379.275Zm3.78-.462c.228.172.522-.14.623.018.132.208-.247.364-.412.4a.91.91,0,0,1-.989-.6,1.269,1.269,0,0,1-.064-.752.909.909,0,0,1,.033-.1c.011-.026.025-.059.039-.09.137-.3.44-.525.734-.316.553.394-.42.973,0,1.4C394.861,378.785,394.887,378.808,394.893,378.813Z" transform="translate(-124.155 -3.75)" fill="#fff"/>
  </g>
</svg>
