<svg xmlns="http://www.w3.org/2000/svg" width="100" height="87.423" viewBox="0 0 100 87.423">
  <g id="haman" transform="translate(-141.46 -252.872)">
    <path id="패스_2" data-name="패스 2" d="M212.035,359.169a37.573,37.573,0,0,0,21.6,12.641c13.736,2.4,25.905,3.571,32.411-3.021s11.153-10.367,11.772-11.3,3.713-4.079,3.713-4.079,1.522-5.622-4.1-6.832-14.333,1.967-18.066,3.24-29.245,9.549-32.366,9.57S212.035,359.169,212.035,359.169Z" transform="translate(-48.692 -64.462)" fill="#51a221"/>
    <path id="패스_3" data-name="패스 3" d="M395.931,366.668a2.5,2.5,0,1,1-2.512-2.585A2.548,2.548,0,0,1,395.931,366.668Z" transform="translate(-172.129 -76.729)" fill="#fff"/>
    <g id="그룹_3" data-name="그룹 3" transform="translate(182.524 311.834)">
      <path id="패스_4" data-name="패스 4" d="M278.758,447.534l-.054-.029h.028Z" transform="translate(-277.214 -446.119)" fill-rule="evenodd"/>
      <path id="패스_5" data-name="패스 5" d="M275.662,461.414v.016l-.038-.038C275.646,461.381,275.652,461.408,275.662,461.414Z" transform="translate(-275.089 -455.699)" fill-rule="evenodd"/>
      <path id="패스_6" data-name="패스 6" d="M277.171,470.061v.017l-.048-.028C277.138,470.024,277.161,470.051,277.171,470.061Z" transform="translate(-276.123 -461.666)" fill-rule="evenodd"/>
      <path id="패스_7" data-name="패스 7" d="M330.756,449.127l.027-.026c.02.053.087.038.129.082l.088-.016a.033.033,0,0,0,.016.027h.038c.021.07.109-.081.132.027.031-.037.053.028.091.029v.02c.059.04.12,0,.18-.009.076.028.1.185.195.131,0,.092.1.148.159.186,0,.022.027.032.037.048l.056,0c-.022.021-.011.055-.011.082.124.012-.039.218.085.261-.033.054-.021.135-.065.2l.044.038c-.1.042-.082.162-.122.244.07.044-.022.072-.039.11.049.038-.038.086-.027.14.077.109-.081.168-.039.262V451h-.015l-.012.1c-.028-.027-.06.005-.076.029.016.065.076.082.01.129-.016.007-.01.029-.01.039.037.048-.043.124-.016.185-.029.02-.056.06-.029.092l.017.011c-.017.082-.071.006-.105.065.055,0,.06.066.088.093-.006.033-.1.038-.05.093v.038c-.054.027-.006.136-.082.158.023.1-.07.152-.066.244s-.121.071-.105.175c-.059.016-.065.065-.076.114.016.082-.121.082-.056.168-.092.049.038.1-.027.157.077.094.13-.074.2,0,.08.039.055-.135.131-.038.048-.055.13-.034.2-.027.048.049.125,0,.131.093.114-.07.326.012.435-.074.049.015.169-.043.207.049.055.005.05-.081.1-.048.038.011.054.054.093.011.07.109.191-.027.261.095.054-.034.13,0,.186-.027.07.06.153,0,.233,0V452.9c.011.027.043.082.076.038.049-.044.114.028.168.044.082-.1.163.022.251.011.043-.026.1.061.14,0,.093.021.212-.054.261.066.087.028.246-.014.306.093.053.017.135-.053.167.029h.05c-.033.049.054.1.081.131.061-.016.037.082.1.048-.039.1.142.154.075.278-.031.071.082.229-.065.235.037.109-.121.1-.1.207-.06,0-.114.075-.17.053.006.026-.042.049-.076.049h-.066c0-.009-.01-.016-.016-.022-.028.045-.109.011-.1.076a.2.2,0,0,0-.159.012c-.016-.034-.048-.034-.074-.05-.029.033-.049.038-.083.01-.038-.01-.054.049-.087.054.015-.092-.091-.054-.12-.054s-.1-.055-.158-.012c-.033-.1-.12-.017-.17-.039a.019.019,0,0,1-.026.01l-.038-.038c-.011.021-.038.011-.054.011.011-.016-.017-.027-.022-.038-.043.028-.06.038-.109.011l-.011-.011c-.045.011-.088.1-.132.037-.13.077-.254-.147-.39-.011a.305.305,0,0,0-.208.091c-.01.087.022.13.011.233.022.018.06.018.064.05l-.027.027c.06.022.038.105.08.132-.038.06-.016.114-.108.144-.039.051-.056.1-.115.088-.011.075-.12.1-.092.174-.023.093-.154.071-.094.179-.076-.039-.044.1-.092.091-.093.061-.024.158-.116.207a.426.426,0,0,1-.017.185l-.066,0c.087.133-.158.119-.078.235-.1.048-.058.12-.141.195,0,.067-.083.109-.055.169-.071.016-.033.084-.056.119-.032.12-.212.1-.181.251-.124.048-.071.228-.2.261-.02.021-.011.059-.015.086-.049-.011-.039.048-.078.066a.048.048,0,0,1-.037.064c-.007.092-.1.141-.105.2-.043.071-.108.147-.081.223.065.055-.018.136,0,.222-.033.017-.027.05-.027.077-.055.033-.088.093-.153.131-.011-.017-.028-.012-.044-.012-.066.032-.018.142-.114.121-.082-.006-.154-.116-.262-.121-.086-.121-.25-.22-.211-.366.027-.016.027-.044.043-.063l-.054-.056-.011.017c-.026-.044-.081-.093-.042-.148.026.012.038-.011.053-.027a.256.256,0,0,1,.029-.207v-.224l.049.029c.039-.022,0-.044-.009-.066h-.029v-.027l.029.027c.02-.011.01-.045.01-.066-.1-.043.023-.1,0-.157.006-.011.051-.032.017-.05a.114.114,0,0,0,.049-.119l-.011-.011-.038.05c.04-.257.08-.523.106-.769l.028-.027c-.066-.027.01-.064-.016-.1l.043-.045a.087.087,0,0,1-.043-.076c.033.011.059-.027.066-.054-.018-.023-.05-.038-.039-.076.077-.045.056-.137.04-.207-.017-.044.07-.1,0-.148l.065-.065c-.065-.016-.12-.1-.2-.094-.113-.1-.2.043-.309-.076a.414.414,0,0,1-.185.01c-.021-.016-.005-.065-.048-.049-.011.082-.116.021-.122.1h-.038c.011-.022-.016-.039-.027-.056a.463.463,0,0,0-.272.109l-.016-.017c-.038.045-.175.016-.132.1-.022.017-.048.065-.094.065l-.01-.011c-.071.048-.087.2-.207.14a.075.075,0,0,0-.093,0,.253.253,0,0,1-.3-.153c-.06-.033.01-.082-.027-.12-.055.012-.087-.076-.147-.027-.053-.061,0-.169-.076-.235-.042.044-.07-.032-.119-.026,0-.023.012-.1-.047-.115-.044-.039.026-.055.01-.093a1.155,1.155,0,0,0,.04-.38c.044-.081.029-.255.067-.325.016-.082.131-.1.111-.18l-.019-.016c.133-.065.122-.229.252-.3.044-.06.06-.137.131-.185s.229.011.3-.1l-.011-.011c.06-.054.154-.114.17-.2.065,0,.071-.1.158-.1,0-.131.137-.168.143-.3a.979.979,0,0,0,.17-.153c-.01-.125.115-.207.169-.287.05.016.065-.033.093-.053l-.028-.028a1.4,1.4,0,0,0,.2-.283c.114-.031,0-.146.12-.172-.012-.006-.021-.033-.037-.022-.043-.165.179-.017.142-.175.038-.1.05-.249.17-.3-.021-.022,0-.059-.011-.094.018-.01.055-.005.055-.037v-.038c.033,0,.033-.043.05-.065-.071-.043-.06-.173-.17-.142l-.076.066a.438.438,0,0,0-.26-.132c-.066.076-.12-.1-.186-.017l-.01-.012-.055.049c-.033-.1-.087.032-.158-.011-.058-.137-.229-.05-.326-.131-.124-.021-.14-.181-.271-.207-.066-.044.027-.141-.081-.148.015-.016.015-.038.041-.049-.1-.082.078-.142,0-.212a.874.874,0,0,1,.132-.18.044.044,0,0,0-.017-.043l.017-.011.021.028.027-.026-.01-.011c.108.02.065-.175.18-.121.043-.009.125.023.158-.037,0-.108.126-.065.211-.091l.021.026.082-.064c0,.033.049.033.076.05a.293.293,0,0,1,.095-.088c.047.006.092-.027.14.022a.529.529,0,0,1,.306.018c.033-.1.135.033.181-.065C330.586,449.106,330.673,449.106,330.756,449.127Z" transform="translate(-311.211 -447.211)" fill-rule="evenodd"/>
      <path id="패스_8" data-name="패스 8" d="M291.051,453.368c.048.044.13.037.158.094h.038c-.007,0-.017.016-.012.027a.074.074,0,0,0,.065.027.063.063,0,0,0,.027.066c-.021.01-.01.032-.016.049.077.027.126.126.158.2-.06.075.152.121,0,.185.1.087.033.2.1.288-.012.015-.055.015-.04.049.044,0,.033.055.04.083-.083.043.009.207-.078.271.021.077-.023.142,0,.214s.077.1.119.13c.082.066.3-.031.326.132.038.022.113.066.131-.015.087.109.222.006.326.094.049-.071.1.016.152.026.081.012.23-.03.288.041.028-.005.044-.038.082-.027.017.018.007.071.049.055l.027-.055c.028.018.126.071.184.018a.139.139,0,0,1,.17.038.1.1,0,0,0,.049-.027v.055a1.169,1.169,0,0,1,.381-.08c.076-.011.174.022.25.017,0,.01,0,.032.011.038.039-.054.088-.011.131-.016,0,.034.091,0,.076.066l.108.093-.028.027c.1.028.066.154.141.207-.011.082.011.115,0,.213s-.092.179-.066.26c-.169.016-.169.245-.356.26-.042.007-.06.082-.113.065,0-.023.011-.056-.016-.065-.065.015-.01.076-.087.091s-.151.022-.2.067a.129.129,0,0,1-.13.02c-.034-.055-.083,0-.121,0-.043.063-.142.01-.207.041-.077-.031-.163.071-.223-.015-.093.005-.17.086-.261.052.01-.021-.017-.038-.027-.053-.06.064-.154-.011-.2.015-.026-.1-.087.048-.13-.044l-.012.016c-.027-.055-.07.01-.108-.028-.082.022-.12-.066-.207-.055-.038-.07-.061.032-.1.016-.06-.033-.13.06-.158-.027-.119.027-.19-.1-.287-.093.016-.116-.137-.034-.158-.132-.076-.044-.037-.141-.1-.2l-.011.016c-.022,0-.011-.06-.054-.043a.339.339,0,0,0-.116.249c-.044.05-.022.125-.066.169-.011.152-.1.294-.109.43a1.355,1.355,0,0,0-.106.369c-.017.005-.038.039-.048.012-.011.01-.034.019-.028.037s.032.011.048.017a.4.4,0,0,0-.021.179.045.045,0,0,0-.044.017c.044.1-.044.222-.04.336-.076.267-.094.533-.183.794.006.179-.065.386-.045.6-.033.059.01.157.015.234.018.109.093.207-.039.288-.027.044-.048.021-.081.066-.282-.068-.233-.4-.308-.617.038-.125-.038-.288.066-.4a4.059,4.059,0,0,1,.184-1.241c.083-.218.106-.484.187-.669.045-.132.046-.228.079-.363a3.891,3.891,0,0,1,.093-.4c-.011-.1.071-.206.055-.306-.022-.048.038-.125,0-.169.049-.065.011-.126.039-.2h.028c-.017-.077.065-.125,0-.2.1-.054-.059-.142.049-.179-.043-.136.077-.125.056-.251.032-.053-.017-.087.039-.13-.051-.022-.016-.071-.028-.1.015-.007.042.009.054-.016-.1-.055.027-.147-.016-.218l.043-.044c-.064-.038.038-.092-.026-.141.043-.027.011-.06.011-.093a.347.347,0,0,1-.011-.157l.037-.039c-.022-.033-.06-.028-.075-.067.053-.021,0-.059,0-.092l-.043-.02c0-.029.049-.055.016-.084l-.016-.009.027-.029c-.032-.015-.032-.069-.048-.1.087-.048-.016-.157.087-.2-.042-.049.028-.043.043-.081C290.981,453.269,290.979,453.416,291.051,453.368Z" transform="translate(-284.983 -450.115)" fill-rule="evenodd"/>
      <path id="패스_9" data-name="패스 9" d="M315.178,454.578c.1-.081.083.1.186.041l.054.053-.016.01c.033.044.08.06.093.094a.23.23,0,0,0,.076.131c.026.006.01.048.026.064-.01.081.136.18.037.262.033.011.017.033.044.054,0,.039-.061.083,0,.114h.009c-.114.065.059.153-.055.212.027.042.023.064-.021.1.047.06-.055.136.038.186l-.094.086c.136.061-.093.142.038.213-.087.076,0,.146-.028.234a.885.885,0,0,0-.067.428.114.114,0,0,0,.13.018c-.006.017.016.023.029.039.135-.038.227.125.364.078.059-.01.1.075.157.028.055.044.136.038.2.092l.015.012c.06-.109.116.037.18.027.12-.043.18.082.287.029.045.027.044.076.093.1.054-.054.119,0,.169-.038.032.067.119.012.157.067.06-.027.033.044.049.065,0,.06.05-.017.055.027a.539.539,0,0,1,.26.415c.011.065-.087.076-.053.157-.121-.071-.082.13-.181.12-.053.081-.12.086-.211.113-.093-.021-.164.047-.235.043a.056.056,0,0,0-.065-.043c-.033.064-.07-.006-.114.016a3.037,3.037,0,0,0-.839,0c-.038-.034-.125-.007-.169-.018-.021-.01-.06.093-.081,0h-.078a.025.025,0,0,0,.028-.01c-.115-.1-.26-.2-.287-.34a.7.7,0,0,1-.167-.175c-.04.012-.04.054-.056.083.006.044-.056.1-.049.158-.083.136-.139.282-.225.413a3.534,3.534,0,0,1-.279.52l-.022-.021a.264.264,0,0,0-.065.114c.01.022.038.012.065.017-.093.1,0,.18-.083.282.027.141-.116.223-.094.344a.371.371,0,0,0-.065.272H314.3c.021.053-.044.153.026.193,0,.034-.031.061.013.084.064-.017.118-.066.183-.082a2.117,2.117,0,0,1-.131.224c.011.07-.088.136-.121.194-.064.026-.109.086-.18.064-.044-.135-.222.011-.211-.168.006-.1-.131-.149-.065-.251l-.049-.028c.017-.114.029-.217.039-.337-.006-.071.006-.076.039-.142-.043-.043-.027-.126-.011-.174.1-.135.066-.348.117-.495-.006-.077.065-.164.038-.246.081-.047,0-.109.045-.173.065-.006-.028-.05.022-.077a1.6,1.6,0,0,1,.091-.271,1.051,1.051,0,0,1,.084-.289l-.016-.016c.114-.033,0-.136.093-.2-.005-.016.013-.038-.01-.049.038-.033.114-.06.049-.121-.011-.043.136-.064.027-.113,0-.064.093-.026.076-.092l-.037-.028c.1-.06.016-.141.1-.206-.048-.093.094-.121.028-.2.077-.027.082-.108.095-.174.042-.021.016-.114.092-.131-.1-.087.06-.178.077-.234.028-.037,0-.13.038-.178-.049-.035-.022-.044,0-.066.114.017.043-.082.119-.118-.01-.061-.086-.132-.1-.224a.283.283,0,0,0,.066-.05l-.082-.054c.027-.01.01-.037.017-.055.01.006.015,0,.026-.01-.026-.038-.016-.148-.091-.158,0-.093-.1-.126-.064-.225-.033.011-.06-.026-.065-.048s.065-.055.026-.094c-.038.011-.038-.037-.052-.054l.038-.039c-.065-.029-.006-.064-.028-.114.067-.01.016-.06.017-.093.1-.032.043-.167.159-.195.065.028.049-.038.087-.066C315,454.544,315.141,454.453,315.178,454.578Z" transform="translate(-301.405 -450.945)" fill-rule="evenodd"/>
      <path id="패스_10" data-name="패스 10" d="M306.891,464.423c-.034-.031-.034-.1-.092-.114-.18.064-.245-.159-.325-.252-.039-.027-.114-.022-.114-.093h-.029a.2.2,0,0,0-.3,0c-.027.13-.153.016-.213.118a.041.041,0,0,1-.011.065c-.109-.021-.1.088-.185.131-.01-.027-.032.006-.049.01-.088.065-.132.19-.252.223.011.124-.168.13-.2.249.022.1-.131.109-.077.208-.016,0-.02-.007-.026-.012,0,.115-.158.114-.119.234-.05.045-.073.142-.142.186.043.033-.022.059-.039.086l.027.027c-.017.011-.022.034-.044.027a.043.043,0,0,1-.012.067c.027.02,0,.07.027.092-.1.065.028.124-.054.2.071.012.016.066.026.1.07.044-.033.109.038.157l.015-.014.024.027c-.008.135.172.11.145.224a.207.207,0,0,0,.168.065c.077.011.077.093.119.143.072.027.049-.079.115-.066a.806.806,0,0,0,.213-.167l.011.016.054-.054c.087.027.12-.076.2-.129.1-.022.1-.169.208-.158.07-.043.212-.058.2-.178a2.6,2.6,0,0,0,.683-.715c.012-.095-.022-.188.029-.279C306.781,464.716,306.971,464.581,306.891,464.423Zm-.394.642c-.011.043-.213.2-.262.286-.027.012-.049.1-.049.1-.191-.011-.355.217-.55.2-.049-.049.075-.1.065-.2h.039a1.155,1.155,0,0,0,.17-.245c.016-.037.082-.026.065-.08.076-.017.366-.364.366-.364.049-.033.191-.109.185.016a.177.177,0,0,0-.028.169c.022.007.027-.016.038-.028-.021-.021,0-.076.027-.076h.028C306.6,464.884,306.53,464.994,306.5,465.065Z" transform="translate(-295.126 -457.428)" fill-rule="evenodd"/>
      <path id="패스_11" data-name="패스 11" d="M277.792,452.241c-.022-.054.048-.131-.012-.185-.136.022-.059-.131-.118-.18-.092-.061-.07-.2-.152-.262l-.015.011c-.077-.033-.016-.093-.065-.131.053-.109-.1-.169-.13-.262-.093,0-.065-.131-.141-.159-.029.006-.056.049-.082.017.006-.131-.206-.164-.168-.279-.108-.06-.009-.2-.048-.261a.676.676,0,0,0,.143-.309c.087-.157-.02-.349.141-.474a.055.055,0,0,0-.02-.065c.018-.032.109-.081.04-.13,0-.082.1-.174.01-.245l.039-.044c.027-.05-.038-.033-.038-.077.131-.038-.049-.109.065-.157-.015-.114.039-.152.039-.261-.081-.066,0-.148-.064-.224l.016-.01c0-.061-.054-.071-.093-.1.043-.07-.02-.148-.027-.195-.049-.06-.135-.116-.14-.186-.044-.19-.29-.105-.343-.274-.05-.005-.007.054-.05.065l-.017-.016-.022.027c-.059,0,0-.038-.015-.064-.044-.094-.1-.035-.18-.051-.017-.017-.038-.032-.028-.054l-.054.037c-.011-.027-.027-.05-.038-.076-.012,0-.033,0-.038.011l-.038-.037c-.032.005-.072-.013-.092.01-.049.012-.087.016-.1-.037-.1,0-.229.014-.278-.078-.039,0-.082,0-.093.037-.032-.021-.1.043-.131-.011a.045.045,0,0,0,.016-.043.3.3,0,0,0-.184.042.742.742,0,0,1-.159-.131c.029-.016.034-.054.066-.042.016-.142.181-.213.279-.3l.011.016.158-.12c.087-.112.233-.141.336-.231a2.979,2.979,0,0,0,.439-.25c.08,0,.157-.1.243-.129a.149.149,0,0,0,.2-.066c.076-.016.2,0,.262-.064.038-.1.174-.075.261-.113.012-.066.082-.087.093-.159.06-.031.04-.123.121-.145-.01-.039.07-.07.012-.1.016-.011.027-.038.055-.038.011-.033-.028-.044-.043-.066l.091-.055a.2.2,0,0,1-.075-.114c-.033-.037.011-.1-.039-.13.05-.082-.1-.137-.025-.224a.093.093,0,0,1-.093-.039c.11-.081-.054-.168-.025-.249-.06-.027-.038-.082-.1-.115l.011-.016c0-.032-.038-.059-.065-.092l.016-.012c-.016-.043-.082-.055-.055-.1.017-.082-.081-.05-.064-.132-.082-.016-.044-.12-.115-.147a.307.307,0,0,1-.016-.086c-.081-.034-.049-.175-.129-.187-.028.012-.048-.01-.038-.038-.01-.029-.037-.073-.065-.066-.066-.012-.032-.082-.066-.1.094-.107-.135-.075-.075-.2-.077.038-.07-.071-.108-.109-.1,0,0-.1-.088-.115.006-.13-.179-.016-.174-.148a.351.351,0,0,0-.1-.021.732.732,0,0,1-.338-.083l-.027.037-.028-.021v.021a.143.143,0,0,1-.115.043.172.172,0,0,0-.12.114c-.011.006-.021-.006-.026-.012a.085.085,0,0,0-.027.1c-.022.022-.039.056-.078.038-.011.039.021.056.028.083-.039.028-.153.048-.093.13-.11.042-.018.153-.028.205-.077.131.042.267-.013.393.175.033.011.222.157.235a.188.188,0,0,1,.039.13c.064.021.08.115.13.131l-.016.017a.326.326,0,0,0,.146.207c-.039.06.109.087.075.168.114.007.048.148.146.171a.332.332,0,0,0,.168.251.458.458,0,0,0,.1.168l.011-.011.027.027-.011.011h.038c.011.017.039.028.028.055a.185.185,0,0,0,.14.1c0,.022.011.048-.011.065l.076.038c-.05.034-.011.087.016.118a.105.105,0,0,0-.093.1c-.021.065-.1.053-.093.13a5.6,5.6,0,0,1-1.243.807c-.059-.023-.121.053-.168.01-.114.076-.256,0-.392.026-.065-.054-.115-.005-.185-.039-.071.038-.164.021-.234.065l.027.023a.821.821,0,0,0-.252.369c-.028.07,0,.137-.066.168-.027.06.043.017.054.067-.016.009-.033.037-.055.037-.049.056.038.049.029.1s-.046.1.025.121c-.072.071.082.136-.027.195,0,.033.043.033.064.049-.005.027.01.055-.011.065.1-.006.076.114.1.158-.1.131.141.066.064.186.017.032.049.032.076.049.092,0,.13.169.278.109.082.029.1.1.179.115.082.055.212-.059.25.056h.039c.033-.006.086,0,.064.049h.027a.1.1,0,0,1,.028-.049c.011.017.031.028.022.049l.093-.009c.027-.011,0-.056.038-.056-.017.126.147.05.158.112l.233.021c.038.011.077.06.044.092.093.055-.022.088.038.168-.121.053.076.116-.018.158l-.01.1h-.01c.048.087-.035.1-.084.145a.474.474,0,0,0,.017.159c-.116.059-.078.212-.094.31-.135.1-.04.266-.17.353.021.012,0,.039.011.055-.017.011-.028.033-.055.022a1.132,1.132,0,0,0-.066.119l-.012.235H275.2c.082.081-.048.1-.038.183-.016.029-.044.029-.065.038-.011.037.017.061.01.093-.092-.007-.043.076-.038.131-.033.021-.055.059-.027.091-.207.06.022.251-.143.311l.065.029c-.065.059-.033.13-.043.195H274.9a.362.362,0,0,0,.048.131c-.049.126.087.169.065.273.088-.022.032.075.065.109l.038-.016c.027.016.064.016.064.054-.069.054.045.1.067.142l-.012.016c.032.1.206.341.233.419.038.026.072-.05.092.016.11-.01.209.034.317,0a.277.277,0,0,0,.125.069c.062.014.3.117.268.057a.258.258,0,0,0,.2-.083.5.5,0,0,0,.286-.036l.16-.083c.01.036.1,0,.168-.048a.342.342,0,0,0,.084-.071c.055-.007.112-.083.193-.168.04-.042.122-.056.158-.1.054-.062.082-.142.1-.164,0-.087.1-.026.082-.118.017-.028.049-.039.077-.055C277.752,452.393,277.819,452.322,277.792,452.241Zm-1.233.272c-.066.047-.147-.046-.224-.184-.023-.038-.081,0-.1-.038a.757.757,0,0,1-.021-.218,1.2,1.2,0,0,0-.073-.241l-.006-.1c-.04-.28-.011-.587.287-.636s.47.455.284.92C276.843,452.071,276.718,452.4,276.559,452.512Z" transform="translate(-273.899 -443.035)" fill-rule="evenodd"/>
      <path id="패스_12" data-name="패스 12" d="M284.562,474.022c.1,0,.157-.039.238.01.049.126.2.208.2.354.017.006.038-.009.049.017-.046.071.026.071-.011.142a.073.073,0,0,0,.066.027c0,.011-.006.016-.018.027a.209.209,0,0,1,.044.142c.022.01.033.055.065.037a.419.419,0,0,1,.235-.158c-.042-.1.125-.014.132-.113.076,0,.092-.07.169-.063l.027-.027c.021.037.038-.017.065-.011.05-.1.207-.071.272-.184.065.038.18-.005.235-.037.059-.054.184-.048.277-.081.039-.016.148-.016.17-.048a1.558,1.558,0,0,1,.327-.026c.054-.05.157-.011.207-.038.044.055.245-.005.261.05.092.065.1-.065.174-.01a.127.127,0,0,0,.18.065.469.469,0,0,1,.2.056.169.169,0,0,1,.2.039.332.332,0,0,0,.183.115l.011-.011c.05.061.207.105.157.208a.345.345,0,0,1,.1.173l-.065.076a.022.022,0,0,1,0,.038c-.017.066-.127.032-.093.119-.115.048-.256.1-.273.224-.038.1-.244.134-.169.281-.088.022-.062.142-.16.129.01.127-.189.076-.14.2a.366.366,0,0,0-.132.2c-.028.06-.174.036-.131.13a.342.342,0,0,0-.093.082l.038.038-.012.01c.044.088.1,0,.153-.01a8.274,8.274,0,0,1,1.715-.085l.026.027-.026.026c.07,0,.173.05.26.012l.027-.027v.043c.088-.016.18.056.245.105,0,.02-.05.042-.011.065.033-.018.038.031.049.048-.1.082-.19.031-.326.027a4.538,4.538,0,0,0-2.156.187l.015.018c-.087.1-.233,0-.278.129-.076.016-.114.027-.2.037-.011.029-.017.065-.065.05,0-.011,0-.016-.01-.021s-.012.021-.012.037c-.061.06-.076.022-.147.048-.038.027-.022.131-.092.083-.071.027-.115.173-.207.112-.054.017-.077.131-.143.094l-.054.064c-.005-.016-.027-.011-.038-.011l-.016.065a.021.021,0,0,0-.038,0c-.034.076-.082-.006-.078.092-.049-.011-.091.043-.129.021-.088.092-.224.107-.278.221-.055-.006-.049.07-.1.082a.551.551,0,0,0-.289.14c-.218.118-.393-.071-.61.009a.1.1,0,0,1-.093-.066c.028-.053-.065-.131.028-.152.022-.022,0-.054.011-.082.06-.027.039-.13.119-.141v-.028c.089,0,.039-.1.106-.13.113-.076.191-.162.31-.248l.016.015c.034-.222.295-.162.355-.34.039-.137.169.021.18-.13a.14.14,0,0,0,.12-.05l.011.011c.022-.027.07-.044.054-.092.1,0,.131-.17.246-.13-.032-.053.066-.066.083-.1a.123.123,0,0,1,.065-.01c.1-.142.257-.228.355-.363,0,.022.033,0,.049.01-.01-.1.126-.086.1-.168.038-.038.114-.033.147-.038.022-.055.05-.109.115-.109a.591.591,0,0,1,.239-.259c-.048-.105.12-.05.116-.153a.322.322,0,0,0,.1-.158c-.06-.07-.126-.011-.179-.038-.007,0-.018.016-.028.011l-.027-.027a2.108,2.108,0,0,1-.44,0,1.658,1.658,0,0,1-.289.015c-.055.069-.158.015-.214.086-.146-.055-.213.092-.337.13.021.08-.125.1-.093.212,0,.022-.011.049.014.065a.673.673,0,0,0-.091.077l-.038-.038c-.054.119-.191.01-.251.1-.092.015-.078.118-.169.156l-.017-.01c-.085.086-.234.082-.283.2l-.043-.01c-.017.1-.2.157-.285.243l-.015-.011a1.721,1.721,0,0,1-.182.288,1.5,1.5,0,0,0-.251.309c-.028.131-.061.228-.094.343.026.054-.038.082-.065.115-.027.13-.1.212-.095.342a.708.708,0,0,0-.132.309.386.386,0,0,1-.011.263.074.074,0,0,1-.027.1c.064.118-.077.2-.051.3-.082.043,0,.108-.082.153v.08c-.048-.005-.006.056-.048.066l.021.027c-.082.033-.033.135-.143.114-.049-.027,0-.093-.064-.114-.071.1-.206,0-.3.086-.07,0-.168.071-.212-.012l-.039.011c.006-.06-.06-.114-.037-.168a.135.135,0,0,0-.1-.077,1.088,1.088,0,0,1,.028-.277c-.072-.065.021-.2-.027-.272.11-.054.013-.191.077-.289-.075-.049.033-.081.04-.13l-.049-.028c.015-.1.076-.224,0-.338a.21.21,0,0,1,.067-.167c-.056-.012.016-.06.01-.094.022-.037.034-.107.068-.157-.071-.13.13-.07.081-.178.039-.034.017-.087.024-.131.158-.109.114-.327.278-.435-.065-.066.071-.065.028-.152.088-.032.027-.13.105-.174-.071-.082.091-.064.026-.151.034-.012.05-.044.078-.064-.039-.05.07-.115,0-.149.108-.063.1-.243.207-.324l-.038-.027c.038-.033.1-.044.1-.1-.081-.05.077-.07.028-.141.1-.005.065-.119.093-.184.027-.021.011-.092.055-.131-.075-.054.039-.151-.064-.179.017-.061-.109-.11-.017-.176l-.026-.021c0-.076.125-.06.083-.158.065-.016.093-.076.157-.054.056-.043.131.022.206-.01C284.523,473.966,284.54,474,284.562,474.022Z" transform="translate(-280.082 -464.383)" fill-rule="evenodd"/>
      <path id="패스_13" data-name="패스 13" d="M310.5,474.338c0,.05.064.082.021.132l-.022.027c-.012.093.048.2-.029.288l.012.011c-.022.039-.082.055-.067.1l.017.017c-.017.033-.072.017-.056.066a.13.13,0,0,0-.076.115c.12-.007.26.065.391.043.114.022.284,0,.413.024.1-.049.2,0,.29-.038a4,4,0,0,1,.484-.1c.164-.01.322-.128.485-.128a.636.636,0,0,0,.17-.054c.07-.066.233.011.316-.088.033-.01.082.023.1-.026.255.024.457-.062.681-.051a.793.793,0,0,1-.2.053c.042.044.141.012.15.076a4.831,4.831,0,0,1-.87.286,3,3,0,0,1-.306.118,4.4,4.4,0,0,0-.654.26,1.515,1.515,0,0,0-.4.1c-.119-.007-.223.054-.327.048l-.037.043c-.011-.076-.094-.029-.131-.055-.017.007-.017.026-.017.038-.015.005-.021-.016-.038-.027l-.028.026c-.075-.017-.129.065-.215.016-.061.034-.126,0-.2.022-.05.005-.12-.017-.158.026-.061-.054-.158-.011-.212-.076l-.048,0c-.05-.066-.136-.059-.186-.1-.114-.011-.059-.114-.179-.148.028-.1-.109-.109-.064-.223-.022-.071.021-.153.022-.233.034-.163.22-.3.345-.419.081.029.121-.085.18-.085-.016-.05.043-.034.054-.044.125-.016.185-.185.316-.1Z" transform="translate(-298.468 -464.571)" fill-rule="evenodd"/>
      <path id="패스_14" data-name="패스 14" d="M327.775,474.954l.043.038a5.394,5.394,0,0,1,.98.107l.048.056a4.7,4.7,0,0,0-.522-.085l-.01-.01c-.016.01-.022.032-.039.027l-.026-.027c-.023.043-.114.015-.132.075-.114.011-.238-.028-.327.053.006.015.028.011.038.011-.021,0-.027.02-.054.017-.034.071.037.152.091.18.022,0,.029.015.039.027-.022.087.087.094.108.142.048.043.1.082.152.12.077-.011.135.081.212.1.049-.017.081.048.114.027.045.087.175.056.239.077.073.044.163.028.235.066a2.865,2.865,0,0,1,.9.15,1.029,1.029,0,0,0,.512.04c.005-.04-.032-.006-.028-.027l.039-.012c-.011.034.027.045.043.067.1-.076.261.051.312-.1.015-.028.038,0,.054.01.017-.006-.033.006-.039.027v.029c.311-.043.627-.025.954-.062.032.054.1,0,.13,0,0-.026-.011.032.011.038.125-.081.251.006.408-.037.022-.043.049-.016.065-.016l-.016.016c.021.038.038-.016.065-.016.1.028.168-.048.277,0,.069.016.087-.023.153-.027a.024.024,0,0,0,.016-.023L332.8,476c.016-.012.123.022.157-.026.07,0-.022.042.027.066a.222.222,0,0,0,.184-.065c-.011.092.082.028.132.028a4.6,4.6,0,0,1,.588-.036c.037-.034.109.012.141-.038.1.05.2-.053.3.039.087-.082.184.078.234-.054.206,0,.43-.085.642-.073l.039-.038-.028.038c.14.054.266-.1.391-.038.017-.015.06-.014.043-.053h.153c-.02-.059.043-.033.066-.048.054.016.108.071.156.049l.12.1a.812.812,0,0,0,.206.055c.033.146.136-.028.2.1.025,0,.058-.011.079.017.007.054-.076.048-.027.1-.06.034.011.095-.015.131a.194.194,0,0,1,.064.049c-.016.011-.01.028-.011.044l.011.012c.022,0-.044-.006-.049.025.037.067-.016.125-.038.18-.1-.006-.24.037-.327,0a7.31,7.31,0,0,0-.763.042,7.312,7.312,0,0,1-.914.138,3.313,3.313,0,0,1-.768-.012,7.057,7.057,0,0,1-1.017.062c-.076-.045-.2,0-.289-.028a10.992,10.992,0,0,0-1.307.023.187.187,0,0,0-.185-.029c-.2.049-.473-.045-.652.025-.143-.039-.31.081-.4-.055-.119.042-.246-.028-.327-.039.3.016.621.017.9.052.022-.022.067,0,.082-.038-.075-.018-.059-.1-.158-.093-.081.032-.147-.011-.223.042-.142-.017-.261-.114-.39,0h-.1l.055-.027c-.038-.065-.1.01-.131-.018,0,.017-.011.022-.017.027s-.027-.015-.038-.027c-.007.017-.027.017-.037.017-.006-.022.027-.038,0-.055l-.065.027c0-.011,0-.033-.016-.038l-.022.026c-.114-.026-.255.043-.343-.055l.016-.01c-.175-.17-.44-.094-.642-.226-.212.026-.348-.17-.522-.225l-.1-.067.011-.011a1.65,1.65,0,0,0-.43-.317c-.075-.121-.245-.153-.248-.316-.1-.065-.026-.185-.049-.272.011-.033.023-.082.065-.092a.944.944,0,0,0,.245-.092C327.574,474.889,327.661,474.948,327.775,474.954Z" transform="translate(-310.626 -465.024)" fill-rule="evenodd"/>
      <path id="패스_15" data-name="패스 15" d="M323.251,475.7l-.1-.022.092.01Z" transform="translate(-307.877 -465.557)" fill-rule="evenodd"/>
      <path id="패스_16" data-name="패스 16" d="M353.9,477.315c-.015,0-.043.011-.053-.016l.053-.012Z" transform="translate(-329.059 -466.667)" fill-rule="evenodd"/>
      <path id="패스_17" data-name="패스 17" d="M353.489,477.437l-.011-.016c.028-.017.038-.06.076-.05Z" transform="translate(-328.803 -466.724)" fill-rule="evenodd"/>
      <path id="패스_18" data-name="패스 18" d="M354.781,477.384v.027h-.05C354.715,477.374,354.764,477.357,354.781,477.384Z" transform="translate(-329.666 -466.724)" fill-rule="evenodd"/>
      <path id="패스_19" data-name="패스 19" d="M344.069,478.306c0,.012-.007.021-.012.027h-.026A.029.029,0,0,1,344.069,478.306Z" transform="translate(-322.286 -467.369)" fill-rule="evenodd"/>
      <path id="패스_20" data-name="패스 20" d="M345.029,478.437c-.016.021-.087.01-.1.015A.619.619,0,0,0,345.029,478.437Z" transform="translate(-322.903 -467.46)" fill-rule="evenodd"/>
      <path id="패스_21" data-name="패스 21" d="M343.786,478.483h0Z" transform="translate(-322.117 -467.492)" fill-rule="evenodd"/>
      <path id="패스_22" data-name="패스 22" d="M338.086,478.659l-.021-.022c-.018.012-.035.038-.054.038.01-.033.069-.048.119-.055Z" transform="translate(-318.132 -467.587)" fill-rule="evenodd"/>
    </g>
    <path id="패스_23" data-name="패스 23" d="M235.7,282.617a25.724,25.724,0,0,0-10.247-1.576c-.907.016-1.819.073-2.739.163-1.55-9.338-5.874-16.066-11.828-16.955a9.353,9.353,0,0,0-3.906.259c-2.978-6.167-7.469-10.367-13.031-11.394-12.858-2.385-26.569,13.079-30.621,34.532-.35,1.852-.612,3.689-.8,5.5-.083-.013-.166-.03-.249-.044a46.476,46.476,0,0,1-3.49-4.645,36.3,36.3,0,0,1-5.052-17.425.935.935,0,1,0-1.869.072,38.294,38.294,0,0,0,5.358,18.381c.625.95,1.349,1.976,2.174,3.041-6.346-1.479-12.335-4.344-16.273-9.2a.936.936,0,0,0-1.453,1.179c4.7,5.794,12.071,8.932,19.616,10.31,6.746,7.689,18.67,16.357,37.891,15.708,18.887-.636,29.31-14.252,32.662-19.551.014-.022.029-.043.042-.066.766-1.217,1.151-1.98,1.17-2.019a.935.935,0,1,0-1.678-.826c-.016.033-1.044,1.663-1.109,1.739-10.843,12.617-21.713,6.645-22.171,6.385a.986.986,0,0,0-.982,1.71,17.124,17.124,0,0,0,7.861,1.869,19.035,19.035,0,0,0,9.529-2.561,36.95,36.95,0,0,1-25.387,11.452c-17.084.576-28.165-6.485-34.862-13.385a56.051,56.051,0,0,0,12.595.12c9.379-1,17.858-3.987,26.057-6.874,8.01-2.821,15.576-5.484,22.58-5.608a23.92,23.92,0,0,1,9.492,1.432.935.935,0,1,0,.72-1.726Z" transform="translate(0 0)"/>
    <path id="패스_24" data-name="패스 24" d="M243.558,303.892c-1.617.173-3.338.273-5.118.288.033-.245.063-.491.1-.736,3.075-21.068,13.981-36.944,24.362-35.461,3.743.538,6.909,3.26,9.278,7.509a20.283,20.283,0,0,0-7.752,6.976c-5.474,1.912-10.736,9.726-13.667,20.25A69,69,0,0,1,243.558,303.892Z" transform="translate(-66.91 -10.36)" fill="#fff"/>
    <path id="패스_25" data-name="패스 25" d="M291.849,340.244q-1.506.436-3.034.828c2.271-7.581,5.362-13.545,8.475-16.467a47.108,47.108,0,0,0-4.112,9.958A56.793,56.793,0,0,0,291.849,340.244Z" transform="translate(-101.666 -49.492)" fill="#fe360e"/>
    <path id="패스_26" data-name="패스 26" d="M312.7,351.206c1.287-5.567,2.674-8.972,4.269-8.75,1.269.18,2.126,2.561,2.537,6.423C317.26,349.668,314.994,350.458,312.7,351.206Z" transform="translate(-118.142 -61.801)" fill="#ffa814"/>
    <path id="패스_27" data-name="패스 27" d="M321.095,331.672c-.879-4.673-2.467-7.655-4.627-7.962-1.168-.164-2.394.473-3.615,1.765a36.815,36.815,0,0,1,4.382-7.156,3.724,3.724,0,0,1,1.294,0c3.123.574,5.134,5.31,5.742,12.247Q322.694,331.107,321.095,331.672Z" transform="translate(-118.25 -45.115)" fill="#0389b4"/>
    <path id="패스_28" data-name="패스 28" d="M340.77,314.78c-1.793-5.654-4.813-9.415-8.673-9.99a7.015,7.015,0,0,0-.782-.073,12.705,12.705,0,0,1,6.212-3.933,46.21,46.21,0,0,1,3.244,14" transform="translate(-130.988 -33.057)" fill="#51a221"/>
    <path id="패스_29" data-name="패스 29" d="M359.686,316.488a48.689,48.689,0,0,0-2.75-16.235,6.529,6.529,0,0,1,.98.1c4.573.824,7.76,6.361,8.963,14.24C364.522,315.075,362.125,315.73,359.686,316.488Z" transform="translate(-148.665 -32.69)" fill="#51a221"/>
    <g id="그룹_4" data-name="그룹 4" transform="translate(155.019 311.55)">
      <path id="패스_30" data-name="패스 30" d="M257.911,500.473a.635.635,0,0,1-.724.714,1.025,1.025,0,0,1-.292-.033q-1.254-2.009-1.621-2.006a7.661,7.661,0,0,0-2,.717,8.083,8.083,0,0,1-1.948.716c-.233,0-.58.029-1.04.083s-.8.077-1.022.08q-2.7.017-3.516-1.7a3.961,3.961,0,0,1-.332-.8,2.67,2.67,0,0,1,.282-1.325q.038-.039,1.592-1.957c.31-.393.637-.787.975-1.182a3.68,3.68,0,0,1,.977-.85,4.2,4.2,0,0,1,1.964-.639c.849,0,1.276.222,1.278.678a1.162,1.162,0,0,1-.462.907,1.5,1.5,0,0,1-.978.4.7.7,0,0,1-.252-.051.8.8,0,0,0-.255-.052,3.936,3.936,0,0,0-2.168,1.094q-1.334,1.087-1.327,1.89a1.661,1.661,0,0,0,1.867,1.89,7.731,7.731,0,0,0,2.905-.66,8.337,8.337,0,0,0,2.573-1.609q-.41-1.569-1.438-4.676c-.321-.372-.666-.764-1.037-1.167a3.15,3.15,0,0,0-1.18-.85,6.973,6.973,0,0,0-2.5-.335l-.5,0-.495,0a6.656,6.656,0,0,1-1.873-.241,1.156,1.156,0,0,1-.3-.8q-.009-1.429,2.332-1.443a12.762,12.762,0,0,1,3.257.525q.516.364,1.14.722a5.719,5.719,0,0,1,2.689,3.044q.376.948,1.125,3.639c.175.626.337,1.243.487,1.845a7.163,7.163,0,0,0,.78,1.771C257.541,499.849,257.888,500.4,257.911,500.473Z" transform="translate(-226.502 -473.268)"/>
      <path id="패스_31" data-name="패스 31" d="M307.984,502.092a1.969,1.969,0,0,1-.358,1.184,1.061,1.061,0,0,1-.873.51,1,1,0,0,1-.766-.236,4.948,4.948,0,0,1-1.006-2.385,18.744,18.744,0,0,0-.6-2.482q-.633-1.336-1.447-3.055a4.7,4.7,0,0,0-1.916-2.235,19.06,19.06,0,0,0-.791,2.3q-.271,2.485-.865,7.112c-.193.227-.351.338-.473.338.145,0-.013-.049-.477-.142q-1.222-2.421-5.546-9.168a2.723,2.723,0,0,0-.611,1.486c-.237,1.177-.366,1.848-.389,2.007q-.069.622-.139,1.149a34.887,34.887,0,0,1-.635,3.491q-.643,2.4-1.7,2.4c-.61,0-1.128-.771-1.553-2.332-.1-.348-.291-1.158-.564-2.431q-.486-1.287-1.2-4.054a4.124,4.124,0,0,1,1.529-.824q.439,0,.814,1.187.116.81.491,2.619.54-1.527,1.652-4.492,1.333-3.3,2.428-3.306,1.059-.005,2.319,2.416.407.81,1.557,3.329.261.618.966,2.186.323-1.11,1.651-4.5.25-.722.829-2.1c.381-.92.844-1.379,1.38-1.382q.765-.006,2.876,3.686Q307.973,500.31,307.984,502.092Z" transform="translate(-254.796 -475.619)"/>
      <path id="패스_32" data-name="패스 32" d="M430.672,501.627a1.635,1.635,0,0,1-.647,1.3,1.977,1.977,0,0,1-1.241.557,1.222,1.222,0,0,1-.75-.143,3.238,3.238,0,0,1-.5-.871q-.334-.72-.858-2.172a15.87,15.87,0,0,0-.448-1.748,14.665,14.665,0,0,0-1.115-2.293c-.815-1.492-1.442-2.241-1.88-2.237q-.442,0-2.462,3.669c-.291.5-.707,1.215-1.25,2.135a6.524,6.524,0,0,0-.918,2.13,3.213,3.213,0,0,1-.174,1.305.975.975,0,0,1-.844-.346q-1.071-1.387-1.649-5.57-.228-1.745-.232-2.144a8.679,8.679,0,0,1,.241-2.243,2.217,2.217,0,0,1,.6-.9c.329-.334.592-.5.785-.5.294,0,.543.281.756.843a4.425,4.425,0,0,1,.319,1.5q0,.15-.131,1.848l-.135,1.848a7.912,7.912,0,0,0,.119,1.3q.506-1.2,1.623-3.664,1.512-3.212,2.721-3.22a4.947,4.947,0,0,1,2.571,1.481Q430.664,500.281,430.672,501.627Z" transform="translate(-344.231 -476.224)"/>
      <path id="패스_33" data-name="패스 33" d="M203.082,446.67l-.638,10.1q-.067,1.246-.516,4.243-.209,1.356-.695,4.613c-.017,1-.07,2.122-.157,3.364A2.429,2.429,0,0,1,200.5,470c-.359.451-.635.682-.829.683a6.468,6.468,0,0,0-.908-.324q.013-.7.015-8.452l-.074-.147a1.369,1.369,0,0,0,.069-.659.443.443,0,0,0-.114-.254q-1.846.27-5.734.842a.149.149,0,0,0-.072.148c.046.145.165.583.352,1.311.4,1.554.969,3.982.973,4.394a3.025,3.025,0,0,1-.857,2.23,2.931,2.931,0,0,1-2.167.891,3.219,3.219,0,0,0-.36.04,3,3,0,0,1-.364.038.276.276,0,0,1-.289-.18,6.6,6.6,0,0,1-.455-2.735,2.053,2.053,0,0,1-.256-.326c-.126-.826-.71-3.522-1.013-5.2a2.815,2.815,0,0,0-.523.08,2.821,2.821,0,0,1-.49.076,2.844,2.844,0,0,0-.4.039,2.843,2.843,0,0,1-.4.038,3.083,3.083,0,0,1-.762-.14c.072-.268-.137-.521-.62-.763a1.769,1.769,0,0,1,1.27-1.211l1.495-.232a.41.41,0,0,1,.034-.126.414.414,0,0,0,.036-.165c0,.266-.124-.23-.377-1.494a3.079,3.079,0,0,0,.033-.585c-.147-.314-.333-.788-.557-1.419a5.54,5.54,0,0,1-.094-1.2c-.025-.1-.077-.389-.15-.875s-.653-3.61-1.729-9.37a2.487,2.487,0,0,1,.889-.55q.63,0,2.034,3.911c.275.751.591,1.619.946,2.612q1.71,4.306,3.065,8.392.107,0,1.966-.191,1.133-.113,2.41-.123a4.517,4.517,0,0,1,.638.067,3.847,3.847,0,0,0,.6.07l1.022-.007q-.021-3-.062-3.837l-.46-9.21a3.539,3.539,0,0,1,.123-1.1.558.558,0,0,0-.068-.163.493.493,0,0,1-.064-.2,1.306,1.306,0,0,1,.054-.273,1.5,1.5,0,0,0,.053-.274,2.088,2.088,0,0,1,.748-1.321,2.064,2.064,0,0,1,1.382-.631q.441,0,1.335.831a3.316,3.316,0,0,1,1,1.311A8.977,8.977,0,0,1,203.082,446.67Z" transform="translate(-185.189 -442.117)"/>
      <path id="패스_34" data-name="패스 34" d="M211.806,477.467a6.48,6.48,0,0,1-.318.989,1.018,1.018,0,0,1-.466.515,1.316,1.316,0,0,1-.647.26h-.325a2.262,2.262,0,0,1-1.286-.629c-.522-.422-.78-.79-.783-1.108,0,.169.072-.037.212-.624a2.172,2.172,0,0,1,.534-1.17,1.368,1.368,0,0,1,1.043-.555,1.8,1.8,0,0,1,1.411.74A2.44,2.44,0,0,1,211.806,477.467Z" transform="translate(-200.914 -464.905)"/>
      <path id="패스_35" data-name="패스 35" d="M377.218,468.592c.008,1.317-.322,1.979-1,1.982-.34,0-.786-.579-1.347-1.751-.317-.782-.635-1.432-.95-2.191l-1.084-2.877a7.018,7.018,0,0,0-.378-1.246,23.619,23.619,0,0,1-.905-2.522q-.645-2.085-.8-2.562l-1.083-3.029a16.073,16.073,0,0,0-1.439-3.163,7.007,7.007,0,0,0-.855,2.615c0,.048-.07.5-.209,1.363a103.739,103.739,0,0,1-3.7,12.124c-.117.37-.284.922-.495,1.659-.263.811-.6,1.216-1.013,1.219a.945.945,0,0,1-.653-.254c.11-1.519,1.125-6.794,1.642-9.622l1.232-6.817a16.749,16.749,0,0,0,.427-1.7q.105-.592.819-2.876c.216-.737.534-1.845.964-3.32.668-2.065,1.266-3.1,1.8-3.1s1.073.584,1.615,1.764q.336.7,1.53,4.794.369,1.244,1.452,4.362l3.458,9.9c.1.269.508,2.014.686,3A14.791,14.791,0,0,1,377.218,468.592Z" transform="translate(-306.705 -442.398)"/>
      <path id="패스_36" data-name="패스 36" d="M382.45,511.344a2.682,2.682,0,0,1-.793,2.049,2.9,2.9,0,0,1-2.082.78,3.139,3.139,0,0,1-3.35-2.095,2.123,2.123,0,0,1-.15-.729,3.567,3.567,0,0,1,.791-2.194,2.444,2.444,0,0,1,1.863-1.108.648.648,0,0,1,.291-.111.677.677,0,0,1,.333.107,3.473,3.473,0,0,1,2.17,1.1A3.134,3.134,0,0,1,382.45,511.344Z" transform="translate(-316.887 -487.528)"/>
    </g>
  </g>
</svg>
