<svg xmlns="http://www.w3.org/2000/svg" width="140" height="64.198" viewBox="0 0 140 64.198">
  <g id="hc" transform="translate(-173.484 -433.101)">
    <g id="그룹_10" data-name="그룹 10" transform="translate(173.484 433.101)">
      <path id="패스_236" data-name="패스 236" d="M244.48,443.839a.143.143,0,0,0,.017-.02.234.234,0,0,0,.012-.023C244.5,443.812,244.489,443.826,244.48,443.839Z" transform="translate(-190.944 -435.731)" fill="#2dacae"/>
      <path id="패스_237" data-name="패스 237" d="M251.141,465.392s3.292.293,4.789,2.058,1.032,4.117-1.321,5.822c0,0-2.9,2.1-2.228,3.3.7,1.254,3.863.149,5.074-2.433,0,0-.314-1.491,1.056-1.4a22.6,22.6,0,0,0,5.009-.336l-.032-1.614a17.883,17.883,0,0,1-3.6.465c-1.471-.173-2.333-.991-1.93-1.768.317-.618.63-.666,2.89-.692a6.674,6.674,0,0,0,2.44-.376,31.828,31.828,0,0,0-.455-3.4c-.243-1.509,1.161-2.047,2.384-.631s2.1,9.252-.455,16.821c0,0-.774,2.451-1.746,2.234-1.191-.266-.572-2.027-.219-3.534a28.746,28.746,0,0,0,.649-4.865s-3.225,1.075-4.707-.237c0,0-.618,5.145-5.444,5.051,0,0-3.571-.111-3.867-2.853,0,0-.3-1.474,1.627-3.278,0,0,5.174-4.365,1.173-5.393a6.259,6.259,0,0,1-2.585-.854C248.591,466.676,249.553,465.217,251.141,465.392Z" transform="translate(-192.105 -440.592)" fill="#2a3125"/>
      <path id="패스_238" data-name="패스 238" d="M282.632,473.343a3.005,3.005,0,0,0-1.2-3.438c-.342-.219-.609-.423-.609-.423s.323-.007.75-.029a1.889,1.889,0,0,0,1.455-.7c1.035-1.66-1.309-1.456-2.541-1.428-2.494.057-6.7-.232-6.7-.232-1.4.019-.5,1.486-.5,1.486,1,1.5,4.358.806,4.358.806-5.035,4.457-1.768,6.874-1.768,6.874C278.4,478.131,281.811,475.795,282.632,473.343Zm-4.99.774s-1.11-1.13.969-2.2c0,0,1.279-.643,1.73.521C280.725,473.431,278.9,475.393,277.642,474.118Zm2.628-8.193c2.895.293-2.11-6.354-3.543-3.638C275.588,464.439,280.27,465.924,280.27,465.924Zm8.115,13.545a16.281,16.281,0,0,1-4.169,2.184c-2.281.7-1.988-2.188-1.988-2.188a1.567,1.567,0,0,0-.126-1.041c-.663-.972-1.334.176-1.334.176-1.619,3.254,0,5.022,0,5.022,1.7,1.737,4.617.468,6.912-1.311,2.78-2.165,1.8-3.119,1.8-3.119C289.143,478.8,288.385,479.47,288.385,479.47Zm3.095-9.165s-.885-.979-3.538-.25c0,0-.286.038-.309-.161,0,0,.424-8.2-2.353-7.348,0,0-1.256.21-.423,4.77a30.729,30.729,0,0,1-.111,9.228s-.4,1.985.431,2.125c0,0,1.008.289,1.431-1.527a17.95,17.95,0,0,0,.907-4.427.452.452,0,0,1,.345-.409,10.194,10.194,0,0,1,3.428-.066s.847.057.827-.745A1.875,1.875,0,0,0,291.479,470.3Z" transform="translate(-197.956 -440.118)" fill="#2a3125"/>
      <path id="패스_239" data-name="패스 239" d="M218.152,453.78c0-.006.005-.068.005-.076l-.005.409c-.338-.441-.534-.707-.544-.721a4.551,4.551,0,0,0-3.236-1.932,1.8,1.8,0,0,0-1.486.857c-1.506,2.3.564,6.451,3.013,9.8-.021-.029-.012-.064-.03-.091.163.281.523.8,1.351,2,.231.351.45.682.851,1.246.041,12.279-.667,23.134-1.869,25.038a.64.64,0,0,0,.036-.06l-.063.122a2.021,2.021,0,0,1-2.557,1.128c-.574-.231-1.136-1.016-3.106-4.006l-1.159-1.745c-.728-1.083-1.391-1.941-1.922-2.624-1.119-1.449-1.8-2.323-1.513-3.45.79-1.421,4.535.142,5.164.608.019-.666.038-1.292.038-1.292l.011-.615c.125-3.466.141-9.388.154-13.721l.051-7.213.035-3.674c0-12.721-2.666-17.188-2.683-17.236a5.61,5.61,0,0,1-.329-1.209,2.261,2.261,0,0,1,.227-1.5,1.557,1.557,0,0,1,1.679-.7s5.32.022,7.385,3.915c0,0,1.256,2.093,1.072,6.589Z" transform="translate(-181.444 -433.101)" fill="#6ebb20"/>
      <path id="패스_240" data-name="패스 240" d="M220.279,460.1c-.338-.441-.534-.707-.544-.721a4.551,4.551,0,0,0-3.236-1.932,1.8,1.8,0,0,0-1.486.857c-1.506,2.3.564,6.451,3.013,9.8-.021-.029-.012-.064-.03-.091.163.281.523.8,1.351,2,.231.351.45.682.851,1.246.05-3.416.074-7.831.081-11.125Z" transform="translate(-183.571 -439.088)" fill="#028749"/>
      <path id="패스_241" data-name="패스 241" d="M232.377,466.867c1.66-1.3,4.785-3.543,8.676-6.906,4.679-4.046,4.389-10.8,4.389-10.865h0c-.18-5.008-1.392-7.118-2.706-7.495-1.2-.339-1.921.72-2.291,1.565-.059.127-.227.615-1.069,3.084-.676,1.963-2.719,8.826-11.371,15.619C229.449,463.615,230.986,465.4,232.377,466.867Z" transform="translate(-186.892 -435.176)" fill="#2dacae"/>
      <path id="패스_242" data-name="패스 242" d="M225.648,469.333a4.1,4.1,0,0,0-1.734,2.61,2.186,2.186,0,0,0-.02.321,2.758,2.758,0,0,0,.588,1.679,3.493,3.493,0,0,0,3.461,1.173,7.26,7.26,0,0,0,2.749-1.1c.2-.146.422-.317.674-.516-1.391-1.464-2.928-3.252-4.373-5-.42.282-.847.552-1.286.8C225.686,469.309,225.668,469.322,225.648,469.333Z" transform="translate(-185.881 -441.807)" fill="#193494"/>
      <path id="패스_243" data-name="패스 243" d="M202.529,457.892c-.113-.078-.232-.155-.357-.235a7.609,7.609,0,0,0-4.911-.508,26.639,26.639,0,0,1-12.236.923s-.242-.031-.242-.031.014.008.022.008c-.054-.009-.114-.025-.149-.031-1.208-.222-3.629-1.295-4.1-.034,0,0-.424,2.984,3.285,5.736,2.712,2.01,7.7,1.965,11.1.727C194.944,464.445,197.74,455.493,202.529,457.892Z" transform="translate(-175.219 -438.967)" fill="#ffb300"/>
      <path id="패스_244" data-name="패스 244" d="M202.014,459.917h0a2.782,2.782,0,0,0-.578-.979c.643,3.935-8.226,5.995-8.226,5.995-4.811,11.952-17.858,15.98-17.97,16a1.81,1.81,0,0,0-1.755,1.791c0,.044.369,3.135,7.229,2.2,13.039-1.766,18.928-14.5,19.371-15.283,0,.007-.011.02-.011.027C201.245,467.694,202.967,462.57,202.014,459.917Z" transform="translate(-173.484 -439.455)" fill="#ff850d"/>
      <path id="패스_245" data-name="패스 245" d="M207.868,458.623a3.65,3.65,0,0,0-.641-.559c-4.789-2.4-7.585,6.554-7.585,6.554S208.511,462.557,207.868,458.623Z" transform="translate(-179.917 -439.14)" fill="#ff3600"/>
      <path id="패스_246" data-name="패스 246" d="M248.827,485.447l.137.087a68.022,68.022,0,0,0,20.465,7.943.441.441,0,0,1,.26.275.591.591,0,0,1,.03.223.528.528,0,0,1-.051.192.463.463,0,0,1-.463.254c-.067,0-.172,0-.294.008a.523.523,0,0,1,.039.183v.014c-.027.321-.239.354-.486.349a.617.617,0,0,1,.069.156.488.488,0,0,1,.009.139.531.531,0,0,1-.248.415.961.961,0,0,1-.348.109.448.448,0,0,1,.032.14.262.262,0,0,1-.023.106.579.579,0,0,1-.107.12c0,.008.009.017,0,.024a.312.312,0,0,1-.019.1c-.071.155-.133.3-1.335.319a1.908,1.908,0,0,0-.831.164,3.57,3.57,0,0,1-1.244.4.454.454,0,0,0-.391.205s-.69.921-.686.914a1.7,1.7,0,0,1-.652.6l-.207.093s-.219.118-.216.118l-.109.09a1.041,1.041,0,0,1-.7.318l-.435.1-1.071.186-.878-.06s-6.108.875-15.157-4.923c-11.679-7.48-19.889-19.9-19.889-19.9-.784-1.052-1.627-2.279-1.983-2.777.05-3.416.074-7.831.081-11.125v-.04c.918,1.2,2.232,3.049,4.4,5.682-.42.282-.847.552-1.286.8-.021.01-.04.023-.06.034a4.1,4.1,0,0,0-1.734,2.61,2.186,2.186,0,0,0-.02.321,2.758,2.758,0,0,0,.588,1.679,3.493,3.493,0,0,0,3.461,1.173,7.261,7.261,0,0,0,2.749-1.1c.2-.146.422-.317.674-.516.349.37.691.723,1.017,1.044A84.353,84.353,0,0,0,248.827,485.447Z" transform="translate(-185.429 -439.954)" fill="#1c97c3"/>
    </g>
    <path id="패스_247" data-name="패스 247" d="M342.772,470.7a3.127,3.127,0,0,0,2.534.369,12.182,12.182,0,0,1,2.29-.409.492.492,0,0,1,.157.026c.009,2.71-.031,4.466-.085,5.967,0,0-.008,2.152,1.549,1.45.566-.25,1.258-.441,1.334-2.645s.333-7.443.431-9.856c.054-1.455.636-3.893-.023-4.905a1.726,1.726,0,0,0-2.687-.645c-.792.645-.5,4.137-.495,4.417q.02.657.021,1.319c-.017.468-.029.985-.032,1.574-.008.658-1.226.732-1.942.83-1.952.263-3.043.382-3.043.382C341.106,468.928,342.345,470.511,342.772,470.7Zm-6.466-9.261c.987,1.028,2.712,1.311,3.234.525a1.673,1.673,0,0,0-.238-2.306,11.754,11.754,0,0,0-4.954-2.64c-.823-.011-1.5.676-.572,2.031C334.411,459.988,335.255,460.351,336.306,461.444Zm7.82,13.2c1.522-1.194-.816-2.24-.816-2.24-2.663-1.478-3.145-2.4-3.145-2.4a13.971,13.971,0,0,0,1.1-1.51c.792-1.166,1.577-2.229.749-3.7a2.835,2.835,0,0,0-2.839-1.383,40.813,40.813,0,0,1-6.581.287c-1.287-.115-1.275,2.133.559,2.637a10.6,10.6,0,0,0,5.17-.354c.958-.226.562.279.562.279-1.094,2.277-5.036,6.429-6.986,6.67a1.331,1.331,0,0,0-1.082,1.6c.828,2.381,3.766.9,3.766.9a16.658,16.658,0,0,0,3.776-3.384,10.489,10.489,0,0,0,1.749,1.914C342.467,475.958,344.126,474.645,344.126,474.645Zm7.841,5.079c-.4-.585-1.311.23-1.311.23a16.348,16.348,0,0,1-4.965,2.436c-2.723.648-2.37-3.235-2.37-3.235a2.546,2.546,0,0,0-.152-1.431c-.789-1.411-1.59.066-1.59.066-1.933,4.216,0,6.83,0,6.83,2.019,2.582,5.5,1.231,8.236-.886C353.131,481.15,351.967,479.724,351.967,479.724Z" transform="translate(-38.681 -5.883)" fill="#193494"/>
    <path id="패스_248" data-name="패스 248" d="M307.611,460.988c.672.326,1.771.731,2.228.038s.456-1.44-1.036-3c-1.014-1.057-1.912-2.405-3.151-2.641-.806-.157-1.508.266-1.706,1.409a2.572,2.572,0,0,0,.556,1.946A10.552,10.552,0,0,0,307.611,460.988Zm4.955,11.606a5.906,5.906,0,0,0-.137-7.378s-.431-.248.7-.215a3.74,3.74,0,0,0,2.412-.407,1.318,1.318,0,0,0-.1-2.108s-.57-.621-3.371-.134c0,0-1.514.2-6.2.337,0,0-3.073.094-4.438.02-2.012-.1-1.684,2.227.33,2.784a8.245,8.245,0,0,0,3.357.022c1.6-.188,1.4-.225.864.334-1.182,1.222-3.626,4.472-2.152,7.228S310.886,475.13,312.566,472.594Zm-1.54-4.048a3.5,3.5,0,0,1-1.076,2.357c-1.932,1.6-3.687.6-3.278-.918a3.709,3.709,0,0,1,3.3-2.979C311.19,467.005,311.027,468.546,311.027,468.546Zm9.709,11.224c.035-.293.035-.247.06-.567.245-3.392-1.457-4.147-2.623-3.454-.558.332-.943.875-.943,2.78a6.907,6.907,0,0,0-4.354.615,20.016,20.016,0,0,1,.628-2.9c.183-.914-.435-1.054-.435-1.054-.741-.292-1.514.688-1.514.688a11.212,11.212,0,0,0-1.142,8.038c.887,3.238,8.08,5.453,9.99-2.194C321.139,481.931,322.344,480.932,320.736,479.77Zm-7.29,3.8c-.268-.213-.292-.447-.385-.775-.013-.4.034-1.412,1.87-1.955a4.723,4.723,0,0,1,2.133-.094C316.324,484.315,314.486,484.409,313.446,483.566Zm11.244-15.621c-.415-.615-.918-1.05-2.581-1.041l-1.439.038a35,35,0,0,1,.4-4.831,6.937,6.937,0,0,0,.295-1.847,1.579,1.579,0,0,0-.875-1.488c-.8-.315-2.613-.919-2.77,1.807-.424,7.457-.222,7.483-.337,8.547s-.11,2.663-.11,2.663c-.032,2.083.255,2.7.961,2.7.836-.006,1.789-.348,1.918-1.993l.327-3.226a6.7,6.7,0,0,0,1.568.361C325.216,470.087,325.1,468.546,324.69,467.944Z" transform="translate(-31.133 -5.473)" fill="#193494"/>
    <path id="패스_249" data-name="패스 249" d="M306.037,508.123c-.054-.475-.756-.393-.756-.393-.388-.032-.519-.6-.434-1.217.1-.762.253-1.639.253-1.639.181-.925-.345-1.2-.345-1.2a.7.7,0,0,0-.931.245s-1.274-1.224-2.846.6-1.208,5.49,1.808,4.513a2.174,2.174,0,0,0,1.1-.806,1.415,1.415,0,0,0,1.431.673S306.1,508.707,306.037,508.123Zm-4.141-.347c-1.069-.423-.281-2.181.44-2.826a.887.887,0,0,1,1.333.167C304.315,506.347,302.606,508.057,301.9,507.777Zm29.383-3.489c-1.884,1.447-1.353,4.389.241,4.8a3.147,3.147,0,0,0,3.034-.848,3.058,3.058,0,0,0,.31-3.583A2.322,2.322,0,0,0,331.278,504.287Zm1.1,3.572c-1.141-.064-1.446-1.863-.2-2.7a1.006,1.006,0,0,1,1.616.366A1.6,1.6,0,0,1,332.376,507.859Zm-33.332-7.428s-.726-.117-.72.423l-.318,2.813s.022.345-.475.345-2.032-.051-2.032-.051-.428,0-.367-.538c.078-.7.3-2.291.3-2.291s.164-.726-.388-.8l-.306-.012a.468.468,0,0,0-.5.389s-.789,6.093-1.075,7.692c0,0-.181.67.3.734l.592.022a.4.4,0,0,0,.3-.3l.464-3.068a.6.6,0,0,1,.55-.546l2.089.063a.36.36,0,0,1,.368.322l-.236,2.723s-.173.8.477.821h.481a.382.382,0,0,0,.325-.368s.671-7.309.756-7.863C299.676,500.623,299.455,500.431,299.044,500.431Zm17.482,6.787a3.194,3.194,0,0,1-1.4.646c-.618.053-1.026-.084-1.213-.411-.323-.563.084-1.6.478-2.159.346-.489.731-.769,1.03-.753a.373.373,0,0,1,.319.216,1.088,1.088,0,0,0,.636.586.662.662,0,0,0,.485-.063c.474-.283.225-.981.213-1.01a1.48,1.48,0,0,0-.765-.889,2.027,2.027,0,0,0-1.4-.023,4.2,4.2,0,0,0-2.249,4.017,1.734,1.734,0,0,0,1.317,1.671c2.266.5,3.27-.885,3.374-1.178a.773.773,0,0,0-.155-.793C317.081,507,316.875,506.953,316.526,507.219Zm7.008.737c-.656.252-.888-.1-.616-1.5.281-1.461.087-2.541-.921-2.861,0,0-1.075-.388-2.14,1.061,0,0-.01.149.037-.637s.467-3.791-.183-4.092c0,0-.793-.518-.844.64,0,0-.28,4.132-.716,7.348,0,0-.2,1.114.48,1.144a.609.609,0,0,0,.614-.612c.014-.241,1.2-3.748,2.366-3.41,0,0,.434.088.238,1.154-.186,1.017-.55,3.021.706,3.132,0,0,1.46-.073,1.6-1.046C324.158,508.27,324.192,507.7,323.534,507.955Zm2.368-1.184s2.676.331,3.343-.964c.619-1.2-.328-2.433-1.909-2.309a3.287,3.287,0,0,0-2.41,4.546c.594,1.252,2.4,1.338,3.679.754.492-.2,1.061-.672.609-1.1-.237-.224-1.044.1-1.044.1-.366.152-1.679.513-2.292-.443C325.878,507.354,325.534,506.744,325.9,506.771Zm1.652-2.211c.288-.009,1.09.1.642.8s-1.974.385-1.974.385C325.8,505.662,326.765,504.585,327.554,504.56Zm-19.158-1.2s-1.19-.049-1.262.7c0,0-.374,4.945-.851,8.495,0,0-.146.973.41,1.115.519.13.718-.175.755-.452.058-.425.287-2.4.5-4.279.819.055,3.2.063,3.866-2.006C312.3,505.434,311.333,503.54,308.4,503.364Zm1.234,4.105a4.373,4.373,0,0,1-1.541.268c.158-1.384.284-2.482.284-2.482s.036-.308.57-.319C310.4,504.91,311.228,506.787,309.63,507.47Zm30.98-1.3c.023-1.222-.474-2.442-1.943-2.353a2.021,2.021,0,0,0-1.1.883s-.281-.95-.734-.974c0,0-.563-.2-.541.544a9.548,9.548,0,0,1-.086,2.419c-.216,1.357-.324,2.038.5,2.264,0,0,.389.135.474-.226,0,0,.627-3.778,1.946-3.552,0,0,.431.135.345,1.018s-.3,2.827.5,2.985c0,0,.757.272.865-.428A16.025,16.025,0,0,1,340.611,506.17Z" transform="translate(-29.425 -16.404)" fill="#193494"/>
  </g>
</svg>
