<svg xmlns="http://www.w3.org/2000/svg" width="110" height="80.167" viewBox="0 0 110 80.167">
  <g id="hsg" transform="translate(-266.023 -758.667)">
    <g id="그룹_53" data-name="그룹 53" transform="translate(266.023 758.667)">
      <g id="그룹_49" data-name="그룹 49" transform="translate(27.938 47.383)">
        <path id="패스_161" data-name="패스 161" d="M372.894,856.48v-5.162H370.38v6.871h13.363V856.48Z" transform="translate(-330.881 -838.829)" fill="#353535"/>
        <path id="패스_162" data-name="패스 162" d="M369.239,834.435v1.71h11.538v6.074h2.514v-7.785Z" transform="translate(-330.478 -832.856)" fill="#353535"/>
        <path id="패스_163" data-name="패스 163" d="M384.385,845.307H366.321v1.709h8.073v4.567h2.514v-4.567h7.478Z" transform="translate(-329.445 -836.702)" fill="#353535"/>
        <path id="패스_164" data-name="패스 164" d="M356.735,833.976v3.7h-4.1v1.709h4.1v4.457h2.514v-9.867Z" transform="translate(-324.603 -832.693)" fill="#353535"/>
        <path id="패스_165" data-name="패스 165" d="M343.589,834.609v.792c0,2.4.751,5.466,4.772,6.522v1.738c-2.468-.384-4.785-1.357-6.036-3.057-1.249,1.7-3.566,2.673-6.034,3.057v-1.738c4.021-1.057,4.771-4.126,4.771-6.522v-.792Z" transform="translate(-318.821 -832.917)" fill="#353535"/>
        <path id="패스_166" data-name="패스 166" d="M345.112,854.523c0-2.555,2.492-4.628,5.565-4.628s5.566,2.072,5.566,4.628-2.492,4.626-5.566,4.626S345.112,857.076,345.112,854.523Zm5.565,2.867a2.872,2.872,0,1,0-3.031-2.867A2.953,2.953,0,0,0,350.677,857.389Z" transform="translate(-321.942 -838.325)" fill="#353535"/>
        <path id="패스_167" data-name="패스 167" d="M316.429,855.8c0-2.2,2.467-3.992,5.511-3.992s5.51,1.788,5.51,3.992-2.467,3.995-5.51,3.995S316.429,858.006,316.429,855.8Zm5.511,2.257c1.605,0,2.907-1.009,2.907-2.257s-1.3-2.255-2.907-2.255-2.908,1.01-2.908,2.255S320.334,858.057,321.94,858.057Z" transform="translate(-311.794 -839.002)" fill="#353535"/>
        <rect id="사각형_18" data-name="사각형 18" width="2.514" height="12.327" transform="translate(13.164 1.183)" fill="#353535"/>
        <path id="패스_168" data-name="패스 168" d="M316.354,847.161V845.18h-2.515v1.981h-4.583v1.709H323.9v-1.709Z" transform="translate(-309.256 -836.657)" fill="#353535"/>
        <path id="패스_169" data-name="패스 169" d="M316.6,833.965v-1.973h-2.515v1.973h-4.129v1.709h10.774v-1.709Z" transform="translate(-309.505 -831.991)" fill="#353535"/>
        <path id="패스_170" data-name="패스 170" d="M310.71,839.7c0-2.07,2.2-3.718,4.9-3.718s4.9,1.647,4.9,3.718-2.193,3.748-4.9,3.748S310.71,841.767,310.71,839.7Zm4.9,2.036a2.046,2.046,0,1,0-2.367-2.02A2.214,2.214,0,0,0,315.612,841.732Z" transform="translate(-309.771 -833.402)" fill="#353535"/>
      </g>
      <g id="그룹_52" data-name="그룹 52">
        <path id="패스_171" data-name="패스 171" d="M420.756,760.124c-3.311-3.311-10.81-.774-17.1,5.519s-8.929,13.826-5.619,17.136l3.029-2.933c-1.29-1.289.107-6.434,5.232-11.56s10.27-6.522,11.559-5.232Z" transform="translate(-312.219 -758.667)" fill="#0b3d90"/>
        <path id="패스_172" data-name="패스 172" d="M358.045,767.568q-.759-.072-1.54-.073a16.15,16.15,0,0,0-9.958,3.417q-.452.351-.878.734a8.547,8.547,0,0,1-10.686.134q-.586-.541-1.227-1.024A16.148,16.148,0,0,0,324,767.495h-.143a16.152,16.152,0,0,0-9.758,3.261,15.912,15.912,0,0,0-1.226,1.024,8.547,8.547,0,0,1-10.686-.134c-.283-.255-.577-.5-.878-.734a16.153,16.153,0,0,0-9.959-3.417q-.779,0-1.539.073a16.226,16.226,0,0,0,0,32.306c.505.047,1.019.073,1.539.073a16.155,16.155,0,0,0,9.959-3.416c.3-.235.595-.48.878-.735a8.547,8.547,0,0,1,10.686-.134,15.9,15.9,0,0,0,1.226,1.022,16.144,16.144,0,0,0,9.758,3.262H324a16.14,16.14,0,0,0,9.756-3.262q.64-.481,1.227-1.022a8.547,8.547,0,0,1,10.686.134q.425.382.878.735a16.153,16.153,0,0,0,9.958,3.416c.52,0,1.034-.026,1.54-.073a16.226,16.226,0,0,0,0-32.306ZM356.714,791.3a7.554,7.554,0,1,1,7.554-7.554A7.553,7.553,0,0,1,356.714,791.3Z" transform="translate(-269.243 -761.79)" fill="#379225" stroke="#379225" stroke-width="1"/>
        <g id="그룹_50" data-name="그룹 50" transform="translate(0 0.483)">
          <path id="패스_173" data-name="패스 173" d="M291.985,773.145l-.029,0,.029,0c5.813-.827,7.963-7.386,4.778-9.755-3.689-2.744-7.358,5.219-7.358,5.219-.293-5.817-7.336-11.536-10.244-8.216s4.812,10.713,4.812,10.713-10.626-6.149-16.606-1.668c-5.047,3.78,5.22,8.574,12.542,7.736-3.133,3.96-2.238,6.753,1.546,8.308,3.444,1.416,5.038-3.18,5.632-5.656.8,3.814,4.9,5.521,9.543,1.04C301.657,776.014,291.985,773.145,291.985,773.145Z" transform="translate(-266.023 -759.415)" fill="#fc1921"/>
        </g>
        <path id="패스_174" data-name="패스 174" d="M394.509,798.318a12.557,12.557,0,1,0-12.557-12.556A12.57,12.57,0,0,0,394.509,798.318Zm-10.576-12.556a10.576,10.576,0,1,1,10.576,10.574A10.588,10.588,0,0,1,383.933,785.762Z" transform="translate(-307.038 -763.81)" fill="#fff"/>
        <path id="패스_175" data-name="패스 175" d="M398.82,783.577c1,1,2.8,1.243,4.474,1.243,3.7,0,8.582-2.592,12.757-6.766,6.293-6.293,8.8-13.822,5.491-17.132l-2.9,2.93c1.29,1.291-.106,6.434-5.232,11.559-3.919,3.919-7.9,5.673-10.114,5.673a2,2,0,0,1-1.445-.441Z" transform="translate(-313.005 -759.465)" fill="#0b3d90"/>
        <g id="그룹_51" data-name="그룹 51" transform="translate(38.771 8.727)">
          <path id="패스_176" data-name="패스 176" d="M349.568,778.406a3.157,3.157,0,1,0-2.659-3.118A2.917,2.917,0,0,0,349.568,778.406Z" transform="translate(-333.411 -772.171)" fill="#ffba00"/>
          <path id="패스_177" data-name="패스 177" d="M342.713,784.412c-7.122-.1-16.692.682-16.692,2.237,0,2.682,10.1,2.235,11.179,5.187,1,2.743-4.87,18.016-2.236,18.779,2.359.684,5.674-9.518,7.423-9.658s4.4,10.591,6.348,10.1c3.42-.852-2.432-16.31-1.7-18.779.984-3.308,9.647-3.25,10.642-4.47C359.26,785.868,349.836,784.514,342.713,784.412Z" transform="translate(-326.021 -776.499)" fill="#ffba00"/>
        </g>
        <path id="패스_178" data-name="패스 178" d="M297.605,782.425a2.687,2.687,0,1,0-2.688-2.687A2.687,2.687,0,0,0,297.605,782.425Z" transform="translate(-276.245 -765.171)" fill="#ffba00"/>
      </g>
    </g>
    <g id="그룹_70" data-name="그룹 70" transform="translate(276.815 831.591)">
      <g id="그룹_69" data-name="그룹 69">
        <g id="그룹_59" data-name="그룹 59" transform="translate(62.006)">
          <g id="그룹_54" data-name="그룹 54" transform="translate(0 0.411)">
            <rect id="사각형_19" data-name="사각형 19" width="0.88" height="6.681" transform="translate(4.59)" fill="#353535"/>
            <path id="패스_179" data-name="패스 179" d="M382.19,872.566h-3.514v3.873h3.514Zm-2.636,3.274v-2.677h1.755v2.677Z" transform="translate(-378.676 -872.299)" fill="#353535"/>
          </g>
          <g id="그룹_55" data-name="그룹 55" transform="translate(6.531 0.401)">
            <path id="패스_180" data-name="패스 180" d="M392.76,876.21h-3.1v-1.379h1.809v-2.269h-2.688v.6h1.808v1.072h-1.808v2.574h3.978Z" transform="translate(-388.782 -872.288)" fill="#353535"/>
            <path id="패스_181" data-name="패스 181" d="M395.7,872.137v1.433h-.471v-1.433h-.814v6.689h.814v-4.658h.471v4.658h.815v-6.689Z" transform="translate(-390.777 -872.137)" fill="#353535"/>
          </g>
          <g id="그룹_56" data-name="그룹 56" transform="translate(13.205 0.376)">
            <rect id="사각형_20" data-name="사각형 20" width="3.866" height="0.598" transform="translate(0.31 0.289)" fill="#353535"/>
            <path id="패스_182" data-name="패스 182" d="M401.806,872.76v.451a2.61,2.61,0,0,0,1.769,2.816v.666a3.2,3.2,0,0,1-2.232-1.506,3.2,3.2,0,0,1-2.232,1.506v-.666a2.61,2.61,0,0,0,1.769-2.816v-.451Z" transform="translate(-399.111 -872.332)" fill="#353535"/>
            <rect id="사각형_21" data-name="사각형 21" width="0.88" height="6.69" transform="translate(5.222)" fill="#353535"/>
          </g>
          <g id="그룹_58" data-name="그룹 58" transform="translate(20.02)">
            <path id="패스_183" data-name="패스 183" d="M418.714,872.977h-.906v-.82h-.88v3.519h.88v-2.1h.906Z" transform="translate(-412.23 -871.743)" fill="#353535"/>
            <path id="패스_184" data-name="패스 184" d="M418.29,875.612h.906v-.6h-.906" transform="translate(-412.711 -872.754)" fill="#353535"/>
            <path id="패스_185" data-name="패스 185" d="M412.265,879.334a1.98,1.98,0,1,1,1.948,1.618A1.806,1.806,0,0,1,412.265,879.334Zm1.948,1a1,1,0,1,0-1.061-1A1.032,1.032,0,0,0,414.213,880.336Z" transform="translate(-410.58 -873.709)" fill="#353535"/>
            <g id="그룹_57" data-name="그룹 57">
              <path id="패스_186" data-name="패스 186" d="M412.039,872.206v-.69h-.88v.69h-1.5v.6h3.884v-.6Z" transform="translate(-409.657 -871.516)" fill="#353535"/>
              <path id="패스_187" data-name="패스 187" d="M410.007,874.452a1.747,1.747,0,1,1,1.715,1.417A1.588,1.588,0,0,1,410.007,874.452Zm1.715.81a.811.811,0,1,0-.856-.81A.833.833,0,0,0,411.722,875.262Z" transform="translate(-409.781 -872.053)" fill="#353535"/>
            </g>
          </g>
        </g>
        <g id="그룹_65" data-name="그룹 65" transform="translate(0 0.151)">
          <g id="그룹_60" data-name="그룹 60" transform="translate(7.232 0.234)">
            <path id="패스_188" data-name="패스 188" d="M300.46,872.112v.739h-1.577v.6h1.577v.574h-1.577v.6h1.577v2.11h.879v-4.618Z" transform="translate(-295.672 -872.112)" fill="#353535"/>
            <path id="패스_189" data-name="패스 189" d="M296.711,880.553v-1.8h-.879v2.4h4.5v-.6Z" transform="translate(-294.593 -874.461)" fill="#353535"/>
            <path id="패스_190" data-name="패스 190" d="M293.914,873.949a2,2,0,1,1,1.966,1.625A1.82,1.82,0,0,1,293.914,873.949Zm1.966,1.016a1.017,1.017,0,1,0-1.074-1.016A1.046,1.046,0,0,0,295.88,874.965Z" transform="translate(-293.914 -872.188)" fill="#353535"/>
          </g>
          <g id="그룹_61" data-name="그룹 61" transform="translate(0 0.251)">
            <path id="패스_191" data-name="패스 191" d="M292.256,873.57h-.906v-1.433h-.879v6.689h.879v-4.658h.906Z" transform="translate(-285.464 -872.137)" fill="#353535"/>
            <rect id="사각형_22" data-name="사각형 22" width="3.724" height="0.598" transform="translate(0.299 0.275)" fill="#353535"/>
            <path id="패스_192" data-name="패스 192" d="M285.346,872.779v.45c0,1.379.458,2.484,1.7,2.892v.7a2.963,2.963,0,0,1-2.16-1.449,2.964,2.964,0,0,1-2.16,1.449v-.7c1.238-.408,1.7-1.513,1.7-2.892v-.45Z" transform="translate(-282.723 -872.364)" fill="#353535"/>
          </g>
          <g id="그룹_62" data-name="그룹 62" transform="translate(13.736)">
            <path id="패스_193" data-name="패스 193" d="M306.708,880.553v-1.8h-.879v2.4h4.5v-.6Z" transform="translate(-304.634 -874.226)" fill="#353535"/>
            <path id="패스_194" data-name="패스 194" d="M306.478,873.023v.463c0,.8.352,1.474,1.588,1.829v.609a3.193,3.193,0,0,1-2.043-.982,3.2,3.2,0,0,1-2.044.982v-.609c1.236-.355,1.588-1.026,1.588-1.829v-.463Z" transform="translate(-303.98 -872.2)" fill="#353535"/>
            <path id="패스_195" data-name="패스 195" d="M306.56,872.442v-.692h-.879v.692h-1.428v.6h3.734v-.6Z" transform="translate(-304.077 -871.75)" fill="#353535"/>
            <path id="패스_196" data-name="패스 196" d="M311.583,874.065V875.8h.879v-3.623h-.879v1.887Z" transform="translate(-306.67 -871.901)" fill="#353535"/>
          </g>
          <g id="그룹_64" data-name="그룹 64" transform="translate(20.504 0.078)">
            <path id="패스_197" data-name="패스 197" d="M323.433,873.548h-.906v-1.434h-.88v6.69h.88v-4.659h.906Z" transform="translate(-316.998 -871.956)" fill="#353535"/>
            <g id="그룹_63" data-name="그룹 63">
              <path id="패스_198" data-name="패스 198" d="M317,878.344v-1.073h-.879v1.073h-1.664v.6h4.713v-.6Z" transform="translate(-314.452 -873.78)" fill="#353535"/>
              <path id="패스_199" data-name="패스 199" d="M317.083,872.561v-.691H316.2v.691h-1.5v.6h3.884v-.6Z" transform="translate(-314.54 -871.87)" fill="#353535"/>
              <path id="패스_200" data-name="패스 200" d="M315.054,874.807a1.747,1.747,0,1,1,1.714,1.417A1.586,1.586,0,0,1,315.054,874.807Zm1.714.81a.811.811,0,1,0-.856-.81A.834.834,0,0,0,316.768,875.617Z" transform="translate(-314.665 -872.408)" fill="#353535"/>
            </g>
          </g>
        </g>
        <g id="그룹_68" data-name="그룹 68" transform="translate(31.224 0.259)">
          <path id="패스_201" data-name="패스 201" d="M341.138,872.375v.6H343.8c0,1.406-1.609,2.158-2.667,2.158v.6c1.666,0,3.636-.922,3.636-2.912v-.438Z" transform="translate(-334.614 -872.079)" fill="#353535"/>
          <path id="패스_202" data-name="패스 202" d="M349.217,871.946v1.432h.788v.6h-.788v2.454h-.879v-4.483Z" transform="translate(-337.161 -871.928)" fill="#353535"/>
          <path id="패스_203" data-name="패스 203" d="M343.463,880.174v-1.8h-.88v2.4h4.5v-.6Z" transform="translate(-335.125 -874.201)" fill="#353535"/>
          <g id="그룹_66" data-name="그룹 66">
            <rect id="사각형_23" data-name="사각형 23" width="0.879" height="4.481" transform="translate(4.781)" fill="#353535"/>
            <path id="패스_204" data-name="패스 204" d="M333.829,880.145v-1.8h-.88v2.4h4.505v-.6Z" transform="translate(-331.717 -874.19)" fill="#353535"/>
            <path id="패스_205" data-name="패스 205" d="M331.042,873.755a2,2,0,1,1,1.966,1.623A1.819,1.819,0,0,1,331.042,873.755Zm1.966,1.014a1.016,1.016,0,1,0-1.073-1.014A1.044,1.044,0,0,0,333.008,874.769Z" transform="translate(-331.042 -871.993)" fill="#353535"/>
          </g>
          <rect id="사각형_24" data-name="사각형 24" width="0.879" height="3.46" transform="translate(25.084 0.037)" fill="#353535"/>
          <path id="패스_206" data-name="패스 206" d="M364.366,874.088a3.017,3.017,0,0,0,2.111,1.266v-.669a2.042,2.042,0,0,1-1.668-2.22v-.277h-.884v.277a2.042,2.042,0,0,1-1.67,2.22v.669A3.019,3.019,0,0,0,364.366,874.088Z" transform="translate(-342.085 -872.014)" fill="#353535"/>
          <g id="그룹_67" data-name="그룹 67" transform="translate(13.328 0.033)">
            <path id="패스_207" data-name="패스 207" d="M355.151,871.969H352.6v.6h5.112v-.6Z" transform="translate(-351.996 -871.969)" fill="#353535"/>
            <path id="패스_208" data-name="패스 208" d="M355.522,872.393v.318c0,.622.985.981,2.321.981v.609c-1.449,0-2.182-.118-2.849-.671-.666.554-1.4.671-2.848.671v-.609c1.335,0,2.321-.359,2.321-.981v-.318Z" transform="translate(-351.836 -872.119)" fill="#353535"/>
            <path id="패스_209" data-name="패스 209" d="M357.982,875.972h-6.315v.6h2.718v.745h.88v-.745h2.718Z" transform="translate(-351.667 -873.385)" fill="#353535"/>
            <path id="패스_210" data-name="패스 210" d="M353.629,879.067a1.926,1.926,0,1,1,1.89,1.553A1.747,1.747,0,0,1,353.629,879.067Zm1.89.943a.944.944,0,1,0-1-.943A.971.971,0,0,0,355.519,880.01Z" transform="translate(-352.361 -873.931)" fill="#353535"/>
          </g>
          <path id="패스_211" data-name="패스 211" d="M368.824,878.047h-4.382v2.607h4.382v-2.607Zm-3.5,2.009v-1.411h2.623v1.411Z" transform="translate(-342.859 -874.086)" fill="#353535"/>
        </g>
        <path id="패스_212" data-name="패스 212" d="M328.011,876.449a.783.783,0,1,1-.783-.783A.782.782,0,0,1,328.011,876.449Z" transform="translate(-298.192 -872.984)" fill="#353535"/>
        <path id="패스_213" data-name="패스 213" d="M375.559,876.449a.783.783,0,1,1-.783-.783A.783.783,0,0,1,375.559,876.449Z" transform="translate(-315.014 -872.984)" fill="#353535"/>
      </g>
    </g>
  </g>
</svg>
