<svg xmlns="http://www.w3.org/2000/svg" width="160" height="42.342" viewBox="0 0 160 42.342">
  <g id="hygn" transform="translate(-173.702 -205.476)">
    <g id="그룹_3" data-name="그룹 3" transform="translate(173.702 205.476)">
      <path id="패스_1" data-name="패스 1" d="M233.94,207.4c.172,0,.364-.173.5-.1-.007-.42.051-.3.423-.479a1.53,1.53,0,0,1,.97-.34c.494.053.647.3,1.331.62a3.856,3.856,0,0,1,1.676,3.036,3.388,3.388,0,0,1-3.35,3.356,3.327,3.327,0,0,1-3.389-3.143C232.1,208.738,232.964,207.4,233.94,207.4Z" transform="translate(-192.617 -205.801)" fill="red"/>
      <g id="그룹_1" data-name="그룹 1" transform="translate(14.802 30.659)">
        <path id="패스_2" data-name="패스 2" d="M226.628,251.125c0,.413-.005.822-.034,1.229-.128-.26-.32.022-.252.423a2.989,2.989,0,0,1,.428,1.931c.359.417.79-.608.752.928-.013,1.221-.956,1.821-.46,3.119-.614.032-.222,1.626-.726,1.938a.892.892,0,0,1-.131.932c-.117-.456-.322-.291-.481-.435-.534-1.334-.74,1.652-1.266,1.032l-.075-.744c-.446,1.145-.635.26-1.13.325.007.081.015.168.02.256a1.311,1.311,0,0,0-.164.465q1.454-.044,2.859-.114c.1-.339.237-.623.377-.235.007.072.014.143.024.212,12.127-.669,21.06-2.963,21.06-5.693C247.428,253.985,238.621,251.786,226.628,251.125Z" transform="translate(-204.506 -250.92)" fill="#0f218b"/>
        <path id="패스_3" data-name="패스 3" d="M223.475,265.952c.249.018.358-.493.355-.97-.026-.323-.161-.374-.235-.636a2,2,0,0,0-.412.246c.005.37.024.652.045.916.068-.212.155-.377.285-.329A2.82,2.82,0,0,0,223.475,265.952Z" transform="translate(-204.53 -255.203)" fill="#0f218b"/>
        <path id="패스_4" data-name="패스 4" d="M212.506,260.557l.529-.074a6.722,6.722,0,0,1-.547,1.851c-.129-.126-.243-.03-.348.137.487-.009.972-.017,1.452-.028a3.778,3.778,0,0,0,.1-1.625,5.12,5.12,0,0,1,.272-.723,2.285,2.285,0,0,1,.031-.849c-.094-.066-.2-.051-.29-.144-.426-1.381-.872,1.625-1.348.961l-.012-.757c-.617,1.28-.684-.074-1.4.326.133-.259.283-1.078.55-.959a2.762,2.762,0,0,0-.1.767c.247.037.4-.467.431-.947-.01-.324-.161-.381-.228-.645a1.182,1.182,0,0,0-.56.386c-.346-.375-.045-1.241.105-1.8l.179-.243c.342.128-.075,1.052.2,1.631.45-.907-.268-2.383.084-3.576-.053-.611-.138-2.049.333-2.086a8.444,8.444,0,0,0,.033-1.324l-.863-.007h-.155s-.551,0-.827,0c-1.828,0-3.5.037-5.234.106a19.247,19.247,0,0,1-9.307,10.724,119.814,119.814,0,0,0,14.54.834c.5,0,.995-.006,1.49-.007C211.873,261.781,212.227,261.168,212.506,260.557Z" transform="translate(-195.595 -250.822)" fill="#0f218b"/>
      </g>
      <g id="그룹_2" data-name="그룹 2" transform="translate(20.081)">
        <path id="패스_5" data-name="패스 5" d="M203.613,216.723c1.224.588,2.548,1.032,3.653,1.478a8.148,8.148,0,0,1,1.39,1.368c.728.275,1.452.527,2.084.811a15.2,15.2,0,0,1,2.163,2.226c.026.009.05.009.059-.015l-.059-.249a3.51,3.51,0,0,0,.147.412c.037.035.066.066.1.1.79-.062,1.7,1.574,2.329,1.592a5.011,5.011,0,0,1,.721.945,4.4,4.4,0,0,0-.109-.74c.112.079.247.185.287.128a2.25,2.25,0,0,1-.057-.252l.059.248,0,0c.35,1.342,1.483,2.03,1.735,3.375a18.3,18.3,0,0,1,1.967,6.048c9.848.56,17.7,2.194,20.735,4.195a39.026,39.026,0,0,0-1.428-4.6c-7.78-23.5-13.175-6.166-13.175-6.166-4.716-16.324-9.23-21.955-13.174-22.146v-.009c-.041,0-.087.005-.128.005s-.083-.005-.124-.005v.009c-2.873.139-6.05,3.174-9.388,11.13A1.35,1.35,0,0,0,203.613,216.723Z" transform="translate(-203.402 -205.476)" fill="#008837"/>
        <path id="패스_6" data-name="패스 6" d="M215.28,240.885c.073-.216.463.169.339-.352,0-.22-.195-.3-.219-.446-.12.143-.312.065-.458.063a3.012,3.012,0,0,0-.275-.567c.016-.068.074,0,.092-.072-.694-.182-.485-1.311-.845-2-.092-.475.568.136.138-.581l-.13-.126c.517-.444-.711-1.645-.8-2.4l-.1.016.077-.05a19.137,19.137,0,0,0-1.4-2.272,20.163,20.163,0,0,1-2.047-1.967c.038.226-.311-.189-.137-.137a5.21,5.21,0,0,0-1.429-1.047.415.415,0,0,1-.05-.037.469.469,0,0,1-.139-.111l-.274-.218a19.27,19.27,0,0,1,2.236,8.658,18.4,18.4,0,0,1-.4,4.334c1.577-.055,2.9-.086,4.555-.086.5,0,.991,0,1.483.007C215.436,241.28,215.363,241.076,215.28,240.885Z" transform="translate(-204.772 -212.957)" fill="#008837"/>
      </g>
      <path id="패스_7" data-name="패스 7" d="M192.163,224c-.07-.062-.141-.137-.216-.219-.1-.105-.2-.209-.309-.31a2.56,2.56,0,0,0-.542-.371h0a2.045,2.045,0,0,0-.992-.124,15.681,15.681,0,0,0-6.721,3.843,9.5,9.5,0,0,1,1.569.837v.038l0,0-3.276,4.675a3.814,3.814,0,0,0-1.914-.479,3.039,3.039,0,0,0-.307.028c-.1.105-.229.241-.379.4a33.736,33.736,0,0,0-2.533,5.395,3.88,3.88,0,0,0,.76.9l-2.049,2.919c-.2.642-.419,1.442-.624,2.213-.336,1.143-.924,3.06-.924,3.06s-.37,3.7,10.026,5.18A16.843,16.843,0,0,0,192.163,224Zm-2.814,11.585a9.63,9.63,0,0,1-1.137,4.719l-.1-.024-4.742-3.063a3.856,3.856,0,0,0,.3-1.521l5.61-1.043h.005C189.316,234.956,189.342,235.268,189.349,235.586Zm-3.428-7.168.017-.026a9.623,9.623,0,0,1,3.125,5.029l-.139.067-5.461,1.016a3.8,3.8,0,0,0-.834-1.387Zm-11.03,15.733,3.431-4.892a3.809,3.809,0,0,0,1.571.312c.046,0,.091-.005.136-.007l.826,5.789a9.6,9.6,0,0,1-5.963-1.2Zm7.16.976-.013-.031-.824-5.789a3.824,3.824,0,0,0,1.514-1.066l4.825,3.121A9.682,9.682,0,0,1,182.051,245.128Z" transform="translate(-173.702 -211.139)" fill="#0f218b"/>
    </g>
    <g id="그룹_6" data-name="그룹 6" transform="translate(242.934 215.952)">
      <path id="패스_8" data-name="패스 8" d="M335.454,223.827a8.093,8.093,0,0,0-10.673,0,7.639,7.639,0,0,0,0,11.16,7.912,7.912,0,0,0,10.678,0,7.581,7.581,0,0,0,0-11.156ZM332.46,231.8a3.336,3.336,0,0,1-2.323.943,3.289,3.289,0,0,1-2.324-.939,3.147,3.147,0,0,1-1.05-2.4,3.046,3.046,0,0,1,1.045-2.365,3.353,3.353,0,0,1,2.329-.911,3.418,3.418,0,0,1,2.331.913,3.03,3.03,0,0,1,1.076,2.363A3.108,3.108,0,0,1,332.46,231.8Z" transform="translate(-291.082 -221.245)"/>
      <path id="패스_9" data-name="패스 9" d="M359.415,224.964h-3.326v-1.392H351.43V236.84h4.659V235.1h3.775v-4.187h-3.775v-1.756h3.775v-4.188Z" transform="translate(-300.498 -221.814)"/>
      <path id="패스_10" data-name="패스 10" d="M348.322,244.941a9.056,9.056,0,0,0-6.14-2.288,8.887,8.887,0,0,0-6.078,2.288,8.647,8.647,0,0,0-.005,12.592,8.829,8.829,0,0,0,6.084,2.326,8.987,8.987,0,0,0,6.14-2.322,8.453,8.453,0,0,0,0-12.6Zm-3.049,9.341a4.2,4.2,0,0,1-3.032,1.261,4.251,4.251,0,0,1-3.022-1.254,4.136,4.136,0,0,1,0-6.1,4.3,4.3,0,0,1,3.021-1.22,4.239,4.239,0,0,1,3.027,1.22,3.953,3.953,0,0,1,1.368,3.066A3.9,3.9,0,0,1,345.274,254.282Z" transform="translate(-294.652 -227.993)"/>
      <g id="그룹_4" data-name="그룹 4" transform="translate(64.469 1.573)">
        <path id="패스_11" data-name="패스 11" d="M397.3,233.623h-.96V223.3H372.421v4.27h19.167v6.056H371.451v4.268h10.9v7.089h4.665v-7.089H397.75v-4.268Z" transform="translate(-371.451 -223.297)"/>
        <path id="패스_12" data-name="패스 12" d="M377.641,255.578v-7.449h-4.755v8.781a3.09,3.09,0,0,0,.723,2.25,2.7,2.7,0,0,0,2.028.69H396.8v-4.272H377.641Z" transform="translate(-371.916 -231.34)"/>
      </g>
      <path id="패스_13" data-name="패스 13" d="M293.372,223.63h-5.794v-2.658h-5.06v2.658H276.1v4.095h2.571a5.614,5.614,0,0,0-.386.792,5.19,5.19,0,0,0-.345,1.869,6.651,6.651,0,0,0,2.191,5.111,7.1,7.1,0,0,0,4.9,1.853,6.872,6.872,0,0,0,4.838-1.854,6.692,6.692,0,0,0,2.163-5.11,5.043,5.043,0,0,0-.358-1.869,6.391,6.391,0,0,0-.376-.792h2.527V223.63Zm-6.474,8.8a2.745,2.745,0,0,1-1.939.826,2.527,2.527,0,0,1-1.9-.816,2.641,2.641,0,0,1-.82-1.95,2.681,2.681,0,0,1,.817-1.981,2.632,2.632,0,0,1,1.9-.75,2.8,2.8,0,0,1,1.952.769,2.588,2.588,0,0,1,.861,1.962A2.629,2.629,0,0,1,286.9,232.43Z" transform="translate(-276.099 -220.971)"/>
      <g id="그룹_5" data-name="그룹 5" transform="translate(19.91 1.529)">
        <path id="패스_14" data-name="패스 14" d="M313.72,227.995H310.3v-4.763h-4.75V237.46h4.75V232.3h3.873v-4.31Z" transform="translate(-305.546 -223.232)"/>
      </g>
      <path id="패스_15" data-name="패스 15" d="M301.015,246.45H278.281V256.4a3.06,3.06,0,0,0,.722,2.233,2.851,2.851,0,0,0,2.028.659h17.686a2.633,2.633,0,0,0,2-.7,2.9,2.9,0,0,0,.745-2.224V246.45Zm-4.256,8.575H282.947v-4.3h13.812Z" transform="translate(-276.806 -229.223)"/>
    </g>
  </g>
</svg>
