<svg xmlns="http://www.w3.org/2000/svg" width="160" height="59.491" viewBox="0 0 160 59.491">
  <g id="sacheon" transform="translate(-166.708 -80.06)">
    <g id="그룹_19" data-name="그룹 19" transform="translate(194.729 86.959)">
      <g id="그룹_1" data-name="그룹 1" transform="translate(53.831)">
        <path id="패스_1" data-name="패스 1" d="M433.48,106.411s-.588-.257-.785.2-1.129,4.31-2.862,5.742-2.712,2.1-2.712,2.1-.711.421-.484.829.966.437,1.507.257a10.971,10.971,0,0,0,3.044-2.215,20.67,20.67,0,0,0,3.029-4.84C434.7,107.164,434.113,106.742,433.48,106.411Z" transform="translate(-426.592 -104.96)" fill="#ec4115"/>
        <path id="패스_2" data-name="패스 2" d="M464.086,106.82c-.332-.105-.784.179-1.025.27a4.353,4.353,0,0,1-1.041.3,6.378,6.378,0,0,1-.856.017c.033-.941.076-1.872.149-2.429.15-1.16.15-1.261.224-1.64s.212-.651-.238-.878a8.5,8.5,0,0,0-1.283-.452s-.632-.226-.725.3.331,3.2.212,5.8-.114,4.808-.1,5.532.863,1.207,1.2.091a20.188,20.188,0,0,0,.437-3.693c.029-.315.05-.753.071-1.243.289-.339.866-.188,1.2-.188a14.276,14.276,0,0,1,1.749.238c.346.062.466-.028.627-.586a1.935,1.935,0,0,0,.081-1.16A1.869,1.869,0,0,0,464.086,106.82Z" transform="translate(-448.984 -101.964)" fill="#ec4115"/>
        <path id="패스_3" data-name="패스 3" d="M448.795,125.846a9.641,9.641,0,0,0-1.149-.919,1.607,1.607,0,0,0-1.066-.3s-.57-.074-.314.574a5.027,5.027,0,0,0,1.562,2.382c.771.437.953-.5,1.134-.829A.6.6,0,0,0,448.795,125.846Z" transform="translate(-440.024 -117.479)" fill="#ec4115"/>
      </g>
      <g id="그룹_2" data-name="그룹 2" transform="translate(69.924 2.401)">
        <path id="패스_4" data-name="패스 4" d="M488.722,112.27a.758.758,0,0,0,1.039-.158c.474-.565.566-.835.906-1.22s-.225-.829-.677-.878-1.538.037-1.833,0c0,0-.657-.162-.767.2a1.093,1.093,0,0,0,.248,1.179A8.132,8.132,0,0,0,488.722,112.27Z" transform="translate(-484.284 -109.854)" fill="#ec4115"/>
        <path id="패스_5" data-name="패스 5" d="M483.638,124.088c.452.608.521.3.521.3s.589-.452,1.019-.814.519-.7,0-1.13a9.432,9.432,0,0,0-2.264-.906c.383-.321.725-.611.976-.834.653-.589,1.649-1.334,1.514-1.9s-.271-.976-1.086-.939-1.831.328-3.211.508a15.945,15.945,0,0,1-2.8.159s-.7-.2-.609.339a1.177,1.177,0,0,0,.609.973c.363.226.883.158,1.9-.135a9.872,9.872,0,0,1,2.245-.473c.221.042.182.247,0,.45a10.075,10.075,0,0,1-4.145,3.752s-.429.335-.476.654.07.522.614.409a5.629,5.629,0,0,0,2.491-1.289c.3-.259.627-.537.957-.814A10.286,10.286,0,0,1,483.638,124.088Z" transform="translate(-477.686 -115.254)" fill="#ec4115"/>
        <path id="패스_6" data-name="패스 6" d="M499.688,115.965c.27.311,1.4.2,1.683.13s1.029-.284,1.1-.13.157.07.2,1.23-.111,2.759-.045,3.227.52.9.769.648a2.113,2.113,0,0,0,.7-1.469c.2-1.064.226-3.393.339-4.455s.5-3.256.635-3.752.181-1.288-.591-1.538a4.335,4.335,0,0,0-1.2-.25s-.566-.135-.613.34.159,3.956,0,4.41-.732.427-1.134.45a6.023,6.023,0,0,0-1.94.475C499.393,115.484,499.416,115.653,499.688,115.965Z" transform="translate(-492.603 -109.588)" fill="#ec4115"/>
        <path id="패스_7" data-name="패스 7" d="M497.391,145.206a8.71,8.71,0,0,1-2.527.519c-1.515.136-3.5.158-3.5.158s-.652-.044-.506-.542c0,0,.1-.767.146-1.2s.16-.768-.452-1.019a2.155,2.155,0,0,0-.976-.2s-.562-.121-.607.324.158.792.2,1.761a3.727,3.727,0,0,1-.084,1.305s.061.883.851.837,2.419-.27,4.14-.317,2.485.071,2.8.071,1.1,0,1.283-.364.41-.859.117-1.13A.744.744,0,0,0,497.391,145.206Z" transform="translate(-485.408 -132.414)" fill="#ec4115"/>
      </g>
      <g id="그룹_3" data-name="그룹 3" transform="translate(0 6.303)">
        <path id="패스_8" data-name="패스 8" d="M260.55,125.05c-.038-.146-.028-.167-.334-.177s-1.3.139-1.488.139-.051-.285-.011-.551.294-.685.284-.8-.026-.359-.168-.373a5.725,5.725,0,0,1-.714-.1c-.148-.049-.373.089-.354.393a10.129,10.129,0,0,0,.274,1.138,1.468,1.468,0,0,1,0,.372c-.192.028-.755.108-.926.108-.2,0-1.177-.108-1.334.1a.466.466,0,0,0-.066.491c.038.138.285.235.561.207s.938-.207,1.223-.275.409-.219.459-.055a3.855,3.855,0,0,1-.084.38,3.753,3.753,0,0,1-.727,1.01c-.184.176-.765.55-.834.872a1.516,1.516,0,0,0,.047.854c.09.216.2.618.718.56s1.561-.275,1.913-.286.951,0,1.1-.579a1.562,1.562,0,0,0-.5-1.666c-.59-.588-.757-.678-.786-.993s.038-.352.305-.362a10.9,10.9,0,0,0,1.275-.02C260.632,125.374,260.591,125.2,260.55,125.05Zm-1.2,2.424a.631.631,0,0,1,0,.813c-.157.237-.609.227-.918.266a2.14,2.14,0,0,1-.928-.117.308.308,0,0,1-.128-.5c.1-.077.755-1.108.883-1.294s.218-.04.218-.04A5.069,5.069,0,0,1,259.346,127.474Z" transform="translate(-255.675 -122.798)" fill="#3b3c3e"/>
        <path id="패스_9" data-name="패스 9" d="M274.851,121.981s-.471-.071-.433.274.079,1.511.071,2.1.094,1.7.145,2.541a12.357,12.357,0,0,1-.216,2.355c-.038.186-.134.432.149.569s.6-.038.705-.51.226-2.914.3-3.787.218-1.8.266-2.248.173-.8-.149-1.07A1.352,1.352,0,0,0,274.851,121.981Z" transform="translate(-268.482 -121.975)" fill="#3b3c3e"/>
        <path id="패스_10" data-name="패스 10" d="M277.549,133.572s1.716-.01,1.944-.039.459-.06.6.127a.448.448,0,0,1,0,.6.571.571,0,0,1-.64.275c-.234-.04-1.677-.39-1.809-.234s-.163-.051-.163-.051Z" transform="translate(-270.612 -129.878)" fill="#3b3c3e"/>
      </g>
      <g id="그룹_4" data-name="그룹 4" transform="translate(9.884 6.835)">
        <path id="패스_11" data-name="패스 11" d="M294.573,123.835a.911.911,0,0,0-.45-.167.354.354,0,0,0-.432.353,10.856,10.856,0,0,1,.088,1.511,4.094,4.094,0,0,1-.088.8c-.05.216-.1.456.4.437s3.266-.339,4.13-.388.588.137.8.04.362-.523.372-.629,0-.452-.4-.383-.54.128-.983.206-2.413.363-2.767.442a2.928,2.928,0,0,1-.658.068s-.1.01-.068-.157.178-1.187.207-1.481S294.732,123.926,294.573,123.835Z" transform="translate(-291.58 -123.665)" fill="#3b3c3e"/>
        <path id="패스_12" data-name="패스 12" d="M287.9,135.854s-.49-.063-.617-.075-.226.144-.226.271a3.229,3.229,0,0,0,.226.559c.1.275.186.361.549.235a37.115,37.115,0,0,1,4.014-.755,16.529,16.529,0,0,1,2.794.008c.57.08,1.4.2,1.481.071a1,1,0,0,0,.157-.648c-.047-.236-.174-.226-.3-.2s-2.728.147-3.249.176-1.638.137-2.275.188A23.974,23.974,0,0,1,287.9,135.854Z" transform="translate(-287.056 -131.642)" fill="#3b3c3e"/>
        <path id="패스_13" data-name="패스 13" d="M293.417,140.752s-.273-.069-.254.166a1.5,1.5,0,0,0,.254.54c.039.1.314.04.647,0s1.736-.264,2.257-.308,1.148-.075,1.275-.065.236-.04.216.264a2.437,2.437,0,0,1-.1.539s-.01.119-.216.138l-3.386.306c-.343.03-.726-.02-.754.372a6.918,6.918,0,0,1-.043,1.119c-.1.7-.065.559.158.687a10.824,10.824,0,0,0,2.276-.108,14.22,14.22,0,0,1,3.179-.108c.932.177.952.119,1.05.02a.758.758,0,0,0,.216-.519.387.387,0,0,0-.482-.285c-.314.049-1.618.107-2.384.167s-2.638.275-2.638.275-.413.106-.463-.128a2.28,2.28,0,0,1-.087-.708c.039-.117.145-.3.686-.322s2.139-.1,2.523-.146,1.087-.053,1.247-.514.059-.734.283-.983-.2-.517-.372-.614a.745.745,0,0,0-.717-.071,20.473,20.473,0,0,1-2.09.247c-.5.058-1.589.167-1.747.146A1.687,1.687,0,0,1,293.417,140.752Z" transform="translate(-291.238 -135.137)" fill="#3b3c3e"/>
      </g>
      <g id="그룹_5" data-name="그룹 5" transform="translate(46.711 9.544)">
        <path id="패스_14" data-name="패스 14" d="M407.291,132.7s-.286.039-.13.255.2.265.462.167a17.344,17.344,0,0,1,2.286-.353c.246.011.216.067.216.167a2.427,2.427,0,0,1,0,.3c-.011.108.048.294-.294.383s-2.217.294-2.217.294-.294-.011-.285.127-.058,1.177-.058,1.177a.176.176,0,0,0,.125.236,1.2,1.2,0,0,0,.7,0,7.673,7.673,0,0,1,2.112-.245c.843.058,1.02.048,1.02.048s.352.07.352-.176-.156-.579-.48-.451a11.26,11.26,0,0,1-1.75.225c-.507.059-1.036.128-1.185.148s-.333.088-.353-.118-.028-.393-.028-.393-.069-.185.254-.234,1.667-.227,2.051-.294.559-.179.6-.4a4.1,4.1,0,0,0,.031-.912c-.031-.166-.106-.372-.345-.372a15.007,15.007,0,0,0-1.5.245C408.407,132.6,407.291,132.7,407.291,132.7Z" transform="translate(-406.129 -132.267)" fill="#3b3c3e"/>
        <path id="패스_15" data-name="패스 15" d="M406.626,141.262a1.038,1.038,0,0,1,.178.338.56.56,0,0,1-.531.86,10.694,10.694,0,0,1-1.5.225c-.3,0-.765-.088-.784.089a.637.637,0,0,0,.165.493c.109.086.169.1.414.068a12.546,12.546,0,0,1,4.865-.561s.443.1.519-.107.08-.422-.206-.422h-1.716c-.332,0-.547.01-.56-.344s-.007-.628.247-.726Z" transform="translate(-403.985 -138.369)" fill="#3b3c3e"/>
      </g>
      <g id="그룹_6" data-name="그룹 6" transform="translate(19.494 9.517)">
        <path id="패스_16" data-name="패스 16" d="M320.876,132.611s-.285.04-.128.255.2.264.461.167a17.429,17.429,0,0,1,2.287-.352c.246.011.216.067.216.166a2.782,2.782,0,0,1,0,.295c-.01.108.047.294-.3.383s-2.217.294-2.217.294-.294-.011-.286.126-.058,1.178-.058,1.178a.176.176,0,0,0,.128.236,1.193,1.193,0,0,0,.7,0,7.71,7.71,0,0,1,2.112-.245c.842.058,1.019.048,1.019.048s.352.069.352-.176-.153-.579-.479-.451a11.22,11.22,0,0,1-1.751.224c-.5.059-1.036.128-1.181.148s-.333.088-.353-.118-.03-.392-.03-.392-.068-.186.254-.235,1.667-.227,2.051-.294.56-.178.6-.4a4.234,4.234,0,0,0,.03-.913c-.03-.166-.11-.372-.344-.372a14.825,14.825,0,0,0-1.5.246C322,132.515,320.876,132.611,320.876,132.611Z" transform="translate(-319.715 -132.181)" fill="#3b3c3e"/>
        <path id="패스_17" data-name="패스 17" d="M320.214,141.175a1.043,1.043,0,0,1,.177.339,1.914,1.914,0,0,1,0,.6,1.756,1.756,0,0,1-.53.255,10.707,10.707,0,0,1-1.5.225c-.307,0-.766-.088-.786.089a.637.637,0,0,0,.166.493c.108.086.167.1.413.067a12.55,12.55,0,0,1,4.864-.56s.443.1.523-.108.078-.422-.206-.422h-1.719c-.333,0-.548.01-.558-.343s-.009-.628.244-.726Z" transform="translate(-317.57 -138.283)" fill="#3b3c3e"/>
      </g>
      <path id="패스_18" data-name="패스 18" d="M348.218,126.488a3.809,3.809,0,0,0-.509-.146c-.079-.049-.256.011-.266.216s-.107,1.453-.107,1.521a.175.175,0,0,1-.156.206c-.158.029-2.337.245-2.456.226s-.193-.128-.193-.314.088-1.461.076-1.531-.027-.207-.273-.275l-.7.05s-.237-.05-.227.441.372,2.473.46,3.277-.145.941.463,1.128a11.573,11.573,0,0,0,2.873-.215c.393-.041.718-.109.755-.688s.315-3,.373-3.246S348.414,126.6,348.218,126.488Zm-1.236,4.152a18.655,18.655,0,0,1-2.071.108c-.254-.02-.448.009-.352-.442a7.375,7.375,0,0,0-.028-.774c-.032-.255-.051-.343.214-.431l2.365-.2s.175-.068.175.237-.078,1.187-.078,1.187A.278.278,0,0,1,346.982,130.64Z" transform="translate(-315.778 -118.653)" fill="#3b3c3e"/>
      <path id="패스_19" data-name="패스 19" d="M363,122.037s-.431-.1-.385.284.128,5.719.113,6.639-.046,1.252.21,1.343.6-.361.62-1.328.075-3.5.119-4.084,0-1.266.075-1.672.151-.875-.18-1.042A1.152,1.152,0,0,0,363,122.037Z" transform="translate(-328.932 -115.707)" fill="#3b3c3e"/>
      <path id="패스_20" data-name="패스 20" d="M365.278,132.677s.271.514.724.51a7.253,7.253,0,0,0,1.039-.125c.256-.029.617-.227.739.031a.7.7,0,0,1-.152.813,1.05,1.05,0,0,1-.828.076c-.393-.076-.528-.194-.889-.286s-.544-.03-.544.136S365.278,132.677,365.278,132.677Z" transform="translate(-330.758 -123.004)" fill="#3b3c3e"/>
      <g id="그룹_7" data-name="그룹 7" transform="translate(37.487 6.319)">
        <path id="패스_21" data-name="패스 21" d="M393.832,122.037s-.429-.1-.384.284.127,5.719.112,6.639-.044,1.252.211,1.343.6-.361.617-1.328.076-3.5.12-4.084,0-1.266.078-1.672.151-.875-.18-1.042A1.159,1.159,0,0,0,393.832,122.037Z" transform="translate(-387.541 -122.026)" fill="#3b3c3e"/>
        <path id="패스_22" data-name="패스 22" d="M396.109,132.677s.273.514.724.51a7.28,7.28,0,0,0,1.04-.125c.257-.029.618-.227.739.031a.7.7,0,0,1-.15.813,1.058,1.058,0,0,1-.831.076c-.39-.076-.527-.194-.888-.286s-.542-.03-.542.136S396.109,132.677,396.109,132.677Z" transform="translate(-389.366 -129.322)" fill="#3b3c3e"/>
        <path id="패스_23" data-name="패스 23" d="M380.141,131.2a.412.412,0,0,0-.42-.3c-.272-.014-3.045.2-3.453.212s-.437-.105-.437-.271.031-1.929.031-1.929-.061-.407.6-.468,1.855-.089,2.2-.12.677-.136.557-.392-.181-.316-.693-.3-2.518.191-3.045.226c0,0-.737-.134-.752.362a20.852,20.852,0,0,1,.06,2.849c-.151.346-.107.512.059.617s3.921-.18,4.523-.151S380.187,131.348,380.141,131.2Z" transform="translate(-374.699 -125.86)" fill="#3b3c3e"/>
      </g>
      <g id="그룹_8" data-name="그룹 8" transform="translate(0 6.303)">
        <path id="패스_24" data-name="패스 24" d="M260.55,125.05c-.038-.146-.028-.167-.334-.177s-1.3.139-1.488.139-.051-.285-.011-.551.294-.685.284-.8-.026-.359-.168-.373a5.725,5.725,0,0,1-.714-.1c-.148-.049-.373.089-.354.393a10.129,10.129,0,0,0,.274,1.138,1.468,1.468,0,0,1,0,.372c-.192.028-.755.108-.926.108-.2,0-1.177-.108-1.334.1a.466.466,0,0,0-.066.491c.038.138.285.235.561.207s.938-.207,1.223-.275.409-.219.459-.055a3.855,3.855,0,0,1-.084.38,3.753,3.753,0,0,1-.727,1.01c-.184.176-.765.55-.834.872a1.516,1.516,0,0,0,.047.854c.09.216.2.618.718.56s1.561-.275,1.913-.286.951,0,1.1-.579a1.562,1.562,0,0,0-.5-1.666c-.59-.588-.757-.678-.786-.993s.038-.352.305-.362a10.9,10.9,0,0,0,1.275-.02C260.632,125.374,260.591,125.2,260.55,125.05Zm-1.2,2.424a.631.631,0,0,1,0,.813c-.157.237-.609.227-.918.266a2.14,2.14,0,0,1-.928-.117.308.308,0,0,1-.128-.5c.1-.077.755-1.108.883-1.294s.218-.04.218-.04A5.069,5.069,0,0,1,259.346,127.474Z" transform="translate(-255.675 -122.798)" fill="#3b3c3e"/>
        <path id="패스_25" data-name="패스 25" d="M274.851,121.981s-.471-.071-.433.274.079,1.511.071,2.1.094,1.7.145,2.541a12.357,12.357,0,0,1-.216,2.355c-.038.186-.134.432.149.569s.6-.038.705-.51.226-2.914.3-3.787.218-1.8.266-2.248.173-.8-.149-1.07A1.352,1.352,0,0,0,274.851,121.981Z" transform="translate(-268.482 -121.975)" fill="#3b3c3e"/>
        <path id="패스_26" data-name="패스 26" d="M277.549,133.572s1.716-.01,1.944-.039.459-.06.6.127a.448.448,0,0,1,0,.6.571.571,0,0,1-.64.275c-.234-.04-1.677-.39-1.809-.234s-.163-.051-.163-.051Z" transform="translate(-270.612 -129.878)" fill="#3b3c3e"/>
      </g>
      <g id="그룹_9" data-name="그룹 9" transform="translate(9.884 6.835)">
        <path id="패스_27" data-name="패스 27" d="M294.573,123.835a.911.911,0,0,0-.45-.167.354.354,0,0,0-.432.353,10.856,10.856,0,0,1,.088,1.511,4.094,4.094,0,0,1-.088.8c-.05.216-.1.456.4.437s3.266-.339,4.13-.388.588.137.8.04.362-.523.372-.629,0-.452-.4-.383-.54.128-.983.206-2.413.363-2.767.442a2.928,2.928,0,0,1-.658.068s-.1.01-.068-.157.178-1.187.207-1.481S294.732,123.926,294.573,123.835Z" transform="translate(-291.58 -123.665)" fill="#3b3c3e"/>
        <path id="패스_28" data-name="패스 28" d="M287.9,135.854s-.49-.063-.617-.075-.226.144-.226.271a3.229,3.229,0,0,0,.226.559c.1.275.186.361.549.235a37.115,37.115,0,0,1,4.014-.755,16.529,16.529,0,0,1,2.794.008c.57.08,1.4.2,1.481.071a1,1,0,0,0,.157-.648c-.047-.236-.174-.226-.3-.2s-2.728.147-3.249.176-1.638.137-2.275.188A23.974,23.974,0,0,1,287.9,135.854Z" transform="translate(-287.056 -131.642)" fill="#3b3c3e"/>
        <path id="패스_29" data-name="패스 29" d="M293.417,140.752s-.273-.069-.254.166a1.5,1.5,0,0,0,.254.54c.039.1.314.04.647,0s1.736-.264,2.257-.308,1.148-.075,1.275-.065.236-.04.216.264a2.437,2.437,0,0,1-.1.539s-.01.119-.216.138l-3.386.306c-.343.03-.726-.02-.754.372a6.918,6.918,0,0,1-.043,1.119c-.1.7-.065.559.158.687a10.824,10.824,0,0,0,2.276-.108,14.22,14.22,0,0,1,3.179-.108c.932.177.952.119,1.05.02a.758.758,0,0,0,.216-.519.387.387,0,0,0-.482-.285c-.314.049-1.618.107-2.384.167s-2.638.275-2.638.275-.413.106-.463-.128a2.28,2.28,0,0,1-.087-.708c.039-.117.145-.3.686-.322s2.139-.1,2.523-.146,1.087-.053,1.247-.514.059-.734.283-.983-.2-.517-.372-.614a.745.745,0,0,0-.717-.071,20.473,20.473,0,0,1-2.09.247c-.5.058-1.589.167-1.747.146A1.687,1.687,0,0,1,293.417,140.752Z" transform="translate(-291.238 -135.137)" fill="#3b3c3e"/>
      </g>
      <g id="그룹_10" data-name="그룹 10" transform="translate(46.711 9.544)">
        <path id="패스_30" data-name="패스 30" d="M407.291,132.7s-.286.039-.13.255.2.265.462.167a17.344,17.344,0,0,1,2.286-.353c.246.011.216.067.216.167a2.427,2.427,0,0,1,0,.3c-.011.108.048.294-.294.383s-2.217.294-2.217.294-.294-.011-.285.127-.058,1.177-.058,1.177a.176.176,0,0,0,.125.236,1.2,1.2,0,0,0,.7,0,7.673,7.673,0,0,1,2.112-.245c.843.058,1.02.048,1.02.048s.352.07.352-.176-.156-.579-.48-.451a11.26,11.26,0,0,1-1.75.225c-.507.059-1.036.128-1.185.148s-.333.088-.353-.118-.028-.393-.028-.393-.069-.185.254-.234,1.667-.227,2.051-.294.559-.179.6-.4a4.1,4.1,0,0,0,.031-.912c-.031-.166-.106-.372-.345-.372a15.007,15.007,0,0,0-1.5.245C408.407,132.6,407.291,132.7,407.291,132.7Z" transform="translate(-406.129 -132.267)" fill="#3b3c3e"/>
        <path id="패스_31" data-name="패스 31" d="M406.626,141.262a1.038,1.038,0,0,1,.178.338.56.56,0,0,1-.531.86,10.694,10.694,0,0,1-1.5.225c-.3,0-.765-.088-.784.089a.637.637,0,0,0,.165.493c.109.086.169.1.414.068a12.546,12.546,0,0,1,4.865-.561s.443.1.519-.107.08-.422-.206-.422h-1.716c-.332,0-.547.01-.56-.344s-.007-.628.247-.726Z" transform="translate(-403.985 -138.369)" fill="#3b3c3e"/>
      </g>
      <g id="그룹_11" data-name="그룹 11" transform="translate(19.494 9.517)">
        <path id="패스_32" data-name="패스 32" d="M320.876,132.611s-.285.04-.128.255.2.264.461.167a17.429,17.429,0,0,1,2.287-.352c.246.011.216.067.216.166a2.782,2.782,0,0,1,0,.295c-.01.108.047.294-.3.383s-2.217.294-2.217.294-.294-.011-.286.126-.058,1.178-.058,1.178a.176.176,0,0,0,.128.236,1.193,1.193,0,0,0,.7,0,7.71,7.71,0,0,1,2.112-.245c.842.058,1.019.048,1.019.048s.352.069.352-.176-.153-.579-.479-.451a11.22,11.22,0,0,1-1.751.224c-.5.059-1.036.128-1.181.148s-.333.088-.353-.118-.03-.392-.03-.392-.068-.186.254-.235,1.667-.227,2.051-.294.56-.178.6-.4a4.234,4.234,0,0,0,.03-.913c-.03-.166-.11-.372-.344-.372a14.825,14.825,0,0,0-1.5.246C322,132.515,320.876,132.611,320.876,132.611Z" transform="translate(-319.715 -132.181)" fill="#3b3c3e"/>
        <path id="패스_33" data-name="패스 33" d="M320.214,141.175a1.043,1.043,0,0,1,.177.339,1.914,1.914,0,0,1,0,.6,1.756,1.756,0,0,1-.53.255,10.707,10.707,0,0,1-1.5.225c-.307,0-.766-.088-.786.089a.637.637,0,0,0,.166.493c.108.086.167.1.413.067a12.55,12.55,0,0,1,4.864-.56s.443.1.523-.108.078-.422-.206-.422h-1.719c-.333,0-.548.01-.558-.343s-.009-.628.244-.726Z" transform="translate(-317.57 -138.283)" fill="#3b3c3e"/>
      </g>
      <path id="패스_34" data-name="패스 34" d="M348.218,126.488a3.809,3.809,0,0,0-.509-.146c-.079-.049-.256.011-.266.216s-.107,1.453-.107,1.521a.175.175,0,0,1-.156.206c-.158.029-2.337.245-2.456.226s-.193-.128-.193-.314.088-1.461.076-1.531-.027-.207-.273-.275l-.7.05s-.237-.05-.227.441.372,2.473.46,3.277-.145.941.463,1.128a11.573,11.573,0,0,0,2.873-.215c.393-.041.718-.109.755-.688s.315-3,.373-3.246S348.414,126.6,348.218,126.488Zm-1.236,4.152a18.655,18.655,0,0,1-2.071.108c-.254-.02-.448.009-.352-.442a7.375,7.375,0,0,0-.028-.774c-.032-.255-.051-.343.214-.431l2.365-.2s.175-.068.175.237-.078,1.187-.078,1.187A.278.278,0,0,1,346.982,130.64Z" transform="translate(-315.778 -118.653)" fill="#3b3c3e"/>
      <path id="패스_35" data-name="패스 35" d="M363,122.037s-.431-.1-.385.284.128,5.719.113,6.639-.046,1.252.21,1.343.6-.361.62-1.328.075-3.5.119-4.084,0-1.266.075-1.672.151-.875-.18-1.042A1.152,1.152,0,0,0,363,122.037Z" transform="translate(-328.932 -115.707)" fill="#3b3c3e"/>
      <path id="패스_36" data-name="패스 36" d="M365.278,132.677s.271.514.724.51a7.253,7.253,0,0,0,1.039-.125c.256-.029.617-.227.739.031a.7.7,0,0,1-.152.813,1.05,1.05,0,0,1-.828.076c-.393-.076-.528-.194-.889-.286s-.544-.03-.544.136S365.278,132.677,365.278,132.677Z" transform="translate(-330.758 -123.004)" fill="#3b3c3e"/>
      <g id="그룹_12" data-name="그룹 12" transform="translate(37.487 6.319)">
        <path id="패스_37" data-name="패스 37" d="M393.832,122.037s-.429-.1-.384.284.127,5.719.112,6.639-.044,1.252.211,1.343.6-.361.617-1.328.076-3.5.12-4.084,0-1.266.078-1.672.151-.875-.18-1.042A1.159,1.159,0,0,0,393.832,122.037Z" transform="translate(-387.541 -122.026)" fill="#3b3c3e"/>
        <path id="패스_38" data-name="패스 38" d="M396.109,132.677s.273.514.724.51a7.28,7.28,0,0,0,1.04-.125c.257-.029.618-.227.739.031a.7.7,0,0,1-.15.813,1.058,1.058,0,0,1-.831.076c-.39-.076-.527-.194-.888-.286s-.542-.03-.542.136S396.109,132.677,396.109,132.677Z" transform="translate(-389.366 -129.322)" fill="#3b3c3e"/>
        <path id="패스_39" data-name="패스 39" d="M380.141,131.2a.412.412,0,0,0-.42-.3c-.272-.014-3.045.2-3.453.212s-.437-.105-.437-.271.031-1.929.031-1.929-.061-.407.6-.468,1.855-.089,2.2-.12.677-.136.557-.392-.181-.316-.693-.3-2.518.191-3.045.226c0,0-.737-.134-.752.362a20.852,20.852,0,0,1,.06,2.849c-.151.346-.107.512.059.617s3.921-.18,4.523-.151S380.187,131.348,380.141,131.2Z" transform="translate(-374.699 -125.86)" fill="#3b3c3e"/>
      </g>
      <g id="그룹_13" data-name="그룹 13" transform="translate(90.102 10.393)">
        <path id="패스_40" data-name="패스 40" d="M545.053,135.394s-.285.038-.129.254.2.266.464.168a17.02,17.02,0,0,1,2.287-.353c.244.008.214.068.214.167a2.755,2.755,0,0,1,0,.294c-.012.108.049.3-.294.384s-2.22.294-2.22.294-.292-.008-.282.128-.06,1.179-.06,1.179a.174.174,0,0,0,.127.236,1.208,1.208,0,0,0,.7,0,7.631,7.631,0,0,1,2.109-.247c.844.06,1.02.049,1.02.049s.354.071.354-.176-.158-.577-.482-.45a11.447,11.447,0,0,1-1.75.224c-.507.06-1.036.129-1.184.148s-.335.089-.352-.118-.031-.392-.031-.392-.069-.187.255-.235,1.669-.226,2.051-.294.558-.177.6-.4a4.151,4.151,0,0,0,.028-.913c-.028-.167-.106-.372-.343-.372a14.825,14.825,0,0,0-1.5.245C546.172,135.3,545.053,135.394,545.053,135.394Z" transform="translate(-543.893 -134.963)" fill="#3b3c3e"/>
        <path id="패스_41" data-name="패스 41" d="M544.393,143.958a1.02,1.02,0,0,1,.178.335,1.859,1.859,0,0,1,0,.606,1.805,1.805,0,0,1-.531.255,10.484,10.484,0,0,1-1.5.226c-.3,0-.764-.089-.785.087a.63.63,0,0,0,.168.491c.106.089.166.107.411.069a12.593,12.593,0,0,1,4.867-.56s.441.1.521-.107.076-.422-.206-.422H545.8c-.334,0-.55.01-.56-.344s-.011-.626.244-.726Z" transform="translate(-541.752 -141.064)" fill="#3b3c3e"/>
      </g>
      <g id="그룹_14" data-name="그룹 14" transform="translate(83.824 10.125)">
        <path id="패스_42" data-name="패스 42" d="M525.911,136.154l.228.476s.11.288.563.234,1.54-.051,1.822-.119a1.121,1.121,0,0,0,.821-1.1,1.545,1.545,0,0,0-1.377-1.48,1.008,1.008,0,0,0-1.107.317,7.889,7.889,0,0,1-.95.95S525.5,135.838,525.911,136.154Zm1.016-.951a3.545,3.545,0,0,1,.769-.562c.5-.046.77.384.952.654s.226.52,0,.657-1.538.565-1.923.225S526.589,135.544,526.927,135.2Z" transform="translate(-524.498 -134.11)" fill="#3b3c3e"/>
        <path id="패스_43" data-name="패스 43" d="M527.5,145.689c-.314.044-1.784.272-2.519.339a11.349,11.349,0,0,1-2.75.045s-.5-.112-.405.225.2.408.2.408.233.271.8,0a14.53,14.53,0,0,1,4.432-.362s.36.158.5-.112S527.82,145.644,527.5,145.689Z" transform="translate(-521.819 -142.039)" fill="#3b3c3e"/>
      </g>
      <g id="그룹_15" data-name="그룹 15" transform="translate(90.102 10.393)">
        <path id="패스_44" data-name="패스 44" d="M545.053,135.394s-.285.038-.129.254.2.266.464.168a17.02,17.02,0,0,1,2.287-.353c.244.008.214.068.214.167a2.755,2.755,0,0,1,0,.294c-.012.108.049.3-.294.384s-2.22.294-2.22.294-.292-.008-.282.128-.06,1.179-.06,1.179a.174.174,0,0,0,.127.236,1.208,1.208,0,0,0,.7,0,7.631,7.631,0,0,1,2.109-.247c.844.06,1.02.049,1.02.049s.354.071.354-.176-.158-.577-.482-.45a11.447,11.447,0,0,1-1.75.224c-.507.06-1.036.129-1.184.148s-.335.089-.352-.118-.031-.392-.031-.392-.069-.187.255-.235,1.669-.226,2.051-.294.558-.177.6-.4a4.151,4.151,0,0,0,.028-.913c-.028-.167-.106-.372-.343-.372a14.825,14.825,0,0,0-1.5.245C546.172,135.3,545.053,135.394,545.053,135.394Z" transform="translate(-543.893 -134.963)" fill="#3b3c3e"/>
        <path id="패스_45" data-name="패스 45" d="M544.393,143.958a1.02,1.02,0,0,1,.178.335,1.859,1.859,0,0,1,0,.606,1.805,1.805,0,0,1-.531.255,10.484,10.484,0,0,1-1.5.226c-.3,0-.764-.089-.785.087a.63.63,0,0,0,.168.491c.106.089.166.107.411.069a12.593,12.593,0,0,1,4.867-.56s.441.1.521-.107.076-.422-.206-.422H545.8c-.334,0-.55.01-.56-.344s-.011-.626.244-.726Z" transform="translate(-541.752 -141.064)" fill="#3b3c3e"/>
      </g>
      <g id="그룹_16" data-name="그룹 16" transform="translate(83.824 10.125)">
        <path id="패스_46" data-name="패스 46" d="M525.911,136.154l.228.476s.11.288.563.234,1.54-.051,1.822-.119a1.121,1.121,0,0,0,.821-1.1,1.545,1.545,0,0,0-1.377-1.48,1.008,1.008,0,0,0-1.107.317,7.889,7.889,0,0,1-.95.95S525.5,135.838,525.911,136.154Zm1.016-.951a3.545,3.545,0,0,1,.769-.562c.5-.046.77.384.952.654s.226.52,0,.657-1.538.565-1.923.225S526.589,135.544,526.927,135.2Z" transform="translate(-524.498 -134.11)" fill="#3b3c3e"/>
        <path id="패스_47" data-name="패스 47" d="M527.5,145.689c-.314.044-1.784.272-2.519.339a11.349,11.349,0,0,1-2.75.045s-.5-.112-.405.225.2.408.2.408.233.271.8,0a14.53,14.53,0,0,1,4.432-.362s.36.158.5-.112S527.82,145.644,527.5,145.689Z" transform="translate(-521.819 -142.039)" fill="#3b3c3e"/>
      </g>
      <g id="그룹_17" data-name="그룹 17" transform="translate(53.831)">
        <path id="패스_48" data-name="패스 48" d="M433.48,106.411s-.588-.257-.785.2-1.129,4.31-2.862,5.742-2.712,2.1-2.712,2.1-.711.421-.484.829.966.437,1.507.257a10.971,10.971,0,0,0,3.044-2.215,20.67,20.67,0,0,0,3.029-4.84C434.7,107.164,434.113,106.742,433.48,106.411Z" transform="translate(-426.592 -104.96)" fill="#ec4115"/>
        <path id="패스_49" data-name="패스 49" d="M464.086,106.82c-.332-.105-.784.179-1.025.27a4.353,4.353,0,0,1-1.041.3,6.378,6.378,0,0,1-.856.017c.033-.941.076-1.872.149-2.429.15-1.16.15-1.261.224-1.64s.212-.651-.238-.878a8.5,8.5,0,0,0-1.283-.452s-.632-.226-.725.3.331,3.2.212,5.8-.114,4.808-.1,5.532.863,1.207,1.2.091a20.188,20.188,0,0,0,.437-3.693c.029-.315.05-.753.071-1.243.289-.339.866-.188,1.2-.188a14.276,14.276,0,0,1,1.749.238c.346.062.466-.028.627-.586a1.935,1.935,0,0,0,.081-1.16A1.869,1.869,0,0,0,464.086,106.82Z" transform="translate(-448.984 -101.964)" fill="#ec4115"/>
        <path id="패스_50" data-name="패스 50" d="M448.795,125.846a9.641,9.641,0,0,0-1.149-.919,1.607,1.607,0,0,0-1.066-.3s-.57-.074-.314.574a5.027,5.027,0,0,0,1.562,2.382c.771.437.953-.5,1.134-.829A.6.6,0,0,0,448.795,125.846Z" transform="translate(-440.024 -117.479)" fill="#ec4115"/>
      </g>
      <g id="그룹_18" data-name="그룹 18" transform="translate(69.924 2.401)">
        <path id="패스_51" data-name="패스 51" d="M488.722,112.27a.758.758,0,0,0,1.039-.158c.474-.565.566-.835.906-1.22s-.225-.829-.677-.878-1.538.037-1.833,0c0,0-.657-.162-.767.2a1.093,1.093,0,0,0,.248,1.179A8.132,8.132,0,0,0,488.722,112.27Z" transform="translate(-484.284 -109.854)" fill="#ec4115"/>
        <path id="패스_52" data-name="패스 52" d="M483.638,124.088c.452.608.521.3.521.3s.589-.452,1.019-.814.519-.7,0-1.13a9.432,9.432,0,0,0-2.264-.906c.383-.321.725-.611.976-.834.653-.589,1.649-1.334,1.514-1.9s-.271-.976-1.086-.939-1.831.328-3.211.508a15.945,15.945,0,0,1-2.8.159s-.7-.2-.609.339a1.177,1.177,0,0,0,.609.973c.363.226.883.158,1.9-.135a9.872,9.872,0,0,1,2.245-.473c.221.042.182.247,0,.45a10.075,10.075,0,0,1-4.145,3.752s-.429.335-.476.654.07.522.614.409a5.629,5.629,0,0,0,2.491-1.289c.3-.259.627-.537.957-.814A10.286,10.286,0,0,1,483.638,124.088Z" transform="translate(-477.686 -115.254)" fill="#ec4115"/>
        <path id="패스_53" data-name="패스 53" d="M499.688,115.965c.27.311,1.4.2,1.683.13s1.029-.284,1.1-.13.157.07.2,1.23-.111,2.759-.045,3.227.52.9.769.648a2.113,2.113,0,0,0,.7-1.469c.2-1.064.226-3.393.339-4.455s.5-3.256.635-3.752.181-1.288-.591-1.538a4.335,4.335,0,0,0-1.2-.25s-.566-.135-.613.34.159,3.956,0,4.41-.732.427-1.134.45a6.023,6.023,0,0,0-1.94.475C499.393,115.484,499.416,115.653,499.688,115.965Z" transform="translate(-492.603 -109.588)" fill="#ec4115"/>
        <path id="패스_54" data-name="패스 54" d="M497.391,145.206a8.71,8.71,0,0,1-2.527.519c-1.515.136-3.5.158-3.5.158s-.652-.044-.506-.542c0,0,.1-.767.146-1.2s.16-.768-.452-1.019a2.155,2.155,0,0,0-.976-.2s-.562-.121-.607.324.158.792.2,1.761a3.727,3.727,0,0,1-.084,1.305s.061.883.851.837,2.419-.27,4.14-.317,2.485.071,2.8.071,1.1,0,1.283-.364.41-.859.117-1.13A.744.744,0,0,0,497.391,145.206Z" transform="translate(-485.408 -132.414)" fill="#ec4115"/>
      </g>
    </g>
    <g id="그룹_20" data-name="그룹 20" transform="translate(276.661 94.413)">
      <path id="패스_55" data-name="패스 55" d="M598.116,166.569a.124.124,0,0,0-.054-.01A.066.066,0,0,0,598.116,166.569Z" transform="translate(-572.158 -153.669)" fill="#ec4115"/>
      <path id="패스_56" data-name="패스 56" d="M598.857,191.1l-.025-.091C598.837,191.066,598.844,191.089,598.857,191.1Z" transform="translate(-572.685 -170.417)" fill="#ec4115"/>
      <path id="패스_57" data-name="패스 57" d="M595.284,151.378c.005,0,.008,0,.015.007-.019-.07-.043-.165-.084-.318Z" transform="translate(-570.208 -143.056)" fill="#ec4115"/>
      <path id="패스_58" data-name="패스 58" d="M580.9,237.055l.067-.078A.378.378,0,0,0,580.9,237.055Z" transform="translate(-560.401 -201.908)" fill="#ec4115"/>
      <path id="패스_59" data-name="패스 59" d="M596.9,212.128a.278.278,0,0,1,0,.128C596.918,212.2,596.926,212.153,596.9,212.128Z" transform="translate(-571.359 -184.886)" fill="#ec4115"/>
      <path id="패스_60" data-name="패스 60" d="M596.154,143.354l-.017.155C596.166,143.5,596.179,143.438,596.154,143.354Z" transform="translate(-570.839 -137.772)" fill="#ec4115"/>
      <path id="패스_61" data-name="패스 61" d="M588.243,129.956a.093.093,0,0,0-.007.02C588.245,129.978,588.245,129.969,588.243,129.956Z" transform="translate(-565.426 -128.594)" fill="#ec4115"/>
      <path id="패스_62" data-name="패스 62" d="M590.494,135.616a1.243,1.243,0,0,0,.089.106C590.555,135.671,590.522,135.606,590.494,135.616Z" transform="translate(-566.973 -132.471)" fill="#ec4115"/>
      <path id="패스_63" data-name="패스 63" d="M590.823,136l-.046-.048C590.8,135.985,590.811,136.009,590.823,136Z" transform="translate(-567.167 -132.703)" fill="#ec4115"/>
      <path id="패스_64" data-name="패스 64" d="M592.865,199.754a.994.994,0,0,0,.254.25S592.872,199.746,592.865,199.754Z" transform="translate(-568.597 -176.408)" fill="#ec4115"/>
      <path id="패스_65" data-name="패스 65" d="M550.666,250.17l.042,0C550.682,250.155,550.67,250.16,550.666,250.17Z" transform="translate(-539.689 -210.939)" fill="#ec4115"/>
      <path id="패스_66" data-name="패스 66" d="M594.912,199.144l.031.091A.284.284,0,0,0,594.912,199.144Z" transform="translate(-570 -175.991)" fill="#ec4115"/>
      <path id="패스_67" data-name="패스 67" d="M599.476,150.987c.11.116.108.422.177.4C599.6,151.245,599.593,151.023,599.476,150.987Z" transform="translate(-573.126 -143.001)" fill="#ec4115"/>
      <path id="패스_68" data-name="패스 68" d="M536.982,249.233l-.068-.067A.6.6,0,0,0,536.982,249.233Z" transform="translate(-530.269 -210.258)" fill="#ec4115"/>
      <path id="패스_69" data-name="패스 69" d="M594.794,198.915l-.038-.105a.425.425,0,0,0-.016.047A.217.217,0,0,1,594.794,198.915Z" transform="translate(-569.882 -175.762)" fill="#ec4115"/>
      <path id="패스_70" data-name="패스 70" d="M525.1,212.733v0a.278.278,0,0,0,.009.033Z" transform="translate(-522.174 -185.3)" fill="#ec4115"/>
      <path id="패스_71" data-name="패스 71" d="M525.867,210.3c0,.056,0,.109-.005.168A.258.258,0,0,0,525.867,210.3Z" transform="translate(-522.698 -183.635)" fill="#ec4115"/>
      <path id="패스_72" data-name="패스 72" d="M593.671,200.548l.145.147A.71.71,0,0,0,593.671,200.548Z" transform="translate(-569.15 -176.953)" fill="#ec4115"/>
      <path id="패스_73" data-name="패스 73" d="M540.28,194.633a.5.5,0,0,0-.061.019A.145.145,0,0,0,540.28,194.633Z" transform="translate(-532.533 -172.901)" fill="#ec4115"/>
      <path id="패스_74" data-name="패스 74" d="M597.466,210.211a.674.674,0,0,0,.028-.062C597.479,210.139,597.466,210.141,597.466,210.211Z" transform="translate(-571.749 -183.527)" fill="#ec4115"/>
      <path id="패스_75" data-name="패스 75" d="M594.994,230.757v0h0Z" transform="translate(-570.055 -197.647)" fill="#ec4115"/>
      <path id="패스_76" data-name="패스 76" d="M595.11,229.674a.58.58,0,0,0-.114.341A.659.659,0,0,0,595.11,229.674Z" transform="translate(-570.057 -196.905)" fill="#ec4115"/>
      <path id="패스_77" data-name="패스 77" d="M593.557,232.578l.03-.029A.125.125,0,0,0,593.557,232.578Z" transform="translate(-569.072 -198.875)" fill="#ec4115"/>
      <path id="패스_78" data-name="패스 78" d="M603.71,212.565s-.005,0-.008,0,0,0,.006.006Z" transform="translate(-576.021 -185.183)" fill="#ec4115"/>
      <path id="패스_79" data-name="패스 79" d="M602.322,216.983a.318.318,0,0,0-.063.082A.256.256,0,0,0,602.322,216.983Z" transform="translate(-575.033 -188.211)" fill="#ec4115"/>
      <path id="패스_80" data-name="패스 80" d="M587.3,241.583s0,0,0,0a.017.017,0,0,1,0,.006Z" transform="translate(-564.785 -205.061)" fill="#ec4115"/>
      <path id="패스_81" data-name="패스 81" d="M527.056,169.091l1.376,1.059.809.62q.423-.315.849-.63c.281-.206.556-.424.83-.633l.383-.3.21-.172c.28-.227.552-.443.809-.637a3.181,3.181,0,0,1,.728-.843l.164.127.219-.271c.146-.044-.175.2.061.1l.017-.179c.069.039.7-.538.358-.052l.5-.438.5-.444c.224-.193.017-.239.288-.424.089,0-.058.109.01.145.823-.558.56-1.055,1.271-1.628l-.036.073c.073-.147.286-.35.269-.373-.228-.061-.038.193-.321.3-.1-.139.181-.31.076-.388.2-.105.211-.266.332-.4.3-.15.556-.532.815-.617a1.662,1.662,0,0,1,.277-.642c.259-.089.058.127.312-.082l-.04-.105c.189-.189.182-.14.21-.1.194-.21.053-.269.334-.5l-.056.216a3.871,3.871,0,0,1,.47-.577c.04.043-.06.154-.142.226.245-.059.173-.305.252-.38-.053,0-.228.185-.226.025.129-.132.139-.388.312-.417l-.05.216c.179-.348.032-.236.333-.557-.008.024.019.029.029.05.066-.3.38-.516.629-.847l-.024.08c.069-.157.049-.283.107-.351-.182.159-.169.089-.259.05.309-.161.122-.489.476-.853.043.037.035.179-.093.26.04.236.145.334.031.633.08-.18.19-.38.221-.3l-.094-.137.17-.244c-.056-.1-.264.106-.17-.155.122-.281.222-.047.188-.125.175-.385-.044-.235.213-.545-.009.042-.028.122-.059.143.207-.211.34-.621.547-.6.015.059.059.094-.012.181l-.022-.018c-.047.345.1-.249.2-.077-.1-.03.129-.374.23-.531l-.129,0c-.012-.705.185.138.437-.424.107-.382-.095.117-.059-.132.131-.228.266-.273.388-.644.09-.076.234-.256.358-.224.041-.242.337-.651.262-.826-.247.342-.028.43-.364.808l-.064-.172c.133-.3.234-.71.344-.913-.038.035-.076.044-.091.008a7.8,7.8,0,0,1,.189-1.047c.128-.028.038.225,0,.416.166-.259.088-.3.244-.729.1,0-.087.3-.005.374l.1-.5a.064.064,0,0,0,.02,0c-.15-.11.091-.381.1-.7a1.533,1.533,0,0,0-.025-.771c-.055-.178-.123-.32-.183-.511.052-.1.1-.127.137-.081-.085.163-.026.138.015.2,0-.234.2-.5.256-.363-.025-.374-.1.128-.135-.1l.044-.506c-.091.054-.12.231-.17-.034a4.438,4.438,0,0,1,.036-.616c.039.044.135-.084.119.132a.558.558,0,0,0-.027-.445c-.092.313-.054-.522-.2-.292l.092-.312c0,.072.051.082.031.188.134-.084-.027-.26-.035-.371.03-.111.053-.4.1-.422a.5.5,0,0,1,.067-.389c-.023-.15-.086-.014-.127-.059l.02-.506c.073-.025.274-.066.3.012-.064-.194-.212-.072-.2-.362.136.168.114-.383.278-.14a1.787,1.787,0,0,0,.061-.906c-.112-.162-.061.285-.175.268-.048-.737-.364-.776-.314-1.314l-.03.14a1.136,1.136,0,0,0-.162-.489c.145.089.367-.393.314-.945-.073-.043-.123.315-.239.23l-.036-.364c.01-.027.036.012.055.058-.059-.324.149-.62-.022-.705l.184-.347-.079.138c-.073-.041-.12-.408-.153-.481a1,1,0,0,1,.017-.724c-.051.071-.166.244-.219-.048.229-.018.019-.625.138-.628-.015-.119.033-.338-.063-.342l.144,0c-.206-.005-.229-.441-.318-.767.279.039-.074-.36.149-.542-.192-.036-.158-.579-.321-.613-.046-.253.127-.256.174-.33l-.09-.107a5.174,5.174,0,0,0-.013-.919l-.209-.233.053-.112c-.048-.035-.114-.249-.146-.1l-.018-.144c-.175.025-.1-.188-.235-.455.012-.071.058-.064.1-.007-.032-.142.071-.1.11-.192-.02.109-.43-.434-.418-.037-.063.043-.167-.164-.169-.309l.134-.122-.2-.123c-.075-.209.005-.328-.03-.5.06.172.41.316.274-.143a2.7,2.7,0,0,0,.267.453c-.017-.1-.014-.151.088-.017-.138-.352-.118-.1-.241-.45.143-.018.158-.13.114-.458l-.032.263a.1.1,0,0,1-.05-.034c.012.093,0,.124-.051.157-.019-.071-.291-.365-.225-.448-.109.418-.347-.574-.408-.306-.052-.028-.133-.271-.071-.318.188.263.091-.272.2-.254-.073-.1-.028.264-.125.132a.911.911,0,0,1-.022-.437l.051.064-.034-.291c-.083-.021-.022.3-.146.064.005-.075-.117-.311-.06-.322.134.085.225-.044.324.161-.072-.173-.286-.73-.332-.457l-.07-.211c-.009.153.018.556-.148.145l.028-.006-.2-.252.011-.077c.005-.037.009-.076.009-.076-.033.017-.082-.015-.124-.122.028-.043,0-.148.059-.162-.137-.3-.193-.251-.248-.275-.081-.166-.081-.242.03-.2a4.777,4.777,0,0,1-.276-.834c-.211-.279,0,.076-.172-.062.087-.368-.407-1.061-.711-1.528-.112.236-.1-.12-.322-.109.121.07-.122-.539.178-.15l-.171-.245c0-.236.329.381.313.033-.178-.289-.493-.354-.626-.736.2.029-.206-.23-.013-.237.1.037.14.14.207.231l-.01-.076c-.371-.643-.271-.08-.576-.341-.27-.356-.1-.359-.056-.422a.89.89,0,0,0-.265-.321c.233.171.21.473.058.424.032-.263-.367-.553-.491-.61.212.631.245.368.419.97.093.035.216-.064.365.266-.193-.141-.064.061-.051.126.042-.107.171.184.253.261-.013.123-.285-.071-.135.256l.215-.054c.044.138-.163.031.032.261-.177-.081-.124.13-.357-.2.087.506.457.581.716.867-.031-.026-.059-.016-.089-.042a.738.738,0,0,1,.224.259c.07.243-.174-.127-.2-.04.007,0,.188.351.188.351s-.005.014-.008.015c.072.08.134.161.1.217a2.413,2.413,0,0,0-.282-.128l.317.3c-.083-.009.045.36-.133.12l.3.535-.107.107c.088.12.115.111.053-.053.074.194.6.751.3.76a6.636,6.636,0,0,1,.6,1.089c-.273-.375.013.542-.2.118.033.283.2.283.293.481.011.214-.153.173-.276-.016l.147.222-.028,0,.151.186c.007.249-.12.094-.057.33l.139.011-.008.09c-.007.046-.012.092-.012.092.038-.078.1.054.162.223l-.027,0,.084.2c-.134-.184.029.2-.086.13a3.538,3.538,0,0,0,.165.5l.067-.08c.2.4-.119.053-.027.393l.09-.047c-.031.533.3.818.282,1.21-.072-.205-.173-.125-.145-.128a8.831,8.831,0,0,0,.381,1.134c-.12.149-.157.186-.157.536.055.244.077.277.174.343,0,.246.137.686.036.713.091.043.015.218.1.34l-.039.035.1-.036c-.165.458.242.7.087,1.161l-.034-.072.058.178c-.04.033-.075-.038-.133-.039l.071.846.058-.174c.03.177.139.287.1.5-.183-.324.023.282-.1.347l-.051-.178c.026.247.026.247.126.218.058.32-.176.236-.047.525l-.01-.212c.053-.067.146.079.154.221-.013.035-.051.138-.07.031.056.252.031.636.079.745-.023.14-.1.1-.127.026.109.539-.011.246.1.787l-.058-.006.076.184-.111.271.071-.1a1.866,1.866,0,0,1,.036.5l-.086-.082c.057.5-.136.586-.012,1.063-.014.033-.042-.041-.056-.079.136.444-.147.335.018.782-.029-.027-.064.021-.088,0l.051.2-.113-.017.165.168-.119.124.053.08c-.222.214-.062.523-.232.815l.145-.047c.274.761-.221,1.706-.148,2.616l-.112-.024.11.382c-.1.194-.089-.127-.152-.068.035.4.163.187.155.634-.1.207-.071-.075-.106-.193.011.213.008.448,0,.685a1.787,1.787,0,0,1-.121.582c.014.01.03.031.04.018a3.929,3.929,0,0,1-.216.9c-.049-.022-.037-.1-.028-.17a.712.712,0,0,0-.083.335l-.063-.137c-.082.211-.15.658-.273.666.049-.011.129.03.056.216-.207.038-.137.534-.354.793-.017-.051.062-.272.034-.212a.788.788,0,0,0-.106.446l-.044-.069-.119.362c-.056.183-.129.361-.129.361-.209.017-.317.646-.406.539-.145.231.186-.159.025.148-.111.042-.13.287-.22.217l.007-.039-.116.212-.018-.188a.423.423,0,0,0,0,.434c-.161.134-.271.4-.406.418l.017-.077c-.261.5-.773.584-.868,1.052-.033.017-.053,0-.011-.057l-.212.271-.018-.117-.239.534-.041-.041c-.254.28-.594.762-.9,1.142l.026-.073c-.274.464-.376.353-.586.687a.072.072,0,0,1,.009-.046l-.231.263.01-.1c-.082.278-.622.437-.435.391-.061.145-.186.375-.165.455-.264.28-.119.017-.319.154-.2.194-.159.3-.463.531l-.035-.046c-.118.132-.168.237-.336.417l.032-.071c-.2.369-.476.226-.53.625-.152.084-.364.327-.431.233-.315.4-.582.682-.924,1.047-.185-.088-.073.079-.371.2l.082.06c-.525.474-1.3.8-1.884,1.315l-.08-.065-.052.183-.541.38-.141.1c-.033.023-.024.014-.03.018l-.01,0-.037.011-.059.02c-.017.012-.03-.025-.042-.029a.193.193,0,0,1-.073.072.08.08,0,0,1-.05.006.04.04,0,0,1-.02-.009l-.058-.057.037.013a8.419,8.419,0,0,1-1.483-1.2c.058,0,.03-.071.1-.041-.19-.022-.29-.255-.393-.352l.072.167a.6.6,0,0,1-.362-.422l-.294-.12c-.007-.02-.019-.052-.011-.066l-.076,0-.026-.2c-.073-.029-.387-.267-.565-.257.007-.05-.163-.27,0-.138l-.739-.785.087.152c-.055.086-.333-.1-.419-.248.214.1.114-.088.1-.206-.143-.065.027.152-.066.137a1.467,1.467,0,0,1-.521-.434l.108.05c-.208-.148-.154-.359-.327-.532-.208-.107-.264-.278-.359-.126-.243-.212,0-.17-.055-.258-.162-.055-.426-.419-.4-.518-.318.045-.493-.7-.693-.614l-.074-.277a.268.268,0,0,1-.333-.076c-.08-.192.027-.218.035-.3l-.25.031a15.858,15.858,0,0,0-1.031-1.6,9.3,9.3,0,0,1-.937-1.7c-.155-.222-.342-.468-.495-.738a4.168,4.168,0,0,1-.422-.839l.051.051-.089-.29c-.022-.072-.045-.144-.061-.2a.632.632,0,0,1-.024-.09c-.009,0,.073.44.073.44a1.758,1.758,0,0,1-.2-.314c-.062-.325-.147-.7-.206-1.069-.037-.185-.058-.368-.089-.535l-.035-.22c-.008-.023-.023,0-.023-.084-.157-.6.271-.335.183-.885.015.049.046.071.063.115.026-.546.04-.84.065-1.395.208.128.1-.321.208-.232l-.077-.073c.095-.086.212-.317.266-.251l-.02-.244.1.029a4.33,4.33,0,0,1,.264-.484c.124-.152.242-.289.372-.27a2.647,2.647,0,0,1,.822-.9,5.722,5.722,0,0,1,1.309-.662,1.3,1.3,0,0,1,.564-.321l.266.037c.133-.063.116-.115.18-.153a.4.4,0,0,1,.278-.055.039.039,0,0,1-.018.035c.2-.07.388.018.574-.111.224.005.434.1.357.2.018-.1.135-.091.243-.041a1.435,1.435,0,0,1,.207.128l.069.014a1.349,1.349,0,0,1,.2.049l.314.1c.124.043.262.1.418.161a7.286,7.286,0,0,1,1.07.581l.306.213c.013.006.084.065.143.112l.181.146c.12.1.246.192.368.3l1.5,1.42,1.192-1.443c.2-.235.4-.412.605-.624a1.082,1.082,0,0,1,.2-.175l.142-.11a6.521,6.521,0,0,1,1.32-.75,6.938,6.938,0,0,1,3.024-.557,5.607,5.607,0,0,1,2.5.759,12.172,12.172,0,0,1,1.595,1.242c.141.037.337.282.386.121.147.194.043.369.154.365-.1-.317.277-.021.231-.365l.123.176c.083.007-.208-.218-.071-.23l-.191.033a.583.583,0,0,1-.041-.35c-.147-.1-.414-.048-.525-.421l.066.08c-.17-.252-.012-.22-.022-.293l.042.054-.09-.259c.083.185.386.376.28.238-.182-.334.028.1-.164-.109-.116-.129-.008-.152.042-.18l-.205-.244c.072-.047.129.169.116.01l-.161-.129a.8.8,0,0,0-.117-.081l-.055-.035c.1-.2-.383-.23-.377-.508.245.166.031-.073.109-.094l-.594-.432c-.039-.067.193.061.1,0-.077-.138-.215-.091-.28-.124-.025-.082-.482-.26-.4-.379-.2-.171-.278-.134-.34-.11s-.124.057-.328-.061c-.029-.1.358.109.194-.047l-.473-.139a.277.277,0,0,1,.3-.019c-.155-.068-.3-.153-.438-.212s-.278-.11-.41-.166a6.771,6.771,0,0,0-.767-.314,3.14,3.14,0,0,0-1.677-.126c-.194-.084.122-.083.247-.164a3.947,3.947,0,0,1-1.12.1c-.161,0-.321-.005-.491,0a2.649,2.649,0,0,0-.54.11l.012.085a4.636,4.636,0,0,0-1.761.6c-.29.157-.57.345-.849.534l-.41.3-.067.047-.032.021c-.023.013-.045.025-.068.036l.069.019a.369.369,0,0,1-.041.148l-.051.121c-.017-.042-.036-.223-.078-.124.016.023.055.03.059.083a.3.3,0,0,0-.119.013,1.919,1.919,0,0,0-.148-.214c-.025-.031-.051-.056-.075-.083-.138-.1-.312-.229-.48-.338a10.527,10.527,0,0,0-2.251-1.109,9.325,9.325,0,0,0-1.992-.3,9.531,9.531,0,0,0-1.038.039l-.533.072-.165.024c-.056.013-.11.034-.165.05l-.243.077a9.24,9.24,0,0,0-3.41,1.774c.311-.248.3.014.049.167a1.69,1.69,0,0,0-.529.293,2.731,2.731,0,0,0-.364.42c-.114.144-.2.306-.315.46a4.218,4.218,0,0,1-.4.461,8.083,8.083,0,0,0-1.173,3.851l-.1.007c-.073.171-.011.23-.029.418l-.028-.009c-.009.035-.03.153-.043.255a1.878,1.878,0,0,0-.005.322,3.254,3.254,0,0,0,.055.479c.044.284.111.49.111.649l.116,0c.073.292-.051.171.086.45l-.058.006.194.312c-.2.024.231.78.24,1.012l.345.649a7.451,7.451,0,0,1,.385.765,1.007,1.007,0,0,0,.129.465c.1.207.22.447.3.641.208.355.489.756.781,1.182s.6.866.894,1.283l.094-.092.164.207c-.025.014-.016.051-.051.028.006.255.4.464.467.677.007-.176-.1-.151-.195-.272-.08-.213.135-.117.274.141l-.026.014.179.109c-.064.081.014.249-.048.33.285.326.556.574.821.829a7.665,7.665,0,0,1,.829.834c-.145.01.451.449.188.452.415.341.055-.174.321-.09.1.111.242.188.208.257-.081-.018,0,.171-.1.1,0,0,.061.064.128.122l.131.119c.013.034-.061,0-.1-.02.592.426.818.989,1.359,1.362.083-.018-.169-.194-.085-.213.558.354.326.489.84.823l-.159-.012a.783.783,0,0,1,.495.35c-.036.123-.265-.113-.416-.177.16.151.594.5.538.312.22.148.224.289.308.409.023-.018-.131-.223.018-.159a7.194,7.194,0,0,0,.969.944c-.022.019-.026.072-.064.058C526.858,168.634,526.662,168.806,527.056,169.091Z" transform="translate(-515.815 -125.632)" fill="#ec4115"/>
      <path id="패스_82" data-name="패스 82" d="M603.781,211.99l-.054.182c.025.006.053.021.056.112a1.218,1.218,0,0,0,0-.146C603.783,212.064,603.781,211.99,603.781,211.99Z" transform="translate(-576.038 -184.791)" fill="#ec4115"/>
      <path id="패스_83" data-name="패스 83" d="M591.264,236.19a.39.39,0,0,0-.014.07C591.273,236.223,591.271,236.2,591.264,236.19Z" transform="translate(-567.491 -201.369)" fill="#ec4115"/>
      <path id="패스_84" data-name="패스 84" d="M587.418,241.486c.078-.126-.031-.049-.1-.014C587.332,241.488,587.356,241.5,587.418,241.486Z" transform="translate(-564.797 -204.949)" fill="#ec4115"/>
      <path id="패스_85" data-name="패스 85" d="M604.225,196.657c.01.031.024.049.049.045C604.255,196.661,604.239,196.652,604.225,196.657Z" transform="translate(-576.38 -174.287)" fill="#ec4115"/>
      <path id="패스_86" data-name="패스 86" d="M600.685,155.453c0,.018,0,.033,0,.055A.111.111,0,0,0,600.685,155.453Z" transform="translate(-573.951 -146.061)" fill="#ec4115"/>
      <path id="패스_87" data-name="패스 87" d="M600.675,157.834a.825.825,0,0,0,.05.14A.307.307,0,0,0,600.675,157.834Z" transform="translate(-573.948 -147.692)" fill="#ec4115"/>
      <path id="패스_88" data-name="패스 88" d="M603.846,206.643a.4.4,0,0,0,.023.145A.217.217,0,0,0,603.846,206.643Z" transform="translate(-576.12 -181.128)" fill="#ec4115"/>
      <path id="패스_89" data-name="패스 89" d="M601.025,158.726l.03.181a.191.191,0,0,0,.022,0Z" transform="translate(-574.188 -148.303)" fill="#ec4115"/>
      <path id="패스_90" data-name="패스 90" d="M600.57,154.729c.013.071.035.165.039.228A.375.375,0,0,0,600.57,154.729Z" transform="translate(-573.876 -145.565)" fill="#ec4115"/>
      <path id="패스_91" data-name="패스 91" d="M603.631,181.525c0,.006,0,.013,0,.02C603.689,181.683,603.665,181.6,603.631,181.525Z" transform="translate(-575.973 -163.921)" fill="#ec4115"/>
      <path id="패스_92" data-name="패스 92" d="M602.138,161.093v.026l.041.046Z" transform="translate(-574.95 -149.924)" fill="#ec4115"/>
      <path id="패스_93" data-name="패스 93" d="M600.038,152.21a.236.236,0,0,0,.046.083c0-.029-.011-.062-.017-.1A.063.063,0,0,1,600.038,152.21Z" transform="translate(-573.511 -143.825)" fill="#ec4115"/>
      <path id="패스_94" data-name="패스 94" d="M603.308,172.714c-.048-.047-.079-.063-.1-.063C603.215,172.711,603.238,172.748,603.308,172.714Z" transform="translate(-575.682 -157.842)" fill="#ec4115"/>
    </g>
    <g id="그룹_21" data-name="그룹 21" transform="translate(290.521 80.06)">
      <path id="패스_95" data-name="패스 95" d="M581.5,80.06a1.682,1.682,0,0,1,.674.772c.3.6.866,2,.866,2a1.521,1.521,0,0,0,.4.459,2.3,2.3,0,0,1,1.018,1.364l3.429-.482-.356-1.32s-.036-.188.093-.066a14.583,14.583,0,0,1,.661,1.7l.438.525-.509.316-.128-.341L585.3,87.734l.317,1.108,2.085.431.105.442-1.317,1.054.105.442-.34.211-.43-.6a2.525,2.525,0,0,1,.026.8c-.079.137-.346.066-.346.066l-.366-.15.406.58-.407.3-.661-.7.148.556-1.3,1.246-.275-.337.976-2.961-.495-1.05-3.18,2.455.072.375-.442.23-.1-.54-.568-1.766s-.058-.525.2-.161a5.373,5.373,0,0,1,.5,1.195l2.187-4.238a10.581,10.581,0,0,1-.344-1.809,7.046,7.046,0,0,0-.082-1.761,8.208,8.208,0,0,1-.379-1.437A2.981,2.981,0,0,1,581.5,80.06Z" transform="translate(-573.165 -80.06)" fill="#f36a10"/>
      <path id="패스_96" data-name="패스 96" d="M561.29,96.836a1.132,1.132,0,0,1,.451.517c.2.4.579,1.339.579,1.339a1.016,1.016,0,0,0,.27.307,1.54,1.54,0,0,1,.68.912l2.294-.323-.239-.883s-.024-.126.062-.044a9.815,9.815,0,0,1,.442,1.137l.293.351-.34.211-.086-.228-1.864,1.836.211.741,1.394.288.071.3-.881.705.07.3-.227.141-.287-.4a1.688,1.688,0,0,1,.017.534c-.053.091-.232.044-.232.044l-.244-.1.271.388-.272.2-.442-.469.1.372-.871.833-.184-.226.653-1.98-.331-.7-2.127,1.642.047.251-.294.154-.069-.362-.38-1.181s-.039-.351.135-.107a3.591,3.591,0,0,1,.335.8l1.463-2.835a7.064,7.064,0,0,1-.23-1.209,4.72,4.72,0,0,0-.055-1.178,5.494,5.494,0,0,1-.253-.961A1.989,1.989,0,0,1,561.29,96.836Z" transform="translate(-559.82 -91.552)" fill="#fc9200"/>
    </g>
    <g id="그룹_22" data-name="그룹 22" transform="translate(166.708 105.198)">
      <path id="패스_97" data-name="패스 97" d="M166.708,189.362a25.186,25.186,0,0,0,9.965,1.876c8.485,0,13.756-3.626,13.756-9.463-.064-4.407-2.632-7.115-8.588-9.046-4.116-1.357-5.836-2.244-5.836-4.224,0-2.022,1.725-3.23,4.613-3.23a17.811,17.811,0,0,1,6.778,1.517l1.477-5.41a23.648,23.648,0,0,0-8.594-1.507c-7.579,0-12.872,3.945-12.872,9.592-.071,3.865,3.038,6.9,8.991,8.788,3.708,1.166,5.363,2.053,5.363,4.226,0,1.5-.882,3.3-5.089,3.3a22.008,22.008,0,0,1-8.48-2.062Z" transform="translate(-166.708 -159.875)" fill="#005caa"/>
    </g>
    <path id="패스_98" data-name="패스 98" d="M384.759,182.045v12.64h-6.625V165.848h6.625v9a10.649,10.649,0,0,1,6.146-1.959c4.228,0,7.454,2.921,7.454,9.329v12.465h-6.626V182.961c0-2.79-.959-4.708-3.443-4.708A3.8,3.8,0,0,0,384.759,182.045Z" transform="translate(-144.836 -58.769)" fill="#005caa"/>
    <path id="패스_99" data-name="패스 99" d="M617.125,197.362V210H610.5V188.66h6.625v1.507a10.648,10.648,0,0,1,6.146-1.959c4.228,0,7.454,2.921,7.454,9.329V210H624.1V198.278c0-2.79-.959-4.708-3.443-4.708A3.8,3.8,0,0,0,617.125,197.362Z" transform="translate(-304.017 -74.086)" fill="#005caa"/>
    <path id="패스_100" data-name="패스 100" d="M331.648,209.475a16.972,16.972,0,0,1-6.11,1.048c-6.887,0-11.289-4.185-11.289-10.9,0-6.234,4.271-11.333,12.2-11.333a15.362,15.362,0,0,1,5.056.828l-1.012,4.765a9.82,9.82,0,0,0-3.739-.494c-3.488,0-5.754,2.485-5.71,5.972,0,3.923,2.615,5.972,5.841,5.972a11.449,11.449,0,0,0,3.974-.572Z" transform="translate(-101.072 -74.145)" fill="#005caa"/>
    <path id="패스_101" data-name="패스 101" d="M260.187,210.013v-2.13a7.68,7.68,0,0,1-6.1,2.615,6.534,6.534,0,0,1-6.887-6.538c0-5.536,4.969-8.195,12.51-8.15V195.5c0-1.133-.61-2.746-3.879-2.746a11.991,11.991,0,0,0-5.885,1.613l-1.22-4.272a17.589,17.589,0,0,1,8.282-1.874c7.1,0,9.372,4.184,9.372,9.2v12.591Zm-.261-10.063c-3.487-.043-6.19.785-6.19,3.356a2.379,2.379,0,0,0,2.615,2.528,3.618,3.618,0,0,0,3.443-2.441,4.741,4.741,0,0,0,.131-1.133Z" transform="translate(-55.139 -74.098)" fill="#005caa"/>
    <path id="패스_102" data-name="패스 102" d="M454.335,201.483c.213,2.746,2.862,4.054,5.895,4.054a18.063,18.063,0,0,0,5.767-.872l1.055,4.585a21.4,21.4,0,0,1-7.762,1.213c-7.092,0-11.15-4.185-11.15-10.853,0-5.405,3.289-11.377,10.552-11.377,6.749,0,9.312,5.362,9.312,10.635a16.077,16.077,0,0,1-.213,2.616Zm7.645-4.676c-.04-1.625-.768-4.172-3.673-4.172-2.661,0-3.785,2.4-4,4.171Z" transform="translate(-192.793 -74.103)" fill="#005caa"/>
  </g>
</svg>
