<svg xmlns="http://www.w3.org/2000/svg" xmlns:xlink="http://www.w3.org/1999/xlink" width="180" height="43.559" viewBox="0 0 180 43.559">
  <defs>
    <linearGradient id="linear-gradient" x1="-216.581" y1="-81.839" x2="-213.191" y2="-79.202" gradientUnits="objectBoundingBox">
      <stop offset="0" stop-color="#3690c0"/>
      <stop offset="0.747" stop-color="#0f218b"/>
      <stop offset="1" stop-color="#0c2071"/>
    </linearGradient>
    <linearGradient id="linear-gradient-2" x1="-230.781" y1="-104.429" x2="-227.205" y2="-101.082" xlink:href="#linear-gradient"/>
    <linearGradient id="linear-gradient-3" x1="-511.191" y1="-134.733" x2="-503.144" y2="-130.352" xlink:href="#linear-gradient"/>
    <linearGradient id="linear-gradient-4" x1="-45.188" y1="-52.47" x2="-44.469" y2="-50.754" xlink:href="#linear-gradient"/>
    <linearGradient id="linear-gradient-5" x1="-40.281" y1="-0.786" x2="-40.377" y2="-0.959" gradientUnits="objectBoundingBox">
      <stop offset="0" stop-color="#fff"/>
      <stop offset="0.034" stop-color="#fffdf7"/>
      <stop offset="0.083" stop-color="#fff9e4"/>
      <stop offset="0.142" stop-color="#fff2c4"/>
      <stop offset="0.208" stop-color="#ffe897"/>
      <stop offset="0.281" stop-color="#ffdb5d"/>
      <stop offset="0.357" stop-color="#ffcc19"/>
      <stop offset="0.36" stop-color="#ffcc17"/>
      <stop offset="0.747" stop-color="#ffb300"/>
    </linearGradient>
    <linearGradient id="linear-gradient-6" x1="22.041" y1="-8.08" x2="21.969" y2="-8.873" gradientUnits="objectBoundingBox">
      <stop offset="0.073" stop-color="#fff"/>
      <stop offset="0.1" stop-color="#fffdf7"/>
      <stop offset="0.139" stop-color="#fff9e4"/>
      <stop offset="0.186" stop-color="#fff2c4"/>
      <stop offset="0.239" stop-color="#ffe897"/>
      <stop offset="0.297" stop-color="#ffdb5d"/>
      <stop offset="0.358" stop-color="#ffcc19"/>
      <stop offset="0.36" stop-color="#ffcc17"/>
      <stop offset="0.747" stop-color="#ffb300"/>
    </linearGradient>
    <linearGradient id="linear-gradient-7" x1="11.777" y1="-13.006" x2="11.739" y2="-14.375" xlink:href="#linear-gradient-5"/>
    <linearGradient id="linear-gradient-8" x1="-180.339" y1="-97.178" x2="-179.784" y2="-98.306" gradientUnits="objectBoundingBox">
      <stop offset="0" stop-color="#fff"/>
      <stop offset="0.033" stop-color="#f9fcf3"/>
      <stop offset="0.09" stop-color="#ecf6d6"/>
      <stop offset="0.166" stop-color="#d5eca6"/>
      <stop offset="0.255" stop-color="#b7de64"/>
      <stop offset="0.337" stop-color="#99d022"/>
      <stop offset="0.443" stop-color="#79c124"/>
      <stop offset="0.55" stop-color="#60b525"/>
      <stop offset="0.649" stop-color="#52ae26"/>
      <stop offset="0.73" stop-color="#4dac27"/>
    </linearGradient>
    <linearGradient id="linear-gradient-9" x1="19.385" y1="-7.548" x2="19.215" y2="-8.307" gradientUnits="objectBoundingBox">
      <stop offset="0.034" stop-color="#fff"/>
      <stop offset="0.063" stop-color="#f9fcf3"/>
      <stop offset="0.115" stop-color="#ecf6d6"/>
      <stop offset="0.183" stop-color="#d5eca6"/>
      <stop offset="0.263" stop-color="#b7de64"/>
      <stop offset="0.337" stop-color="#99d022"/>
      <stop offset="0.443" stop-color="#79c124"/>
      <stop offset="0.55" stop-color="#60b525"/>
      <stop offset="0.649" stop-color="#52ae26"/>
      <stop offset="0.73" stop-color="#4dac27"/>
    </linearGradient>
  </defs>
  <g id="yeongdo" transform="translate(-226.041 -243.067)">
    <g id="그룹_2" data-name="그룹 2" transform="translate(226.041 243.067)">
      <path id="패스_207" data-name="패스 207" d="M286.678,260.708c-3.1-1.352-6.613.205-9.834,3.912,3.72,3.395,5.7,10.887,5.588,19.1a2.347,2.347,0,0,1,1.14.3,6.882,6.882,0,0,0,3.614.829c1.031-.083,1.324.277,2.5.9s1.945.13,2.759.377.75-.213,1.39-.172l.061.007C294.671,274.021,291.839,262.956,286.678,260.708Z" transform="translate(-230.917 -244.714)" fill="url(#linear-gradient)"/>
      <path id="패스_208" data-name="패스 208" d="M267.069,270.776c.279-.589.57-1.163.866-1.727-2.746-.977-6.721,1.54-9.792,5.3a31.775,31.775,0,0,0-3.093,4.616,47.079,47.079,0,0,0-3.229,7.2,6.625,6.625,0,0,0,1.083.1c.6.042.6.855.9,1.326s.428.255.855.342,1.069.814,1.881.962a9.014,9.014,0,0,0,3.572.023,5.392,5.392,0,0,0,1.7-.705c.3-1.484.672-3.32.733-3.622A60.7,60.7,0,0,1,267.069,270.776Z" transform="translate(-228.515 -245.541)" fill="url(#linear-gradient-2)"/>
      <path id="패스_209" data-name="패스 209" d="M271.883,271.708c-.143.276-.286.556-.426.841a55.747,55.747,0,0,0-4.019,11.221c-.139.558-.473,2.1-.8,3.66.682.063.551.135,1.181-.482s1.667-.74,3.4-1a10.04,10.04,0,0,1,2.6.06C274.2,280.134,273.6,274.752,271.883,271.708Z" transform="translate(-229.937 -245.816)" fill="url(#linear-gradient-3)"/>
      <path id="패스_210" data-name="패스 210" d="M307.446,264.216a2.1,2.1,0,0,1-.061-.654,2.367,2.367,0,0,0,.066-.714c-.189-1.258-.347-1.989-.444-2.975-.032-.189-.008-.487-.026-.69q-.1-.936-.2-1.875a2.979,2.979,0,0,0-.485-1.267,6.352,6.352,0,0,1-.225-.641c-.144-.269-.314-.156-.459-.543-.1-.156.011-.3-.055-.547-.071-.216-.174-.2-.454-.57a.939.939,0,0,1-.176-.326c-.141-.189-.475-.115-.721-.379-.147-.146-.091-.233-.268-.386-.129-.09-.856-.432-1-.917a.52.52,0,0,0-.213-.334c-.211-.127-.42-.043-.6-.187-.354-.287-.532-.991-.956-1.257a3.814,3.814,0,0,0-1.952-.479c-.274,0-.46-.106-.612-.084-.423.041-.371-.231-.539-.326-.2-.038-.268.029-.482-.019-.151-.035-.322-.012-.47-.178-.123-.132-.076-.324-.126-.441-.146-.27-.538-.146-.793-.1-.328.131-.655-.1-.9-.119-.373-.063-1-.642-1.467-.778a16.739,16.739,0,0,0-2.1-.249c-.177-.048-.45-.113-.643-.184-.136-.025-.224-.13-.385-.21-.127-.04-.023-.119-.216-.185-.216-.11-.4-.127-.608-.231-.137-.065-.371-.168-.542-.232-.23-.052-.463-.1-.7-.153a2.931,2.931,0,0,1-.3-.1c-.145-.04-.241-.088-.4-.132-.31-.1-.586-.552-.9-.662-.351.015-.7.026-1.053.037-.162-.03-.2.073-.386.043-.187-.05-.328-.061-.417-.08-.412-.065-.252-.369-.541-.5a2.055,2.055,0,0,0-.957-.221c-.3,0-.535-.063-.635.166-.257.137-.521-.046-1.005-.2a.255.255,0,0,1-.156-.066.51.51,0,0,0-.442-.177c-.152.04-.2.081-.335.3a3.526,3.526,0,0,1-.482.489c-.272.061-.513.784-1.25.654a5.6,5.6,0,0,1-1.849-1.015c-.187-.121-.293-.4-.5-.4-.226-.006-.137-.113-.269-.213a.281.281,0,0,0-.219-.112,1.83,1.83,0,0,1-.659-.149,2.208,2.208,0,0,0-.592-.246,3.541,3.541,0,0,0-.74.048,2.993,2.993,0,0,1-.315-.01l-.888.171c-.146-.015-.373.119-.475.106a1.24,1.24,0,0,1-.59-.079,2.043,2.043,0,0,1-.465-.178c-.344-.074-.3-.011-.591-.09a3.128,3.128,0,0,1-.571-.228,2.815,2.815,0,0,0-1.428.077c-1.54.439-2.785.131-3.58.461a1.417,1.417,0,0,1-.428.055,2.049,2.049,0,0,0-.613.276,5.542,5.542,0,0,1-.976.238c-.119.03-.128.1-.3.148-.147.058-.365-.02-.551.045l-.022.013a3.678,3.678,0,0,1-.849-.029,1.41,1.41,0,0,0-.532.089c-.2.04-.268.06-.425.079-.09.034-.121-.075-.276.009a1.3,1.3,0,0,1-.7.031,1.332,1.332,0,0,0-.414-.079c-.218-.01-.372-.184-.829-.238-.432-.049-.681.187-.947.238a6.373,6.373,0,0,0-.681.2.687.687,0,0,1-.385.077.438.438,0,0,1-.255-.087c-.078-.109-.2-.089-.287-.2-.088-.041-.137-.129-.21-.2a2.158,2.158,0,0,0-.928-.205c-.1.012-.173-.025-.272-.016-.27.029-.294-.013-.409.014-.3.073-.349-.045-.577.005-.129.058-.237-.04-.4-.01-.418.095-.693.134-1.109.23a8.014,8.014,0,0,1-1.851.351,2.172,2.172,0,0,0-1.263.21,4.083,4.083,0,0,0-.808.246c-.1.039-.239.1-.279.174a5.034,5.034,0,0,1-1.1.27c-.567.186-1.224-.111-1.586.02-.377.138-.992.459-1.371.6-.171.063-.424.184-.464.2-.064.108-.218.127-.306.2-.1.127-.11.1-.3.245-.086.09-.332.2-.423.271-.259.115-.387.213-.771.41a3.537,3.537,0,0,1-.82.238,5.562,5.562,0,0,0-.63.247,2.006,2.006,0,0,1-.613.167,1.054,1.054,0,0,0-.537.117,2.018,2.018,0,0,0-.4.289,2.654,2.654,0,0,0-.4.313,1.149,1.149,0,0,1-.292.292,2.268,2.268,0,0,1-.376.176c-.1.045-.2.081-.271.119-.119.042-.137.058-.264.112a.622.622,0,0,0-.244.095,1.494,1.494,0,0,1-.312.214,7.747,7.747,0,0,0-.667.413,13.129,13.129,0,0,0-2.356,1.23,3.37,3.37,0,0,0-.545.365,2.234,2.234,0,0,1-.413.208c-.207.094-.387.139-.706.27a10.194,10.194,0,0,0-.993.4c-.168.08-.465.272-.588.334a5.176,5.176,0,0,0-.479.307,7.986,7.986,0,0,1-.693.517.619.619,0,0,1-.168.078c-.719.169-1.293,1.864-1.94,1.648-.379.106-.493.281-.448.731,0,0-.47.839-.255,1.117s.279.684-.052.854,0,.111-.183,1.071a4.607,4.607,0,0,0,.407,2.65,5.7,5.7,0,0,1,.641,1.753c.023.45.3.857.457.841s.228.185.321.577c.4,1.68,1.169,2.047,1.852,2.262s.6.426.6.908.129.7.388.63,1.173.835,1.789,1.663.86.519,1.031,2.1a5.777,5.777,0,0,0,1.367,3.1c.552.795,1.538.749,2.182,1.429s.985-.319,1.776,1,2.137.9,2.65,1.627a5.764,5.764,0,0,0,2.652,1.536,2.593,2.593,0,0,1,1.667,1.158,1.29,1.29,0,0,0,.955.5,51.16,51.16,0,0,1,3.376-7.8,42.681,42.681,0,0,1,2.443-4.008c4.451-6.455,10.612-10.948,15.484-10.318a6.182,6.182,0,0,1,.62.111c4.694-6.451,10.424-9.923,15.822-8.9,8.136,1.534,13.918,14.659,13.9,29.3.24-.071.261-.172.449-.33.311-.22.977-.275,1.031-.759-.03-.253.017-.4.185-.429.128-.064.178.012.291-.076.074-.062.282-.237.376-.309.13-.1-.009-.248-.009-.449.033-.179.048-.307.08-.489a1.233,1.233,0,0,1,.377-.281c.232-.167.26-.377.171-.484-.09-.165.015-.392.358-.494a.806.806,0,0,0,.52-.457c-.07-.7.486-.357.886-.673a1.242,1.242,0,0,0,.359-.683c.137-.224.409-.16.769-.362a3.272,3.272,0,0,0,1.467-1.86c.217-.794-.016-1.051-.023-1.835.048-.369-.1-.538.129-.73.541-.191.256-.482.256-.994-.015-.425-.267-.465-.184-.818a4.741,4.741,0,0,0,.264-1.267c.1-.433-.458-.683-.26-1.189.363-.745.774-.608.893-1.1C307.111,264.956,307.551,265.062,307.446,264.216Z" transform="translate(-226.041 -243.067)" fill="url(#linear-gradient-4)"/>
      <path id="패스_211" data-name="패스 211" d="M290.5,253.3l-2.774,6.745c5.161,2.248,7.993,13.314,7.22,25.259.565.07.417.52.858.914.458.408,1.3.256,1.934.153s.738-.475,1.165-.711.706-.106,1.121-.308a1.7,1.7,0,0,0,.975-.889,1.247,1.247,0,0,1,1.175-.789c.609-.069.626-.124.626-.124.233-.13.24-.392.306-.639a1.63,1.63,0,0,0,1.107-.271,1.727,1.727,0,0,0,.187-.041C304.414,267.957,298.632,254.832,290.5,253.3Z" transform="translate(-231.961 -244.049)" fill="url(#linear-gradient-5)"/>
      <path id="패스_212" data-name="패스 212" d="M271.1,272.3c.14-.285.283-.565.426-.841a4.979,4.979,0,0,0-2.469-2.364c-.018-.007-.04-.012-.057-.019-.3.564-.587,1.137-.866,1.727a60.7,60.7,0,0,0-4.527,13.823c-.061.3-.434,2.137-.733,3.622a5.005,5.005,0,0,0,.877-.761c.693-.737,1.766-.373,2.492-.31l.038,0c.327-1.558.661-3.1.8-3.66A55.747,55.747,0,0,1,271.1,272.3Z" transform="translate(-229.576 -245.563)" fill="url(#linear-gradient-6)"/>
      <path id="패스_213" data-name="패스 213" d="M286.337,260.024l2.774-6.745c-5.4-1.018-11.129,2.454-15.822,8.9a7.13,7.13,0,0,1,3.215,1.752C279.724,260.23,283.232,258.672,286.337,260.024Z" transform="translate(-230.575 -244.031)" fill="url(#linear-gradient-7)"/>
      <path id="패스_214" data-name="패스 214" d="M257.877,273.785c3.07-3.76,7.045-6.277,9.792-5.3.575-1.1,1.176-2.165,1.805-3.162.483-.765.979-1.5,1.487-2.193a6.182,6.182,0,0,0-.62-.111c-4.872-.63-11.033,3.863-15.484,10.318a42.681,42.681,0,0,0-2.443,4.008,51.16,51.16,0,0,0-3.376,7.8,3.45,3.45,0,0,0,1.162-.095c.321-.087.385-.257.754.2a1.065,1.065,0,0,0,.6.353,47.081,47.081,0,0,1,3.229-7.2A31.774,31.774,0,0,1,257.877,273.785Z" transform="translate(-228.248 -244.976)" fill="url(#linear-gradient-8)"/>
      <path id="패스_215" data-name="패스 215" d="M276.421,265.086c-.333.382-.662.786-.986,1.213a33.487,33.487,0,0,0-3,4.773c1.719,3.044,2.32,8.426,1.936,14.3a5.844,5.844,0,0,0,1.119-.081c1.732-.278,1.755-.726,2.631-.963s1.146-.044,2.459.108c.847.1.994-.214,1.425-.252C282.125,275.973,280.141,268.481,276.421,265.086Z" transform="translate(-230.494 -245.181)" fill="url(#linear-gradient-9)"/>
      <path id="패스_216" data-name="패스 216" d="M269.646,268.5c.017.007.039.012.057.019a4.979,4.979,0,0,1,2.469,2.364,33.492,33.492,0,0,1,3-4.773c.325-.428.654-.831.986-1.213a7.13,7.13,0,0,0-3.215-1.752c-.508.7-1,1.428-1.487,2.193C270.822,266.338,270.221,267.4,269.646,268.5Z" transform="translate(-230.226 -244.995)" fill="#f2f967"/>
    </g>
    <g id="그룹_3" data-name="그룹 3" transform="translate(318.655 255.218)">
      <path id="패스_217" data-name="패스 217" d="M353.867,256.658s-.444,1.619-.534,1.956h-4.074l-.93,3.48H352.4c-.118.428-.661,2.264-.735,2.537h-4.074l-.9,3.433h4.074c-.128.476-.505,1.858-.505,1.858h5.275l3.61-13.263Z" transform="translate(-330.234 -256.522)" fill="#0f218b"/>
      <path id="패스_218" data-name="패스 218" d="M367.95,257.245l-3.078,11.4a2.719,2.719,0,0,0,.279,2.4,2.525,2.525,0,0,0,2.071.991H372.3c-.164.6-1.329,4.875-1.428,5.237h-9.831l-.9,3.34h24.976l.906-3.34h-9.832c.163-.6,1.328-4.875,1.427-5.237l8.285,0,.919-3.343H370.25c.174-.641,2.093-7.784,2.2-8.166H389.01l.88-3.278Z" transform="translate(-331.525 -256.579)" fill="#0f218b"/>
      <path id="패스_219" data-name="패스 219" d="M351.637,272.859a11.73,11.73,0,0,0-5.672-1.2,15.62,15.62,0,0,0-7.334,1.627,10.916,10.916,0,0,0-1.937,1.3,5,5,0,0,0-1.644,3.654c-.031,2.727,3.479,3.587,4.667,3.81.237.028.24-.081.137-.236l.009,0a3.275,3.275,0,0,1-.724-2.171c.165-1.536,1.522-2.814,2.86-3.634a7.492,7.492,0,0,1,3.718-1.162,3.467,3.467,0,0,1,2.469.769c.6.623,1.428,2.308-.9,4.9-3.681,4.1-11.381,3.291-12.167,3.01-.358-.127-.593-.189-.526-.046a5.149,5.149,0,0,0,1.482,1.19,11.736,11.736,0,0,0,5.675,1.194,15.6,15.6,0,0,0,7.492-1.71,8.925,8.925,0,0,0,4.543-5.32,7.043,7.043,0,0,0,.307-1.651h0A4.4,4.4,0,0,0,351.637,272.859Z" transform="translate(-329.072 -257.962)" fill="#0f218b"/>
      <path id="패스_220" data-name="패스 220" d="M421.817,258.237a2.519,2.519,0,0,0-2.07-.992h-18.82l-.865,3.279h16.7c-.174.64-2.236,8.2-2.34,8.582H395.752l-.929,3.339h10.624l-2.529,9.306,5.347,0,2.528-9.3h9.919l.939-3.339h-1.841l2.287-8.473A2.721,2.721,0,0,0,421.817,258.237Z" transform="translate(-334.853 -256.579)" fill="#0f218b"/>
      <path id="패스_221" data-name="패스 221" d="M341.511,268.983a8.58,8.58,0,0,0,3.589-6.962h0a5.118,5.118,0,0,0-2.336-4.194,8.054,8.054,0,0,0-4.619-1.319,10.5,10.5,0,0,0-5.873,1.779,8.32,8.32,0,0,0-3.607,5.244,8.115,8.115,0,0,0-.179,1.682,4.847,4.847,0,0,0,2.228,4.282,8.488,8.488,0,0,0,4.735,1.21A10.474,10.474,0,0,0,341.511,268.983Zm-1.943-4.515c-1.476,3.1-3.7,3.514-4.984,3.12-1.215-.371-2.05-2.793-.609-5.23,1.2-2.032,2.447-2.934,4.133-2.864C340.084,259.577,340.643,262.217,339.569,264.468Z" transform="translate(-328.487 -256.508)" fill="#0f218b"/>
    </g>
  </g>
</svg>
