<svg xmlns="http://www.w3.org/2000/svg" width="67.374" height="67.36" viewBox="0 0 67.374 67.36">
  <g id="dashboard" transform="translate(0 0)">
    <g id="그룹_69" data-name="그룹 69" transform="translate(0 0)">
      <g id="그룹_68" data-name="그룹 68">
        <path id="패스_94" data-name="패스 94" d="M54.949,34.6a1.655,1.655,0,0,0-2.169.017l-4.519,4.044v-.53a1.123,1.123,0,1,0-2.245,0V40.67l-1.872,1.675a1.123,1.123,0,0,0,1.5,1.673l8.232-7.369,8.232,7.369a1.123,1.123,0,1,0,1.5-1.673Z" transform="translate(-38.15 -29.709)" fill="#424242"/>
        <path id="패스_95" data-name="패스 95" d="M75.381,119.52a1.123,1.123,0,0,0-1.123,1.123V128.5H63.032v-7.859a1.123,1.123,0,1,0-2.245,0v8.572a1.553,1.553,0,0,0,1.572,1.532H74.932a1.556,1.556,0,0,0,1.572-1.536v-8.568A1.123,1.123,0,0,0,75.381,119.52Z" transform="translate(-52.921 -103.803)" fill="#424242"/>
        <path id="패스_96" data-name="패스 96" d="M68.646,221.92a7.859,7.859,0,1,0,7.859,7.859A7.859,7.859,0,0,0,68.646,221.92Zm-5.613,7.859a5.623,5.623,0,0,1,4.491-5.5v4.865l-4.154,2.491A5.535,5.535,0,0,1,63.032,229.779Zm1.494,3.78,3.946-2.367,3.265,3.265A5.56,5.56,0,0,1,64.526,233.558Zm8.8-.69-3.555-3.554v-5.036a5.6,5.6,0,0,1,3.555,8.591Z" transform="translate(-52.921 -192.731)" fill="#424242"/>
        <path id="패스_97" data-name="패스 97" d="M269.176,49.9V46.061a1.772,1.772,0,0,0-1.77-1.77h-3.2a1.772,1.772,0,0,0-1.77,1.77V49.9h-2.245V42.865a1.945,1.945,0,0,0-1.942-1.942H255.4a1.945,1.945,0,0,0-1.942,1.942V49.9h-2.245V37.555a2.245,2.245,0,0,0-2.245-2.245h-2.245a2.245,2.245,0,0,0-2.245,2.245V49.9h-1.123a1.123,1.123,0,0,1-1.123-1.123V35.31a1.123,1.123,0,1,0-2.245,0V48.782a3.368,3.368,0,0,0,3.368,3.368h25.821a1.123,1.123,0,1,0,0-2.245Zm-20.208,0h-2.245V37.555h2.245Zm8.981,0H255.7V43.168h2.245Zm8.981,0h-2.245V46.536h2.245V49.9Z" transform="translate(-208.546 -29.696)" fill="#424242"/>
        <path id="패스_98" data-name="패스 98" d="M269.176,220.571H243.355a1.123,1.123,0,0,1-1.123-1.123v-1.781l3.7-3.7a1.146,1.146,0,0,1,1.587,0l1.316,1.316a3.368,3.368,0,0,0,4.762,0l4.684-4.684a1.146,1.146,0,0,1,1.587,0l1.316,1.317a3.375,3.375,0,0,0,4.762,0l4.026-4.026a1.123,1.123,0,0,0-1.587-1.587l-4.026,4.025a1.123,1.123,0,0,1-1.587,0l-1.316-1.316a3.449,3.449,0,0,0-4.762,0l-4.684,4.684a1.123,1.123,0,0,1-1.587,0l-1.315-1.316a3.45,3.45,0,0,0-4.763,0l-2.109,2.109v-8.517a1.123,1.123,0,1,0-2.245,0v13.472a3.368,3.368,0,0,0,3.368,3.368h25.821a1.123,1.123,0,0,0,0-2.245Z" transform="translate(-208.546 -177.91)" fill="#424242"/>
        <path id="패스_99" data-name="패스 99" d="M68.366,52.205V6.278A5.95,5.95,0,0,0,62.753.053H6.62A5.95,5.95,0,0,0,1.007,6.278V52.205A5.95,5.95,0,0,0,6.62,58.431H24.583v2.245H20.092A4.491,4.491,0,0,0,15.6,65.167V66.29a1.123,1.123,0,0,0,1.123,1.123H52.649a1.123,1.123,0,0,0,1.123-1.123V65.167a4.491,4.491,0,0,0-4.491-4.491H44.791V58.431H62.753A5.95,5.95,0,0,0,68.366,52.205ZM49.281,62.922a2.245,2.245,0,0,1,2.245,2.245H17.847a2.245,2.245,0,0,1,2.245-2.245ZM26.828,60.677V58.431H42.545v2.245Zm35.925-4.491H6.62a3.718,3.718,0,0,1-3.368-3.981V49.45H66.121v2.755A3.718,3.718,0,0,1,62.753,56.186ZM66.121,6.278V47.2H3.252V6.278A3.717,3.717,0,0,1,6.62,2.3H62.753A3.717,3.717,0,0,1,66.121,6.278Z" transform="translate(-1 -0.053)" fill="#424242"/>
      </g>
    </g>
  </g>
</svg>
