<svg xmlns="http://www.w3.org/2000/svg" width="98.224" height="28.171" viewBox="0 0 98.224 28.171">
  <g id="그룹_2" data-name="그룹 2" transform="translate(-197.002 -381.147)">
    <path id="패스_1" data-name="패스 1" d="M198.976,397.92H197v20.6h3a1.98,1.98,0,0,0,1.974-1.975V397.92h-3.005Z" transform="translate(0 -9.645)" fill="#95aebb"/>
    <path id="패스_2" data-name="패스 2" d="M198.976,382.1H197v4.978h3a1.98,1.98,0,0,0,1.974-1.974v-3h-3.005Z" transform="translate(0 -0.547)" fill="#95aebb"/>
    <g id="그룹_1" data-name="그룹 1" transform="translate(207.628 381.147)">
      <path id="패스_3" data-name="패스 3" d="M292.714,385.277a11.809,11.809,0,0,1,3.474.412,1.842,1.842,0,0,0,2.394-1.264l.568-2.062a15.667,15.667,0,0,0-6.639-1.215c-8.337,0-14.57,5.424-14.57,14.409,0,8.3,5.261,13.762,13.922,13.762a17.056,17.056,0,0,0,7.042-1.257l-.41-1.991h0a1.774,1.774,0,0,0-1.795-1.44,1.894,1.894,0,0,0-.5.071,12.817,12.817,0,0,1-2.258.389c-.21.017-.421.036-.634.044s-.419.016-.64.016c-5.99,0-9.511-3.846-9.511-9.836C283.163,388.757,287.169,385.277,292.714,385.277Z" transform="translate(-254.171 -381.147)" fill="#5da71e"/>
      <path id="패스_4" data-name="패스 4" d="M336.973,382.2H335v4.167h7.773v23.112h3a1.98,1.98,0,0,0,1.974-1.975V386.362h5.879a1.979,1.979,0,0,0,1.974-1.974V382.2H336.973Z" transform="translate(-286.981 -381.75)" fill="#5da71e"/>
      <path id="패스_5" data-name="패스 5" d="M397.694,393.006c-3.642-1.417-5.22-2.388-5.22-4.494,0-1.577,1.374-3.278,4.532-3.278a9.752,9.752,0,0,1,3.623.484A1.694,1.694,0,0,0,403,384.639l.641-2.116a14.4,14.4,0,0,0-6.556-1.376c-5.908,0-9.635,3.4-9.635,7.852,0,3.927,2.876,6.314,7.368,7.932,3.482,1.257,4.857,2.471,4.857,4.534,0,2.227-1.78,3.724-4.977,3.724a13.767,13.767,0,0,1-6.6-1.741l-.588,2.221h0a2.263,2.263,0,0,0,1.336,2.62,17.313,17.313,0,0,0,5.525,1.028c7.042,0,10.362-3.845,10.362-8.218C404.738,397.175,402.429,394.786,397.694,393.006Z" transform="translate(-317.14 -381.147)" fill="#5da71e"/>
      <path id="패스_6" data-name="패스 6" d="M243.42,401.553l-5.707-17.564a2.9,2.9,0,0,0-2.583-1.878h-2.405a2.3,2.3,0,0,0-.379.036h-1.6l-.557,1.738c-.014.037-.034.07-.046.106l-7.537,23.52c-.015.046-.021.091-.032.136l-.571,1.779h3.166a2.834,2.834,0,0,0,2.547-1.889h0l.6-1.976.6-1.977h0l.573-1.889h8.662l.6,1.879v0l.634,1.985.634,1.985h0l.6,1.879h3.367a1.327,1.327,0,0,0,1.455-1.339,1.785,1.785,0,0,0-.091-.573ZM230.3,397.931l3.482-11.816,3.48,11.816Z" transform="translate(-222.007 -381.701)" fill="#5da71e"/>
    </g>
  </g>
</svg>
