<svg xmlns="http://www.w3.org/2000/svg" width="50" height="46.926" viewBox="0 0 50 46.926">
  <g id="그룹_2" data-name="그룹 2" transform="translate(-178.603 -211.115)">
    <path id="패스_1" data-name="패스 1" d="M548.6,444.028l4.258,2.388,3.971-6.258,3.8,6.723,4.517-2.232-7.987-14.325Z" transform="translate(-370 -218.338)" fill="#1a1818"/>
    <path id="패스_2" data-name="패스 2" d="M594.314,482.184v-9.077h-6.536v15.146h13.537v-6.069Z" transform="translate(-380.954 -230.301)" fill="#d4d6d9"/>
    <rect id="사각형_1" data-name="사각형 1" width="7.832" height="27.196" transform="translate(198.343 211.115)" fill="#d4d6d9"/>
    <rect id="사각형_2" data-name="사각형 2" width="13.543" height="5.757" transform="translate(214.206 232.9)" fill="#d4d6d9"/>
    <path id="패스_3" data-name="패스 3" d="M604.467,446.74a7.614,7.614,0,1,0-5.394-2.23,7.35,7.35,0,0,0,5.394,2.23m-1.867-9.492a2.551,2.551,0,0,1,1.867-.778,2.611,2.611,0,0,1,1.919.778,2.631,2.631,0,0,1,0,3.735,2.608,2.608,0,0,1-1.919.778,2.641,2.641,0,0,1-1.867-4.513" transform="translate(-383.489 -218.664)" fill="#1a1818"/>
    <path id="패스_4" data-name="패스 4" d="M548.6,487.319V471.707h5.135v5.364l7.549-5.4,3.136,4.391-5.029,3.681,5.279,4.318-3.213,3.878-7.722-6.224v5.6Z" transform="translate(-370 -229.9)" fill="#1a1818"/>
  </g>
</svg>
