<svg id="mobile" xmlns="http://www.w3.org/2000/svg" width="41.649" height="73.498" viewBox="0 0 41.649 73.498">
  <path id="패스_138" data-name="패스 138" d="M49.253,0H18.4A5.4,5.4,0,0,0,13,5.4V68.1a5.4,5.4,0,0,0,5.4,5.4H49.252a5.4,5.4,0,0,0,5.4-5.4V5.4A5.4,5.4,0,0,0,49.253,0ZM15.45,9.8H52.2V56.349H15.45ZM18.4,2.45H49.252A2.95,2.95,0,0,1,52.2,5.4V7.35H15.45V5.4A2.95,2.95,0,0,1,18.4,2.45Zm30.857,68.6H18.4A2.95,2.95,0,0,1,15.45,68.1V58.8H52.2v9.3A2.95,2.95,0,0,1,49.253,71.048Z" transform="translate(-13)" fill="#424242"/>
  <path id="패스_139" data-name="패스 139" d="M30.9,49a4.9,4.9,0,1,0,4.9,4.9A4.9,4.9,0,0,0,30.9,49Zm0,7.35a2.45,2.45,0,1,1,2.45-2.45A2.452,2.452,0,0,1,30.9,56.35Z" transform="translate(-10.075 11.023)" fill="#424242"/>
  <path id="패스_140" data-name="패스 140" d="M26.225,5.45h4.9a1.225,1.225,0,0,0,0-2.45h-4.9a1.225,1.225,0,1,0,0,2.45Z" transform="translate(-10.3 0.675)" fill="#424242"/>
  <path id="패스_141" data-name="패스 141" d="M33.225,5.45H34.45a1.225,1.225,0,1,0,0-2.45H33.225a1.225,1.225,0,0,0,0,2.45Z" transform="translate(-8.726 0.675)" fill="#424242"/>
  <path id="패스_142" data-name="패스 142" d="M33.3,11.02H28.5a2.5,2.5,0,0,0-2.5,2.5v4.807a2.5,2.5,0,0,0,2.5,2.5H33.3a2.5,2.5,0,0,0,2.5-2.5V13.516A2.5,2.5,0,0,0,33.3,11.02Zm.047,7.3a.047.047,0,0,1-.047.047l-4.853-.047.047-4.853,4.853.048Z" transform="translate(-10.075 2.479)" fill="#424242"/>
  <path id="패스_143" data-name="패스 143" d="M24.3,11.02H19.5a2.5,2.5,0,0,0-2.5,2.5v4.807a2.5,2.5,0,0,0,2.5,2.5H24.3a2.5,2.5,0,0,0,2.5-2.5V13.516A2.5,2.5,0,0,0,24.3,11.02Zm.047,7.3a.047.047,0,0,1-.047.047l-4.853-.047.047-4.853,4.853.048Z" transform="translate(-12.1 2.479)" fill="#424242"/>
  <path id="패스_144" data-name="패스 144" d="M42.3,11.02H37.5a2.5,2.5,0,0,0-2.5,2.5v4.807a2.5,2.5,0,0,0,2.5,2.5H42.3a2.5,2.5,0,0,0,2.5-2.5V13.516A2.5,2.5,0,0,0,42.3,11.02Zm.047,7.3a.047.047,0,0,1-.047.047l-4.853-.047.047-4.853,4.853.048Z" transform="translate(-8.051 2.479)" fill="#424242"/>
  <path id="패스_145" data-name="패스 145" d="M33.3,20H28.5A2.5,2.5,0,0,0,26,22.5V27.3a2.5,2.5,0,0,0,2.5,2.5H33.3a2.5,2.5,0,0,0,2.5-2.5V22.5A2.5,2.5,0,0,0,33.3,20Zm.047,7.3a.047.047,0,0,1-.047.047L28.45,27.3,28.5,22.45l4.853.047Z" transform="translate(-10.075 4.499)" fill="#424242"/>
  <path id="패스_146" data-name="패스 146" d="M24.3,20H19.5A2.5,2.5,0,0,0,17,22.5V27.3a2.5,2.5,0,0,0,2.5,2.5H24.3a2.5,2.5,0,0,0,2.5-2.5V22.5A2.5,2.5,0,0,0,24.3,20Zm.047,7.3a.047.047,0,0,1-.047.047L19.45,27.3,19.5,22.45l4.853.047Z" transform="translate(-12.1 4.499)" fill="#424242"/>
  <path id="패스_147" data-name="패스 147" d="M42.3,20H37.5A2.5,2.5,0,0,0,35,22.5V27.3a2.5,2.5,0,0,0,2.5,2.5H42.3a2.5,2.5,0,0,0,2.5-2.5V22.5A2.5,2.5,0,0,0,42.3,20Zm.047,7.3a.047.047,0,0,1-.047.047L37.45,27.3,37.5,22.45l4.853.047Z" transform="translate(-8.051 4.499)" fill="#424242"/>
  <path id="패스_148" data-name="패스 148" d="M33.3,29H28.5A2.5,2.5,0,0,0,26,31.5V36.3a2.5,2.5,0,0,0,2.5,2.5H33.3a2.5,2.5,0,0,0,2.5-2.5V31.5A2.5,2.5,0,0,0,33.3,29Zm.047,7.3a.047.047,0,0,1-.047.047L28.45,36.3,28.5,31.45l4.853.047Z" transform="translate(-10.075 6.524)" fill="#424242"/>
  <path id="패스_149" data-name="패스 149" d="M24.3,29H19.5A2.5,2.5,0,0,0,17,31.5V36.3a2.5,2.5,0,0,0,2.5,2.5H24.3a2.5,2.5,0,0,0,2.5-2.5V31.5A2.5,2.5,0,0,0,24.3,29Zm.047,7.3a.047.047,0,0,1-.047.047L19.45,36.3,19.5,31.45l4.853.047Z" transform="translate(-12.1 6.524)" fill="#424242"/>
  <path id="패스_150" data-name="패스 150" d="M42.3,29H37.5A2.5,2.5,0,0,0,35,31.5V36.3a2.5,2.5,0,0,0,2.5,2.5H42.3a2.5,2.5,0,0,0,2.5-2.5V31.5A2.5,2.5,0,0,0,42.3,29Zm.047,7.3a.047.047,0,0,1-.047.047L37.45,36.3,37.5,31.45l4.853.047Z" transform="translate(-8.051 6.524)" fill="#424242"/>
</svg>
