<svg xmlns="http://www.w3.org/2000/svg" width="95.37" height="23.329" viewBox="0 0 95.37 23.329">
  <g id="그룹_18" data-name="그룹 18" transform="translate(-171.276 -352.26)">
    <path id="패스_91" data-name="패스 91" d="M256.936,354.806c-.4-2.2-1.846-2.51-2.43-2.544H242.968s2.377,1.033,1.059,2.818l-15.341,20.51h8.479l2.9-3.808h11.459l.706,3.808h8.479Zm-13.321,12.222,5.642-7.541,1.411,7.541Z" transform="translate(-35.745 -0.001)" fill="#0a46d2"/>
    <path id="패스_92" data-name="패스 92" d="M194.7,352.261H176.1a2.169,2.169,0,0,1,1.237,2.71l-6.064,20.618H177.4a2.7,2.7,0,0,0,2.852-1.711l2.01-6.858H188.7c9.3,0,12.114-5.606,12.246-8.094C201.311,352.05,194.7,352.261,194.7,352.261Zm-2.9,8.247a4.471,4.471,0,0,1-2.978,1.571,22.783,22.783,0,0,1-5.094.157l1.8-6.205c4.691-.283,5.959.832,6.348,1.571A2.991,2.991,0,0,1,191.8,360.508Z" fill="#0a46d2"/>
    <path id="패스_93" data-name="패스 93" d="M344.63,352.262h-3.166s2.391,1.038,1.051,2.832l-.336.449a.588.588,0,0,1-.039.052l-7.534,10.081-1.049-10.554c-.406-2.73-1.948-2.856-2.168-2.859H320.081a2.17,2.17,0,0,1,1.2,2.831l-.348,1.177a7.393,7.393,0,0,1-.223.752l-5.5,18.567h6.118a2.725,2.725,0,0,0,2.825-1.648l2.956-9.9.975,11.547H335.7l8.715-11.636-3.377,11.636h8.4l6.829-23.328Z" transform="translate(-89.622 -0.001)" fill="#0a46d2"/>
  </g>
</svg>
