<svg xmlns="http://www.w3.org/2000/svg" width="61.249" height="64.998" viewBox="0 0 61.249 64.998">
  <g id="ppt" transform="translate(0 0)">
    <g id="그룹_71" data-name="그룹 71" transform="translate(0)">
      <g id="그룹_70" data-name="그룹 70" transform="translate(0)">
        <path id="패스_151" data-name="패스 151" d="M75.669,17.59,59.11.383a1.249,1.249,0,0,0-.9-.383H33.529A5.014,5.014,0,0,0,28.52,5.007V22.5h-10a3.751,3.751,0,0,0-3.747,3.747V45a3.751,3.751,0,0,0,3.747,3.747h10V60a5.009,5.009,0,0,0,5.009,5H71.009a5.008,5.008,0,0,0,5.009-5V18.457A1.25,1.25,0,0,0,75.669,17.59ZM58.519,3.374,72.113,17.5H58.519Zm-40,42.874A1.249,1.249,0,0,1,17.27,45V26.246A1.249,1.249,0,0,1,18.517,25H52.271a1.249,1.249,0,0,1,1.248,1.247V45a1.249,1.249,0,0,1-1.248,1.247ZM73.518,60a2.505,2.505,0,0,1-2.509,2.5H33.529A2.506,2.506,0,0,1,31.02,60V48.749H52.271A3.751,3.751,0,0,0,56.019,45V26.246A3.751,3.751,0,0,0,52.271,22.5H31.019V5.007A2.511,2.511,0,0,1,33.529,2.5h22.49v16.25A1.25,1.25,0,0,0,57.269,20h16.25Z" transform="translate(-14.77)" fill="#424242"/>
      </g>
    </g>
    <g id="그룹_73" data-name="그룹 73" transform="translate(26.581 30.512)">
      <g id="그룹_72" data-name="그룹 72" transform="translate(0)">
        <path id="패스_152" data-name="패스 152" d="M224.153,240.347v1.816h3.186v8.921h2.168v-8.921h3.179v-1.816Z" transform="translate(-224.153 -240.347)" fill="#424242"/>
      </g>
    </g>
    <g id="그룹_75" data-name="그룹 75" transform="translate(17.346 30.512)">
      <g id="그룹_74" data-name="그룹 74" transform="translate(0)">
        <path id="패스_153" data-name="패스 153" d="M159.006,241.559a2.817,2.817,0,0,0-1.545-1.051,12.62,12.62,0,0,0-2.578-.161H151.4v10.737h2.168v-4.05h1.414a12.385,12.385,0,0,0,2.248-.154,3.147,3.147,0,0,0,1.124-.509,2.948,2.948,0,0,0,.912-1.058,3.505,3.505,0,0,0,.359-1.663A3.333,3.333,0,0,0,159.006,241.559Zm-1.857,2.955a1.427,1.427,0,0,1-.678.527,5.615,5.615,0,0,1-1.714.168h-1.186v-3.047h1.047a10.433,10.433,0,0,1,1.56.073,1.5,1.5,0,0,1,.872.476,1.386,1.386,0,0,1,.344.967A1.446,1.446,0,0,1,157.15,244.514Z" transform="translate(-151.404 -240.347)" fill="#424242"/>
      </g>
    </g>
    <g id="그룹_77" data-name="그룹 77" transform="translate(7.341 30.512)">
      <g id="그룹_76" data-name="그룹 76">
        <path id="패스_154" data-name="패스 154" d="M80.2,241.559a2.816,2.816,0,0,0-1.545-1.051,12.615,12.615,0,0,0-2.578-.161H72.6v10.737h2.168v-4.05h1.413a12.382,12.382,0,0,0,2.248-.154,3.148,3.148,0,0,0,1.124-.509,2.945,2.945,0,0,0,.912-1.058,3.5,3.5,0,0,0,.359-1.663A3.333,3.333,0,0,0,80.2,241.559Zm-1.857,2.955a1.425,1.425,0,0,1-.678.527,5.614,5.614,0,0,1-1.714.168H74.763v-3.047H75.81a10.433,10.433,0,0,1,1.56.073,1.5,1.5,0,0,1,.872.476,1.386,1.386,0,0,1,.344.967A1.444,1.444,0,0,1,78.341,244.514Z" transform="translate(-72.595 -240.347)" fill="#424242"/>
      </g>
    </g>
  </g>
</svg>
