<svg xmlns="http://www.w3.org/2000/svg" width="12.87" height="16.71" viewBox="0 0 12.87 16.71">
  <g id="_462935" data-name="462935" transform="translate(12.87) rotate(90)">
    <g id="그룹_5" data-name="그룹 5" transform="translate(0 5.76)">
      <g id="그룹_4" data-name="그룹 4" transform="translate(0 0)">
        <path id="패스_7" data-name="패스 7" d="M16.035,235.318H.675a.675.675,0,1,0,0,1.35h15.36a.675.675,0,1,0,0-1.35Z" transform="translate(0 -235.318)" fill="#424242"/>
      </g>
    </g>
    <g id="그룹_7" data-name="그룹 7" transform="translate(0 0)">
      <g id="그룹_6" data-name="그룹 6" transform="translate(0 0)">
        <path id="패스_8" data-name="패스 8" d="M1.63,65.265l5.283-5.283a.675.675,0,1,0-.955-.955L.2,64.788a.675.675,0,0,0,0,.955l5.76,5.76a.675.675,0,0,0,.955-.955Z" transform="translate(0 -58.83)" fill="#424242"/>
      </g>
    </g>
  </g>
</svg>
