<svg xmlns="http://www.w3.org/2000/svg" width="67.374" height="67.373" viewBox="0 0 67.374 67.373">
  <g id="그룹_176" data-name="그룹 176" transform="translate(-460 -1751)">
    <path id="패스_130" data-name="패스 130" d="M66,2H5.369A3.369,3.369,0,0,0,2,5.369V66a3.369,3.369,0,0,0,3.369,3.369H66A3.369,3.369,0,0,0,69.373,66V5.369A3.369,3.369,0,0,0,66,2Zm1.123,64A1.123,1.123,0,0,1,66,67.128H5.369A1.123,1.123,0,0,1,4.246,66V13.229H67.128ZM4.246,10.983V5.369A1.123,1.123,0,0,1,5.369,4.246H66a1.123,1.123,0,0,1,1.123,1.123v5.614Z" transform="translate(458 1749)" fill="#424242"/>
    <path id="패스_131" data-name="패스 131" d="M6.326,6.324a1.16,1.16,0,0,0-.326.8,1.123,1.123,0,0,0,.09.427,1.048,1.048,0,0,0,.236.371A1.127,1.127,0,1,0,7.92,6.324a1.176,1.176,0,0,0-1.595,0Z" transform="translate(458.491 1749.493)" fill="#424242"/>
    <path id="패스_132" data-name="패스 132" d="M10.326,6.326a1.181,1.181,0,0,0-.326.8,1.522,1.522,0,0,0,.022.225.714.714,0,0,0,.067.2.85.85,0,0,0,.1.2,1.77,1.77,0,0,0,.135.168,1.139,1.139,0,0,0,1.595,0l.135-.168a.85.85,0,0,0,.1-.2.714.714,0,0,0,.067-.2,1.521,1.521,0,0,0,.022-.225,1.123,1.123,0,0,0-1.92-.8Z" transform="translate(458.983 1749.491)" fill="#424242"/>
    <path id="패스_133" data-name="패스 133" d="M14.326,6.324a1.127,1.127,0,1,0,1.595,0,1.176,1.176,0,0,0-1.595,0Z" transform="translate(459.474 1749.493)" fill="#424242"/>
    <path id="패스_134" data-name="패스 134" d="M64.39,14H6V29.72H64.39ZM62.144,27.475H8.246V16.246h53.9Z" transform="translate(458.491 1750.474)" fill="#424242"/>
    <path id="패스_135" data-name="패스 135" d="M26.212,30H6V61.441H26.212ZM23.966,59.2H8.246V32.246h15.72Z" transform="translate(458.491 1752.441)" fill="#424242"/>
    <path id="패스_136" data-name="패스 136" d="M26,44.6H61.932V30H26Zm2.246-12.352H59.687V42.352H28.246Z" transform="translate(460.949 1752.441)" fill="#424242"/>
    <path id="패스_137" data-name="패스 137" d="M26,59.6H61.932V45H26Zm2.246-12.352H59.687V57.352H28.246Z" transform="translate(460.949 1754.284)" fill="#424242"/>
  </g>
</svg>
