<svg xmlns="http://www.w3.org/2000/svg" width="67.373" height="67.301" viewBox="0 0 67.373 67.301">
  <g id="web" transform="translate(0)">
    <path id="패스_100" data-name="패스 100" d="M36.654,135.136a.986.986,0,0,0,1.395-1.395l-2.394-2.394,2.394-2.394a.986.986,0,0,0-1.395-1.395l-3.091,3.091a.986.986,0,0,0,0,1.395Zm0,0" transform="translate(-28.895 -110.589)" fill="#424242"/>
    <path id="패스_101" data-name="패스 101" d="M115.614,131.344l-2.394,2.394a.986.986,0,1,0,1.395,1.395l3.092-3.092a.986.986,0,0,0,0-1.394l-3.092-3.092a.986.986,0,1,0-1.394,1.395Zm0,0" transform="translate(-98.07 -110.586)" fill="#424242"/>
    <path id="패스_102" data-name="패스 102" d="M77.043,135.352a.986.986,0,0,0,1.278-.557l2.429-6.183a.986.986,0,1,0-1.835-.721l-2.429,6.183A.986.986,0,0,0,77.043,135.352Zm0,0" transform="translate(-66.361 -110.584)" fill="#424242"/>
    <path id="패스_103" data-name="패스 103" d="M38.5,220.187h6.643a.986.986,0,0,0,0-1.972H38.5a.986.986,0,0,0,0,1.972Zm0,0" transform="translate(-32.579 -189.566)" fill="#424242"/>
    <path id="패스_104" data-name="패스 104" d="M128.176,218.215H116.5a.986.986,0,0,0,0,1.972h11.679a.986.986,0,1,0,0-1.972Zm0,0" transform="translate(-100.312 -189.566)" fill="#424242"/>
    <path id="패스_105" data-name="패스 105" d="M38.5,251.793h2.83a.986.986,0,0,0,0-1.972H38.5a.986.986,0,0,0,0,1.972Zm0,0" transform="translate(-32.579 -217.013)" fill="#424242"/>
    <path id="패스_106" data-name="패스 106" d="M177.834,249.82a.986.986,0,0,0,0,1.972h1.723a.986.986,0,1,0,0-1.972Zm0,0" transform="translate(-153.576 -217.012)" fill="#424242"/>
    <path id="패스_107" data-name="패스 107" d="M95.748,250.807a.986.986,0,0,0-.986-.986H86.3a.986.986,0,0,0,0,1.972h8.464A.986.986,0,0,0,95.748,250.807Zm0,0" transform="translate(-74.086 -217.013)" fill="#424242"/>
    <path id="패스_108" data-name="패스 108" d="M213.7,250.807a.986.986,0,0,0,.986.986h3.228a.986.986,0,1,0,0-1.972h-3.228A.986.986,0,0,0,213.7,250.807Zm0,0" transform="translate(-185.582 -217.013)" fill="#424242"/>
    <path id="패스_109" data-name="패스 109" d="M166.385,151.25h3.4a.986.986,0,1,0,0-1.972h-3.4a.986.986,0,1,0,0,1.972Zm0,0" transform="translate(-143.634 -129.7)" fill="#424242"/>
    <path id="패스_110" data-name="패스 110" d="M221.232,151.25H242a.986.986,0,0,0,0-1.972H221.232a.986.986,0,1,0,0,1.972Zm0,0" transform="translate(-191.264 -129.7)" fill="#424242"/>
    <path id="패스_111" data-name="패스 111" d="M299.584,182.246h-8.415a.986.986,0,0,0,0,1.972h8.415a.986.986,0,0,0,0-1.972Zm0,0" transform="translate(-251.998 -158.33)" fill="#424242"/>
    <path id="패스_112" data-name="패스 112" d="M248.1,182.246h-2.892a.986.986,0,0,0,0,1.972H248.1a.986.986,0,0,0,0-1.972Zm0,0" transform="translate(-212.089 -158.33)" fill="#424242"/>
    <path id="패스_113" data-name="패스 113" d="M166.385,184.218h7.086a.986.986,0,0,0,0-1.972h-7.086a.986.986,0,1,0,0,1.972Zm0,0" transform="translate(-143.634 -158.33)" fill="#424242"/>
    <path id="패스_114" data-name="패스 114" d="M106.875,281.16h-6.642a.986.986,0,1,0,0,1.972h6.642a.986.986,0,1,0,0-1.972Zm0,0" transform="translate(-86.186 -244.228)" fill="#424242"/>
    <path id="패스_115" data-name="패스 115" d="M43.6,281.16H38.5a.986.986,0,1,0,0,1.972h5.1a.986.986,0,1,0,0-1.972Zm0,0" transform="translate(-32.579 -244.228)" fill="#424242"/>
    <path id="패스_116" data-name="패스 116" d="M184.953,281.16h-8.677a.986.986,0,1,0,0,1.972h8.677a.986.986,0,1,0,0-1.972Zm0,0" transform="translate(-152.223 -244.228)" fill="#424242"/>
    <path id="패스_117" data-name="패스 117" d="M300.078,242.668h-4.745a.986.986,0,0,0,0,1.972h4.745a.986.986,0,0,0,0-1.972Zm0,0" transform="translate(-255.614 -210.801)" fill="#424242"/>
    <path id="패스_118" data-name="패스 118" d="M393.963,244.64h6.7a.986.986,0,1,0,0-1.972h-6.7a.986.986,0,0,0,0,1.972Zm0,0" transform="translate(-341.265 -210.801)" fill="#424242"/>
    <path id="패스_119" data-name="패스 119" d="M358.377,242.668h-1.535a.986.986,0,1,0,0,1.972h1.535a.986.986,0,0,0,0-1.972Zm0,0" transform="translate(-309.029 -210.801)" fill="#424242"/>
    <path id="패스_120" data-name="패스 120" d="M295.334,326.3h4.745a.986.986,0,1,0,0-1.972h-4.745a.986.986,0,1,0,0,1.972Zm0,0" transform="translate(-255.615 -281.716)" fill="#424242"/>
    <path id="패스_121" data-name="패스 121" d="M393.963,326.3h6.7a.986.986,0,1,0,0-1.972h-6.7a.986.986,0,1,0,0,1.972Zm0,0" transform="translate(-341.265 -281.716)" fill="#424242"/>
    <path id="패스_122" data-name="패스 122" d="M356.846,326.3h1.535a.986.986,0,1,0,0-1.972h-1.535a.986.986,0,0,0,0,1.972Zm0,0" transform="translate(-309.032 -281.716)" fill="#424242"/>
    <path id="패스_123" data-name="패스 123" d="M300.078,405.988h-4.745a.986.986,0,1,0,0,1.972h4.745a.986.986,0,1,0,0-1.972Zm0,0" transform="translate(-255.614 -352.63)" fill="#424242"/>
    <path id="패스_124" data-name="패스 124" d="M400.661,405.988h-6.7a.986.986,0,1,0,0,1.972h6.7a.986.986,0,1,0,0-1.972Zm0,0" transform="translate(-341.265 -352.63)" fill="#424242"/>
    <path id="패스_125" data-name="패스 125" d="M358.377,405.988h-1.535a.986.986,0,1,0,0,1.972h1.535a.986.986,0,1,0,0-1.972Zm0,0" transform="translate(-309.029 -352.63)" fill="#424242"/>
    <path id="패스_126" data-name="패스 126" d="M63.034.5H4.339A4.345,4.345,0,0,0,0,4.84V52.55a4.345,4.345,0,0,0,4.34,4.339H8.05a.986.986,0,1,0,0-1.972H4.339A2.37,2.37,0,0,1,1.972,52.55V48.809H37.9v1.7h-.782a1.941,1.941,0,0,0-1.939,1.939v2.469H14.045a.986.986,0,1,0,0,1.972h9.481v3.536H20.549a3.606,3.606,0,0,0-3.6,3.6v2.13A1.645,1.645,0,0,0,18.59,67.8H48.708a1.645,1.645,0,0,0,1.643-1.643v-2.13a3.606,3.606,0,0,0-3.6-3.6H43.772V59.179H62a1.941,1.941,0,0,0,1.939-1.939v-.464A4.346,4.346,0,0,0,67.3,52.55l.075-47.71A4.343,4.343,0,0,0,63.034.5ZM37.146,46.461V41.735H61.968v4.726Zm2.721-6.7V37.688h19.38v2.075Zm19.38,8.67v2.075H39.867V48.433ZM25.5,56.889h9.676v.351a1.941,1.941,0,0,0,1.939,1.939H41.8v1.246H25.5ZM46.75,62.4a1.631,1.631,0,0,1,1.629,1.629v1.8H18.919v-1.8a1.632,1.632,0,0,1,1.63-1.629Zm15.218-5.191H37.146V52.481H61.968Zm3.359-4.657A2.368,2.368,0,0,1,63.94,54.7V52.447A1.941,1.941,0,0,0,62,50.508h-.782v-1.7h4.108Zm0-5.712H63.908c.02-.112.032-5.135.032-5.135A1.942,1.942,0,0,0,62,39.763h-.782V37.688H62a1.942,1.942,0,0,0,1.939-1.939V30.957A1.942,1.942,0,0,0,62,29.017H56.431a.986.986,0,0,0,0,1.972h5.537v4.726H37.146V30.989H50.3a.986.986,0,0,0,0-1.972H37.113a1.942,1.942,0,0,0-1.939,1.939v4.792a1.942,1.942,0,0,0,1.939,1.939H37.9v2.075h-.782A1.942,1.942,0,0,0,35.174,41.7s.012,5.024.032,5.135H1.972V13.913H65.326Zm0-34.9H2.044v-7.1A2.37,2.37,0,0,1,4.412,2.472H62.959A2.37,2.37,0,0,1,65.326,4.84Zm0,0" transform="translate(0 -0.5)" fill="#424242"/>
    <path id="패스_127" data-name="패스 127" d="M36.167,29.262a2.894,2.894,0,1,0,2.894,2.893A2.9,2.9,0,0,0,36.167,29.262Zm0,3.815a.922.922,0,1,1,.922-.922A.923.923,0,0,1,36.167,33.077Zm0,0" transform="translate(-28.895 -25.477)" fill="#424242"/>
    <path id="패스_128" data-name="패스 128" d="M92.152,29.262a2.894,2.894,0,1,0,2.893,2.893A2.9,2.9,0,0,0,92.152,29.262Zm0,3.815a.922.922,0,1,1,.922-.922A.922.922,0,0,1,92.152,33.077Zm0,0" transform="translate(-77.512 -25.477)" fill="#424242"/>
    <path id="패스_129" data-name="패스 129" d="M148.139,29.262a2.894,2.894,0,1,0,2.894,2.893A2.9,2.9,0,0,0,148.139,29.262Zm0,3.815a.922.922,0,1,1,.922-.922A.923.923,0,0,1,148.139,33.077Zm0,0" transform="translate(-126.133 -25.477)" fill="#424242"/>
  </g>
</svg>
